<svg width="118" height="64" viewBox="0 0 118 64" fill="none" xmlns="http://www.w3.org/2000/svg"><g filter="url(#filter0_d_2269_128925)"><g clip-path="url(#clip0_2269_128925)"><rect x="12" y="8" width="94" height="40" rx="6" fill="white"/><g opacity="0.7"><path d="M57.1019 20.5703C57.3102 20.165 57.8896 20.165 58.0979 20.5703L60.31 24.8727C60.3932 25.0346 60.5499 25.1459 60.7302 25.1712L65.639 25.8601C66.1052 25.9255 66.2876 26.5021 65.9437 26.8237L62.4222 30.1167C62.2836 30.2463 62.2201 30.4374 62.2534 30.6242L63.0883 35.2979C63.1695 35.7524 62.6968 36.1043 62.2847 35.8962L57.8523 33.6583C57.6936 33.5782 57.5062 33.5782 57.3475 33.6583L52.9151 35.8962C52.503 36.1043 52.0303 35.7524 52.1115 35.2979L52.9464 30.6242C52.9798 30.4374 52.9162 30.2463 52.7776 30.1167L49.2561 26.8237C48.9123 26.5021 49.0946 25.9255 49.5608 25.8601L54.4696 25.1712C54.6499 25.1459 54.8066 25.0346 54.8898 24.8727L57.1019 20.5703Z" fill="#272727" fill-opacity="0.5"/></g><g opacity="0.7"><path d="M79.3019 20.5703C79.5102 20.165 80.0896 20.165 80.2979 20.5703L82.51 24.8727C82.5932 25.0346 82.7499 25.1459 82.9302 25.1712L87.839 25.8601C88.3053 25.9255 88.4876 26.5021 88.1437 26.8237L84.6222 30.1167C84.4836 30.2463 84.4201 30.4374 84.4534 30.6242L85.2884 35.2979C85.3695 35.7524 84.8968 36.1043 84.4847 35.8962L80.0523 33.6583C79.8936 33.5782 79.7062 33.5782 79.5475 33.6583L75.1152 35.8962C74.703 36.1043 74.2303 35.7524 74.3115 35.2979L75.1464 30.6242C75.1798 30.4374 75.1162 30.2463 74.9776 30.1167L71.4561 26.8237C71.1123 26.5021 71.2946 25.9255 71.7608 25.8601L76.6696 25.1712C76.8499 25.1459 77.0066 25.0346 77.0898 24.8727L79.3019 20.5703Z" fill="#272727" fill-opacity="0.5"/></g><g opacity="0.7"><path d="M101.502 20.5703C101.71 20.165 102.29 20.165 102.498 20.5703L104.71 24.8727C104.793 25.0346 104.95 25.1459 105.13 25.1712L110.039 25.8601C110.505 25.9255 110.688 26.5021 110.344 26.8237L106.822 30.1167C106.684 30.2463 106.62 30.4374 106.653 30.6242L107.488 35.2979C107.57 35.7524 107.097 36.1043 106.685 35.8962L102.252 33.6583C102.094 33.5782 101.906 33.5782 101.748 33.6583L97.3152 35.8962C96.903 36.1043 96.4303 35.7524 96.5115 35.2979L97.3464 30.6242C97.3798 30.4374 97.3162 30.2463 97.1776 30.1167L93.6562 26.8237C93.3123 26.5021 93.4946 25.9255 93.9608 25.8601L98.8697 25.1712C99.0499 25.1459 99.2066 25.0346 99.2899 24.8727L101.502 20.5703Z" fill="#272727" fill-opacity="0.5"/></g><path d="M32.3104 38.7336C30.9318 38.7336 29.6978 38.4751 28.6087 37.9581C27.5195 37.4342 26.6544 36.7173 26.0133 35.8073C25.5711 35.1728 25.2729 34.4745 25.119 33.7126C25.0069 33.1577 25.4698 32.6846 26.0359 32.6846H27.7986C28.3203 32.6846 28.7335 33.0972 28.9245 33.5826C29.1109 34.0563 29.4192 34.467 29.8495 34.8147C30.5319 35.3593 31.3523 35.6315 32.3104 35.6315C33.0618 35.6315 33.7305 35.4592 34.3164 35.1145C34.9023 34.7699 35.3642 34.2908 35.702 33.6773C36.0398 33.0638 36.2052 32.3641 36.1983 31.5782C36.2052 30.7786 36.0363 30.0686 35.6916 29.4482C35.347 28.8278 34.8748 28.3418 34.275 27.9902C33.6753 27.6318 32.986 27.4526 32.207 27.4526C31.5728 27.4457 30.949 27.5628 30.3355 27.8041C29.9256 27.9653 29.5727 28.1603 29.2766 28.3892C29.009 28.5961 28.6761 28.7223 28.3423 28.6675L26.3413 28.339C25.8199 28.2534 25.4551 27.777 25.5084 27.2514L26.4289 18.1668C26.4806 17.6561 26.9105 17.2676 27.4238 17.2676H37.804C38.3563 17.2676 38.804 17.7153 38.804 18.2676V19.473C38.804 20.0253 38.3563 20.473 37.804 20.473H30.5916C30.0811 20.473 29.6526 20.8575 29.5975 21.365L29.0938 26.0005C29.0887 26.047 29.1252 26.0877 29.172 26.0877C29.1951 26.0877 29.217 26.0775 29.2321 26.0601C29.6235 25.6106 30.1705 25.2372 30.8732 24.9399C31.5901 24.6297 32.3759 24.4746 33.2307 24.4746C34.5129 24.4746 35.6572 24.7779 36.6636 25.3845C37.67 25.9843 38.4628 26.8115 39.0418 27.8662C39.6209 28.9208 39.9104 30.1272 39.9104 31.4852C39.9104 32.8845 39.5864 34.1322 38.9384 35.2283C38.2973 36.3174 37.4046 37.1757 36.2603 37.803C35.1229 38.4234 33.8063 38.7336 32.3104 38.7336Z" fill="#272727" fill-opacity="0.5"/></g></g><defs><filter id="filter0_d_2269_128925" x="0" y="0" width="118" height="64" filterUnits="userSpaceOnUse" color-interpolation-filters="sRGB"><feFlood flood-opacity="0" result="BackgroundImageFix"/><feColorMatrix in="SourceAlpha" type="matrix" values="0 0 0 0 0 0 0 0 0 0 0 0 0 0 0 0 0 0 127 0" result="hardAlpha"/><feOffset dy="4"/><feGaussianBlur stdDeviation="6"/><feComposite in2="hardAlpha" operator="out"/><feColorMatrix type="matrix" values="0 0 0 0 0.0590918 0 0 0 0 0.105306 0 0 0 0 0.213141 0 0 0 0.06 0"/><feBlend mode="normal" in2="BackgroundImageFix" result="effect1_dropShadow_2269_128925"/><feBlend mode="normal" in="SourceGraphic" in2="effect1_dropShadow_2269_128925" result="shape"/></filter><clipPath id="clip0_2269_128925"><rect x="12" y="8" width="94" height="40" rx="6" fill="white"/></clipPath></defs></svg>