<svg width="194" height="162" viewBox="0 0 194 162" fill="none" xmlns="http://www.w3.org/2000/svg"><g filter="url(#filter0_d_1836_10429)"><path d="M12 16C12 11.5817 15.5817 8 20 8H174C178.418 8 182 11.5817 182 16V138C182 142.418 178.418 146 174 146H20C15.5817 146 12 142.418 12 138V16Z" fill="white"/><g filter="url(#filter1_d_1836_10429)"><rect x="21.6543" y="23" width="150.488" height="35.9375" rx="17.9688" fill="white"/><rect x="21.2051" y="22.5508" width="151.387" height="36.8359" rx="18.418" stroke="#AB7DFF" stroke-width="0.898437"/><path d="M69.3777 39.2912C68.9452 39.2912 68.5648 39.2253 68.2367 39.0935C67.9086 38.9593 67.6525 38.7741 67.4686 38.5379C67.2846 38.2993 67.1926 38.0246 67.1926 37.7139V37.7064C67.1926 37.4727 67.2461 37.2614 67.353 37.0725C67.4623 36.8836 67.6115 36.727 67.8004 36.6027C67.9894 36.4759 68.2056 36.3889 68.4493 36.3416V36.3193C68.1335 36.2422 67.8775 36.098 67.6811 35.8867C67.4872 35.6729 67.3903 35.4194 67.3903 35.126V35.1186C67.3903 34.8401 67.4748 34.5928 67.6438 34.3765C67.8129 34.1578 68.0465 33.9862 68.3448 33.8619C68.6432 33.7352 68.9875 33.6718 69.3777 33.6718C69.768 33.6718 70.1123 33.7352 70.4106 33.8619C70.7089 33.9862 70.9426 34.1578 71.1117 34.3765C71.2807 34.5928 71.3652 34.8401 71.3652 35.1186V35.126C71.3652 35.4194 71.267 35.6729 71.0706 35.8867C70.8743 36.098 70.6195 36.2422 70.3062 36.3193V36.3416C70.5498 36.3889 70.7661 36.4759 70.9551 36.6027C71.144 36.727 71.2919 36.8836 71.3988 37.0725C71.5082 37.2614 71.5629 37.4727 71.5629 37.7064V37.7139C71.5629 38.0246 71.4709 38.2993 71.2869 38.5379C71.103 38.7741 70.8457 38.9593 70.515 39.0935C70.1869 39.2253 69.8078 39.2912 69.3777 39.2912ZM69.3777 38.4708C69.5741 38.4708 69.7481 38.436 69.8998 38.3664C70.0514 38.2943 70.1695 38.1961 70.254 38.0718C70.341 37.945 70.3845 37.8009 70.3845 37.6393V37.6318C70.3845 37.4702 70.3423 37.3273 70.2578 37.203C70.1732 37.0762 70.0552 36.9768 69.9035 36.9047C69.7519 36.8326 69.5766 36.7966 69.3777 36.7966C69.1789 36.7966 69.0036 36.8326 68.852 36.9047C68.7003 36.9768 68.581 37.0762 68.494 37.203C68.4095 37.3273 68.3672 37.4702 68.3672 37.6318V37.6393C68.3672 37.8009 68.4107 37.945 68.4977 38.0718C68.5847 38.1961 68.7041 38.2943 68.8557 38.3664C69.0073 38.436 69.1814 38.4708 69.3777 38.4708ZM69.3777 35.9799C69.5493 35.9799 69.7009 35.9489 69.8327 35.8867C69.9644 35.8221 70.0663 35.7338 70.1384 35.622C70.213 35.5101 70.2503 35.3808 70.2503 35.2342V35.2267C70.2503 35.08 70.213 34.9508 70.1384 34.8389C70.0639 34.727 69.9607 34.64 69.8289 34.5779C69.6997 34.5157 69.5493 34.4847 69.3777 34.4847C69.2062 34.4847 69.0546 34.5157 68.9228 34.5779C68.7911 34.64 68.6879 34.727 68.6133 34.8389C68.5387 34.9508 68.5015 35.08 68.5015 35.2267V35.2342C68.5015 35.3808 68.5387 35.5101 68.6133 35.622C68.6879 35.7338 68.7911 35.8221 68.9228 35.8867C69.0546 35.9489 69.2062 35.9799 69.3777 35.9799Z" fill="#272727"/><path d="M64.2395 39.3098C63.8567 39.3098 63.5211 39.2402 63.2328 39.101C62.9444 38.9618 62.7157 38.7729 62.5466 38.5342C62.3801 38.2931 62.2856 38.0234 62.2633 37.725L62.2595 37.6728H63.2812L63.2887 37.6989C63.316 37.8307 63.372 37.9513 63.4565 38.0606C63.5435 38.1675 63.6541 38.2533 63.7884 38.3179C63.9226 38.3801 64.0742 38.4112 64.2433 38.4112C64.4372 38.4112 64.6075 38.3689 64.7541 38.2844C64.9008 38.1999 65.0152 38.0843 65.0972 37.9376C65.1817 37.7884 65.224 37.6182 65.224 37.4267V37.4193C65.224 37.2279 65.1817 37.0588 65.0972 36.9122C65.0152 36.7655 64.9008 36.6511 64.7541 36.5691C64.6075 36.4871 64.4384 36.446 64.247 36.446C64.1128 36.446 63.9885 36.4659 63.8741 36.5057C63.7598 36.543 63.6566 36.6002 63.5646 36.6772C63.5149 36.717 63.4677 36.763 63.4229 36.8152C63.3807 36.8649 63.3446 36.9184 63.3148 36.9755H62.349L62.5988 33.7911H65.9623V34.686H63.4751L63.3409 36.2186H63.408C63.4801 36.0968 63.5721 35.9924 63.6839 35.9054C63.7983 35.8184 63.9288 35.7512 64.0755 35.704C64.2246 35.6568 64.385 35.6332 64.5565 35.6332C64.8921 35.6332 65.1892 35.709 65.4477 35.8606C65.7087 36.0123 65.9126 36.2211 66.0592 36.4871C66.2084 36.7506 66.283 37.0539 66.283 37.3969V37.4044C66.283 37.7822 66.196 38.1141 66.0219 38.4C65.8504 38.6859 65.6105 38.9096 65.3023 39.0712C64.9965 39.2303 64.6423 39.3098 64.2395 39.3098Z" fill="#272727"/><path d="M59.0938 39.0935C58.7109 39.0935 58.3679 39.0351 58.0646 38.9183C57.7638 38.799 57.5239 38.6262 57.3449 38.4C57.1684 38.1737 57.074 37.8978 57.0615 37.5722L57.0653 37.5684H58.0609V37.5722C58.0857 37.7139 58.1392 37.8369 58.2212 37.9413C58.3057 38.0432 58.4213 38.1215 58.568 38.1762C58.7147 38.2309 58.8949 38.2583 59.1087 38.2583C59.3324 38.2583 59.5176 38.2346 59.6643 38.1874C59.8109 38.1377 59.9203 38.0668 59.9924 37.9749C60.067 37.8829 60.1043 37.7748 60.1043 37.6505V37.643C60.1043 37.469 60.0384 37.3335 59.9066 37.2366C59.7774 37.1371 59.5437 37.0501 59.2056 36.9755L58.65 36.8488C58.3269 36.7767 58.0534 36.6772 57.8297 36.5504C57.6059 36.4237 57.4357 36.2658 57.3188 36.0769C57.202 35.8855 57.1436 35.6568 57.1436 35.3908V35.3833C57.1436 35.0676 57.2281 34.7966 57.3971 34.5704C57.5662 34.3442 57.7974 34.1714 58.0907 34.0521C58.384 33.9303 58.7171 33.8694 59.09 33.8694C59.4803 33.8694 59.8209 33.9328 60.1117 34.0596C60.4051 34.1863 60.635 34.3666 60.8016 34.6002C60.9706 34.8314 61.0614 35.1049 61.0738 35.4206L61.0701 35.4243L60.0819 35.4281L60.0782 35.4206C60.0608 35.264 60.0086 35.1335 59.9216 35.0291C59.8346 34.9222 59.7214 34.8414 59.5822 34.7867C59.443 34.732 59.2839 34.7047 59.1049 34.7047C58.9036 34.7047 58.7345 34.7308 58.5978 34.783C58.4611 34.8352 58.3579 34.906 58.2883 34.9955C58.2187 35.085 58.1839 35.1869 58.1839 35.3013V35.3087C58.1839 35.4107 58.2137 35.5014 58.2734 35.5809C58.3331 35.6605 58.425 35.7301 58.5493 35.7898C58.6736 35.8494 58.8365 35.9029 59.0378 35.9501L59.5934 36.0731C60.103 36.1875 60.4884 36.3565 60.7494 36.5803C61.0129 36.804 61.1446 37.121 61.1446 37.5311V37.5386C61.1446 37.8692 61.0551 38.1514 60.8762 38.385C60.6997 38.6162 60.456 38.7927 60.1453 38.9145C59.837 39.0339 59.4865 39.0935 59.0938 39.0935ZM58.8999 39.7013V33.2504H59.3287V39.7013H58.8999Z" fill="#272727"/><path d="M51.0243 40.6187C50.9621 40.6187 50.8975 40.6174 50.8304 40.6149C50.7633 40.6125 50.6974 40.61 50.6327 40.6075V39.7871C50.67 39.7921 50.7135 39.7946 50.7633 39.7946C50.8155 39.7971 50.8664 39.7983 50.9161 39.7983C51.11 39.7983 51.2642 39.7598 51.3785 39.6827C51.4929 39.6057 51.5687 39.4876 51.606 39.3285L51.6433 39.1719L50.2002 35.0664H51.3972L52.3779 38.6088L52.128 38.1763H52.4524L52.2138 38.6088L53.1945 35.0664H54.343L52.9446 39.1681C52.8253 39.5286 52.6799 39.8145 52.5084 40.0258C52.3393 40.2396 52.1342 40.3912 51.8931 40.4807C51.652 40.5727 51.3624 40.6187 51.0243 40.6187Z" fill="#272727"/><path d="M48.3208 39.1718V33.4965H49.4096V39.1718H48.3208Z" fill="#272727"/><path d="M44.9575 39.1719V35.0664H46.0463V35.704H46.1135C46.1806 35.4803 46.3036 35.3075 46.4826 35.1857C46.6616 35.0614 46.8841 34.9993 47.1501 34.9993C47.2247 34.9993 47.2968 35.0043 47.3664 35.0142C47.4385 35.0241 47.5018 35.0366 47.5565 35.0515V36.0023C47.4745 35.9825 47.3912 35.9675 47.3067 35.9576C47.2247 35.9452 47.1414 35.939 47.0569 35.939C46.8505 35.939 46.6716 35.9775 46.5199 36.0546C46.3683 36.1291 46.2514 36.236 46.1694 36.3752C46.0874 36.5144 46.0463 36.681 46.0463 36.8749V39.1719H44.9575Z" fill="#272727"/><path d="M41.5716 39.2353C41.313 39.2353 41.0818 39.1855 40.878 39.0861C40.6766 38.9842 40.5188 38.8412 40.4044 38.6573C40.2901 38.4708 40.2329 38.2533 40.2329 38.0047V37.9973C40.2329 37.7512 40.2938 37.5399 40.4156 37.3634C40.5399 37.1869 40.7201 37.0489 40.9563 36.9495C41.195 36.8475 41.4846 36.7866 41.8251 36.7668L43.354 36.6735V37.3373L41.9892 37.4268C41.7555 37.4392 41.5815 37.4889 41.4672 37.5759C41.3528 37.6629 41.2956 37.781 41.2956 37.9302V37.9376C41.2956 38.0942 41.3553 38.2173 41.4746 38.3068C41.5939 38.3963 41.7481 38.441 41.937 38.441C42.106 38.441 42.2564 38.4075 42.3882 38.3403C42.5199 38.2732 42.6244 38.1825 42.7014 38.0681C42.7785 37.9513 42.817 37.8208 42.817 37.6766V36.3678C42.817 36.1888 42.7574 36.0521 42.638 35.9576C42.5212 35.8606 42.3509 35.8122 42.1272 35.8122C41.9308 35.8122 41.7704 35.8457 41.6462 35.9128C41.5243 35.9775 41.4423 36.0707 41.4 36.1925L41.3926 36.2074H40.3858L40.3895 36.1739C40.4194 35.9327 40.5101 35.7227 40.6617 35.5437C40.8159 35.3647 41.0222 35.2255 41.2807 35.1261C41.5417 35.0266 41.8438 34.9769 42.1868 34.9769C42.5498 34.9769 42.858 35.0328 43.1116 35.1447C43.3652 35.2541 43.5578 35.4132 43.6896 35.622C43.8238 35.8283 43.8909 36.0769 43.8909 36.3678V39.1719H42.817V38.6275H42.7499C42.6803 38.7542 42.5871 38.8636 42.4702 38.9556C42.3559 39.0451 42.2216 39.1147 42.0675 39.1644C41.9159 39.2116 41.7506 39.2353 41.5716 39.2353Z" fill="#272727"/><path d="M37.6638 39.2576C37.2487 39.2576 36.8907 39.1719 36.5899 39.0003C36.2916 38.8263 36.0617 38.5802 35.9001 38.262C35.7385 37.9438 35.6577 37.5647 35.6577 37.1247V37.121C35.6577 36.686 35.7373 36.3081 35.8964 35.9874C36.0579 35.6667 36.2854 35.4181 36.5787 35.2416C36.8746 35.0651 37.2214 34.9769 37.6191 34.9769C38.0193 34.9769 38.3649 35.0627 38.6557 35.2342C38.9466 35.4057 39.1703 35.6456 39.3269 35.9539C39.4835 36.2621 39.5618 36.6238 39.5618 37.039V37.3783H36.2021V36.6959H39.0398L38.5289 37.341V36.9047C38.5289 36.6586 38.4904 36.4535 38.4133 36.2895C38.3388 36.1254 38.2344 36.0023 38.1001 35.9203C37.9684 35.8358 37.8142 35.7935 37.6377 35.7935C37.4637 35.7935 37.3084 35.837 37.1716 35.924C37.0374 36.0086 36.9305 36.1341 36.851 36.3006C36.7739 36.4647 36.7354 36.6661 36.7354 36.9047V37.3447C36.7354 37.5759 36.7739 37.7735 36.851 37.9376C36.928 38.1017 37.0374 38.2272 37.1791 38.3142C37.3208 38.4012 37.4898 38.4447 37.6862 38.4447C37.8453 38.4447 37.9808 38.4211 38.0927 38.3739C38.2045 38.3267 38.294 38.272 38.3611 38.2098C38.4307 38.1452 38.478 38.0868 38.5028 38.0346L38.514 38.0122H39.5283L39.5208 38.0495C39.4885 38.1788 39.4301 38.3142 39.3456 38.4559C39.261 38.5951 39.1442 38.7257 38.9951 38.8475C38.8484 38.9693 38.6644 39.0687 38.4432 39.1458C38.2244 39.2203 37.9646 39.2576 37.6638 39.2576Z" fill="#272727"/><path d="M32.7789 39.1718V37.162L30.907 33.7911H32.1263L33.3121 36.0545H33.3792L34.5613 33.7911H35.7806L33.905 37.162V39.1718H32.7789Z" fill="#272727"/><path d="M64.7355 48.6607C64.4565 48.6607 64.2169 48.6011 64.0169 48.4818C63.8168 48.3607 63.6624 48.1896 63.5536 47.9685C63.4466 47.7474 63.3931 47.4859 63.3931 47.1841V47.1815C63.3931 46.8832 63.4466 46.6226 63.5536 46.3997C63.6624 46.1769 63.8151 46.0032 64.0116 45.8786C64.2099 45.754 64.4415 45.6917 64.7065 45.6917C64.9732 45.6917 65.2022 45.7513 65.3935 45.8707C65.5865 45.99 65.7348 46.1576 65.8383 46.3734C65.9419 46.5875 65.9936 46.8384 65.9936 47.1262V47.3262H63.6826V46.9183H65.7094L65.4356 47.2973V47.0683C65.4356 46.8647 65.404 46.6963 65.3409 46.5629C65.2794 46.4278 65.1943 46.3269 65.0855 46.2602C64.9767 46.1935 64.8513 46.1602 64.7091 46.1602C64.567 46.1602 64.4398 46.1953 64.3275 46.2655C64.2169 46.3339 64.1292 46.4357 64.0643 46.5708C64.0011 46.7059 63.9695 46.8718 63.9695 47.0683V47.2973C63.9695 47.485 64.0011 47.6456 64.0643 47.779C64.1274 47.9123 64.2169 48.0141 64.3327 48.0843C64.4503 48.1545 64.5889 48.1896 64.7486 48.1896C64.8715 48.1896 64.9767 48.1729 65.0645 48.1396C65.154 48.1045 65.2268 48.0615 65.2829 48.0106C65.3409 47.9597 65.3803 47.9097 65.4014 47.8606L65.4119 47.8395H65.9647L65.9594 47.8632C65.9348 47.958 65.8918 48.0527 65.8304 48.1475C65.769 48.2405 65.6874 48.3256 65.5856 48.4028C65.4856 48.48 65.3645 48.5423 65.2224 48.5897C65.082 48.637 64.9197 48.6607 64.7355 48.6607Z" fill="#272727" fill-opacity="0.7"/><path d="M61.6639 48.6607C61.3866 48.6607 61.1471 48.6011 60.9453 48.4818C60.7453 48.3607 60.5908 48.1887 60.482 47.9659C60.3732 47.743 60.3188 47.4771 60.3188 47.1683V47.163C60.3188 46.8595 60.3724 46.598 60.4794 46.3787C60.5882 46.1593 60.7426 45.99 60.9427 45.8707C61.1445 45.7513 61.384 45.6917 61.6612 45.6917C61.9016 45.6917 62.1078 45.7338 62.2798 45.818C62.4535 45.9005 62.5913 46.0146 62.693 46.1602C62.7966 46.3041 62.8615 46.4682 62.8878 46.6524L62.8904 46.6656H62.3403L62.3377 46.6603C62.3061 46.5199 62.2333 46.4032 62.1192 46.3102C62.0052 46.2155 61.8534 46.1681 61.6639 46.1681C61.5059 46.1681 61.3699 46.2085 61.2559 46.2892C61.1418 46.3681 61.0541 46.4822 60.9927 46.6314C60.933 46.7805 60.9032 46.9577 60.9032 47.163V47.1683C60.9032 47.3789 60.9339 47.5596 60.9953 47.7105C61.0567 47.8614 61.1445 47.9781 61.2585 48.0606C61.3726 48.1413 61.5077 48.1817 61.6639 48.1817C61.8429 48.1817 61.9876 48.1422 62.0982 48.0632C62.2105 47.9843 62.2894 47.8676 62.3351 47.7132L62.3403 47.7L62.8878 47.6974L62.8826 47.7211C62.8492 47.9071 62.7817 48.0703 62.6799 48.2106C62.5781 48.351 62.4421 48.4616 62.2719 48.5423C62.1034 48.6213 61.9008 48.6607 61.6639 48.6607Z" fill="#272727" fill-opacity="0.7"/><path d="M59.0579 48.6054V45.7469H59.6317V48.6054H59.0579ZM59.3475 45.2363C59.2492 45.2363 59.165 45.2012 59.0948 45.131C59.0246 45.0608 58.9895 44.9766 58.9895 44.8783C58.9895 44.78 59.0246 44.6967 59.0948 44.6283C59.165 44.5581 59.2492 44.523 59.3475 44.523C59.4457 44.523 59.53 44.5581 59.6002 44.6283C59.6703 44.6967 59.7054 44.78 59.7054 44.8783C59.7054 44.9766 59.6703 45.0608 59.6002 45.131C59.53 45.2012 59.4457 45.2363 59.3475 45.2363Z" fill="#272727" fill-opacity="0.7"/><path d="M56.8862 48.6055V45.747H57.4574V46.1786H57.5022C57.553 46.026 57.6425 45.9075 57.7706 45.8233C57.9005 45.7391 58.0602 45.6969 58.2497 45.6969C58.2971 45.6969 58.3436 45.6996 58.3892 45.7048C58.4348 45.7101 58.4717 45.7162 58.4997 45.7233V46.2497C58.4488 46.2392 58.398 46.2313 58.3471 46.226C58.2979 46.2207 58.2462 46.2181 58.1918 46.2181C58.0461 46.2181 57.918 46.2462 57.8075 46.3023C57.6987 46.3585 57.6127 46.4375 57.5495 46.5392C57.4881 46.6393 57.4574 46.7586 57.4574 46.8972V48.6055H56.8862Z" fill="#272727" fill-opacity="0.7"/><path d="M53.5225 49.5583V45.747H54.0936V46.1971H54.1384C54.1928 46.0918 54.263 46.0023 54.349 45.9286C54.4367 45.8549 54.5367 45.7978 54.649 45.7575C54.7613 45.7171 54.8842 45.6969 55.0175 45.6969C55.2579 45.6969 55.4667 45.7584 55.644 45.8812C55.8212 46.0023 55.9581 46.1734 56.0546 46.3945C56.1528 46.6138 56.202 46.8735 56.202 47.1736V47.1788C56.202 47.4807 56.1537 47.7421 56.0572 47.9632C55.9607 48.1826 55.8238 48.3528 55.6466 48.4739C55.4694 48.5932 55.2597 48.6528 55.0175 48.6528C54.8859 48.6528 54.7631 48.6327 54.649 48.5923C54.535 48.5502 54.4341 48.4923 54.3463 48.4186C54.2586 48.3449 54.1893 48.2563 54.1384 48.1527H54.0936V49.5583H53.5225ZM54.8543 48.1633C55.014 48.1633 55.1509 48.1238 55.2649 48.0448C55.379 47.9659 55.4659 47.8527 55.5255 47.7053C55.5869 47.5579 55.6176 47.3824 55.6176 47.1788V47.1736C55.6176 46.9683 55.5869 46.7919 55.5255 46.6445C55.4659 46.4971 55.379 46.3839 55.2649 46.305C55.1509 46.226 55.014 46.1865 54.8543 46.1865C54.6964 46.1865 54.5595 46.2269 54.4437 46.3076C54.3279 46.3866 54.2393 46.4997 54.1779 46.6471C54.1164 46.7928 54.0857 46.9683 54.0857 47.1736V47.1788C54.0857 47.3806 54.1164 47.5552 54.1779 47.7026C54.2393 47.85 54.3279 47.9641 54.4437 48.0448C54.5595 48.1238 54.6964 48.1633 54.8543 48.1633Z" fill="#272727" fill-opacity="0.7"/><path d="M51.0747 48.6239C50.7624 48.6239 50.536 48.5642 50.3956 48.4449C50.257 48.3238 50.1877 48.1264 50.1877 47.8526V46.197H49.7402V45.7469H50.1877V45.0257H50.772V45.7469H51.3853V46.197H50.772V47.7131C50.772 47.8676 50.8027 47.979 50.8642 48.0474C50.9256 48.1141 51.0274 48.1474 51.1695 48.1474C51.2116 48.1474 51.2476 48.1466 51.2774 48.1448C51.309 48.1431 51.345 48.1404 51.3853 48.1369V48.5949C51.3397 48.6019 51.2906 48.6081 51.2379 48.6133C51.1853 48.6204 51.1309 48.6239 51.0747 48.6239Z" fill="#272727" fill-opacity="0.7"/><path d="M48.1503 48.6607C47.9205 48.6607 47.7204 48.6274 47.5502 48.5607C47.38 48.4923 47.2449 48.3984 47.1449 48.2791C47.0448 48.158 46.9861 48.0176 46.9685 47.8579V47.8527H47.5423V47.8579C47.5792 47.965 47.6494 48.0518 47.7529 48.1185C47.8564 48.1852 47.9933 48.2185 48.1635 48.2185C48.2811 48.2185 48.3837 48.2019 48.4715 48.1685C48.561 48.1352 48.6311 48.0887 48.682 48.029C48.7329 47.9694 48.7584 47.9009 48.7584 47.8237V47.8185C48.7584 47.729 48.7224 47.6535 48.6504 47.5921C48.5785 47.5307 48.4601 47.4807 48.2951 47.4421L47.8371 47.3368C47.6581 47.2964 47.5098 47.2411 47.3923 47.1709C47.2747 47.1008 47.1879 47.0148 47.1317 46.913C47.0755 46.8095 47.0475 46.6884 47.0475 46.5498V46.5471C47.0475 46.3804 47.0948 46.233 47.1896 46.1049C47.2844 45.9751 47.4151 45.8742 47.5818 45.8022C47.7503 45.7285 47.9424 45.6917 48.1582 45.6917C48.3758 45.6917 48.5653 45.7259 48.7268 45.7943C48.89 45.861 49.0189 45.954 49.1137 46.0733C49.2085 46.1909 49.2646 46.3278 49.2822 46.484V46.4866H48.7347V46.4813C48.7084 46.3813 48.6452 46.298 48.5452 46.2313C48.4469 46.1646 48.317 46.1312 48.1556 46.1312C48.0521 46.1312 47.9599 46.1479 47.8792 46.1813C47.7985 46.2128 47.7345 46.2576 47.6871 46.3155C47.6415 46.3717 47.6186 46.4383 47.6186 46.5155V46.5208C47.6186 46.5805 47.6336 46.6331 47.6634 46.6787C47.695 46.7226 47.7441 46.7621 47.8108 46.7972C47.8775 46.8305 47.9635 46.8604 48.0687 46.8867L48.5241 46.9893C48.7978 47.0543 49.0014 47.1481 49.1348 47.271C49.2699 47.3938 49.3374 47.5587 49.3374 47.7658V47.7711C49.3374 47.9465 49.2857 48.1018 49.1821 48.237C49.0786 48.3703 48.9373 48.4747 48.7584 48.5502C48.5811 48.6239 48.3785 48.6607 48.1503 48.6607Z" fill="#272727" fill-opacity="0.7"/><path d="M44.847 48.6528C44.6662 48.6528 44.5039 48.6186 44.36 48.5502C44.2179 48.48 44.1056 48.3809 44.0231 48.2528C43.9407 48.1247 43.8994 47.9746 43.8994 47.8027V47.7974C43.8994 47.6254 43.9407 47.4789 44.0231 47.3578C44.1074 47.2367 44.2284 47.142 44.3864 47.0736C44.546 47.0034 44.7391 46.9613 44.9654 46.9472L46.0209 46.884V47.2868L45.0444 47.3499C44.8479 47.3622 44.7031 47.4043 44.6101 47.4763C44.5171 47.5465 44.4706 47.6456 44.4706 47.7737V47.779C44.4706 47.9088 44.5206 48.0115 44.6206 48.0869C44.7206 48.1606 44.847 48.1975 44.9996 48.1975C45.1418 48.1975 45.2681 48.1694 45.3787 48.1133C45.491 48.0553 45.5787 47.9781 45.6419 47.8816C45.7051 47.7834 45.7366 47.6728 45.7366 47.55V46.6498C45.7366 46.4919 45.6875 46.3717 45.5892 46.2892C45.4927 46.2049 45.3488 46.1628 45.1576 46.1628C44.9979 46.1628 44.8672 46.1909 44.7654 46.2471C44.6654 46.3032 44.5987 46.3822 44.5653 46.484L44.5601 46.4919H44.01L44.0126 46.4734C44.0354 46.3155 44.0977 46.1786 44.1995 46.0628C44.303 45.9452 44.4381 45.854 44.6048 45.7891C44.7733 45.7241 44.9654 45.6917 45.1813 45.6917C45.4217 45.6917 45.6252 45.7303 45.7919 45.8075C45.9604 45.8829 46.0876 45.9926 46.1736 46.1365C46.2613 46.2786 46.3052 46.4497 46.3052 46.6498V48.6055H45.7366V48.2001H45.6945C45.6384 48.2966 45.5682 48.3791 45.484 48.4475C45.3997 48.5142 45.3041 48.5651 45.1971 48.6002C45.09 48.6353 44.9733 48.6528 44.847 48.6528Z" fill="#272727" fill-opacity="0.7"/><path d="M42.6411 48.6054V44.6256H43.2123V48.6054H42.6411Z" fill="#272727" fill-opacity="0.7"/><path d="M38.9588 48.6765C38.6763 48.6765 38.4271 48.63 38.2113 48.537C37.9955 48.444 37.8261 48.315 37.7033 48.1501C37.5805 47.9834 37.519 47.793 37.519 47.5789V47.5736C37.519 47.414 37.5541 47.2674 37.6243 47.1341C37.6963 47.0007 37.7954 46.8884 37.9218 46.7972C38.0499 46.7042 38.1964 46.6401 38.3613 46.605V46.5919C38.149 46.5304 37.9779 46.4251 37.8481 46.276C37.72 46.1268 37.6559 45.9514 37.6559 45.7496V45.7443C37.6559 45.5495 37.7112 45.3767 37.8217 45.2258C37.934 45.0749 38.0885 44.9555 38.285 44.8678C38.4815 44.7801 38.7061 44.7362 38.9588 44.7362C39.2115 44.7362 39.4352 44.7801 39.63 44.8678C39.8266 44.9555 39.9801 45.0749 40.0906 45.2258C40.2029 45.3767 40.2591 45.5495 40.2591 45.7443V45.7496C40.2591 45.9514 40.1951 46.1268 40.067 46.276C39.9389 46.4251 39.7686 46.5304 39.5563 46.5919V46.605C39.723 46.6401 39.8687 46.7042 39.9933 46.7972C40.1196 46.8884 40.2179 47.0007 40.2881 47.1341C40.36 47.2674 40.396 47.414 40.396 47.5736V47.5789C40.396 47.793 40.3346 47.9834 40.2117 48.1501C40.0906 48.315 39.9213 48.444 39.7037 48.537C39.4879 48.63 39.2396 48.6765 38.9588 48.6765ZM38.9588 48.2027C39.1203 48.2027 39.2633 48.1746 39.3879 48.1185C39.5125 48.0606 39.6098 47.9825 39.68 47.8842C39.752 47.7842 39.7879 47.6702 39.7879 47.5421V47.5368C39.7879 47.4069 39.7529 47.292 39.6827 47.192C39.6125 47.0902 39.5142 47.0112 39.3879 46.9551C39.2633 46.8972 39.1203 46.8682 38.9588 46.8682C38.7956 46.8682 38.6517 46.8972 38.5272 46.9551C38.4026 47.0112 38.3052 47.0902 38.235 47.192C38.1648 47.292 38.1297 47.4069 38.1297 47.5368V47.5421C38.1297 47.6702 38.1648 47.7842 38.235 47.8842C38.3069 47.9825 38.4052 48.0606 38.5298 48.1185C38.6544 48.1746 38.7974 48.2027 38.9588 48.2027ZM38.9588 46.3918C39.0992 46.3918 39.2229 46.3672 39.33 46.3181C39.4388 46.2672 39.523 46.197 39.5826 46.1075C39.6423 46.018 39.6721 45.9163 39.6721 45.8022V45.7969C39.6721 45.6811 39.6414 45.5785 39.58 45.489C39.5203 45.3995 39.437 45.3302 39.33 45.281C39.2229 45.2302 39.0992 45.2047 38.9588 45.2047C38.8184 45.2047 38.6939 45.2302 38.5851 45.281C38.478 45.3302 38.3938 45.3995 38.3324 45.489C38.2727 45.5785 38.2429 45.6811 38.2429 45.7969V45.8022C38.2429 45.9163 38.2727 46.018 38.3324 46.1075C38.3938 46.197 38.478 46.2672 38.5851 46.3181C38.6921 46.3672 38.8167 46.3918 38.9588 46.3918Z" fill="#272727" fill-opacity="0.7"/><path d="M34.6896 48.6055L36.3637 45.3469V45.3074H34.3738V44.8073H36.9612V45.3205L35.3108 48.6055H34.6896Z" fill="#272727" fill-opacity="0.7"/><path d="M32.3889 48.5502C32.1415 48.5502 31.9151 48.509 31.7098 48.4265C31.5063 48.3423 31.3422 48.2212 31.2176 48.0632C31.093 47.9036 31.0264 47.7114 31.0176 47.4868V47.4842L31.5651 47.4815V47.4868C31.5826 47.5991 31.623 47.7 31.6861 47.7895C31.7493 47.879 31.8388 47.9492 31.9546 48.0001C32.0704 48.0492 32.2178 48.0738 32.3968 48.0738C32.5793 48.0738 32.7276 48.051 32.8417 48.0053C32.9557 47.958 33.0391 47.8939 33.0917 47.8132C33.1461 47.7325 33.1733 47.6412 33.1733 47.5395V47.5342C33.1733 47.3991 33.1277 47.2885 33.0364 47.2025C32.9452 47.1166 32.7732 47.0437 32.5205 46.9841L32.1283 46.8919C31.9072 46.8393 31.7204 46.77 31.5677 46.684C31.415 46.5963 31.2983 46.4883 31.2176 46.3603C31.1387 46.2322 31.0992 46.0795 31.0992 45.9023V45.897C31.0992 45.6847 31.1553 45.5013 31.2676 45.3469C31.3799 45.1925 31.5326 45.0731 31.7256 44.9889C31.9204 44.9047 32.1415 44.8626 32.3889 44.8626C32.6328 44.8626 32.8513 44.9064 33.0443 44.9942C33.2374 45.0819 33.3909 45.2047 33.505 45.3627C33.6208 45.5206 33.6831 45.7066 33.6918 45.9207L33.6892 45.9233L33.1443 45.9259V45.9207C33.1321 45.7961 33.0917 45.6908 33.0233 45.6048C32.9566 45.5188 32.8689 45.453 32.7601 45.4074C32.6513 45.3618 32.5284 45.339 32.3916 45.339C32.2319 45.339 32.0976 45.3635 31.9888 45.4127C31.88 45.4601 31.7976 45.5232 31.7414 45.6022C31.687 45.6794 31.6598 45.7636 31.6598 45.8549V45.8601C31.6598 45.9409 31.68 46.0146 31.7204 46.0812C31.7607 46.1462 31.8248 46.2041 31.9125 46.255C32.002 46.3059 32.1213 46.3488 32.2705 46.3839L32.6627 46.4761C33.0101 46.5568 33.2751 46.6752 33.4576 46.8314C33.6418 46.9858 33.7339 47.2025 33.7339 47.4815V47.4868C33.7339 47.7167 33.6725 47.9106 33.5497 48.0685C33.4286 48.2264 33.2663 48.3466 33.0628 48.4291C32.8592 48.5098 32.6346 48.5502 32.3889 48.5502ZM32.231 48.9845V44.4256H32.5442V48.9845H32.231Z" fill="#272727" fill-opacity="0.7"/><g clip-path="url(#clip0_1836_10429)"><path d="M152.152 40.9688C152.152 41.5882 152.274 42.2015 152.511 42.7738C152.748 43.3461 153.096 43.866 153.534 44.304C153.972 44.742 154.492 45.0895 155.064 45.3265C155.636 45.5635 156.25 45.6855 156.869 45.6855C157.489 45.6855 158.102 45.5635 158.674 45.3265C159.246 45.0895 159.766 44.742 160.204 44.304C160.642 43.866 160.99 43.3461 161.227 42.7738C161.464 42.2015 161.586 41.5882 161.586 40.9688C161.586 40.3493 161.464 39.736 161.227 39.1637C160.99 38.5914 160.642 38.0715 160.204 37.6335C159.766 37.1955 159.246 36.848 158.674 36.611C158.102 36.374 157.489 36.252 156.869 36.252C156.25 36.252 155.636 36.374 155.064 36.611C154.492 36.848 153.972 37.1955 153.534 37.6335C153.096 38.0715 152.748 38.5914 152.511 39.1637C152.274 39.736 152.152 40.3493 152.152 40.9688Z" fill="#AB7DFF" stroke="#AB7DFF" stroke-width="1.04818" stroke-linecap="round" stroke-linejoin="round"/><path d="M155.297 40.9688L156.345 42.017L158.441 39.9206" stroke="white" stroke-width="0.673828" stroke-linecap="round" stroke-linejoin="round"/></g></g><g filter="url(#filter2_d_1836_10429)"><rect x="21.6543" y="62.5312" width="150.488" height="35.9375" rx="17.9688" fill="white"/><path d="M71.6897 78.8411C71.3765 78.8411 71.0856 78.7851 70.8171 78.6733C70.5487 78.5614 70.3125 78.3911 70.1087 78.1624C69.9073 77.9337 69.7494 77.6454 69.6351 77.2973C69.5232 76.9493 69.4673 76.5379 69.4673 76.0631V76.0556C69.4673 75.4565 69.5568 74.9432 69.7358 74.5156C69.9172 74.0855 70.1745 73.7561 70.5076 73.5274C70.8408 73.2987 71.236 73.1844 71.6934 73.1844C72.0414 73.1844 72.3547 73.2478 72.6331 73.3746C72.9115 73.5013 73.1402 73.6741 73.3192 73.8929C73.5007 74.1116 73.6188 74.3615 73.6734 74.6424L73.6809 74.6797H72.5809L72.566 74.6461C72.5237 74.5318 72.4616 74.4336 72.3795 74.3515C72.3 74.267 72.203 74.2011 72.0887 74.1539C71.9743 74.1067 71.8438 74.083 71.6971 74.083C71.4386 74.083 71.2261 74.1601 71.0595 74.3142C70.893 74.4684 70.7674 74.6772 70.6829 74.9407C70.6009 75.2042 70.5524 75.4988 70.5375 75.8244C70.535 75.8617 70.5337 75.899 70.5337 75.9363C70.5337 75.9711 70.5337 76.0084 70.5337 76.0482L70.7015 76.9468C70.7015 77.1357 70.745 77.306 70.8321 77.4577C70.9191 77.6093 71.0371 77.7299 71.1863 77.8194C71.3354 77.9064 71.5008 77.9499 71.6822 77.9499C71.8637 77.9499 72.0278 77.9064 72.1744 77.8194C72.3236 77.7324 72.4417 77.6155 72.5287 77.4689C72.6182 77.3197 72.6629 77.1531 72.6629 76.9692V76.9617C72.6629 76.7728 72.6207 76.6062 72.5361 76.4621C72.4516 76.3154 72.336 76.1998 72.1894 76.1153C72.0452 76.0308 71.8786 75.9885 71.6897 75.9885C71.5057 75.9885 71.3392 76.0295 71.19 76.1115C71.0409 76.1936 70.9215 76.3067 70.8321 76.4509C70.745 76.5926 70.7015 76.7566 70.7015 76.9431V76.9468H70.4778V75.9475H70.6083C70.6754 75.8083 70.7699 75.679 70.8917 75.5597C71.0135 75.4404 71.1664 75.3446 71.3504 75.2726C71.5343 75.198 71.7494 75.1607 71.9955 75.1607C72.346 75.1607 72.653 75.2365 72.9165 75.3881C73.18 75.5398 73.3851 75.7486 73.5317 76.0146C73.6784 76.2806 73.7518 76.5839 73.7518 76.9244V76.9319C73.7518 77.2973 73.6635 77.6242 73.487 77.9126C73.313 78.201 73.0706 78.4284 72.7599 78.595C72.4516 78.759 72.0949 78.8411 71.6897 78.8411Z" fill="#272727"/><path d="M66.4395 78.6248C66.0566 78.6248 65.7136 78.5664 65.4103 78.4495C65.1095 78.3302 64.8696 78.1574 64.6906 77.9312C64.5141 77.705 64.4197 77.4291 64.4072 77.1034L64.411 77.0997H65.4066V77.1034C65.4314 77.2451 65.4849 77.3682 65.5669 77.4726C65.6514 77.5745 65.767 77.6528 65.9137 77.7075C66.0604 77.7622 66.2406 77.7895 66.4544 77.7895C66.6781 77.7895 66.8633 77.7659 67.01 77.7187C67.1566 77.6689 67.266 77.5981 67.3381 77.5061C67.4127 77.4141 67.45 77.306 67.45 77.1817V77.1743C67.45 77.0002 67.3841 76.8648 67.2524 76.7678C67.1231 76.6684 66.8894 76.5814 66.5513 76.5068L65.9957 76.38C65.6726 76.3079 65.3991 76.2085 65.1754 76.0817C64.9516 75.9549 64.7814 75.7971 64.6645 75.6081C64.5477 75.4167 64.4893 75.188 64.4893 74.922V74.9146C64.4893 74.5988 64.5738 74.3279 64.7428 74.1017C64.9119 73.8754 65.1431 73.7027 65.4364 73.5834C65.7297 73.4615 66.0628 73.4006 66.4357 73.4006C66.826 73.4006 67.1666 73.464 67.4574 73.5908C67.7508 73.7176 67.9807 73.8978 68.1473 74.1315C68.3163 74.3627 68.4071 74.6361 68.4195 74.9518L68.4158 74.9556L67.4276 74.9593L67.4239 74.9518C67.4065 74.7952 67.3543 74.6647 67.2673 74.5603C67.1803 74.4534 67.0672 74.3726 66.9279 74.3179C66.7887 74.2632 66.6296 74.2359 66.4506 74.2359C66.2493 74.2359 66.0802 74.262 65.9435 74.3142C65.8068 74.3664 65.7036 74.4373 65.634 74.5268C65.5644 74.6162 65.5296 74.7182 65.5296 74.8325V74.84C65.5296 74.9419 65.5594 75.0326 65.6191 75.1122C65.6788 75.1917 65.7707 75.2613 65.895 75.321C66.0193 75.3807 66.1822 75.4341 66.3835 75.4813L66.9391 75.6044C67.4487 75.7188 67.8341 75.8878 68.0951 76.1115C68.3586 76.3353 68.4903 76.6522 68.4903 77.0624V77.0698C68.4903 77.4005 68.4008 77.6826 68.2219 77.9163C68.0454 78.1475 67.8017 78.324 67.491 78.4458C67.1827 78.5651 66.8322 78.6248 66.4395 78.6248ZM66.2456 79.2326V72.7816H66.6744V79.2326H66.2456Z" fill="#272727"/><path d="M58.3702 80.1499C58.3081 80.1499 58.2434 80.1487 58.1763 80.1462C58.1092 80.1437 58.0433 80.1412 57.9787 80.1387V79.3184C58.016 79.3234 58.0595 79.3258 58.1092 79.3258C58.1614 79.3283 58.2124 79.3296 58.2621 79.3296C58.456 79.3296 58.6101 79.291 58.7245 79.214C58.8388 79.1369 58.9146 79.0188 58.9519 78.8597L58.9892 78.7031L57.5461 74.5976H58.7431L59.7238 78.1401L59.474 77.7075H59.7984L59.5597 78.1401L60.5404 74.5976H61.6889L60.2906 78.6994C60.1713 79.0599 60.0258 79.3457 59.8543 79.557C59.6853 79.7708 59.4802 79.9225 59.239 80.012C58.9979 80.1039 58.7083 80.1499 58.3702 80.1499Z" fill="#272727"/><path d="M55.667 78.7031V73.0277H56.7558V78.7031H55.667Z" fill="#272727"/><path d="M50.8342 78.7031V73.0277H51.9231V75.2315H51.9902C52.0846 75.0078 52.2313 74.8313 52.4302 74.702C52.6291 74.5727 52.8752 74.5081 53.1685 74.5081C53.4743 74.5081 53.7303 74.569 53.9366 74.6908C54.1455 74.8101 54.3033 74.9841 54.4102 75.2128C54.5196 75.4415 54.5743 75.72 54.5743 76.0481V78.7031H53.4855V76.2942C53.4855 76.0034 53.4245 75.7834 53.3027 75.6342C53.1809 75.485 52.9908 75.4105 52.7322 75.4105C52.5657 75.4105 52.4215 75.449 52.2997 75.5261C52.1803 75.6006 52.0871 75.7063 52.02 75.843C51.9554 75.9797 51.9231 76.1413 51.9231 76.3278V78.7031H50.8342Z" fill="#272727"/><path d="M49.3463 78.718C48.8491 78.718 48.4911 78.631 48.2724 78.457C48.0536 78.2805 47.9442 77.9934 47.9442 77.5956V75.418H47.3103V74.5976H47.9442V73.6169H49.0442V74.5976H49.8907V75.418H49.0442V77.3458C49.0442 77.5297 49.0852 77.6652 49.1673 77.7522C49.2518 77.8367 49.386 77.879 49.57 77.879C49.6396 77.879 49.6968 77.8778 49.7415 77.8753C49.7888 77.8703 49.8385 77.8653 49.8907 77.8604V78.6695C49.8236 78.682 49.7428 78.6931 49.6483 78.7031C49.5538 78.713 49.4532 78.718 49.3463 78.718Z" fill="#272727"/><path d="M42.8469 78.7031V74.5976H43.9358V75.2315H44.0029C44.0973 75.0078 44.244 74.8313 44.4429 74.702C44.6418 74.5728 44.8879 74.5081 45.1812 74.5081C45.6386 74.5081 45.9866 74.6424 46.2253 74.9109C46.4664 75.1769 46.587 75.556 46.587 76.0482V78.7031H45.4981V76.2943C45.4981 76.0034 45.4372 75.7834 45.3154 75.6343C45.1936 75.4851 45.0035 75.4105 44.7449 75.4105C44.5784 75.4105 44.4342 75.4491 44.3124 75.5261C44.193 75.6007 44.0998 75.7064 44.0327 75.8431C43.9681 75.9798 43.9358 76.1414 43.9358 76.3278V78.7031H42.8469Z" fill="#272727"/><path d="M39.9347 78.7889C39.5146 78.7889 39.1529 78.7044 38.8496 78.5353C38.5463 78.3638 38.3139 78.1189 38.1523 77.8007C37.9907 77.4801 37.9099 77.0972 37.9099 76.6522V76.6448C37.9099 76.2023 37.9919 75.822 38.156 75.5038C38.3201 75.1856 38.5525 74.9407 38.8533 74.7692C39.1566 74.5952 39.5171 74.5081 39.9347 74.5081C40.3523 74.5081 40.7115 74.5939 41.0123 74.7654C41.3156 74.937 41.5493 75.1831 41.7134 75.5038C41.8774 75.822 41.9595 76.2023 41.9595 76.6448V76.6522C41.9595 77.0972 41.8787 77.4801 41.7171 77.8007C41.5555 78.1189 41.3231 78.3638 41.0198 78.5353C40.719 78.7044 40.3573 78.7889 39.9347 78.7889ZM39.9347 77.935C40.1286 77.935 40.2927 77.884 40.4269 77.7821C40.5611 77.6802 40.6643 77.5335 40.7364 77.3421C40.8085 77.1507 40.8445 76.9207 40.8445 76.6522V76.6448C40.8445 76.3763 40.8085 76.1476 40.7364 75.9587C40.6643 75.7673 40.5599 75.6206 40.4232 75.5187C40.2889 75.4143 40.1261 75.3621 39.9347 75.3621C39.7433 75.3621 39.5792 75.4143 39.4425 75.5187C39.3082 75.6206 39.2051 75.7673 39.133 75.9587C39.0609 76.1476 39.0248 76.3763 39.0248 76.6448V76.6522C39.0248 76.9232 39.0596 77.1544 39.1293 77.3458C39.2013 77.5372 39.3045 77.6839 39.4387 77.7858C39.5755 77.8853 39.7408 77.935 39.9347 77.935Z" fill="#272727"/><path d="M31.2913 78.7031V73.3223H32.5814L34.0693 77.26H34.1364L35.6205 73.3223H36.9107V78.7031H35.9076V75.0413H35.352L36.4259 73.4715L34.4533 78.7031H33.7486L31.7797 73.4715L32.8499 75.0413H32.2943V78.7031H31.2913Z" fill="#272727"/><path d="M60.4292 88.1367V84.1569H61.0004V85.7099H61.0451C61.1153 85.5572 61.2188 85.4379 61.3557 85.3519C61.4926 85.2659 61.6654 85.2229 61.8742 85.2229C62.0866 85.2229 62.2664 85.2642 62.4138 85.3466C62.5612 85.4291 62.6735 85.5502 62.7507 85.7099C62.828 85.8678 62.8666 86.06 62.8666 86.2863V88.1367H62.2928V86.4206C62.2928 86.1819 62.2427 86.0047 62.1427 85.8889C62.0445 85.7713 61.89 85.7125 61.6795 85.7125C61.5408 85.7125 61.4206 85.7432 61.3189 85.8046C61.2171 85.8643 61.1381 85.9503 61.082 86.0626C61.0276 86.1731 61.0004 86.3056 61.0004 86.46V88.1367H60.4292Z" fill="#272727" fill-opacity="0.7"/><path d="M59.4236 88.1551C59.1113 88.1551 58.8849 88.0955 58.7445 87.9762C58.6059 87.8551 58.5366 87.6577 58.5366 87.3839V85.7283H58.0891V85.2782H58.5366V84.557H59.1209V85.2782H59.7342V85.7283H59.1209V87.2444C59.1209 87.3988 59.1516 87.5103 59.213 87.5787C59.2745 87.6454 59.3762 87.6787 59.5184 87.6787C59.5605 87.6787 59.5965 87.6778 59.6263 87.6761C59.6579 87.6743 59.6938 87.6717 59.7342 87.6682V88.1262C59.6886 88.1332 59.6394 88.1394 59.5868 88.1446C59.5342 88.1516 59.4798 88.1551 59.4236 88.1551Z" fill="#272727" fill-opacity="0.7"/><path d="M55.1121 88.1367V85.2782H55.6832V85.7099H55.728C55.7982 85.5572 55.9017 85.4379 56.0386 85.3519C56.1754 85.266 56.3483 85.223 56.5571 85.223C56.8782 85.223 57.1239 85.3151 57.2941 85.4993C57.4643 85.6836 57.5494 85.9459 57.5494 86.2863V88.1367H56.9756V86.4206C56.9756 86.1819 56.9256 86.0047 56.8256 85.8889C56.7273 85.7713 56.5729 85.7125 56.3623 85.7125C56.2237 85.7125 56.1035 85.7432 56.0017 85.8047C55.8999 85.8643 55.821 85.9503 55.7648 86.0626C55.7104 86.1732 55.6832 86.3056 55.6832 86.4601V88.1367H55.1121Z" fill="#272727" fill-opacity="0.7"/><path d="M53.0802 88.192C52.8012 88.192 52.5599 88.1324 52.3564 88.013C52.1546 87.8937 51.9993 87.7235 51.8905 87.5024C51.7817 87.2795 51.7273 87.0154 51.7273 86.7101V86.7049C51.7273 86.3978 51.7817 86.1337 51.8905 85.9126C52.001 85.6915 52.1572 85.5213 52.359 85.4019C52.5626 85.2826 52.803 85.223 53.0802 85.223C53.3592 85.223 53.5996 85.2826 53.8014 85.4019C54.0032 85.5195 54.1585 85.6897 54.2673 85.9126C54.3779 86.1337 54.4331 86.3978 54.4331 86.7049V86.7101C54.4331 87.0154 54.3779 87.2795 54.2673 87.5024C54.1585 87.7235 54.0032 87.8937 53.8014 88.013C53.6014 88.1324 53.361 88.192 53.0802 88.192ZM53.0802 87.713C53.2434 87.713 53.382 87.6735 53.4961 87.5945C53.6102 87.5138 53.697 87.3989 53.7567 87.2497C53.8163 87.1006 53.8462 86.9207 53.8462 86.7101V86.7049C53.8462 86.4925 53.8163 86.3118 53.7567 86.1626C53.697 86.0135 53.6102 85.8994 53.4961 85.8205C53.382 85.7397 53.2434 85.6994 53.0802 85.6994C52.917 85.6994 52.7784 85.7397 52.6643 85.8205C52.5503 85.8994 52.4625 86.0135 52.4011 86.1626C52.3415 86.3118 52.3116 86.4925 52.3116 86.7049V86.7101C52.3116 86.9207 52.3415 87.1006 52.4011 87.2497C52.4625 87.3989 52.5503 87.5138 52.6643 87.5945C52.7784 87.6735 52.917 87.713 53.0802 87.713Z" fill="#272727" fill-opacity="0.7"/><path d="M47.0525 88.1367V85.2782H47.6237V85.7178H47.6684C47.7316 85.5599 47.8298 85.4379 47.9632 85.3519C48.0983 85.266 48.2598 85.223 48.4475 85.223C48.5774 85.223 48.6941 85.244 48.7976 85.2861C48.9011 85.3282 48.9897 85.3879 49.0634 85.4651C49.1389 85.5406 49.1977 85.6301 49.2398 85.7336H49.2845C49.3319 85.6301 49.3986 85.5406 49.4846 85.4651C49.5706 85.3879 49.6706 85.3282 49.7847 85.2861C49.9005 85.244 50.0233 85.223 50.1532 85.223C50.3462 85.223 50.5111 85.2607 50.648 85.3361C50.7849 85.4098 50.8893 85.5169 50.9612 85.6573C51.0332 85.7976 51.0691 85.967 51.0691 86.1653V88.1367H50.498V86.3021C50.498 86.1705 50.4778 86.0617 50.4374 85.9758C50.3971 85.888 50.3356 85.8222 50.2532 85.7783C50.1725 85.7345 50.0707 85.7125 49.9478 85.7125C49.8268 85.7125 49.7206 85.7406 49.6294 85.7968C49.5399 85.8512 49.4697 85.9249 49.4188 86.0179C49.3697 86.1091 49.3451 86.2126 49.3451 86.3285V88.1367H48.7739V86.2442C48.7739 86.1354 48.7511 86.0416 48.7055 85.9626C48.6616 85.8819 48.5984 85.8205 48.516 85.7783C48.4335 85.7345 48.3361 85.7125 48.2238 85.7125C48.1097 85.7125 48.0071 85.7424 47.9158 85.802C47.8263 85.8617 47.7553 85.9424 47.7026 86.0442C47.65 86.1442 47.6237 86.2565 47.6237 86.3811V88.1367H47.0525Z" fill="#272727" fill-opacity="0.7"/><path d="M42.8254 89.1422C42.7903 89.1422 42.7525 89.1404 42.7122 89.1369C42.6718 89.1352 42.6332 89.1325 42.5964 89.129V88.6789C42.6244 88.6824 42.6552 88.6851 42.6885 88.6868C42.7236 88.6886 42.7569 88.6895 42.7885 88.6895C42.9219 88.6895 43.0298 88.6579 43.1123 88.5947C43.1947 88.5333 43.257 88.4306 43.2991 88.2868L43.3413 88.1394L42.3042 85.2782H42.9228L43.7308 87.8551L43.5518 87.5603H43.7703L43.5939 87.8551L44.3994 85.2782H45.0021L43.9388 88.2446C43.858 88.4728 43.7685 88.6517 43.6703 88.7816C43.572 88.9132 43.4553 89.0062 43.3202 89.0606C43.1851 89.115 43.0201 89.1422 42.8254 89.1422Z" fill="#272727" fill-opacity="0.7"/><path d="M40.3457 88.1367V85.2782H40.9169V85.7099H40.9616C41.0125 85.5572 41.102 85.4388 41.2301 85.3546C41.36 85.2703 41.5196 85.2282 41.7092 85.2282C41.7565 85.2282 41.803 85.2309 41.8487 85.2361C41.8943 85.2414 41.9311 85.2475 41.9592 85.2545V85.781C41.9083 85.7704 41.8574 85.7626 41.8065 85.7573C41.7574 85.752 41.7056 85.7494 41.6512 85.7494C41.5056 85.7494 41.3775 85.7775 41.267 85.8336C41.1582 85.8898 41.0722 85.9687 41.009 86.0705C40.9476 86.1705 40.9169 86.2899 40.9169 86.4285V88.1367H40.3457Z" fill="#272727" fill-opacity="0.7"/><path d="M38.4086 88.192C38.1295 88.192 37.89 88.1324 37.69 88.013C37.4899 87.892 37.3355 87.7209 37.2267 87.4998C37.1197 87.2787 37.0662 87.0172 37.0662 86.7154V86.7128C37.0662 86.4144 37.1197 86.1539 37.2267 85.931C37.3355 85.7082 37.4882 85.5344 37.6847 85.4098C37.883 85.2853 38.1146 85.223 38.3796 85.223C38.6463 85.223 38.8753 85.2826 39.0666 85.4019C39.2596 85.5213 39.4079 85.6889 39.5114 85.9047C39.615 86.1188 39.6667 86.3697 39.6667 86.6575V86.8575H37.3557V86.4495H39.3824L39.1087 86.8286V86.5996C39.1087 86.396 39.0771 86.2276 39.0139 86.0942C38.9525 85.9591 38.8674 85.8582 38.7586 85.7915C38.6498 85.7248 38.5244 85.6915 38.3822 85.6915C38.2401 85.6915 38.1129 85.7266 38.0006 85.7968C37.89 85.8652 37.8023 85.967 37.7374 86.1021C37.6742 86.2372 37.6426 86.403 37.6426 86.5996V86.8286C37.6426 87.0163 37.6742 87.1769 37.7374 87.3102C37.8005 87.4436 37.89 87.5454 38.0058 87.6156C38.1234 87.6858 38.262 87.7209 38.4217 87.7209C38.5445 87.7209 38.6498 87.7042 38.7376 87.6709C38.8271 87.6358 38.8999 87.5928 38.956 87.5419C39.0139 87.491 39.0534 87.441 39.0745 87.3918L39.085 87.3708H39.6378L39.6325 87.3945C39.6079 87.4892 39.5649 87.584 39.5035 87.6787C39.4421 87.7718 39.3605 87.8569 39.2587 87.9341C39.1587 88.0113 39.0376 88.0736 38.8955 88.1209C38.7551 88.1683 38.5928 88.192 38.4086 88.192Z" fill="#272727" fill-opacity="0.7"/><path d="M35.1001 88.1367L34.0657 85.2782H34.6737L35.387 87.5576H35.4291L36.1398 85.2782H36.7426L35.7108 88.1367H35.1001Z" fill="#272727" fill-opacity="0.7"/><path d="M31.115 88.1367V84.3386H33.526V84.8492H31.7046V85.9573H33.4286V86.4469H31.7046V87.6261H33.526V88.1367H31.115Z" fill="#272727" fill-opacity="0.7"/><g clip-path="url(#clip1_1836_10429)"><path d="M152.152 80.5C152.152 81.1194 152.274 81.7328 152.511 82.305C152.748 82.8773 153.096 83.3973 153.534 83.8353C153.972 84.2733 154.492 84.6207 155.064 84.8578C155.636 85.0948 156.25 85.2168 156.869 85.2168C157.489 85.2168 158.102 85.0948 158.674 84.8578C159.246 84.6207 159.766 84.2733 160.204 83.8353C160.642 83.3973 160.99 82.8773 161.227 82.305C161.464 81.7328 161.586 81.1194 161.586 80.5C161.586 79.8806 161.464 79.2672 161.227 78.695C160.99 78.1227 160.642 77.6027 160.204 77.1647C159.766 76.7267 159.246 76.3793 158.674 76.1422C158.102 75.9052 157.489 75.7832 156.869 75.7832C156.25 75.7832 155.636 75.9052 155.064 76.1422C154.492 76.3793 153.972 76.7267 153.534 77.1647C153.096 77.6027 152.748 78.1227 152.511 78.695C152.274 79.2672 152.152 79.8806 152.152 80.5Z" stroke="#CABAF9" stroke-width="0.673828" stroke-linecap="round" stroke-linejoin="round"/></g></g><g filter="url(#filter3_d_1836_10429)"><rect x="21.6543" y="102.062" width="150.488" height="35.9375" rx="17.9688" fill="white"/><path d="M80.5422 118.372C80.0997 118.372 79.7181 118.258 79.3974 118.029C79.0792 117.798 78.8343 117.471 78.6628 117.049C78.4913 116.626 78.4055 116.125 78.4055 115.546V115.538C78.4055 114.957 78.4913 114.456 78.6628 114.036C78.8343 113.613 79.0792 113.287 79.3974 113.059C79.7181 112.83 80.0997 112.716 80.5422 112.716C80.9871 112.716 81.3687 112.83 81.6869 113.059C82.0051 113.287 82.25 113.613 82.4215 114.036C82.593 114.456 82.6788 114.957 82.6788 115.538V115.546C82.6788 116.125 82.593 116.626 82.4215 117.049C82.25 117.471 82.0051 117.798 81.6869 118.029C81.3687 118.258 80.9871 118.372 80.5422 118.372ZM80.5422 117.481C80.7559 117.481 80.9362 117.404 81.0828 117.25C81.232 117.096 81.3451 116.875 81.4222 116.586C81.5017 116.298 81.5415 115.951 81.5415 115.546V115.538C81.5415 115.131 81.5017 114.784 81.4222 114.498C81.3451 114.21 81.232 113.99 81.0828 113.838C80.9362 113.684 80.7559 113.607 80.5422 113.607C80.3309 113.607 80.1506 113.684 80.0015 113.838C79.8548 113.99 79.7417 114.21 79.6621 114.498C79.5851 114.784 79.5466 115.131 79.5466 115.538V115.546C79.5466 115.951 79.5851 116.298 79.6621 116.586C79.7417 116.875 79.8548 117.096 80.0015 117.25C80.1506 117.404 80.3309 117.481 80.5422 117.481Z" fill="#272727"/><path d="M73.558 118.234V117.477L75.2919 115.766C75.5455 115.522 75.7419 115.322 75.8811 115.166C76.0203 115.006 76.1173 114.868 76.172 114.752C76.2266 114.632 76.254 114.509 76.254 114.382V114.371C76.254 114.217 76.2204 114.082 76.1533 113.965C76.0887 113.848 75.9942 113.757 75.8699 113.693C75.7456 113.626 75.5977 113.592 75.4262 113.592C75.2522 113.592 75.098 113.629 74.9638 113.704C74.8296 113.776 74.7252 113.877 74.6506 114.006C74.576 114.133 74.5387 114.282 74.5387 114.453V114.472H73.4984L73.4946 114.453C73.4946 114.11 73.5779 113.808 73.7445 113.547C73.9135 113.286 74.1459 113.082 74.4418 112.936C74.7401 112.789 75.0856 112.716 75.4784 112.716C75.8488 112.716 76.1744 112.782 76.4553 112.913C76.7387 113.045 76.96 113.228 77.1191 113.461C77.2807 113.695 77.3615 113.967 77.3615 114.278V114.289C77.3615 114.493 77.3217 114.693 77.2421 114.89C77.1626 115.083 77.0284 115.294 76.8394 115.52C76.6505 115.746 76.392 116.011 76.0638 116.314L74.7662 117.526L75.0682 117.034V117.526L74.7662 117.328H77.4398V118.234H73.558Z" fill="#272727"/><path d="M70.9662 118.234V113.916H70.8991L69.5791 114.834V113.819L70.97 112.854H72.0924V118.234H70.9662Z" fill="#272727"/><path d="M66.544 118.156C66.1611 118.156 65.8181 118.098 65.5148 117.981C65.214 117.861 64.9741 117.689 64.7951 117.462C64.6186 117.236 64.5241 116.96 64.5117 116.635L64.5154 116.631H65.5111V116.635C65.5359 116.776 65.5894 116.899 65.6714 117.004C65.7559 117.106 65.8715 117.184 66.0182 117.239C66.1648 117.293 66.3451 117.321 66.5589 117.321C66.7826 117.321 66.9678 117.297 67.1145 117.25C67.2611 117.2 67.3705 117.129 67.4426 117.037C67.5172 116.945 67.5545 116.837 67.5545 116.713V116.706C67.5545 116.532 67.4886 116.396 67.3568 116.299C67.2276 116.2 66.9939 116.113 66.6558 116.038L66.1002 115.911C65.777 115.839 65.5036 115.74 65.2799 115.613C65.0561 115.486 64.8858 115.328 64.769 115.139C64.6522 114.948 64.5938 114.719 64.5938 114.453V114.446C64.5938 114.13 64.6783 113.859 64.8473 113.633C65.0164 113.407 65.2475 113.234 65.5409 113.115C65.8342 112.993 66.1673 112.932 66.5402 112.932C66.9305 112.932 67.2711 112.995 67.5619 113.122C67.8553 113.249 68.0852 113.429 68.2518 113.663C68.4208 113.894 68.5115 114.167 68.524 114.483L68.5203 114.487L67.5321 114.491L67.5284 114.483C67.511 114.327 67.4588 114.196 67.3718 114.092C67.2848 113.985 67.1716 113.904 67.0324 113.849C66.8932 113.795 66.7341 113.767 66.5551 113.767C66.3538 113.767 66.1847 113.793 66.048 113.845C65.9113 113.898 65.8081 113.969 65.7385 114.058C65.6689 114.148 65.6341 114.249 65.6341 114.364V114.371C65.6341 114.473 65.6639 114.564 65.7236 114.643C65.7833 114.723 65.8752 114.793 65.9995 114.852C66.1238 114.912 66.2867 114.965 66.488 115.013L67.0436 115.136C67.5532 115.25 67.9385 115.419 68.1996 115.643C68.4631 115.867 68.5948 116.183 68.5948 116.594V116.601C68.5948 116.932 68.5053 117.214 68.3263 117.448C68.1498 117.679 67.9062 117.855 67.5955 117.977C67.2872 118.096 66.9367 118.156 66.544 118.156ZM66.35 118.764V112.313H66.7789V118.764H66.35Z" fill="#272727"/><path d="M59.761 118.32C59.3459 118.32 58.9879 118.234 58.6871 118.063C58.3888 117.889 58.1588 117.643 57.9973 117.325C57.8357 117.006 57.7549 116.627 57.7549 116.187V116.184C57.7549 115.748 57.8344 115.371 57.9935 115.05C58.1551 114.729 58.3826 114.481 58.6759 114.304C58.9717 114.128 59.3185 114.039 59.7163 114.039C60.1165 114.039 60.462 114.125 60.7529 114.297C61.0437 114.468 61.2675 114.708 61.4241 115.016C61.5807 115.325 61.659 115.686 61.659 116.101V116.441H58.2993V115.758H61.137L60.6261 116.404V115.967C60.6261 115.721 60.5876 115.516 60.5105 115.352C60.4359 115.188 60.3315 115.065 60.1973 114.983C60.0655 114.898 59.9114 114.856 59.7349 114.856C59.5609 114.856 59.4055 114.9 59.2688 114.987C59.1346 115.071 59.0277 115.197 58.9481 115.363C58.8711 115.527 58.8325 115.729 58.8325 115.967V116.407C58.8325 116.638 58.8711 116.836 58.9481 117C59.0252 117.164 59.1346 117.29 59.2763 117.377C59.418 117.464 59.587 117.507 59.7834 117.507C59.9425 117.507 60.078 117.484 60.1898 117.436C60.3017 117.389 60.3912 117.335 60.4583 117.272C60.5279 117.208 60.5751 117.149 60.6 117.097L60.6112 117.075H61.6254L61.618 117.112C61.5857 117.241 61.5273 117.377 61.4427 117.518C61.3582 117.658 61.2414 117.788 61.0922 117.91C60.9455 118.032 60.7616 118.131 60.5403 118.208C60.3216 118.283 60.0618 118.32 59.761 118.32Z" fill="#272727"/><path d="M50.8342 118.234V114.129H51.9231V114.77H51.9902C52.0772 114.539 52.2214 114.36 52.4227 114.233C52.6241 114.104 52.859 114.039 53.1275 114.039C53.3139 114.039 53.483 114.071 53.6346 114.133C53.7862 114.192 53.9155 114.278 54.0224 114.39C54.1293 114.502 54.2113 114.637 54.2685 114.796H54.3356C54.3978 114.645 54.4898 114.513 54.6116 114.401C54.7334 114.287 54.8763 114.199 55.0404 114.136C55.2045 114.072 55.3822 114.039 55.5736 114.039C55.8471 114.039 56.082 114.095 56.2784 114.207C56.4772 114.319 56.6301 114.478 56.737 114.685C56.8464 114.888 56.9011 115.132 56.9011 115.415V118.234H55.8123V115.688C55.8123 115.521 55.7874 115.383 55.7377 115.274C55.688 115.164 55.6121 115.082 55.5102 115.028C55.4108 114.97 55.2853 114.942 55.1336 114.942C54.9869 114.942 54.8589 114.975 54.7495 115.042C54.6426 115.11 54.5594 115.2 54.4997 115.315C54.44 115.429 54.4102 115.561 54.4102 115.71V118.234H53.3214V115.639C53.3214 115.492 53.294 115.367 53.2393 115.262C53.1871 115.158 53.1101 115.079 53.0082 115.024C52.9087 114.969 52.7882 114.942 52.6465 114.942C52.5048 114.942 52.3792 114.978 52.2698 115.05C52.1629 115.12 52.0784 115.217 52.0163 115.341C51.9541 115.463 51.9231 115.602 51.9231 115.758V118.234H50.8342Z" fill="#272727"/><path d="M48.6492 118.234V114.129H49.738V118.234H48.6492ZM49.1973 113.499C49.0307 113.499 48.8866 113.44 48.7647 113.323C48.6429 113.204 48.582 113.061 48.582 112.895C48.582 112.726 48.6429 112.583 48.7647 112.466C48.8866 112.346 49.0307 112.287 49.1973 112.287C49.3663 112.287 49.5105 112.346 49.6298 112.466C49.7492 112.583 49.8088 112.726 49.8088 112.895C49.8088 113.061 49.7492 113.204 49.6298 113.323C49.5105 113.44 49.3663 113.499 49.1973 113.499Z" fill="#272727"/><path d="M47.1912 118.249C46.6941 118.249 46.3361 118.162 46.1173 117.988C45.8986 117.812 45.7892 117.525 45.7892 117.127V114.949H45.1553V114.129H45.7892V113.148H46.8892V114.129H47.7356V114.949H46.8892V116.877C46.8892 117.061 46.9302 117.196 47.0122 117.284C47.0968 117.368 47.231 117.41 47.415 117.41C47.4846 117.41 47.5417 117.409 47.5865 117.407C47.6337 117.402 47.6834 117.397 47.7356 117.392V118.201C47.6685 118.213 47.5877 118.224 47.4933 118.234C47.3988 118.244 47.2981 118.249 47.1912 118.249Z" fill="#272727"/><path d="M42.6978 118.32C42.2826 118.32 41.9247 118.234 41.6239 118.063C41.3256 117.889 41.0956 117.643 40.934 117.325C40.7724 117.006 40.6917 116.627 40.6917 116.187V116.184C40.6917 115.748 40.7712 115.371 40.9303 115.05C41.0919 114.729 41.3193 114.481 41.6127 114.304C41.9085 114.128 42.2553 114.039 42.653 114.039C43.0533 114.039 43.3988 114.125 43.6897 114.297C43.9805 114.468 44.2042 114.708 44.3609 115.016C44.5175 115.325 44.5958 115.686 44.5958 116.101V116.441H41.2361V115.758H44.0737L43.5629 116.404V115.967C43.5629 115.721 43.5243 115.516 43.4473 115.352C43.3727 115.188 43.2683 115.065 43.1341 114.983C43.0023 114.898 42.8482 114.856 42.6717 114.856C42.4977 114.856 42.3423 114.9 42.2056 114.987C42.0713 115.071 41.9644 115.197 41.8849 115.363C41.8078 115.527 41.7693 115.729 41.7693 115.967V116.407C41.7693 116.638 41.8078 116.836 41.8849 117C41.962 117.164 42.0713 117.29 42.213 117.377C42.3547 117.464 42.5238 117.507 42.7202 117.507C42.8793 117.507 43.0147 117.484 43.1266 117.436C43.2385 117.389 43.328 117.335 43.3951 117.272C43.4647 117.208 43.5119 117.149 43.5368 117.097L43.548 117.075H44.5622L44.5548 117.112C44.5224 117.241 44.464 117.377 44.3795 117.518C44.295 117.658 44.1781 117.788 44.029 117.91C43.8823 118.032 43.6984 118.131 43.4771 118.208C43.2584 118.283 42.9986 118.32 42.6978 118.32Z" fill="#272727"/><path d="M38.2343 118.234V114.949H37.5706V114.129H38.2343V113.745C38.2343 113.471 38.2828 113.244 38.3797 113.062C38.4767 112.881 38.6283 112.746 38.8346 112.656C39.0435 112.564 39.3132 112.518 39.6438 112.518C39.7557 112.518 39.8564 112.522 39.9458 112.529C40.0378 112.537 40.1236 112.547 40.2031 112.559V113.286C40.1683 113.279 40.1223 113.274 40.0652 113.271C40.0105 113.266 39.9483 113.264 39.8787 113.264C39.6674 113.264 39.5183 113.312 39.4313 113.409C39.3443 113.504 39.3008 113.64 39.3008 113.819V114.129H40.1696V114.949H39.3231V118.234H38.2343Z" fill="#272727"/><path d="M35.7324 118.234V114.129H36.8212V118.234H35.7324ZM36.2805 113.499C36.114 113.499 35.9698 113.44 35.848 113.323C35.7262 113.204 35.6653 113.061 35.6653 112.895C35.6653 112.726 35.7262 112.583 35.848 112.466C35.9698 112.346 36.114 112.287 36.2805 112.287C36.4496 112.287 36.5938 112.346 36.7131 112.466C36.8324 112.583 36.8921 112.726 36.8921 112.895C36.8921 113.061 36.8324 113.204 36.7131 113.323C36.5938 113.44 36.4496 113.499 36.2805 113.499Z" fill="#272727"/><path d="M31.2913 118.234V112.854H32.4174V117.306H34.8113V118.234H31.2913Z" fill="#272727"/><path d="M58.9551 127.668V124.81H59.5263V125.241H59.571C59.6219 125.089 59.7114 124.97 59.8395 124.886C59.9693 124.802 60.129 124.759 60.3185 124.759C60.3659 124.759 60.4124 124.762 60.458 124.767C60.5037 124.773 60.5405 124.779 60.5686 124.786V125.312C60.5177 125.302 60.4668 125.294 60.4159 125.289C60.3668 125.283 60.315 125.281 60.2606 125.281C60.115 125.281 59.9869 125.309 59.8763 125.365C59.7675 125.421 59.6815 125.5 59.6184 125.602C59.557 125.702 59.5263 125.821 59.5263 125.96V127.668H58.9551Z" fill="#272727" fill-opacity="0.7"/><path d="M57.0179 127.723C56.7389 127.723 56.4994 127.664 56.2994 127.544C56.0993 127.423 55.9449 127.252 55.8361 127.031C55.7291 126.81 55.6755 126.548 55.6755 126.247V126.244C55.6755 125.946 55.7291 125.685 55.8361 125.462C55.9449 125.239 56.0976 125.066 56.2941 124.941C56.4924 124.817 56.724 124.754 56.989 124.754C57.2557 124.754 57.4847 124.814 57.676 124.933C57.869 125.053 58.0173 125.22 58.1208 125.436C58.2243 125.65 58.2761 125.901 58.2761 126.189V126.389H55.9651V125.981H57.9918L57.7181 126.36V126.131C57.7181 125.927 57.6865 125.759 57.6233 125.625C57.5619 125.49 57.4768 125.389 57.368 125.323C57.2592 125.256 57.1337 125.223 56.9916 125.223C56.8495 125.223 56.7223 125.258 56.6099 125.328C56.4994 125.396 56.4117 125.498 56.3467 125.633C56.2836 125.768 56.252 125.934 56.252 126.131V126.36C56.252 126.548 56.2836 126.708 56.3467 126.841C56.4099 126.975 56.4994 127.077 56.6152 127.147C56.7328 127.217 56.8714 127.252 57.0311 127.252C57.1539 127.252 57.2592 127.235 57.3469 127.202C57.4364 127.167 57.5093 127.124 57.5654 127.073C57.6233 127.022 57.6628 126.972 57.6839 126.923L57.6944 126.902H58.2471L58.2419 126.926C58.2173 127.02 58.1743 127.115 58.1129 127.21C58.0515 127.303 57.9699 127.388 57.8681 127.465C57.7681 127.543 57.647 127.605 57.5049 127.652C57.3645 127.7 57.2022 127.723 57.0179 127.723Z" fill="#272727" fill-opacity="0.7"/><path d="M53.7092 127.668L52.6748 124.809H53.2828L53.9961 127.089H54.0383L54.7489 124.809H55.3517L54.3199 127.668H53.7092Z" fill="#272727" fill-opacity="0.7"/><path d="M51.0484 127.723C50.7694 127.723 50.5299 127.664 50.3299 127.544C50.1298 127.423 49.9754 127.252 49.8666 127.031C49.7596 126.81 49.7061 126.548 49.7061 126.247V126.244C49.7061 125.946 49.7596 125.685 49.8666 125.462C49.9754 125.239 50.1281 125.066 50.3246 124.941C50.5229 124.817 50.7545 124.754 51.0195 124.754C51.2862 124.754 51.5152 124.814 51.7065 124.933C51.8995 125.053 52.0478 125.22 52.1513 125.436C52.2548 125.65 52.3066 125.901 52.3066 126.189V126.389H49.9956V125.981H52.0223L51.7486 126.36V126.131C51.7486 125.927 51.717 125.759 51.6538 125.625C51.5924 125.49 51.5073 125.389 51.3985 125.323C51.2897 125.256 51.1643 125.223 51.0221 125.223C50.88 125.223 50.7528 125.258 50.6405 125.328C50.5299 125.396 50.4422 125.498 50.3773 125.633C50.3141 125.768 50.2825 125.934 50.2825 126.131V126.36C50.2825 126.548 50.3141 126.708 50.3773 126.841C50.4404 126.975 50.5299 127.077 50.6457 127.147C50.7633 127.217 50.9019 127.252 51.0616 127.252C51.1844 127.252 51.2897 127.235 51.3775 127.202C51.467 127.167 51.5398 127.124 51.5959 127.073C51.6538 127.022 51.6933 126.972 51.7144 126.923L51.7249 126.902H52.2777L52.2724 126.926C52.2478 127.02 52.2048 127.115 52.1434 127.21C52.082 127.303 52.0004 127.388 51.8986 127.465C51.7986 127.543 51.6775 127.605 51.5354 127.652C51.395 127.7 51.2327 127.723 51.0484 127.723Z" fill="#272727" fill-opacity="0.7"/><path d="M47.7581 127.668V124.81H48.3292V125.241H48.374C48.4249 125.089 48.5144 124.97 48.6425 124.886C48.7723 124.802 48.932 124.759 49.1215 124.759C49.1689 124.759 49.2154 124.762 49.261 124.767C49.3066 124.773 49.3435 124.779 49.3716 124.786V125.312C49.3207 125.302 49.2698 125.294 49.2189 125.289C49.1698 125.283 49.118 125.281 49.0636 125.281C48.918 125.281 48.7899 125.309 48.6793 125.365C48.5705 125.421 48.4845 125.5 48.4214 125.602C48.3599 125.702 48.3292 125.821 48.3292 125.96V127.668H47.7581Z" fill="#272727" fill-opacity="0.7"/><path d="M45.7262 127.723C45.4472 127.723 45.2059 127.664 45.0024 127.544C44.8006 127.425 44.6453 127.255 44.5365 127.034C44.4277 126.811 44.3733 126.547 44.3733 126.241V126.236C44.3733 125.929 44.4277 125.665 44.5365 125.444C44.647 125.223 44.8032 125.053 45.005 124.933C45.2086 124.814 45.449 124.754 45.7262 124.754C46.0052 124.754 46.2456 124.814 46.4474 124.933C46.6492 125.051 46.8045 125.221 46.9133 125.444C47.0239 125.665 47.0791 125.929 47.0791 126.236V126.241C47.0791 126.547 47.0239 126.811 46.9133 127.034C46.8045 127.255 46.6492 127.425 46.4474 127.544C46.2474 127.664 46.007 127.723 45.7262 127.723ZM45.7262 127.244C45.8894 127.244 46.028 127.205 46.1421 127.126C46.2561 127.045 46.343 126.93 46.4027 126.781C46.4623 126.632 46.4922 126.452 46.4922 126.241V126.236C46.4922 126.024 46.4623 125.843 46.4027 125.694C46.343 125.545 46.2561 125.431 46.1421 125.352C46.028 125.271 45.8894 125.231 45.7262 125.231C45.563 125.231 45.4244 125.271 45.3103 125.352C45.1963 125.431 45.1085 125.545 45.0471 125.694C44.9875 125.843 44.9576 126.024 44.9576 126.236V126.241C44.9576 126.452 44.9875 126.632 45.0471 126.781C45.1085 126.93 45.1963 127.045 45.3103 127.126C45.4244 127.205 45.563 127.244 45.7262 127.244Z" fill="#272727" fill-opacity="0.7"/><path d="M42.7859 127.668V125.26H42.3147V124.809H42.7859V124.509C42.7859 124.318 42.8174 124.16 42.8806 124.036C42.9455 123.909 43.0438 123.815 43.1754 123.754C43.307 123.693 43.4728 123.662 43.6729 123.662C43.7361 123.662 43.7948 123.664 43.8492 123.67C43.9054 123.673 43.9589 123.679 44.0098 123.688V124.109C43.9835 124.104 43.951 124.101 43.9124 124.099C43.8756 124.095 43.8352 124.094 43.7913 124.094C43.6334 124.094 43.5202 124.131 43.4518 124.207C43.3851 124.282 43.3518 124.392 43.3518 124.536V124.809H43.9835V125.26H43.357V127.668H42.7859Z" fill="#272727" fill-opacity="0.7"/><path d="M39.1774 127.723C38.8983 127.723 38.6588 127.664 38.4588 127.544C38.2587 127.423 38.1043 127.252 37.9955 127.031C37.8885 126.81 37.835 126.548 37.835 126.247V126.244C37.835 125.946 37.8885 125.685 37.9955 125.462C38.1043 125.239 38.257 125.066 38.4535 124.941C38.6518 124.817 38.8834 124.754 39.1484 124.754C39.4151 124.754 39.6441 124.814 39.8354 124.933C40.0284 125.053 40.1767 125.22 40.2802 125.436C40.3838 125.65 40.4355 125.901 40.4355 126.189V126.389H38.1245V125.981H40.1512L39.8775 126.36V126.131C39.8775 125.927 39.8459 125.759 39.7827 125.625C39.7213 125.49 39.6362 125.389 39.5274 125.323C39.4186 125.256 39.2932 125.223 39.151 125.223C39.0089 125.223 38.8817 125.258 38.7694 125.328C38.6588 125.396 38.5711 125.498 38.5062 125.633C38.443 125.768 38.4114 125.934 38.4114 126.131V126.36C38.4114 126.548 38.443 126.708 38.5062 126.841C38.5693 126.975 38.6588 127.077 38.7746 127.147C38.8922 127.217 39.0308 127.252 39.1905 127.252C39.3133 127.252 39.4186 127.235 39.5064 127.202C39.5959 127.167 39.6687 127.124 39.7248 127.073C39.7827 127.022 39.8222 126.972 39.8433 126.923L39.8538 126.902H40.4066L40.4013 126.926C40.3767 127.02 40.3337 127.115 40.2723 127.21C40.2109 127.303 40.1293 127.388 40.0275 127.465C39.9275 127.543 39.8064 127.605 39.6643 127.652C39.5239 127.7 39.3616 127.723 39.1774 127.723Z" fill="#272727" fill-opacity="0.7"/><path d="M36.1108 127.723C35.8809 127.723 35.6809 127.69 35.5107 127.623C35.3404 127.555 35.2053 127.461 35.1053 127.342C35.0053 127.221 34.9465 127.08 34.929 126.92V126.915H35.5028V126.92C35.5396 127.028 35.6098 127.114 35.7133 127.181C35.8169 127.248 35.9537 127.281 36.1239 127.281C36.2415 127.281 36.3442 127.264 36.4319 127.231C36.5214 127.198 36.5916 127.151 36.6425 127.092C36.6934 127.032 36.7188 126.963 36.7188 126.886V126.881C36.7188 126.791 36.6828 126.716 36.6109 126.655C36.5389 126.593 36.4205 126.543 36.2556 126.505L35.7976 126.399C35.6186 126.359 35.4703 126.304 35.3527 126.233C35.2352 126.163 35.1483 126.077 35.0921 125.976C35.036 125.872 35.0079 125.751 35.0079 125.612V125.61C35.0079 125.443 35.0553 125.296 35.1501 125.167C35.2448 125.038 35.3755 124.937 35.5422 124.865C35.7107 124.791 35.9028 124.754 36.1187 124.754C36.3363 124.754 36.5258 124.788 36.6872 124.857C36.8504 124.924 36.9794 125.017 37.0742 125.136C37.1689 125.253 37.2251 125.39 37.2426 125.546V125.549H36.6951V125.544C36.6688 125.444 36.6056 125.36 36.5056 125.294C36.4073 125.227 36.2775 125.194 36.1161 125.194C36.0125 125.194 35.9204 125.21 35.8397 125.244C35.759 125.275 35.6949 125.32 35.6475 125.378C35.6019 125.434 35.5791 125.501 35.5791 125.578V125.583C35.5791 125.643 35.594 125.696 35.6238 125.741C35.6554 125.785 35.7046 125.825 35.7712 125.86C35.8379 125.893 35.9239 125.923 36.0292 125.949L36.4846 126.052C36.7583 126.117 36.9618 126.211 37.0952 126.333C37.2303 126.456 37.2979 126.621 37.2979 126.828V126.834C37.2979 127.009 37.2461 127.164 37.1426 127.299C37.0391 127.433 36.8978 127.537 36.7188 127.613C36.5416 127.686 36.3389 127.723 36.1108 127.723Z" fill="#272727" fill-opacity="0.7"/><path d="M32.6497 127.76C32.3321 127.76 32.0583 127.701 31.8284 127.584C31.5986 127.466 31.4213 127.303 31.2967 127.094C31.1722 126.884 31.1099 126.639 31.1099 126.36V123.87H31.7021V126.315C31.7021 126.498 31.7389 126.658 31.8126 126.797C31.8881 126.935 31.996 127.043 32.1364 127.121C32.2785 127.198 32.4496 127.236 32.6497 127.236C32.8515 127.236 33.0226 127.198 33.1629 127.121C33.3033 127.043 33.4104 126.935 33.4841 126.797C33.5578 126.658 33.5946 126.498 33.5946 126.315V123.87H34.1868V126.36C34.1868 126.639 34.1245 126.884 34 127.094C33.8771 127.303 33.7008 127.466 33.4709 127.584C33.2428 127.701 32.969 127.76 32.6497 127.76Z" fill="#272727" fill-opacity="0.7"/><g clip-path="url(#clip2_1836_10429)"><path d="M152.152 120.031C152.152 120.651 152.274 121.264 152.511 121.836C152.748 122.409 153.096 122.929 153.534 123.367C153.972 123.805 154.492 124.152 155.064 124.389C155.636 124.626 156.25 124.748 156.869 124.748C157.489 124.748 158.102 124.626 158.674 124.389C159.246 124.152 159.766 123.805 160.204 123.367C160.642 122.929 160.99 122.409 161.227 121.836C161.464 121.264 161.586 120.651 161.586 120.031C161.586 119.412 161.464 118.798 161.227 118.226C160.99 117.654 160.642 117.134 160.204 116.696C159.766 116.258 159.246 115.911 158.674 115.673C158.102 115.436 157.489 115.314 156.869 115.314C156.25 115.314 155.636 115.436 155.064 115.673C154.492 115.911 153.972 116.258 153.534 116.696C153.096 117.134 152.748 117.654 152.511 118.226C152.274 118.798 152.152 119.412 152.152 120.031Z" stroke="#CABAF9" stroke-width="0.673828" stroke-linecap="round" stroke-linejoin="round"/></g></g><path d="M77.8066 22.5508C77.8066 18.8293 80.8235 15.8125 84.5449 15.8125H109.701C113.423 15.8125 116.439 18.8293 116.439 22.5508C116.439 26.2722 113.423 29.2891 109.701 29.2891H84.5449C80.8235 29.2891 77.8066 26.2722 77.8066 22.5508Z" fill="#E5FF5D"/><path d="M110.442 24.3661C110.129 24.3661 109.903 24.3064 109.763 24.1871C109.624 24.066 109.555 23.8686 109.555 23.5948V21.9392H109.107V21.4891H109.555V20.7679H110.139V21.4891H110.752V21.9392H110.139V23.4553C110.139 23.6098 110.17 23.7212 110.231 23.7896C110.293 23.8563 110.394 23.8896 110.536 23.8896C110.579 23.8896 110.615 23.8888 110.644 23.887C110.676 23.8853 110.712 23.8826 110.752 23.8791V24.3371C110.707 24.3441 110.658 24.3503 110.605 24.3555C110.552 24.3626 110.498 24.3661 110.442 24.3661Z" fill="#272727"/><path d="M107.96 24.3476V21.4891H108.533V24.3476H107.96ZM108.249 20.9785C108.151 20.9785 108.067 20.9434 107.996 20.8732C107.926 20.803 107.891 20.7188 107.891 20.6205C107.891 20.5222 107.926 20.4389 107.996 20.3705C108.067 20.3003 108.151 20.2652 108.249 20.2652C108.347 20.2652 108.432 20.3003 108.502 20.3705C108.572 20.4389 108.607 20.5222 108.607 20.6205C108.607 20.7188 108.572 20.803 108.502 20.8732C108.432 20.9434 108.347 20.9785 108.249 20.9785Z" fill="#272727"/><path d="M106.112 24.3476V21.9392H105.641V21.4891H106.112V21.1891C106.112 20.9978 106.143 20.8399 106.207 20.7153C106.271 20.5889 106.37 20.4951 106.501 20.4336C106.633 20.3722 106.799 20.3415 106.999 20.3415C107.062 20.3415 107.121 20.3442 107.175 20.3494C107.231 20.3529 107.285 20.3591 107.336 20.3678V20.789C107.309 20.7837 107.277 20.7802 107.238 20.7785C107.201 20.7749 107.161 20.7732 107.117 20.7732C106.959 20.7732 106.846 20.8109 106.778 20.8864C106.711 20.9618 106.678 21.0715 106.678 21.2154V21.4891H107.309V21.9392H106.683V24.3476H106.112Z" fill="#272727"/><path d="M103.877 24.4029C103.598 24.4029 103.357 24.3433 103.153 24.224C102.951 24.1046 102.796 23.9344 102.687 23.7133C102.579 23.4905 102.524 23.2264 102.524 22.921V22.9158C102.524 22.6087 102.579 22.3446 102.687 22.1235C102.798 21.9024 102.954 21.7322 103.156 21.6129C103.359 21.4935 103.6 21.4339 103.877 21.4339C104.156 21.4339 104.396 21.4935 104.598 21.6129C104.8 21.7304 104.955 21.9007 105.064 22.1235C105.175 22.3446 105.23 22.6087 105.23 22.9158V22.921C105.23 23.2264 105.175 23.4905 105.064 23.7133C104.955 23.9344 104.8 24.1046 104.598 24.224C104.398 24.3433 104.158 24.4029 103.877 24.4029ZM103.877 23.9239C104.04 23.9239 104.179 23.8844 104.293 23.8054C104.407 23.7247 104.494 23.6098 104.554 23.4606C104.613 23.3115 104.643 23.1316 104.643 22.921V22.9158C104.643 22.7035 104.613 22.5227 104.554 22.3736C104.494 22.2244 104.407 22.1103 104.293 22.0314C104.179 21.9507 104.04 21.9103 103.877 21.9103C103.714 21.9103 103.575 21.9507 103.461 22.0314C103.347 22.1103 103.259 22.2244 103.198 22.3736C103.138 22.5227 103.109 22.7035 103.109 22.9158V22.921C103.109 23.1316 103.138 23.3115 103.198 23.4606C103.259 23.6098 103.347 23.7247 103.461 23.8054C103.575 23.8844 103.714 23.9239 103.877 23.9239Z" fill="#272727"/><path d="M100.576 24.3477V21.4892H101.148V21.9208H101.192C101.243 21.7682 101.333 21.6497 101.461 21.5655C101.591 21.4813 101.75 21.4391 101.94 21.4391C101.987 21.4391 102.034 21.4418 102.079 21.447C102.125 21.4523 102.162 21.4585 102.19 21.4655V21.9919C102.139 21.9814 102.088 21.9735 102.037 21.9682C101.988 21.9629 101.936 21.9603 101.882 21.9603C101.736 21.9603 101.608 21.9884 101.498 22.0445C101.389 22.1007 101.303 22.1797 101.24 22.2814C101.178 22.3815 101.148 22.5008 101.148 22.6394V24.3477H100.576Z" fill="#272727"/><path d="M97.4362 23.05V22.5552H98.4732C98.7294 22.5552 98.9277 22.4894 99.0681 22.3578C99.2102 22.2244 99.2813 22.0402 99.2813 21.805V21.7998C99.2813 21.5611 99.2102 21.376 99.0681 21.2444C98.9277 21.1128 98.7294 21.047 98.4732 21.047H97.4362V20.5495H98.6206C98.8698 20.5495 99.0883 20.6021 99.276 20.7074C99.4655 20.8109 99.6138 20.9566 99.7209 21.1443C99.8279 21.3304 99.8814 21.5471 99.8814 21.7945V21.7998C99.8814 22.0472 99.8279 22.2656 99.7209 22.4552C99.6138 22.6429 99.4655 22.7894 99.276 22.8947C99.0883 22.9983 98.8698 23.05 98.6206 23.05H97.4362ZM97.1414 24.3477V20.5495H97.731V24.3477H97.1414Z" fill="#272727"/><path d="M91.1586 22.5788C90.9884 22.5788 90.8419 22.5367 90.7191 22.4525C90.598 22.3665 90.5041 22.2463 90.4374 22.0919C90.3707 21.9357 90.3374 21.7514 90.3374 21.5391V21.5365C90.3374 21.3207 90.3707 21.1355 90.4374 20.9811C90.5041 20.8267 90.598 20.7074 90.7191 20.6231C90.8419 20.5389 90.9884 20.4968 91.1586 20.4968C91.3288 20.4968 91.4754 20.5389 91.5982 20.6231C91.7228 20.7074 91.8175 20.8267 91.8825 20.9811C91.9492 21.1355 91.9825 21.3207 91.9825 21.5365V21.5391C91.9825 21.7514 91.9492 21.9357 91.8825 22.0919C91.8175 22.2463 91.7228 22.3665 91.5982 22.4525C91.4754 22.5367 91.3288 22.5788 91.1586 22.5788ZM91.1586 22.2261C91.2832 22.2261 91.3797 22.1656 91.4482 22.0445C91.5184 21.9234 91.5535 21.755 91.5535 21.5391V21.5365C91.5535 21.3189 91.5184 21.1504 91.4482 21.0311C91.3797 20.91 91.2832 20.8495 91.1586 20.8495C91.0358 20.8495 90.9402 20.91 90.8717 21.0311C90.8033 21.1504 90.7691 21.3189 90.7691 21.5365V21.5391C90.7691 21.755 90.8033 21.9234 90.8717 22.0445C90.9402 22.1656 91.0358 22.2261 91.1586 22.2261ZM91.5535 24.3476H91.0612L93.6355 20.5494H94.1277L91.5535 24.3476ZM94.025 24.4003C93.8548 24.4003 93.7083 24.3581 93.5855 24.2739C93.4626 24.1879 93.3679 24.0677 93.3012 23.9133C93.2363 23.7571 93.2038 23.572 93.2038 23.3579V23.3553C93.2038 23.1412 93.2363 22.957 93.3012 22.8026C93.3679 22.6481 93.4626 22.5288 93.5855 22.4446C93.7083 22.3604 93.8548 22.3182 94.025 22.3182C94.1952 22.3182 94.3418 22.3604 94.4646 22.4446C94.5874 22.5288 94.6813 22.6481 94.7462 22.8026C94.8129 22.957 94.8463 23.1412 94.8463 23.3553V23.3579C94.8463 23.572 94.8129 23.7571 94.7462 23.9133C94.6813 24.0677 94.5874 24.1879 94.4646 24.2739C94.3418 24.3581 94.1952 24.4003 94.025 24.4003ZM94.025 24.0476C94.1496 24.0476 94.2461 23.987 94.3146 23.8659C94.383 23.7449 94.4172 23.5755 94.4172 23.3579V23.3553C94.4172 23.1395 94.383 22.9719 94.3146 22.8526C94.2461 22.7315 94.1496 22.6709 94.025 22.6709C93.9004 22.6709 93.8039 22.7315 93.7355 22.8526C93.6671 22.9719 93.6328 23.1395 93.6328 23.3553V23.3579C93.6328 23.5755 93.6671 23.7449 93.7355 23.8659C93.8039 23.987 93.9004 24.0476 94.025 24.0476Z" fill="#272727"/><path d="M88.2948 24.4398C88.0474 24.4398 87.828 24.3924 87.6367 24.2977C87.4455 24.2029 87.2928 24.0739 87.1787 23.9107C87.0647 23.7458 86.998 23.5615 86.9787 23.358L86.9761 23.3238H87.5315L87.5341 23.3448C87.5516 23.4554 87.5938 23.5563 87.6604 23.6475C87.7289 23.7388 87.8184 23.8107 87.9289 23.8633C88.0395 23.916 88.1632 23.9423 88.3 23.9423C88.4562 23.9423 88.594 23.9081 88.7133 23.8397C88.8326 23.7695 88.9256 23.6738 88.9923 23.5528C89.0607 23.4317 89.0949 23.2922 89.0949 23.1342V23.129C89.0949 22.9728 89.0607 22.8342 88.9923 22.7131C88.9239 22.592 88.8309 22.4981 88.7133 22.4315C88.5957 22.363 88.4597 22.3288 88.3053 22.3288C88.1912 22.3288 88.0851 22.3464 87.9868 22.3815C87.8903 22.4148 87.8043 22.4657 87.7289 22.5341C87.6955 22.5657 87.6639 22.5999 87.6341 22.6368C87.6043 22.6719 87.578 22.7113 87.5551 22.7552H87.0445L87.234 20.5495H89.445V21.0496H87.6999L87.5841 22.2604H87.6262C87.6806 22.1744 87.7482 22.1016 87.8289 22.0419C87.9114 21.9822 88.0044 21.9366 88.1079 21.905C88.2114 21.8735 88.3211 21.8577 88.4369 21.8577C88.6756 21.8577 88.8861 21.9121 89.0686 22.0209C89.2529 22.1296 89.3976 22.2788 89.5029 22.4683C89.6082 22.6578 89.6609 22.8745 89.6609 23.1185V23.1237C89.6609 23.3817 89.6021 23.6098 89.4845 23.8081C89.3687 24.0064 89.2081 24.1617 89.0028 24.274C88.7993 24.3845 88.5633 24.4398 88.2948 24.4398Z" fill="#272727"/><path d="M83.6439 24.3476V23.9449L84.9073 22.6236C85.0758 22.4481 85.2065 22.3042 85.2995 22.1919C85.3925 22.0779 85.4574 21.9761 85.4943 21.8866C85.5329 21.7971 85.5522 21.7006 85.5522 21.5971V21.5918C85.5522 21.4672 85.525 21.3567 85.4706 21.2601C85.418 21.1619 85.3416 21.0855 85.2416 21.0311C85.1416 20.975 85.0223 20.9469 84.8836 20.9469C84.7432 20.9469 84.6195 20.9759 84.5125 21.0338C84.4055 21.0917 84.3221 21.1724 84.2624 21.2759C84.2028 21.3795 84.173 21.5005 84.173 21.6392V21.6497L83.6149 21.6471L83.6123 21.6418C83.6141 21.4102 83.6702 21.2057 83.7808 21.0285C83.8913 20.8495 84.0449 20.71 84.2414 20.61C84.4379 20.5082 84.6634 20.4573 84.9178 20.4573C85.153 20.4573 85.3627 20.5038 85.5469 20.5968C85.7329 20.6881 85.8795 20.8153 85.9865 20.9785C86.0935 21.1399 86.1471 21.3251 86.1471 21.5339V21.5418C86.1471 21.6857 86.1207 21.8252 86.0681 21.9603C86.0154 22.0954 85.9242 22.2437 85.7943 22.4051C85.6663 22.5666 85.4873 22.7613 85.2574 22.9895L84.2993 23.9449L84.452 23.6791V23.9449L84.3019 23.8423H86.2076V24.3476H83.6439Z" fill="#272727"/></g><defs><filter id="filter0_d_1836_10429" x="0" y="0" width="194" height="162" filterUnits="userSpaceOnUse" color-interpolation-filters="sRGB"><feFlood flood-opacity="0" result="BackgroundImageFix"/><feColorMatrix in="SourceAlpha" type="matrix" values="0 0 0 0 0 0 0 0 0 0 0 0 0 0 0 0 0 0 127 0" result="hardAlpha"/><feOffset dy="4"/><feGaussianBlur stdDeviation="6"/><feComposite in2="hardAlpha" operator="out"/><feColorMatrix type="matrix" values="0 0 0 0 0.0590918 0 0 0 0 0.105306 0 0 0 0 0.213141 0 0 0 0.06 0"/><feBlend mode="normal" in2="BackgroundImageFix" result="effect1_dropShadow_1836_10429"/><feBlend mode="normal" in="SourceGraphic" in2="effect1_dropShadow_1836_10429" result="shape"/></filter><filter id="filter1_d_1836_10429" x="15.3652" y="18.5078" width="163.066" height="48.5156" filterUnits="userSpaceOnUse" color-interpolation-filters="sRGB"><feFlood flood-opacity="0" result="BackgroundImageFix"/><feColorMatrix in="SourceAlpha" type="matrix" values="0 0 0 0 0 0 0 0 0 0 0 0 0 0 0 0 0 0 127 0" result="hardAlpha"/><feOffset dy="1.79687"/><feGaussianBlur stdDeviation="2.69531"/><feComposite in2="hardAlpha" operator="out"/><feColorMatrix type="matrix" values="0 0 0 0 0.0590918 0 0 0 0 0.105306 0 0 0 0 0.213141 0 0 0 0.12 0"/><feBlend mode="normal" in2="BackgroundImageFix" result="effect1_dropShadow_1836_10429"/><feBlend mode="normal" in="SourceGraphic" in2="effect1_dropShadow_1836_10429" result="shape"/></filter><filter id="filter2_d_1836_10429" x="16.2637" y="58.9375" width="161.27" height="46.7187" filterUnits="userSpaceOnUse" color-interpolation-filters="sRGB"><feFlood flood-opacity="0" result="BackgroundImageFix"/><feColorMatrix in="SourceAlpha" type="matrix" values="0 0 0 0 0 0 0 0 0 0 0 0 0 0 0 0 0 0 127 0" result="hardAlpha"/><feOffset dy="1.79687"/><feGaussianBlur stdDeviation="2.69531"/><feComposite in2="hardAlpha" operator="out"/><feColorMatrix type="matrix" values="0 0 0 0 0.0590918 0 0 0 0 0.105306 0 0 0 0 0.213141 0 0 0 0.12 0"/><feBlend mode="normal" in2="BackgroundImageFix" result="effect1_dropShadow_1836_10429"/><feBlend mode="normal" in="SourceGraphic" in2="effect1_dropShadow_1836_10429" result="shape"/></filter><filter id="filter3_d_1836_10429" x="16.2637" y="98.4688" width="161.27" height="46.7187" filterUnits="userSpaceOnUse" color-interpolation-filters="sRGB"><feFlood flood-opacity="0" result="BackgroundImageFix"/><feColorMatrix in="SourceAlpha" type="matrix" values="0 0 0 0 0 0 0 0 0 0 0 0 0 0 0 0 0 0 127 0" result="hardAlpha"/><feOffset dy="1.79687"/><feGaussianBlur stdDeviation="2.69531"/><feComposite in2="hardAlpha" operator="out"/><feColorMatrix type="matrix" values="0 0 0 0 0.0590918 0 0 0 0 0.105306 0 0 0 0 0.213141 0 0 0 0.12 0"/><feBlend mode="normal" in2="BackgroundImageFix" result="effect1_dropShadow_1836_10429"/><feBlend mode="normal" in="SourceGraphic" in2="effect1_dropShadow_1836_10429" result="shape"/></filter><clipPath id="clip0_1836_10429"><rect width="12.5781" height="12.5781" fill="white" transform="translate(150.58 34.6797)"/></clipPath><clipPath id="clip1_1836_10429"><rect width="12.5781" height="12.5781" fill="white" transform="translate(150.58 74.2109)"/></clipPath><clipPath id="clip2_1836_10429"><rect width="12.5781" height="12.5781" fill="white" transform="translate(150.58 113.742)"/></clipPath></defs></svg>