<svg width="194" height="117" viewBox="0 0 194 117" fill="none" xmlns="http://www.w3.org/2000/svg"><g filter="url(#filter0_d_1836_9581)"><path d="M12 16C12 11.5817 15.5817 8 20 8H174C178.418 8 182 11.5817 182 16V93C182 97.4183 178.418 101 174 101H20C15.5817 101 12 97.4183 12 93V16Z" fill="white"/><g clip-path="url(#clip0_1836_9581)"><path d="M29.1641 23.6124H164.836C168.545 23.6125 171.552 26.6189 171.552 30.3282V48.2384C171.552 51.9477 168.545 54.9551 164.836 54.9552H29.1641C25.4547 54.9551 22.4482 51.9477 22.4482 48.2384V30.3282C22.4483 26.6189 25.4548 23.6125 29.1641 23.6124Z" fill="#F3F0FE"/><path d="M29.1641 23.6124H164.836C168.545 23.6125 171.552 26.6189 171.552 30.3282V48.2384C171.552 51.9477 168.545 54.9551 164.836 54.9552H29.1641C25.4547 54.9551 22.4482 51.9477 22.4482 48.2384V30.3282C22.4483 26.6189 25.4548 23.6125 29.1641 23.6124Z" stroke="#AB7DFF" stroke-width="0.895522"/><path d="M145.758 36.1497C146.06 36.1497 146.347 36.2061 146.62 36.3189C146.893 36.4317 147.134 36.6049 147.344 36.8384C147.556 37.0719 147.723 37.3723 147.844 37.7396C147.964 38.1069 148.025 38.5463 148.025 39.0579V39.0658C148.025 39.7033 147.933 40.249 147.749 40.7029C147.565 41.1568 147.303 41.5044 146.962 41.7458C146.621 41.9872 146.212 42.1079 145.734 42.1079C145.385 42.1079 145.07 42.0449 144.79 41.919C144.512 41.7904 144.281 41.6146 144.097 41.3916C143.913 41.1686 143.791 40.9128 143.731 40.6242L143.723 40.5809H144.719L144.735 40.6164C144.784 40.7502 144.855 40.8669 144.947 40.9666C145.042 41.0637 145.154 41.1398 145.286 41.1949C145.419 41.25 145.569 41.2775 145.734 41.2775C146.036 41.2775 146.281 41.1896 146.47 41.0138C146.662 40.8354 146.805 40.598 146.899 40.3015C146.994 40.0024 147.047 39.6719 147.06 39.3098C147.063 39.2704 147.064 39.2324 147.064 39.1957C147.064 39.1563 147.064 39.1183 147.064 39.0815L146.887 38.1371C146.887 37.9193 146.837 37.7238 146.738 37.5507C146.638 37.3749 146.503 37.2358 146.332 37.1335C146.164 37.0286 145.976 36.9761 145.766 36.9761C145.558 36.9761 145.37 37.0273 145.199 37.1296C145.028 37.2293 144.892 37.3644 144.79 37.5349C144.687 37.7055 144.636 37.8983 144.636 38.1134V38.1213C144.636 38.3391 144.685 38.5332 144.782 38.7037C144.879 38.8717 145.011 39.0042 145.179 39.1012C145.35 39.1983 145.541 39.2468 145.754 39.2468C145.969 39.2468 146.162 39.1996 146.332 39.1052C146.503 39.0081 146.638 38.8769 146.738 38.7116C146.837 38.5463 146.887 38.3561 146.887 38.141V38.1371H147.123V39.176H146.99C146.921 39.3255 146.82 39.4659 146.687 39.5971C146.553 39.7256 146.387 39.8293 146.191 39.908C145.994 39.9867 145.764 40.026 145.502 40.026C145.14 40.026 144.819 39.9447 144.538 39.782C144.26 39.6194 144.042 39.3964 143.885 39.113C143.727 38.8297 143.648 38.5096 143.648 38.1528V38.1449C143.648 37.7619 143.738 37.4195 143.916 37.1178C144.097 36.8161 144.346 36.5799 144.664 36.4094C144.984 36.2363 145.349 36.1497 145.758 36.1497Z" fill="#272727" fill-opacity="0.7"/><path d="M140.398 36.1497C140.7 36.1497 140.987 36.2061 141.26 36.3189C141.533 36.4317 141.774 36.6049 141.984 36.8384C142.196 37.0719 142.363 37.3723 142.484 37.7396C142.604 38.1069 142.665 38.5463 142.665 39.0579V39.0658C142.665 39.7033 142.573 40.249 142.389 40.7029C142.205 41.1568 141.943 41.5044 141.602 41.7458C141.261 41.9872 140.852 42.1079 140.374 42.1079C140.025 42.1079 139.71 42.0449 139.43 41.919C139.152 41.7904 138.921 41.6146 138.737 41.3916C138.553 41.1686 138.431 40.9128 138.371 40.6242L138.363 40.5809H139.359L139.375 40.6164C139.424 40.7502 139.495 40.8669 139.587 40.9666C139.682 41.0637 139.794 41.1398 139.926 41.1949C140.059 41.25 140.209 41.2775 140.374 41.2775C140.676 41.2775 140.921 41.1896 141.11 41.0138C141.302 40.8354 141.445 40.598 141.539 40.3015C141.634 40.0024 141.687 39.6719 141.7 39.3098C141.703 39.2704 141.704 39.2324 141.704 39.1957C141.704 39.1563 141.704 39.1183 141.704 39.0815L141.527 38.1371C141.527 37.9193 141.477 37.7238 141.378 37.5507C141.278 37.3749 141.143 37.2358 140.972 37.1335C140.804 37.0286 140.616 36.9761 140.406 36.9761C140.198 36.9761 140.01 37.0273 139.839 37.1296C139.668 37.2293 139.532 37.3644 139.43 37.5349C139.327 37.7055 139.276 37.8983 139.276 38.1134V38.1213C139.276 38.3391 139.325 38.5332 139.422 38.7037C139.519 38.8717 139.651 39.0042 139.819 39.1012C139.99 39.1983 140.181 39.2468 140.394 39.2468C140.609 39.2468 140.802 39.1996 140.972 39.1052C141.143 39.0081 141.278 38.8769 141.378 38.7116C141.477 38.5463 141.527 38.3561 141.527 38.141V38.1371H141.763V39.176H141.63C141.561 39.3255 141.46 39.4659 141.327 39.5971C141.193 39.7256 141.027 39.8293 140.831 39.908C140.634 39.9867 140.404 40.026 140.142 40.026C139.78 40.026 139.459 39.9447 139.178 39.782C138.9 39.6194 138.682 39.3964 138.525 39.113C138.367 38.8297 138.288 38.5096 138.288 38.1528V38.1449C138.288 37.7619 138.378 37.4195 138.556 37.1178C138.737 36.8161 138.986 36.5799 139.304 36.4094C139.624 36.2363 139.989 36.1497 140.398 36.1497Z" fill="#272727" fill-opacity="0.7"/><path d="M136.793 42.0449C136.617 42.0449 136.469 41.9859 136.348 41.8678C136.23 41.7471 136.171 41.6002 136.171 41.427C136.171 41.2539 136.23 41.1083 136.348 40.9902C136.469 40.8695 136.617 40.8092 136.793 40.8092C136.974 40.8092 137.124 40.8695 137.242 40.9902C137.36 41.1083 137.419 41.2539 137.419 41.427C137.419 41.6002 137.36 41.7471 137.242 41.8678C137.124 41.9859 136.974 42.0449 136.793 42.0449Z" fill="#272727" fill-opacity="0.7"/><path d="M133.102 36.1497C133.403 36.1497 133.691 36.2061 133.963 36.3189C134.236 36.4317 134.478 36.6049 134.688 36.8384C134.9 37.0719 135.067 37.3723 135.187 37.7396C135.308 38.1069 135.368 38.5463 135.368 39.0579V39.0658C135.368 39.7033 135.277 40.249 135.093 40.7029C134.909 41.1568 134.647 41.5044 134.306 41.7458C133.965 41.9872 133.555 42.1079 133.078 42.1079C132.729 42.1079 132.414 42.0449 132.133 41.919C131.855 41.7904 131.624 41.6146 131.441 41.3916C131.257 41.1686 131.135 40.9128 131.075 40.6242L131.067 40.5809H132.063L132.078 40.6164C132.128 40.7502 132.199 40.8669 132.291 40.9666C132.385 41.0637 132.498 41.1398 132.629 41.1949C132.763 41.25 132.913 41.2775 133.078 41.2775C133.38 41.2775 133.625 41.1896 133.814 41.0138C134.005 40.8354 134.148 40.598 134.243 40.3015C134.337 40.0024 134.391 39.6719 134.404 39.3098C134.407 39.2704 134.408 39.2324 134.408 39.1957C134.408 39.1563 134.408 39.1183 134.408 39.0815L134.231 38.1371C134.231 37.9193 134.181 37.7238 134.081 37.5507C133.982 37.3749 133.847 37.2358 133.676 37.1335C133.508 37.0286 133.319 36.9761 133.109 36.9761C132.902 36.9761 132.713 37.0273 132.543 37.1296C132.372 37.2293 132.236 37.3644 132.133 37.5349C132.031 37.7055 131.98 37.8983 131.98 38.1134V38.1213C131.98 38.3391 132.029 38.5332 132.126 38.7037C132.223 38.8717 132.355 39.0042 132.523 39.1012C132.694 39.1983 132.885 39.2468 133.098 39.2468C133.313 39.2468 133.506 39.1996 133.676 39.1052C133.847 39.0081 133.982 38.8769 134.081 38.7116C134.181 38.5463 134.231 38.3561 134.231 38.141V38.1371H134.467V39.176H134.333C134.265 39.3255 134.164 39.4659 134.03 39.5971C133.897 39.7256 133.731 39.8293 133.534 39.908C133.338 39.9867 133.108 40.026 132.846 40.026C132.484 40.026 132.162 39.9447 131.882 39.782C131.603 39.6194 131.386 39.3964 131.228 39.113C131.071 38.8297 130.992 38.5096 130.992 38.1528V38.1449C130.992 37.7619 131.081 37.4195 131.26 37.1178C131.441 36.8161 131.69 36.5799 132.008 36.4094C132.328 36.2363 132.692 36.1497 133.102 36.1497Z" fill="#272727" fill-opacity="0.7"/><path d="M128.308 41.9701V40.88H125.53V40.0497C125.677 39.7925 125.826 39.5367 125.979 39.2823C126.131 39.0251 126.284 38.7693 126.439 38.5149C126.596 38.2577 126.753 38.0046 126.907 37.7553C127.065 37.5035 127.221 37.2555 127.376 37.0115C127.533 36.7675 127.689 36.5275 127.844 36.2914H129.276V40.0418H130.044V40.88H129.276V41.9701H128.308ZM126.47 40.0654H128.324V37.102H128.269C128.151 37.2804 128.03 37.4641 127.907 37.653C127.786 37.8419 127.664 38.0347 127.541 38.2315C127.418 38.4283 127.294 38.6264 127.171 38.8257C127.05 39.0251 126.931 39.2245 126.813 39.4239C126.695 39.6207 126.581 39.8162 126.47 40.0103V40.0654Z" fill="#272727" fill-opacity="0.7"/><path d="M122.464 41.8875C122.081 41.8875 121.734 41.8258 121.421 41.7025C121.112 41.5766 120.864 41.3956 120.678 41.1594C120.491 40.9207 120.392 40.6321 120.378 40.2936V40.2897L121.295 40.2858V40.2936C121.322 40.4537 121.379 40.5954 121.469 40.7187C121.56 40.8393 121.689 40.9338 121.854 41.002C122.022 41.0702 122.231 41.1043 122.48 41.1043C122.737 41.1043 122.947 41.0742 123.11 41.0138C123.275 40.9509 123.397 40.8643 123.476 40.7541C123.554 40.6413 123.594 40.514 123.594 40.3723V40.3645C123.594 40.1703 123.525 40.0142 123.389 39.8962C123.253 39.7781 123.001 39.6758 122.633 39.5892L122.043 39.4554C121.707 39.3767 121.423 39.2717 121.189 39.1406C120.958 39.0094 120.782 38.8467 120.662 38.6526C120.544 38.4558 120.485 38.221 120.485 37.9481V37.9403C120.485 37.6176 120.57 37.3395 120.74 37.106C120.914 36.8725 121.148 36.6927 121.445 36.5668C121.744 36.4383 122.084 36.374 122.464 36.374C122.85 36.374 123.191 36.4409 123.487 36.5747C123.784 36.7059 124.019 36.8908 124.192 37.1296C124.368 37.3683 124.462 37.6504 124.475 37.9757L124.471 37.9836L123.558 37.9875V37.9796C123.537 37.8012 123.478 37.6517 123.381 37.531C123.287 37.4077 123.161 37.3145 123.003 37.2516C122.849 37.1886 122.671 37.1571 122.472 37.1571C122.246 37.1571 122.056 37.1899 121.901 37.2555C121.747 37.3211 121.63 37.4077 121.551 37.5152C121.472 37.6228 121.433 37.7409 121.433 37.8694V37.8773C121.433 37.9927 121.463 38.0964 121.524 38.1882C121.584 38.28 121.68 38.3614 121.811 38.4322C121.945 38.503 122.119 38.5647 122.334 38.6172L122.925 38.751C123.452 38.8716 123.853 39.0487 124.129 39.2822C124.404 39.5157 124.542 39.845 124.542 40.27V40.2779C124.542 40.6242 124.449 40.9181 124.263 41.1594C124.079 41.3982 123.831 41.5792 123.519 41.7025C123.207 41.8258 122.855 41.8875 122.464 41.8875ZM122.244 42.5329V35.7207H122.704V42.5329H122.244Z" fill="#272727" fill-opacity="0.7"/><path d="M161.109 41.9701V39.1026H161.762V39.5433H161.806C161.855 39.3894 161.943 39.2696 162.069 39.1839C162.196 39.0982 162.355 39.0553 162.544 39.0553C162.593 39.0553 162.641 39.0588 162.688 39.0658C162.737 39.0711 162.777 39.0781 162.809 39.0868V39.6719C162.756 39.6596 162.703 39.6509 162.649 39.6456C162.596 39.6386 162.541 39.6351 162.483 39.6351C162.338 39.6351 162.211 39.6623 162.103 39.7165C161.994 39.7707 161.91 39.8485 161.851 39.95C161.792 40.0497 161.762 40.1677 161.762 40.3042V41.9701H161.109Z" fill="#272727" fill-opacity="0.5"/><path d="M158.795 42.0174C158.614 42.0174 158.453 41.9824 158.309 41.9124C158.167 41.8425 158.056 41.7436 157.973 41.616C157.893 41.4865 157.853 41.3344 157.853 41.1595V41.1542C157.853 40.9845 157.895 40.8385 157.979 40.7161C158.063 40.5919 158.186 40.4948 158.349 40.4248C158.511 40.3549 158.709 40.3138 158.941 40.3015L160.001 40.2359V40.6662L159.033 40.7292C158.85 40.7397 158.714 40.7782 158.627 40.8446C158.539 40.9111 158.495 41.0038 158.495 41.1227V41.128C158.495 41.2504 158.542 41.3457 158.634 41.4139C158.729 41.4822 158.849 41.5163 158.994 41.5163C159.125 41.5163 159.242 41.49 159.345 41.4376C159.449 41.3851 159.53 41.3142 159.589 41.225C159.649 41.1341 159.679 41.0318 159.679 40.9181V40.0103C159.679 39.8669 159.633 39.7576 159.542 39.6824C159.451 39.6054 159.317 39.5669 159.138 39.5669C158.99 39.5669 158.868 39.5932 158.774 39.6456C158.679 39.6964 158.615 39.7689 158.582 39.8634L158.579 39.8739H157.963L157.965 39.8503C157.986 39.6894 158.049 39.5486 158.154 39.4279C158.259 39.3072 158.398 39.2136 158.572 39.1472C158.745 39.0807 158.944 39.0475 159.17 39.0475C159.418 39.0475 159.628 39.0859 159.799 39.1629C159.971 39.2381 160.101 39.3483 160.19 39.4935C160.279 39.6369 160.324 39.8092 160.324 40.0103V41.9701H159.679V41.5766H159.634C159.582 41.6676 159.513 41.7463 159.429 41.8127C159.347 41.8792 159.253 41.9299 159.146 41.9649C159.039 41.9999 158.922 42.0174 158.795 42.0174Z" fill="#272727" fill-opacity="0.5"/><path d="M156.071 42.0279C155.786 42.0279 155.541 41.9675 155.337 41.8468C155.134 41.7262 154.977 41.5547 154.867 41.3326C154.757 41.1105 154.702 40.8472 154.702 40.5429V40.5403C154.702 40.2394 154.756 39.9771 154.864 39.7532C154.975 39.5293 155.13 39.3562 155.331 39.2337C155.533 39.1095 155.769 39.0475 156.04 39.0475C156.313 39.0475 156.547 39.1078 156.743 39.2285C156.941 39.3474 157.093 39.5145 157.199 39.7296C157.306 39.9447 157.359 40.1966 157.359 40.4852V40.7003H155.03V40.2622H157.039L156.73 40.6715V40.4117C156.73 40.2211 156.701 40.0628 156.643 39.9369C156.586 39.8109 156.505 39.7165 156.402 39.6535C156.3 39.5905 156.182 39.5591 156.048 39.5591C155.913 39.5591 155.793 39.5923 155.688 39.6588C155.585 39.7235 155.503 39.8197 155.442 39.9473C155.382 40.0733 155.352 40.2281 155.352 40.4117V40.6741C155.352 40.8507 155.382 41.002 155.442 41.128C155.501 41.2522 155.585 41.3484 155.694 41.4166C155.804 41.483 155.934 41.5163 156.084 41.5163C156.202 41.5163 156.302 41.4996 156.386 41.4664C156.472 41.4314 156.541 41.3903 156.593 41.3431C156.646 41.2941 156.683 41.2478 156.704 41.2041L156.711 41.1857H157.331L157.325 41.2093C157.303 41.302 157.261 41.3965 157.199 41.4927C157.14 41.5871 157.059 41.6754 156.955 41.7576C156.854 41.8381 156.73 41.9037 156.583 41.9544C156.436 42.0034 156.265 42.0279 156.071 42.0279Z" fill="#272727" fill-opacity="0.5"/><path d="M152.165 42.9776C152.124 42.9776 152.082 42.9767 152.039 42.975C151.997 42.9732 151.956 42.9706 151.915 42.9671V42.466C151.942 42.4695 151.972 42.4713 152.007 42.4713C152.042 42.473 152.076 42.4739 152.11 42.4739C152.244 42.4739 152.352 42.4441 152.432 42.3847C152.514 42.327 152.573 42.2334 152.608 42.104L152.642 41.9728L151.616 39.1026H152.33L153.086 41.6422L152.907 41.3431H153.133L152.96 41.6422L153.715 39.1026H154.403L153.374 42.0331C153.292 42.271 153.197 42.459 153.091 42.5972C152.984 42.7354 152.856 42.8333 152.705 42.891C152.556 42.9488 152.376 42.9776 152.165 42.9776Z" fill="#272727" fill-opacity="0.5"/><path d="M151.454 37.9928L150.326 42.9225H149.717L150.845 37.9928H151.454Z" fill="#272727" fill-opacity="0.5"/><path d="M56.2939 45.1919C56.175 45.1919 56.0578 45.1867 55.9423 45.1762C55.8269 45.1657 55.7307 45.1534 55.6537 45.1395V44.1425C55.7027 44.153 55.7639 44.1617 55.8374 44.1687C55.9109 44.1792 55.9913 44.1845 56.0788 44.1845C56.3341 44.1845 56.537 44.139 56.6874 44.048C56.8379 43.9571 56.9533 43.7927 57.0338 43.5548L57.1125 43.3187L55.1028 37.7199H56.5248L57.931 42.5054L57.7054 42.1748H58.015L57.7894 42.5054L59.1956 37.7199H60.5704L58.5554 43.4918C58.412 43.9116 58.2389 44.2457 58.036 44.494C57.8331 44.7424 57.59 44.9208 57.3066 45.0293C57.0233 45.1377 56.6857 45.1919 56.2939 45.1919Z" fill="#272727"/><path d="M53.0511 43.3134V35.6735H54.3577V43.3134H53.0511Z" fill="#272727"/><path d="M49.1787 43.3134V37.7199H50.48V38.6644H50.522C50.6094 38.3356 50.7669 38.0785 50.9942 37.8931C51.2216 37.7042 51.5015 37.6097 51.8338 37.6097C51.9212 37.6097 52.0017 37.615 52.0752 37.6255C52.1521 37.636 52.2168 37.6482 52.2693 37.6622V38.8428C52.2063 38.8183 52.1259 38.8008 52.0279 38.7903C51.9335 38.7764 51.8303 38.7694 51.7184 38.7694C51.463 38.7694 51.2426 38.8201 51.0572 38.9215C50.8718 39.023 50.7284 39.1716 50.6269 39.3675C50.529 39.5599 50.48 39.7926 50.48 40.0654V43.3134H49.1787Z" fill="#272727"/><path d="M45.0178 43.4079C44.647 43.4079 44.3217 43.3379 44.0418 43.198C43.762 43.0546 43.5433 42.8569 43.3859 42.6051C43.2285 42.3497 43.1498 42.0559 43.1498 41.7235V41.713C43.1498 41.3807 43.232 41.0956 43.3964 40.8577C43.5643 40.6164 43.8057 40.4275 44.1205 40.291C44.4388 40.1511 44.8219 40.0672 45.2696 40.0392L47.4 39.9132V40.7738L45.4585 40.8997C45.1297 40.9172 44.8779 40.9924 44.703 41.1253C44.5315 41.2583 44.4458 41.4367 44.4458 41.6606V41.6711C44.4458 41.8984 44.5333 42.0786 44.7082 42.2115C44.8866 42.3444 45.1192 42.4109 45.4061 42.4109C45.6579 42.4109 45.8836 42.3602 46.083 42.2587C46.2824 42.1573 46.4398 42.0191 46.5552 41.8442C46.6707 41.6658 46.7284 41.4664 46.7284 41.246V39.5459C46.7284 39.2661 46.6392 39.0475 46.4608 38.89C46.2859 38.7291 46.0305 38.6487 45.6947 38.6487C45.3868 38.6487 45.1402 38.7116 44.9548 38.8376C44.7694 38.96 44.6522 39.1227 44.6033 39.3256L44.5928 39.3675H43.3807L43.3859 39.3098C43.4174 38.981 43.5293 38.6889 43.7217 38.4335C43.9176 38.1782 44.187 37.977 44.5298 37.8301C44.8726 37.6797 45.2766 37.6045 45.7419 37.6045C46.2141 37.6045 46.6199 37.6814 46.9592 37.8354C47.3021 37.9893 47.5662 38.2062 47.7516 38.486C47.9405 38.7659 48.0349 39.0947 48.0349 39.4725V43.3134H46.7284V42.4686H46.6916C46.5867 42.661 46.4485 42.8289 46.2771 42.9724C46.1092 43.1123 45.9186 43.2207 45.7052 43.2977C45.4918 43.3712 45.2627 43.4079 45.0178 43.4079Z" fill="#272727"/><path d="M39.9331 43.4236C39.3769 43.4236 38.8977 43.3064 38.4954 43.0721C38.0931 42.8377 37.7835 42.5036 37.5667 42.0698C37.3533 41.6361 37.2466 41.1236 37.2466 40.5324V40.5272C37.2466 39.9395 37.355 39.427 37.5719 38.9897C37.7888 38.5525 38.0931 38.2132 38.4849 37.9718C38.8767 37.7269 39.3385 37.6045 39.8702 37.6045C40.4054 37.6045 40.8654 37.7217 41.2502 37.956C41.6385 38.1904 41.9358 38.5192 42.1422 38.9425C42.3521 39.3623 42.4571 39.8538 42.4571 40.417V40.8368H37.892V39.9657H41.8326L41.203 40.779V40.2753C41.203 39.908 41.147 39.6037 41.0351 39.3623C40.9231 39.1174 40.7675 38.9338 40.5681 38.8113C40.3722 38.6889 40.1448 38.6277 39.8859 38.6277C39.6271 38.6277 39.3962 38.6906 39.1933 38.8166C38.9904 38.9425 38.8312 39.1279 38.7158 39.3728C38.6004 39.6177 38.5426 39.9185 38.5426 40.2753V40.7843C38.5426 41.1236 38.6004 41.4139 38.7158 41.6553C38.8312 41.8967 38.9939 42.0821 39.2038 42.2115C39.4172 42.341 39.669 42.4057 39.9594 42.4057C40.1798 42.4057 40.3722 42.3724 40.5366 42.306C40.7045 42.236 40.8409 42.1486 40.9459 42.0436C41.0543 41.9352 41.1278 41.8215 41.1662 41.7025L41.182 41.6658H42.4046L42.3941 41.7235C42.3486 41.9299 42.2629 42.1346 42.137 42.3375C42.0145 42.5403 41.8501 42.724 41.6437 42.8884C41.4408 43.0528 41.196 43.184 40.9091 43.2819C40.6258 43.3764 40.3005 43.4236 39.9331 43.4236Z" fill="#272727"/><path d="M33.794 43.3134V40.3278L31.1389 35.7417H32.6186L34.4447 39.0265H34.4919L36.3179 35.7417H37.7976L35.1425 40.3278V43.3134H33.794Z" fill="#272727"/><rect x="77.9701" y="16" width="38.0597" height="13.4328" rx="6.71642" fill="#AB7DFF"/><path d="M107.77 24.5074V20.7216H110.184V21.2909H108.447V22.4112H110.034V22.9621H108.447V24.5074H107.77Z" fill="white"/><path d="M104.606 24.5074V20.7216H107.02V21.2909H105.283V22.4112H106.87V22.9621H105.283V24.5074H104.606Z" fill="white"/><path d="M102.04 24.6019C101.669 24.6019 101.35 24.5214 101.082 24.3605C100.816 24.1978 100.611 23.9678 100.466 23.6705C100.321 23.3732 100.248 23.0216 100.248 22.6158V22.6106C100.248 22.203 100.321 21.8515 100.466 21.5559C100.613 21.2585 100.82 21.0294 101.088 20.8685C101.357 20.7076 101.674 20.6271 102.04 20.6271C102.407 20.6271 102.725 20.7076 102.992 20.8685C103.26 21.0294 103.466 21.2585 103.612 21.5559C103.757 21.8532 103.829 22.2048 103.829 22.6106V22.6158C103.829 23.0216 103.757 23.3732 103.612 23.6705C103.468 23.9678 103.263 24.1978 102.995 24.3605C102.727 24.5214 102.409 24.6019 102.04 24.6019ZM102.04 24.0168C102.266 24.0168 102.461 23.9591 102.625 23.8437C102.789 23.7282 102.916 23.5656 103.005 23.3557C103.096 23.1458 103.142 22.8992 103.142 22.6158V22.6106C103.142 22.3255 103.096 22.0788 103.005 21.8707C102.916 21.6608 102.789 21.499 102.625 21.3853C102.461 21.2699 102.266 21.2122 102.04 21.2122C101.816 21.2122 101.621 21.2699 101.455 21.3853C101.29 21.499 101.163 21.6608 101.072 21.8707C100.983 22.0788 100.938 22.3255 100.938 22.6106V22.6158C100.938 22.8992 100.982 23.1458 101.069 23.3557C101.158 23.5656 101.285 23.7282 101.45 23.8437C101.616 23.9591 101.813 24.0168 102.04 24.0168Z" fill="white"/><path d="M94.3554 22.7654C94.1788 22.7654 94.0266 22.7234 93.8989 22.6394C93.773 22.5537 93.6759 22.4322 93.6077 22.2747C93.5395 22.1173 93.5054 21.931 93.5054 21.7159V21.7133C93.5054 21.4982 93.5395 21.3128 93.6077 21.1571C93.6759 20.9997 93.773 20.879 93.8989 20.795C94.0266 20.7111 94.1788 20.6691 94.3554 20.6691C94.5321 20.6691 94.6834 20.7111 94.8093 20.795C94.937 20.879 95.0349 20.9997 95.1031 21.1571C95.1714 21.3128 95.2055 21.4982 95.2055 21.7133V21.7159C95.2055 21.931 95.1714 22.1173 95.1031 22.2747C95.0349 22.4322 94.937 22.5537 94.8093 22.6394C94.6834 22.7234 94.5321 22.7654 94.3554 22.7654ZM94.3554 22.3849C94.4744 22.3849 94.5671 22.3272 94.6335 22.2118C94.7 22.0946 94.7332 21.9293 94.7332 21.7159V21.7133C94.7332 21.5017 94.7 21.3381 94.6335 21.2227C94.5671 21.1072 94.4744 21.0495 94.3554 21.0495C94.2347 21.0495 94.1412 21.1072 94.0747 21.2227C94.01 21.3381 93.9776 21.5017 93.9776 21.7133V21.7159C93.9776 21.9293 94.01 22.0946 94.0747 22.2118C94.1412 22.3272 94.2347 22.3849 94.3554 22.3849ZM94.8277 24.5074H94.2872L96.8452 20.7216H97.3857L94.8277 24.5074ZM97.3148 24.5599C97.1399 24.5599 96.9886 24.5179 96.861 24.434C96.7333 24.3483 96.6353 24.2276 96.5671 24.0719C96.4989 23.9145 96.4648 23.7282 96.4648 23.5131V23.5105C96.4648 23.2936 96.4989 23.1073 96.5671 22.9516C96.6353 22.7942 96.7333 22.6735 96.861 22.5896C96.9886 22.5056 97.1399 22.4636 97.3148 22.4636C97.4915 22.4636 97.6437 22.5056 97.7713 22.5896C97.899 22.6735 97.997 22.7942 98.0652 22.9516C98.1334 23.1073 98.1675 23.2936 98.1675 23.5105V23.5131C98.1675 23.7282 98.1334 23.9145 98.0652 24.0719C97.997 24.2276 97.899 24.3483 97.7713 24.434C97.6437 24.5179 97.4915 24.5599 97.3148 24.5599ZM97.3148 24.1795C97.4355 24.1795 97.5282 24.1218 97.5929 24.0063C97.6594 23.8891 97.6926 23.7247 97.6926 23.5131V23.5105C97.6926 23.2971 97.6594 23.1327 97.5929 23.0172C97.5282 22.9018 97.4355 22.8441 97.3148 22.8441C97.1959 22.8441 97.1032 22.9018 97.0367 23.0172C96.972 23.1327 96.9397 23.2971 96.9397 23.5105V23.5131C96.9397 23.7247 96.972 23.8891 97.0367 24.0063C97.1032 24.1218 97.1959 24.1795 97.3148 24.1795Z" fill="white"/><path d="M91.3724 24.6019C91.0715 24.6019 90.8135 24.5214 90.5984 24.3605C90.385 24.1996 90.2206 23.9705 90.1052 23.6731C89.9897 23.3758 89.932 23.0233 89.932 22.6158V22.6106C89.932 22.203 89.9897 21.8515 90.1052 21.5559C90.2206 21.2585 90.385 21.0294 90.5984 20.8685C90.8135 20.7076 91.0715 20.6271 91.3724 20.6271C91.6732 20.6271 91.9312 20.7076 92.1463 20.8685C92.3615 21.0294 92.5267 21.2585 92.6422 21.5559C92.7576 21.8515 92.8153 22.203 92.8153 22.6106V22.6158C92.8153 23.0233 92.7576 23.3758 92.6422 23.6731C92.5267 23.9705 92.3615 24.1996 92.1463 24.3605C91.9312 24.5214 91.6732 24.6019 91.3724 24.6019ZM91.3724 24.0535C91.5333 24.0535 91.6706 23.9958 91.7843 23.8804C91.898 23.7649 91.9845 23.6005 92.044 23.3871C92.1052 23.172 92.1358 22.9149 92.1358 22.6158V22.6106C92.1358 22.3115 92.1052 22.0552 92.044 21.8418C91.9845 21.6267 91.898 21.4623 91.7843 21.3486C91.6706 21.2332 91.5333 21.1755 91.3724 21.1755C91.2114 21.1755 91.0741 21.2332 90.9605 21.3486C90.8485 21.4623 90.7619 21.6267 90.7007 21.8418C90.6413 22.0552 90.6115 22.3115 90.6115 22.6106V22.6158C90.6115 22.9149 90.6413 23.172 90.7007 23.3871C90.7619 23.6005 90.8485 23.7649 90.9605 23.8804C91.0741 23.9958 91.2114 24.0535 91.3724 24.0535Z" fill="white"/><path d="M87.8725 24.6019C87.6153 24.6019 87.3888 24.5538 87.1929 24.4576C86.997 24.3614 86.8414 24.2311 86.7259 24.0667C86.6105 23.9005 86.544 23.7142 86.5265 23.5078L86.5239 23.4737H87.1457L87.151 23.4921C87.1685 23.5953 87.2096 23.6889 87.2743 23.7728C87.339 23.8568 87.4229 23.9241 87.5261 23.9748C87.6293 24.0238 87.7456 24.0483 87.8751 24.0483C88.022 24.0483 88.1514 24.0159 88.2634 23.9512C88.3771 23.8865 88.4654 23.7973 88.5284 23.6836C88.5913 23.5682 88.6228 23.437 88.6228 23.2901V23.2848C88.6228 23.1379 88.5904 23.0085 88.5257 22.8965C88.4628 22.7828 88.3753 22.6945 88.2634 22.6316C88.1532 22.5668 88.0255 22.5345 87.8803 22.5345C87.7736 22.5345 87.6748 22.5502 87.5839 22.5817C87.4947 22.6132 87.4151 22.6604 87.3451 22.7234C87.3101 22.7531 87.2778 22.7863 87.248 22.8231C87.2183 22.8581 87.1921 22.8965 87.1693 22.9385H86.5895L86.7732 20.7216H89.0452V21.2752H87.3005L87.1929 22.4295H87.2402C87.2926 22.3438 87.3591 22.2712 87.4396 22.2118C87.52 22.1506 87.6118 22.1042 87.715 22.0727C87.8182 22.0395 87.9284 22.0229 88.0456 22.0229C88.2835 22.0229 88.4934 22.0771 88.6753 22.1855C88.8589 22.2922 89.0032 22.44 89.1082 22.6289C89.2131 22.8161 89.2656 23.0303 89.2656 23.2717V23.277C89.2656 23.5393 89.2061 23.7702 89.0872 23.9696C88.97 24.1672 88.8065 24.322 88.5966 24.434C88.3867 24.5459 88.1453 24.6019 87.8725 24.6019Z" fill="white"/><path d="M83.9449 23.277V22.684H85.6975V23.277H83.9449Z" fill="white"/><path d="M22 67.9403C22 63.9836 25.2075 60.7761 29.1642 60.7761H164.836C168.792 60.7761 172 63.9836 172 67.9403V85.8507C172 89.8074 168.792 93.0149 164.836 93.0149H29.1642C25.2075 93.0149 22 89.8074 22 85.8507V67.9403Z" fill="#F3F0FE"/><path d="M140.438 73.7616C140.74 73.7616 141.027 73.818 141.3 73.9308C141.573 74.0436 141.815 74.2168 142.024 74.4503C142.237 74.6838 142.404 74.9842 142.524 75.3515C142.645 75.7188 142.705 76.1583 142.705 76.6699V76.6777C142.705 77.3153 142.613 77.861 142.43 78.3149C142.246 78.7688 141.984 79.1164 141.643 79.3578C141.302 79.5991 140.892 79.7198 140.415 79.7198C140.066 79.7198 139.751 79.6568 139.47 79.5309C139.192 79.4024 138.961 79.2266 138.778 79.0036C138.594 78.7806 138.472 78.5248 138.412 78.2362L138.404 78.1929H139.4L139.415 78.2283C139.465 78.3621 139.536 78.4788 139.628 78.5785C139.722 78.6756 139.835 78.7517 139.966 78.8068C140.1 78.8619 140.25 78.8894 140.415 78.8894C140.717 78.8894 140.962 78.8015 141.151 78.6258C141.342 78.4474 141.485 78.2099 141.58 77.9135C141.674 77.6144 141.728 77.2838 141.741 76.9217C141.744 76.8824 141.745 76.8443 141.745 76.8076C141.745 76.7683 141.745 76.7302 141.745 76.6935L141.568 75.749C141.568 75.5312 141.518 75.3358 141.418 75.1626C141.319 74.9868 141.184 74.8478 141.013 74.7455C140.845 74.6405 140.656 74.588 140.446 74.588C140.239 74.588 140.05 74.6392 139.88 74.7415C139.709 74.8412 139.573 74.9763 139.47 75.1469C139.368 75.3174 139.317 75.5102 139.317 75.7254V75.7332C139.317 75.951 139.365 76.1452 139.462 76.3157C139.56 76.4836 139.692 76.6161 139.86 76.7132C140.031 76.8102 140.222 76.8588 140.435 76.8588C140.65 76.8588 140.843 76.8115 141.013 76.7171C141.184 76.62 141.319 76.4888 141.418 76.3236C141.518 76.1583 141.568 75.9681 141.568 75.7529V75.749H141.804V76.7879H141.67C141.602 76.9375 141.501 77.0778 141.367 77.209C141.233 77.3376 141.068 77.4412 140.871 77.5199C140.675 77.5986 140.445 77.638 140.183 77.638C139.821 77.638 139.499 77.5567 139.219 77.394C138.94 77.2313 138.723 77.0083 138.565 76.725C138.408 76.4416 138.329 76.1215 138.329 75.7647V75.7569C138.329 75.3738 138.418 75.0314 138.597 74.7297C138.778 74.428 139.027 74.1919 139.344 74.0213C139.665 73.8482 140.029 73.7616 140.438 73.7616Z" fill="#272727" fill-opacity="0.7"/><path d="M135.078 73.7616C135.38 73.7616 135.667 73.818 135.94 73.9308C136.213 74.0436 136.455 74.2168 136.664 74.4503C136.877 74.6838 137.044 74.9842 137.164 75.3515C137.285 75.7188 137.345 76.1583 137.345 76.6699V76.6777C137.345 77.3153 137.253 77.861 137.07 78.3149C136.886 78.7688 136.624 79.1164 136.283 79.3578C135.942 79.5991 135.532 79.7198 135.055 79.7198C134.706 79.7198 134.391 79.6568 134.11 79.5309C133.832 79.4024 133.601 79.2266 133.418 79.0036C133.234 78.7806 133.112 78.5248 133.052 78.2362L133.044 78.1929H134.04L134.055 78.2283C134.105 78.3621 134.176 78.4788 134.268 78.5785C134.362 78.6756 134.475 78.7517 134.606 78.8068C134.74 78.8619 134.89 78.8894 135.055 78.8894C135.357 78.8894 135.602 78.8015 135.791 78.6258C135.982 78.4474 136.125 78.2099 136.22 77.9135C136.314 77.6144 136.368 77.2838 136.381 76.9217C136.384 76.8824 136.385 76.8443 136.385 76.8076C136.385 76.7683 136.385 76.7302 136.385 76.6935L136.208 75.749C136.208 75.5312 136.158 75.3358 136.058 75.1626C135.959 74.9868 135.824 74.8478 135.653 74.7455C135.485 74.6405 135.296 74.588 135.086 74.588C134.879 74.588 134.69 74.6392 134.52 74.7415C134.349 74.8412 134.213 74.9763 134.11 75.1469C134.008 75.3174 133.957 75.5102 133.957 75.7254V75.7332C133.957 75.951 134.005 76.1452 134.103 76.3157C134.2 76.4836 134.332 76.6161 134.5 76.7132C134.671 76.8102 134.862 76.8588 135.075 76.8588C135.29 76.8588 135.483 76.8115 135.653 76.7171C135.824 76.62 135.959 76.4888 136.058 76.3236C136.158 76.1583 136.208 75.9681 136.208 75.7529V75.749H136.444V76.7879H136.31C136.242 76.9375 136.141 77.0778 136.007 77.209C135.873 77.3376 135.708 77.4412 135.511 77.5199C135.315 77.5986 135.085 77.638 134.823 77.638C134.461 77.638 134.139 77.5567 133.859 77.394C133.58 77.2313 133.363 77.0083 133.205 76.725C133.048 76.4416 132.969 76.1215 132.969 75.7647V75.7569C132.969 75.3738 133.058 75.0314 133.237 74.7297C133.418 74.428 133.667 74.1919 133.984 74.0213C134.305 73.8482 134.669 73.7616 135.078 73.7616Z" fill="#272727" fill-opacity="0.7"/><path d="M131.474 79.6568C131.298 79.6568 131.15 79.5978 131.029 79.4798C130.911 79.3591 130.852 79.2121 130.852 79.039C130.852 78.8658 130.911 78.7202 131.029 78.6022C131.15 78.4815 131.298 78.4211 131.474 78.4211C131.655 78.4211 131.804 78.4815 131.922 78.6022C132.04 78.7202 132.099 78.8658 132.099 79.039C132.099 79.2121 132.04 79.3591 131.922 79.4798C131.804 79.5978 131.655 79.6568 131.474 79.6568Z" fill="#272727" fill-opacity="0.7"/><path d="M127.751 79.6962C127.315 79.6962 126.931 79.6267 126.598 79.4876C126.265 79.346 126.003 79.1518 125.815 78.9052C125.628 78.6559 125.535 78.37 125.535 78.0473V78.0394C125.535 77.7954 125.589 77.5737 125.697 77.3743C125.807 77.1749 125.959 77.0083 126.153 76.8745C126.347 76.7381 126.57 76.645 126.822 76.5951V76.5715C126.497 76.4849 126.234 76.3301 126.035 76.1071C125.838 75.8815 125.74 75.6165 125.74 75.3122V75.3043C125.74 75.0131 125.825 74.7533 125.996 74.5251C126.169 74.2968 126.406 74.1171 126.708 73.9859C127.012 73.8548 127.36 73.7892 127.751 73.7892C128.142 73.7892 128.488 73.8548 128.79 73.9859C129.094 74.1171 129.332 74.2968 129.502 74.5251C129.673 74.7533 129.758 75.0131 129.758 75.3043V75.3122C129.758 75.6165 129.659 75.8815 129.463 76.1071C129.266 76.3301 129.005 76.4849 128.68 76.5715V76.5951C128.931 76.645 129.154 76.7381 129.349 76.8745C129.543 77.0083 129.694 77.1749 129.801 77.3743C129.911 77.5737 129.966 77.7954 129.966 78.0394V78.0473C129.966 78.37 129.872 78.6559 129.683 78.9052C129.497 79.1518 129.237 79.346 128.904 79.4876C128.571 79.6267 128.186 79.6962 127.751 79.6962ZM127.751 78.9209C127.979 78.9209 128.18 78.8816 128.353 78.8029C128.529 78.7215 128.666 78.61 128.766 78.4684C128.866 78.3241 128.916 78.1614 128.916 77.9804V77.9725C128.916 77.7888 128.866 77.6262 128.766 77.4845C128.669 77.3402 128.533 77.2274 128.357 77.1461C128.181 77.0647 127.979 77.0241 127.751 77.0241C127.52 77.0241 127.317 77.0647 127.141 77.1461C126.968 77.2274 126.831 77.3402 126.732 77.4845C126.634 77.6262 126.586 77.7888 126.586 77.9725V77.9804C126.586 78.1614 126.636 78.3241 126.735 78.4684C126.835 78.61 126.972 78.7215 127.145 78.8029C127.321 78.8816 127.523 78.9209 127.751 78.9209ZM127.751 76.2488C127.95 76.2488 128.125 76.2134 128.274 76.1425C128.426 76.0691 128.544 75.9694 128.628 75.8434C128.715 75.7175 128.758 75.5719 128.758 75.4066V75.3987C128.758 75.2335 128.715 75.0879 128.628 74.9619C128.544 74.8334 128.426 74.7337 128.274 74.6628C128.122 74.592 127.948 74.5566 127.751 74.5566C127.554 74.5566 127.38 74.592 127.227 74.6628C127.075 74.7337 126.956 74.8334 126.869 74.9619C126.785 75.0879 126.743 75.2335 126.743 75.3987V75.4066C126.743 75.5719 126.785 75.7175 126.869 75.8434C126.956 75.9694 127.074 76.0691 127.223 76.1425C127.376 76.2134 127.551 76.2488 127.751 76.2488Z" fill="#272727" fill-opacity="0.7"/><path d="M122.41 79.4994C122.027 79.4994 121.68 79.4378 121.368 79.3145C121.058 79.1885 120.81 79.0075 120.624 78.7714C120.438 78.5326 120.338 78.244 120.325 77.9056V77.9016L121.242 77.8977V77.9056C121.268 78.0656 121.326 78.2073 121.415 78.3306C121.507 78.4513 121.635 78.5457 121.8 78.614C121.968 78.6822 122.177 78.7163 122.426 78.7163C122.683 78.7163 122.893 78.6861 123.056 78.6258C123.221 78.5628 123.343 78.4762 123.422 78.366C123.501 78.2532 123.54 78.126 123.54 77.9843V77.9764C123.54 77.7823 123.472 77.6262 123.335 77.5081C123.199 77.39 122.947 77.2877 122.58 77.2011L121.989 77.0673C121.654 76.9886 121.369 76.8837 121.135 76.7525C120.905 76.6213 120.729 76.4587 120.608 76.2645C120.49 76.0677 120.431 75.8329 120.431 75.5601V75.5522C120.431 75.2295 120.516 74.9514 120.687 74.7179C120.86 74.4844 121.095 74.3047 121.391 74.1788C121.69 74.0502 122.03 73.9859 122.41 73.9859C122.796 73.9859 123.137 74.0528 123.434 74.1866C123.73 74.3178 123.965 74.5028 124.138 74.7415C124.314 74.9803 124.408 75.2623 124.421 75.5876L124.418 75.5955L123.505 75.5994V75.5916C123.484 75.4132 123.424 75.2636 123.327 75.1429C123.233 75.0196 123.107 74.9265 122.95 74.8635C122.795 74.8005 122.618 74.7691 122.418 74.7691C122.193 74.7691 122.002 74.8019 121.848 74.8674C121.693 74.933 121.576 75.0196 121.497 75.1272C121.419 75.2348 121.379 75.3528 121.379 75.4814V75.4892C121.379 75.6047 121.41 75.7083 121.47 75.8001C121.53 75.892 121.626 75.9733 121.757 76.0441C121.891 76.115 122.065 76.1766 122.281 76.2291L122.871 76.3629C123.398 76.4836 123.8 76.6607 124.075 76.8942C124.351 77.1277 124.488 77.4569 124.488 77.882V77.8898C124.488 78.2362 124.395 78.53 124.209 78.7714C124.025 79.0101 123.777 79.1911 123.465 79.3145C123.153 79.4378 122.801 79.4994 122.41 79.4994ZM122.19 80.1448V73.3326H122.651V80.1448H122.19Z" fill="#272727" fill-opacity="0.7"/><path d="M160.064 79.3582V75.3808H160.718V76.9314H160.762C160.83 76.7757 160.934 76.6541 161.072 76.5667C161.21 76.4792 161.382 76.4355 161.589 76.4355C161.802 76.4355 161.982 76.4775 162.129 76.5614C162.276 76.6437 162.387 76.7643 162.462 76.9235C162.539 77.0827 162.578 77.2759 162.578 77.5033V79.3582H161.924V77.6555C161.924 77.4316 161.877 77.2637 161.783 77.1518C161.69 77.0398 161.545 76.9838 161.347 76.9838C161.218 76.9838 161.106 77.0127 161.011 77.0704C160.917 77.1281 160.844 77.2095 160.794 77.3144C160.743 77.4194 160.718 77.5436 160.718 77.687V79.3582H160.064Z" fill="#272727" fill-opacity="0.5"/><path d="M159.046 79.3713C158.718 79.3713 158.481 79.311 158.335 79.1903C158.19 79.0696 158.118 78.872 158.118 78.5974V76.997H157.672V76.4906H158.118V75.7875H158.781V76.4906H159.385V76.997H158.781V78.4426C158.781 78.5842 158.811 78.6883 158.871 78.7548C158.932 78.8195 159.03 78.8519 159.164 78.8519C159.212 78.8519 159.25 78.851 159.28 78.8492C159.311 78.8457 159.346 78.8422 159.385 78.8387V79.3425C159.339 79.3512 159.287 79.3582 159.227 79.3635C159.17 79.3687 159.109 79.3713 159.046 79.3713Z" fill="#272727" fill-opacity="0.5"/><path d="M154.634 79.3582V76.4906H155.287V76.9314H155.331C155.4 76.7757 155.503 76.6541 155.641 76.5667C155.779 76.4792 155.951 76.4355 156.158 76.4355C156.478 76.4355 156.723 76.5282 156.892 76.7136C157.062 76.899 157.147 77.1623 157.147 77.5033V79.3582H156.494V77.6555C156.494 77.4316 156.446 77.2637 156.352 77.1518C156.259 77.0398 156.114 76.9838 155.916 76.9838C155.787 76.9838 155.675 77.0127 155.581 77.0704C155.486 77.1281 155.414 77.2095 155.363 77.3144C155.312 77.4194 155.287 77.5436 155.287 77.687V79.3582H154.634Z" fill="#272727" fill-opacity="0.5"/><path d="M152.598 79.4159C152.312 79.4159 152.067 79.3565 151.86 79.2375C151.654 79.1168 151.495 78.9454 151.383 78.7233C151.273 78.5012 151.218 78.2353 151.218 77.9257V77.9205C151.218 77.6144 151.273 77.3503 151.385 77.1281C151.497 76.9043 151.656 76.7329 151.86 76.6139C152.067 76.495 152.312 76.4355 152.598 76.4355C152.883 76.4355 153.128 76.495 153.332 76.6139C153.539 76.7329 153.698 76.9034 153.81 77.1255C153.922 77.3477 153.978 77.6126 153.978 77.9205V77.9257C153.978 78.2353 153.922 78.5012 153.81 78.7233C153.699 78.9454 153.541 79.1168 153.335 79.2375C153.13 79.3565 152.884 79.4159 152.598 79.4159ZM152.598 78.886C152.748 78.886 152.876 78.8484 152.981 78.7731C153.087 78.6962 153.169 78.5869 153.225 78.4452C153.281 78.3018 153.309 78.1295 153.309 77.9283V77.9231C153.309 77.7202 153.281 77.5479 153.225 77.4062C153.169 77.2628 153.087 77.1535 152.981 77.0783C152.876 77.0013 152.748 76.9629 152.598 76.9629C152.447 76.9629 152.319 77.0013 152.212 77.0783C152.105 77.1535 152.024 77.2628 151.968 77.4062C151.912 77.5479 151.884 77.7202 151.884 77.9231V77.9283C151.884 78.1295 151.912 78.3018 151.968 78.4452C152.024 78.5886 152.104 78.6979 152.209 78.7731C152.316 78.8484 152.445 78.886 152.598 78.886Z" fill="#272727" fill-opacity="0.5"/><path d="M146.474 79.3582V76.4906H147.127V76.9366H147.172C147.233 76.7775 147.332 76.6541 147.468 76.5667C147.607 76.4792 147.77 76.4355 147.959 76.4355C148.089 76.4355 148.205 76.4565 148.308 76.4985C148.413 76.5405 148.503 76.5999 148.578 76.6769C148.653 76.7538 148.711 76.8457 148.751 76.9524H148.799C148.846 76.8492 148.911 76.7591 148.995 76.6821C149.081 76.6034 149.181 76.5431 149.294 76.5011C149.41 76.4574 149.534 76.4355 149.667 76.4355C149.859 76.4355 150.024 76.474 150.16 76.551C150.298 76.6262 150.404 76.7346 150.478 76.8763C150.553 77.018 150.591 77.1876 150.591 77.3853V79.3582H149.937V77.5453C149.937 77.4194 149.918 77.3153 149.88 77.2331C149.843 77.1509 149.786 77.0888 149.709 77.0468C149.632 77.0048 149.535 76.9838 149.418 76.9838C149.304 76.9838 149.205 77.0101 149.121 77.0626C149.037 77.1133 148.972 77.1824 148.925 77.2698C148.879 77.3573 148.856 77.4561 148.856 77.5663V79.3582H148.203V77.4981C148.203 77.3914 148.182 77.2996 148.14 77.2226C148.1 77.1456 148.04 77.087 147.962 77.0468C147.885 77.0048 147.793 76.9838 147.686 76.9838C147.58 76.9838 147.483 77.0118 147.398 77.0678C147.314 77.122 147.247 77.1972 147.198 77.2934C147.151 77.3879 147.127 77.4946 147.127 77.6135V79.3582H146.474Z" fill="#272727" fill-opacity="0.5"/><path d="M146.07 75.3808L144.942 80.3106H144.333L145.461 75.3808H146.07Z" fill="#272727" fill-opacity="0.5"/><path d="M66.1691 82.8039C66.0502 82.8039 65.933 82.7986 65.8176 82.7881C65.7021 82.7776 65.6059 82.7654 65.529 82.7514V81.7544C65.578 81.7649 65.6392 81.7737 65.7126 81.7807C65.7861 81.7912 65.8666 81.7964 65.954 81.7964C66.2094 81.7964 66.4123 81.7509 66.5627 81.66C66.7131 81.569 66.8285 81.4046 66.909 81.1667L66.9877 80.9306L64.978 75.3318H66.4L67.8063 80.1173L67.5806 79.7867H67.8902L67.6646 80.1173L69.0708 75.3318H70.4456L68.4307 81.1038C68.2873 81.5235 68.1141 81.8576 67.9112 82.106C67.7083 82.3544 67.4652 82.5328 67.1819 82.6412C66.8985 82.7496 66.5609 82.8039 66.1691 82.8039Z" fill="#272727" fill-opacity="0.7"/><path d="M62.9264 80.9254V73.2854H64.2329V80.9254H62.9264Z" fill="#272727" fill-opacity="0.7"/><path d="M56.7242 80.9254V73.2854H58.0308V76.2554H58.0675C58.211 75.9265 58.4261 75.6712 58.7129 75.4893C59.0033 75.3074 59.3566 75.2164 59.7729 75.2164C60.1787 75.2164 60.5285 75.3074 60.8223 75.4893C61.1162 75.6677 61.3418 75.9213 61.4992 76.2501C61.6601 76.5789 61.7406 76.969 61.7406 77.4202V80.9254H60.434V77.6826C60.434 77.2523 60.3326 76.9183 60.1297 76.6804C59.9268 76.439 59.6364 76.3183 59.2586 76.3183C59.0103 76.3183 58.7934 76.3778 58.608 76.4967C58.4261 76.6122 58.2844 76.7731 58.183 76.9795C58.0815 77.1824 58.0308 77.4202 58.0308 77.6931V80.9254H56.7242Z" fill="#272727" fill-opacity="0.7"/><path d="M55.0556 81.0198C54.461 81.0198 54.0219 80.8956 53.7386 80.6473C53.4587 80.3954 53.3188 79.9844 53.3188 79.4142V76.3393H52.5107V75.3319H53.3188V73.9204H54.6464V75.3319H55.7115V76.3393H54.6464V79.2725C54.6464 79.5489 54.7058 79.7413 54.8248 79.8497C54.9437 79.9546 55.1256 80.0071 55.3705 80.0071C55.4404 80.0071 55.5016 80.0054 55.5541 80.0019C55.6066 79.9949 55.6591 79.9896 55.7115 79.9861V80.9674C55.6311 80.9813 55.5349 80.9936 55.4229 81.0041C55.311 81.0146 55.1886 81.0198 55.0556 81.0198Z" fill="#272727" fill-opacity="0.7"/><path d="M46.8595 80.9254V75.3319H48.1608V76.2029H48.2028C48.3462 75.902 48.5596 75.6624 48.8429 75.484C49.1263 75.3056 49.4779 75.2164 49.8976 75.2164C50.5133 75.2164 50.989 75.4018 51.3249 75.7726C51.6607 76.1434 51.8286 76.6541 51.8286 77.3048V80.9254H50.522V77.5777C50.522 77.1719 50.4293 76.8605 50.2439 76.6437C50.0585 76.4268 49.7769 76.3183 49.3991 76.3183C49.1473 76.3183 48.9286 76.376 48.7432 76.4915C48.5578 76.6034 48.4144 76.7608 48.313 76.9637C48.2115 77.1666 48.1608 77.4045 48.1608 77.6774V80.9254H46.8595Z" fill="#272727" fill-opacity="0.7"/><path d="M43.2284 81.0356C42.6757 81.0356 42.1965 80.9201 41.7907 80.6892C41.3884 80.4549 41.0753 80.1208 40.8514 79.687C40.6311 79.2498 40.5209 78.7303 40.5209 78.1286V78.1181C40.5209 77.5199 40.6328 77.004 40.8567 76.5702C41.0806 76.1364 41.3954 75.8024 41.8012 75.568C42.207 75.3336 42.681 75.2164 43.2232 75.2164C43.7689 75.2164 44.2446 75.3336 44.6504 75.568C45.0562 75.8024 45.371 76.1364 45.5949 76.5702C45.8188 77.0005 45.9307 77.5164 45.9307 78.1181V78.1286C45.9307 78.7338 45.8188 79.2533 45.5949 79.687C45.3745 80.1208 45.0615 80.4549 44.6557 80.6892C44.2534 80.9201 43.7776 81.0356 43.2284 81.0356ZM43.2284 79.9809C43.5118 79.9809 43.7549 79.9092 43.9578 79.7657C44.1607 79.6188 44.3181 79.4072 44.43 79.1308C44.542 78.8545 44.5979 78.5204 44.5979 78.1286V78.1181C44.5979 77.7298 44.542 77.3993 44.43 77.1264C44.3181 76.85 44.1589 76.6402 43.9525 76.4967C43.7462 76.3498 43.503 76.2764 43.2232 76.2764C42.9468 76.2764 42.7055 76.3498 42.4991 76.4967C42.2927 76.6402 42.1335 76.85 42.0216 77.1264C41.9096 77.3993 41.8537 77.7298 41.8537 78.1181V78.1286C41.8537 78.5204 41.9096 78.8545 42.0216 79.1308C42.1335 79.4072 42.2927 79.6188 42.4991 79.7657C42.7055 79.9092 42.9486 79.9809 43.2284 79.9809Z" fill="#272727" fill-opacity="0.7"/><path d="M31.6741 80.9254V73.3537H33.2325L35.5465 79.1466H35.5885L37.9025 73.3537H39.4609V80.9254H38.2436V75.5365H37.6139L38.9887 73.5635L36.0292 80.9254H35.1057L32.1463 73.5635L33.5158 75.5365H32.8914V80.9254H31.6741Z" fill="#272727" fill-opacity="0.7"/></g></g><defs><filter id="filter0_d_1836_9581" x="0" y="0" width="194" height="117" filterUnits="userSpaceOnUse" color-interpolation-filters="sRGB"><feFlood flood-opacity="0" result="BackgroundImageFix"/><feColorMatrix in="SourceAlpha" type="matrix" values="0 0 0 0 0 0 0 0 0 0 0 0 0 0 0 0 0 0 127 0" result="hardAlpha"/><feOffset dy="4"/><feGaussianBlur stdDeviation="6"/><feComposite in2="hardAlpha" operator="out"/><feColorMatrix type="matrix" values="0 0 0 0 0.0590918 0 0 0 0 0.105306 0 0 0 0 0.213141 0 0 0 0.06 0"/><feBlend mode="normal" in2="BackgroundImageFix" result="effect1_dropShadow_1836_9581"/><feBlend mode="normal" in="SourceGraphic" in2="effect1_dropShadow_1836_9581" result="shape"/></filter><clipPath id="clip0_1836_9581"><rect width="150" height="77" fill="white" transform="translate(22 16)"/></clipPath></defs></svg>