<svg width="194" height="105" viewBox="0 0 194 105" fill="none" xmlns="http://www.w3.org/2000/svg"><g filter="url(#filter0_d_1836_11123)"><path d="M12 16C12 11.5817 15.5817 8 20 8H174C178.418 8 182 11.5817 182 16V81C182 85.4183 178.418 89 174 89H20C15.5817 89 12 85.4183 12 81V16Z" fill="white"/><path d="M29.1641 24.6124H88.2686C91.9779 24.6124 94.9853 27.6189 94.9854 31.3282V74.7609C94.9854 78.4702 91.9779 81.4777 88.2686 81.4777H29.1641C25.4547 81.4776 22.4482 78.4702 22.4482 74.7609V31.3282C22.4483 27.619 25.4548 24.6125 29.1641 24.6124Z" fill="#F3F0FE"/><path d="M29.1641 24.6124H88.2686C91.9779 24.6124 94.9853 27.6189 94.9854 31.3282V74.7609C94.9854 78.4702 91.9779 81.4777 88.2686 81.4777H29.1641C25.4547 81.4776 22.4482 78.4702 22.4482 74.7609V31.3282C22.4483 27.619 25.4548 24.6125 29.1641 24.6124Z" stroke="#AB7DFF" stroke-width="0.895522"/><path d="M62.2705 64.0154C62.5722 64.0154 62.8595 64.0718 63.1324 64.1846C63.4052 64.2974 63.6466 64.4706 63.8565 64.7041C64.069 64.9376 64.2356 65.238 64.3563 65.6053C64.477 65.9726 64.5373 66.4121 64.5373 66.9237V66.9315C64.5373 67.5691 64.4455 68.1148 64.2618 68.5687C64.0782 69.0226 63.8158 69.3702 63.4747 69.6116C63.1337 69.8529 62.7244 69.9736 62.2469 69.9736C61.898 69.9736 61.5831 69.9106 61.3024 69.7847C61.0243 69.6562 60.7934 69.4804 60.6098 69.2574C60.4261 69.0344 60.3041 68.7786 60.2438 68.49L60.2359 68.4467H61.2316L61.2473 68.4821C61.2972 68.6159 61.368 68.7326 61.4598 68.8323C61.5543 68.9294 61.6671 69.0055 61.7983 69.0606C61.9321 69.1157 62.0816 69.1432 62.2469 69.1432C62.5486 69.1432 62.7939 69.0553 62.9828 68.8796C63.1743 68.7012 63.3173 68.4637 63.4118 68.1673C63.5062 67.8682 63.56 67.5376 63.5731 67.1755C63.5757 67.1362 63.5771 67.0981 63.5771 67.0614C63.5771 67.0221 63.5771 66.984 63.5771 66.9473L63.4 66.0028C63.4 65.785 63.3501 65.5896 63.2504 65.4164C63.1507 65.2406 63.0156 65.1016 62.8451 64.9993C62.6772 64.8943 62.4883 64.8418 62.2784 64.8418C62.0711 64.8418 61.8822 64.893 61.7117 64.9953C61.5411 65.095 61.4047 65.2301 61.3024 65.4007C61.2001 65.5712 61.1489 65.764 61.1489 65.9792V65.987C61.1489 66.2048 61.1975 66.399 61.2945 66.5695C61.3916 66.7374 61.5241 66.8699 61.692 66.967C61.8625 67.064 62.0541 67.1126 62.2666 67.1126C62.4817 67.1126 62.6745 67.0653 62.8451 66.9709C63.0156 66.8738 63.1507 66.7426 63.2504 66.5774C63.3501 66.4121 63.4 66.2219 63.4 66.0067V66.0028H63.6361V67.0417H63.5023C63.4341 67.1913 63.3331 67.3316 63.1993 67.4628C63.0655 67.5914 62.9002 67.695 62.7034 67.7737C62.5066 67.8524 62.2771 67.8918 62.0147 67.8918C61.6526 67.8918 61.3313 67.8104 61.0505 67.6478C60.7724 67.4851 60.5547 67.2621 60.3973 66.9788C60.2398 66.6954 60.1611 66.3753 60.1611 66.0185V66.0107C60.1611 65.6276 60.2503 65.2852 60.4287 64.9835C60.6098 64.6818 60.859 64.4457 61.1765 64.2751C61.4965 64.102 61.8612 64.0154 62.2705 64.0154Z" fill="#272727"/><path d="M56.9104 64.0154C57.2121 64.0154 57.4994 64.0718 57.7723 64.1846C58.0451 64.2974 58.2865 64.4706 58.4964 64.7041C58.7089 64.9376 58.8755 65.238 58.9962 65.6053C59.1168 65.9726 59.1772 66.4121 59.1772 66.9237V66.9315C59.1772 67.5691 59.0854 68.1148 58.9017 68.5687C58.7181 69.0226 58.4557 69.3702 58.1146 69.6116C57.7736 69.8529 57.3643 69.9736 56.8868 69.9736C56.5378 69.9736 56.223 69.9106 55.9423 69.7847C55.6642 69.6562 55.4333 69.4804 55.2497 69.2574C55.066 69.0344 54.944 68.7786 54.8837 68.49L54.8758 68.4467H55.8715L55.8872 68.4821C55.937 68.6159 56.0079 68.7326 56.0997 68.8323C56.1942 68.9294 56.307 69.0055 56.4382 69.0606C56.572 69.1157 56.7215 69.1432 56.8868 69.1432C57.1885 69.1432 57.4338 69.0553 57.6227 68.8796C57.8142 68.7012 57.9572 68.4637 58.0517 68.1673C58.1461 67.8682 58.1999 67.5376 58.213 67.1755C58.2156 67.1362 58.217 67.0981 58.217 67.0614C58.217 67.0221 58.217 66.984 58.217 66.9473L58.0399 66.0028C58.0399 65.785 57.99 65.5896 57.8903 65.4164C57.7906 65.2406 57.6555 65.1016 57.485 64.9993C57.3171 64.8943 57.1282 64.8418 56.9183 64.8418C56.711 64.8418 56.5221 64.893 56.3516 64.9953C56.181 65.095 56.0446 65.2301 55.9423 65.4007C55.84 65.5712 55.7888 65.764 55.7888 65.9792V65.987C55.7888 66.2048 55.8373 66.399 55.9344 66.5695C56.0315 66.7374 56.164 66.8699 56.3319 66.967C56.5024 67.064 56.694 67.1126 56.9065 67.1126C57.1216 67.1126 57.3144 67.0653 57.485 66.9709C57.6555 66.8738 57.7906 66.7426 57.8903 66.5774C57.99 66.4121 58.0399 66.2219 58.0399 66.0067V66.0028H58.276V67.0417H58.1422C58.074 67.1913 57.973 67.3316 57.8392 67.4628C57.7054 67.5914 57.5401 67.695 57.3433 67.7737C57.1465 67.8524 56.917 67.8918 56.6546 67.8918C56.2925 67.8918 55.9712 67.8104 55.6904 67.6478C55.4123 67.4851 55.1946 67.2621 55.0371 66.9788C54.8797 66.6954 54.801 66.3753 54.801 66.0185V66.0107C54.801 65.6276 54.8902 65.2852 55.0686 64.9835C55.2497 64.6818 55.4989 64.4457 55.8164 64.2751C56.1364 64.102 56.5011 64.0154 56.9104 64.0154Z" fill="#272727"/><path d="M53.3056 69.9106C53.1299 69.9106 52.9816 69.8516 52.8609 69.7335C52.7429 69.6128 52.6838 69.4659 52.6838 69.2928C52.6838 69.1196 52.7429 68.974 52.8609 68.8559C52.9816 68.7352 53.1299 68.6749 53.3056 68.6749C53.4867 68.6749 53.6362 68.7352 53.7543 68.8559C53.8723 68.974 53.9314 69.1196 53.9314 69.2928C53.9314 69.4659 53.8723 69.6128 53.7543 69.7335C53.6362 69.8516 53.4867 69.9106 53.3056 69.9106Z" fill="#272727"/><path d="M49.6143 64.0154C49.916 64.0154 50.2033 64.0718 50.4761 64.1846C50.749 64.2974 50.9903 64.4706 51.2002 64.7041C51.4127 64.9376 51.5793 65.238 51.7 65.6053C51.8207 65.9726 51.881 66.4121 51.881 66.9237V66.9315C51.881 67.5691 51.7892 68.1148 51.6056 68.5687C51.4219 69.0226 51.1596 69.3702 50.8185 69.6116C50.4774 69.8529 50.0681 69.9736 49.5906 69.9736C49.2417 69.9736 48.9269 69.9106 48.6461 69.7847C48.368 69.6562 48.1372 69.4804 47.9535 69.2574C47.7699 69.0344 47.6479 68.7786 47.5875 68.49L47.5797 68.4467H48.5753L48.5911 68.4821C48.6409 68.6159 48.7117 68.7326 48.8036 68.8323C48.898 68.9294 49.0108 69.0055 49.142 69.0606C49.2758 69.1157 49.4254 69.1432 49.5906 69.1432C49.8924 69.1432 50.1377 69.0553 50.3266 68.8796C50.5181 68.7012 50.6611 68.4637 50.7555 68.1673C50.85 67.8682 50.9038 67.5376 50.9169 67.1755C50.9195 67.1362 50.9208 67.0981 50.9208 67.0614C50.9208 67.0221 50.9208 66.984 50.9208 66.9473L50.7437 66.0028C50.7437 65.785 50.6939 65.5896 50.5942 65.4164C50.4945 65.2406 50.3594 65.1016 50.1888 64.9993C50.0209 64.8943 49.832 64.8418 49.6221 64.8418C49.4149 64.8418 49.226 64.893 49.0554 64.9953C48.8849 65.095 48.7485 65.2301 48.6461 65.4007C48.5438 65.5712 48.4927 65.764 48.4927 65.9792V65.987C48.4927 66.2048 48.5412 66.399 48.6383 66.5695C48.7354 66.7374 48.8678 66.8699 49.0358 66.967C49.2063 67.064 49.3978 67.1126 49.6103 67.1126C49.8255 67.1126 50.0183 67.0653 50.1888 66.9709C50.3594 66.8738 50.4945 66.7426 50.5942 66.5774C50.6939 66.4121 50.7437 66.2219 50.7437 66.0067V66.0028H50.9798V67.0417H50.846C50.7778 67.1913 50.6768 67.3316 50.543 67.4628C50.4092 67.5914 50.2439 67.695 50.0472 67.7737C49.8504 67.8524 49.6208 67.8918 49.3585 67.8918C48.9964 67.8918 48.675 67.8104 48.3943 67.6478C48.1162 67.4851 47.8984 67.2621 47.741 66.9788C47.5836 66.6954 47.5049 66.3753 47.5049 66.0185V66.0107C47.5049 65.6276 47.5941 65.2852 47.7725 64.9835C47.9535 64.6818 48.2028 64.4457 48.5202 64.2751C48.8403 64.102 49.205 64.0154 49.6143 64.0154Z" fill="#272727"/><path d="M44.8209 69.8359V68.7458H42.0425V67.9154C42.1894 67.6583 42.3389 67.4025 42.4911 67.148C42.6433 66.8909 42.7968 66.6351 42.9516 66.3806C43.109 66.1235 43.2651 65.8703 43.4199 65.6211C43.5773 65.3692 43.7334 65.1213 43.8882 64.8773C44.0456 64.6333 44.2017 64.3932 44.3565 64.1571H45.789V67.9075H46.5564V68.7458H45.789V69.8359H44.8209ZM42.983 67.9312H44.8366V64.9678H44.7815C44.6635 65.1462 44.5428 65.3299 44.4195 65.5188C44.2988 65.7077 44.1768 65.9005 44.0535 66.0973C43.9302 66.294 43.8069 66.4921 43.6835 66.6915C43.5629 66.8909 43.4435 67.0903 43.3254 67.2897C43.2074 67.4865 43.0932 67.6819 42.983 67.8761V67.9312Z" fill="#272727"/><path d="M38.9769 69.7532C38.5938 69.7532 38.2462 69.6915 37.934 69.5682C37.6244 69.4423 37.3765 69.2612 37.1902 69.0251C37.0039 68.7864 36.9042 68.4978 36.8911 68.1593V68.1554L37.8081 68.1515V68.1593C37.8343 68.3194 37.892 68.461 37.9812 68.5844C38.073 68.705 38.2016 68.7995 38.3669 68.8677C38.5348 68.9359 38.7434 68.97 38.9926 68.97C39.2497 68.97 39.4596 68.9399 39.6223 68.8795C39.7876 68.8165 39.9096 68.73 39.9883 68.6198C40.067 68.507 40.1063 68.3797 40.1063 68.238V68.2302C40.1063 68.036 40.0381 67.8799 39.9017 67.7619C39.7653 67.6438 39.5134 67.5415 39.1461 67.4549L38.5558 67.3211C38.22 67.2424 37.9353 67.1374 37.7018 67.0063C37.4709 66.8751 37.2951 66.7124 37.1745 66.5183C37.0564 66.3215 36.9974 66.0867 36.9974 65.8138V65.806C36.9974 65.4833 37.0826 65.2052 37.2532 64.9717C37.4263 64.7382 37.6611 64.5584 37.9576 64.4325C38.2567 64.304 38.5965 64.2397 38.9769 64.2397C39.3625 64.2397 39.7036 64.3066 40.0001 64.4404C40.2965 64.5716 40.5314 64.7565 40.7045 64.9953C40.8803 65.234 40.9747 65.5161 40.9879 65.8414L40.9839 65.8493L40.0709 65.8532V65.8453C40.0499 65.6669 39.9909 65.5174 39.8938 65.3967C39.7994 65.2734 39.6734 65.1802 39.516 65.1173C39.3612 65.0543 39.1841 65.0228 38.9847 65.0228C38.7591 65.0228 38.5689 65.0556 38.4141 65.1212C38.2593 65.1868 38.1426 65.2734 38.0639 65.3809C37.9852 65.4885 37.9458 65.6066 37.9458 65.7351V65.743C37.9458 65.8584 37.976 65.9621 38.0363 66.0539C38.0967 66.1457 38.1924 66.227 38.3236 66.2979C38.4574 66.3687 38.6319 66.4304 38.847 66.4829L39.4373 66.6167C39.9647 66.7373 40.3661 66.9144 40.6416 67.1479C40.917 67.3814 41.0548 67.7107 41.0548 68.1357V68.1436C41.0548 68.4899 40.9616 68.7837 40.7754 69.0251C40.5917 69.2639 40.3438 69.4449 40.0316 69.5682C39.7194 69.6915 39.3678 69.7532 38.9769 69.7532ZM38.7565 70.3986V63.5864H39.2169V70.3986H38.7565Z" fill="#272727"/><path d="M79.0552 69.8358V66.5362H79.5878V67.026H79.6367C79.7 66.8525 79.8071 66.7178 79.9581 66.6219C80.1091 66.526 80.2958 66.4781 80.5183 66.4781C80.5693 66.4781 80.6193 66.4811 80.6683 66.4873C80.7193 66.4913 80.758 66.4954 80.7846 66.4995V67.0168C80.7295 67.0066 80.6754 66.9994 80.6223 66.9954C80.5713 66.9892 80.5162 66.9862 80.4571 66.9862C80.2877 66.9862 80.1377 67.0198 80.0071 67.0872C79.8765 67.1545 79.7735 67.2484 79.698 67.3688C79.6245 67.4892 79.5878 67.63 79.5878 67.7912V69.8358H79.0552Z" fill="#272727" fill-opacity="0.5"/><path d="M76.5025 69.894C76.2944 69.894 76.1067 69.8542 75.9393 69.7746C75.7741 69.695 75.6424 69.5818 75.5445 69.4349C75.4486 69.2879 75.4006 69.1145 75.4006 68.9145V68.9084C75.4006 68.7125 75.4476 68.5452 75.5414 68.4064C75.6353 68.2656 75.772 68.1554 75.9516 68.0758C76.1312 67.9963 76.3485 67.9493 76.6036 67.935L77.8157 67.8616V68.287L76.6678 68.3605C76.4168 68.3748 76.2332 68.4268 76.1169 68.5166C76.0026 68.6064 75.9455 68.7329 75.9455 68.8962V68.9023C75.9455 69.0696 76.0087 69.2002 76.1352 69.2941C76.2618 69.3859 76.4209 69.4318 76.6127 69.4318C76.7943 69.4318 76.9556 69.3961 77.0964 69.3247C77.2372 69.2512 77.3473 69.1523 77.4269 69.0278C77.5086 68.9033 77.5494 68.7625 77.5494 68.6054V67.5769C77.5494 67.3729 77.4871 67.2178 77.3627 67.1117C77.2402 67.0035 77.0555 66.9494 76.8086 66.9494C76.6107 66.9494 76.4485 66.9852 76.322 67.0566C76.1954 67.126 76.1108 67.2249 76.0679 67.3535L76.0648 67.3627H75.5323L75.5353 67.3443C75.5639 67.1708 75.6353 67.0198 75.7496 66.8913C75.8659 66.7607 76.0159 66.6597 76.1995 66.5883C76.3832 66.5148 76.5923 66.4781 76.827 66.4781C77.0964 66.4781 77.3239 66.5219 77.5096 66.6097C77.6973 66.6974 77.8391 66.824 77.935 66.9892C78.033 67.1525 78.082 67.3484 78.082 67.5769V69.8358H77.5494V69.3492H77.5004C77.431 69.4655 77.3463 69.5644 77.2463 69.6461C77.1484 69.7277 77.0372 69.7899 76.9127 69.8328C76.7882 69.8736 76.6515 69.894 76.5025 69.894Z" fill="#272727" fill-opacity="0.5"/><path d="M73.3619 69.894C73.0477 69.894 72.7773 69.8246 72.5508 69.6859C72.3263 69.5471 72.1529 69.3512 72.0304 69.0982C71.9101 68.8431 71.8499 68.5431 71.8499 68.1983V68.1952C71.8499 67.8544 71.9101 67.5555 72.0304 67.2984C72.1529 67.0413 72.3253 66.8403 72.5477 66.6954C72.7702 66.5505 73.0303 66.4781 73.3283 66.4781C73.6282 66.4781 73.8853 66.5475 74.0996 66.6862C74.3159 66.825 74.4812 67.0188 74.5955 67.2678C74.7118 67.5147 74.7699 67.8024 74.7699 68.1309V68.3391H72.1253V67.9136H74.4975L74.2343 68.3024V68.0912C74.2343 67.832 74.1955 67.6188 74.118 67.4514C74.0404 67.2841 73.9333 67.1596 73.7966 67.078C73.6598 66.9943 73.5027 66.9525 73.3252 66.9525C73.1477 66.9525 72.9885 66.9964 72.8477 67.0841C72.7089 67.1698 72.5987 67.2974 72.5171 67.4667C72.4355 67.6361 72.3947 67.8442 72.3947 68.0912V68.3024C72.3947 68.537 72.4345 68.738 72.5141 68.9053C72.5936 69.0706 72.7069 69.1982 72.8538 69.2879C73.0007 69.3757 73.1742 69.4196 73.3742 69.4196C73.5231 69.4196 73.6527 69.3992 73.7629 69.3583C73.8731 69.3175 73.9639 69.2655 74.0353 69.2022C74.1067 69.139 74.1567 69.0747 74.1853 69.0094L74.1975 68.9819H74.7301L74.724 69.0063C74.6954 69.1186 74.6444 69.2278 74.571 69.3339C74.4995 69.4379 74.4067 69.5328 74.2924 69.6185C74.1782 69.7022 74.0425 69.7695 73.8853 69.8205C73.7302 69.8695 73.5558 69.894 73.3619 69.894Z" fill="#272727" fill-opacity="0.5"/><path d="M69.0156 70.9928C68.9809 70.9928 68.9421 70.9908 68.8993 70.9867C68.8564 70.9847 68.8167 70.9806 68.7799 70.9745V70.5368C68.8126 70.5429 68.8483 70.547 68.8871 70.549C68.9258 70.551 68.9636 70.5521 69.0003 70.5521C69.1513 70.5521 69.2748 70.5133 69.3707 70.4358C69.4686 70.3582 69.5472 70.2246 69.6064 70.0348L69.6676 69.8389L68.4463 66.5362H69.0156L70.0318 69.5848L69.8206 69.2512H70.0716L69.8604 69.5848L70.8736 66.5362H71.4337L70.1451 70.0378C70.0553 70.2848 69.9604 70.4776 69.8604 70.6163C69.7604 70.7551 69.6431 70.852 69.5084 70.9071C69.3758 70.9643 69.2115 70.9928 69.0156 70.9928Z" fill="#272727" fill-opacity="0.5"/><path d="M68.235 65.2262L66.8393 70.9378H66.3281L67.7239 65.2262H68.235Z" fill="#272727" fill-opacity="0.5"/><path d="M83.6267 58.6418V54.0322H84.1593V55.8381H84.2083C84.2919 55.6626 84.4123 55.5269 84.5695 55.431C84.7266 55.333 84.9266 55.284 85.1694 55.284C85.4163 55.284 85.6255 55.332 85.7969 55.4279C85.9683 55.5218 86.0989 55.6595 86.1887 55.8411C86.2784 56.0227 86.3233 56.2441 86.3233 56.5053V58.6418H85.7907V56.6339C85.7907 56.336 85.7275 56.1156 85.601 55.9727C85.4765 55.8279 85.2826 55.7554 85.0194 55.7554C84.8439 55.7554 84.6919 55.7932 84.5633 55.8687C84.4348 55.9442 84.3348 56.0513 84.2634 56.1901C84.194 56.3288 84.1593 56.4951 84.1593 56.689V58.6418H83.6267Z" fill="#272727" fill-opacity="0.5"/><path d="M82.4911 58.6663C82.1524 58.6663 81.9065 58.5979 81.7534 58.4612C81.6024 58.3245 81.5269 58.099 81.5269 57.7848V55.783H81.0066V55.3422H81.5269V54.4882H82.0779V55.3422H82.8003V55.783H82.0779V57.6501C82.0779 57.844 82.1146 57.9837 82.1881 58.0694C82.2615 58.1531 82.384 58.1949 82.5554 58.1949C82.6023 58.1949 82.6421 58.1939 82.6748 58.1919C82.7095 58.1898 82.7513 58.1868 82.8003 58.1827V58.6357C82.7492 58.6439 82.6982 58.651 82.6472 58.6571C82.5962 58.6632 82.5442 58.6663 82.4911 58.6663Z" fill="#272727" fill-opacity="0.5"/><path d="M77.658 58.6418V55.3422H78.1905V55.8381H78.2395C78.3232 55.6626 78.4436 55.5269 78.6007 55.431C78.7578 55.333 78.9578 55.2841 79.2006 55.2841C79.572 55.2841 79.8567 55.3902 80.0546 55.6024C80.2546 55.8126 80.3546 56.1136 80.3546 56.5054V58.6418H79.822V56.6339C79.822 56.336 79.7587 56.1156 79.6322 55.9728C79.5077 55.8279 79.3139 55.7554 79.0507 55.7554C78.8752 55.7554 78.7231 55.7932 78.5946 55.8687C78.466 55.9442 78.366 56.0513 78.2946 56.1901C78.2252 56.3288 78.1905 56.4952 78.1905 56.689V58.6418H77.658Z" fill="#272727" fill-opacity="0.5"/><path d="M75.3103 58.7C74.9981 58.7 74.7277 58.6316 74.4992 58.4949C74.2727 58.3562 74.0972 58.1592 73.9727 57.9042C73.8503 57.6491 73.7891 57.3461 73.7891 56.9951V56.989C73.7891 56.636 73.8503 56.3319 73.9727 56.0768C74.0972 55.8218 74.2727 55.6259 74.4992 55.4892C74.7277 55.3524 74.9981 55.2841 75.3103 55.2841C75.6246 55.2841 75.8949 55.3524 76.1214 55.4892C76.3479 55.6259 76.5224 55.8218 76.6449 56.0768C76.7693 56.3319 76.8316 56.636 76.8316 56.989V56.9951C76.8316 57.3461 76.7693 57.6491 76.6449 57.9042C76.5224 58.1592 76.3479 58.3562 76.1214 58.4949C75.8949 58.6316 75.6246 58.7 75.3103 58.7ZM75.3103 58.2286C75.5185 58.2286 75.695 58.1797 75.8398 58.0817C75.9847 57.9838 76.0949 57.843 76.1704 57.6593C76.248 57.4757 76.2867 57.2543 76.2867 56.9951V56.989C76.2867 56.7278 76.248 56.5054 76.1704 56.3217C76.0949 56.1381 75.9847 55.9983 75.8398 55.9024C75.695 55.8044 75.5185 55.7554 75.3103 55.7554C75.1022 55.7554 74.9257 55.8044 74.7808 55.9024C74.6359 55.9983 74.5247 56.1381 74.4471 56.3217C74.3716 56.5054 74.3339 56.7278 74.3339 56.989V56.9951C74.3339 57.2543 74.3716 57.4757 74.4471 57.6593C74.5247 57.843 74.6359 57.9838 74.7808 58.0817C74.9257 58.1797 75.1022 58.2286 75.3103 58.2286Z" fill="#272727" fill-opacity="0.5"/><path d="M68.4998 58.6418V55.3422H69.0323V55.8442H69.0813C69.1548 55.6667 69.267 55.5289 69.418 55.431C69.5711 55.333 69.7557 55.2841 69.972 55.2841C70.121 55.2841 70.2547 55.3086 70.373 55.3575C70.4914 55.4065 70.5934 55.4749 70.6791 55.5626C70.7648 55.6483 70.8332 55.7483 70.8842 55.8626H70.9331C70.9923 55.7463 71.0719 55.6453 71.1719 55.5596C71.2719 55.4718 71.3872 55.4045 71.5178 55.3575C71.6504 55.3086 71.7922 55.2841 71.9432 55.2841C72.1677 55.2841 72.3575 55.3259 72.5126 55.4096C72.6697 55.4932 72.7891 55.6157 72.8707 55.7769C72.9523 55.936 72.9931 56.1309 72.9931 56.3615V58.6418H72.4605V56.4839C72.4605 56.3207 72.435 56.186 72.384 56.0799C72.335 55.9717 72.2595 55.8911 72.1575 55.8381C72.0555 55.783 71.9269 55.7554 71.7718 55.7554C71.6188 55.7554 71.4851 55.7901 71.3708 55.8595C71.2566 55.9289 71.1678 56.0217 71.1046 56.1381C71.0413 56.2523 71.0097 56.3799 71.0097 56.5207V58.6418H70.4771V56.4013C70.4771 56.2707 70.4485 56.1574 70.3914 56.0615C70.3363 55.9636 70.2567 55.8881 70.1526 55.835C70.0506 55.782 69.9302 55.7554 69.7914 55.7554C69.6486 55.7554 69.519 55.7932 69.4027 55.8687C69.2884 55.9442 69.1976 56.0462 69.1303 56.1748C69.065 56.3013 69.0323 56.4421 69.0323 56.5972V58.6418H68.4998Z" fill="#272727" fill-opacity="0.5"/><path d="M63.6147 59.7988C63.58 59.7988 63.5413 59.7968 63.4984 59.7927C63.4556 59.7907 63.4158 59.7866 63.379 59.7805V59.3428C63.4117 59.3489 63.4474 59.353 63.4862 59.355C63.5249 59.357 63.5627 59.3581 63.5994 59.3581C63.7504 59.3581 63.8739 59.3193 63.9698 59.2418C64.0677 59.1642 64.1463 59.0306 64.2055 58.8408L64.2667 58.6449L63.0454 55.3422H63.6147L64.6309 58.3908L64.4197 58.0572H64.6707L64.4595 58.3908L65.4727 55.3422H66.0328L64.7442 58.8438C64.6544 59.0908 64.5595 59.2836 64.4595 59.4223C64.3595 59.5611 64.2422 59.658 64.1075 59.7131C63.9749 59.7703 63.8106 59.7988 63.6147 59.7988Z" fill="#272727" fill-opacity="0.5"/><path d="M60.915 58.6418V55.3422H61.4476V55.832H61.4966C61.5599 55.6585 61.667 55.5238 61.818 55.4279C61.969 55.332 62.1557 55.2841 62.3781 55.2841C62.4291 55.2841 62.4791 55.2871 62.5281 55.2933C62.5791 55.2973 62.6179 55.3014 62.6444 55.3055V55.8228C62.5893 55.8126 62.5353 55.8054 62.4822 55.8014C62.4312 55.7952 62.3761 55.7922 62.3169 55.7922C62.1475 55.7922 61.9976 55.8258 61.867 55.8932C61.7364 55.9605 61.6333 56.0544 61.5578 56.1748C61.4844 56.2952 61.4476 56.436 61.4476 56.5972V58.6418H60.915Z" fill="#272727" fill-opacity="0.5"/><path d="M58.6805 58.7C58.3663 58.7 58.0959 58.6306 57.8694 58.4919C57.6449 58.3531 57.4715 58.1572 57.349 57.9042C57.2287 57.6491 57.1685 57.3491 57.1685 57.0043V57.0012C57.1685 56.6604 57.2287 56.3615 57.349 56.1044C57.4715 55.8473 57.6439 55.6463 57.8663 55.5014C58.0888 55.3565 58.3489 55.2841 58.6469 55.2841C58.9468 55.2841 59.2039 55.3535 59.4182 55.4922C59.6345 55.631 59.7998 55.8248 59.9141 56.0738C60.0304 56.3207 60.0885 56.6084 60.0885 56.9369V57.1451H57.4439V56.7196H59.8161L59.5529 57.1083V56.8972C59.5529 56.638 59.5141 56.4248 59.4366 56.2574C59.359 56.0901 59.2519 55.9656 59.1152 55.884C58.9784 55.8003 58.8213 55.7585 58.6438 55.7585C58.4663 55.7585 58.3071 55.8024 58.1663 55.8901C58.0275 55.9758 57.9173 56.1034 57.8357 56.2727C57.7541 56.4421 57.7133 56.6502 57.7133 56.8972V57.1083C57.7133 57.343 57.7531 57.544 57.8327 57.7113C57.9122 57.8766 58.0255 58.0042 58.1724 58.0939C58.3193 58.1817 58.4928 58.2256 58.6928 58.2256C58.8417 58.2256 58.9713 58.2052 59.0815 58.1643C59.1917 58.1235 59.2825 58.0715 59.3539 58.0082C59.4253 57.945 59.4753 57.8807 59.5039 57.8154L59.5161 57.7879H60.0487L60.0426 57.8123C60.014 57.9246 59.963 58.0338 59.8896 58.1399C59.8181 58.2439 59.7253 58.3388 59.611 58.4245C59.4968 58.5082 59.3611 58.5755 59.2039 58.6265C59.0488 58.6755 58.8744 58.7 58.6805 58.7Z" fill="#272727" fill-opacity="0.5"/><path d="M54.9923 58.6418L53.771 55.3422H54.3342L55.2372 58.0603H55.2861L56.1891 55.3422H56.7523L55.531 58.6418H54.9923Z" fill="#272727" fill-opacity="0.5"/><path d="M51.8854 58.7C51.5711 58.7 51.3007 58.6306 51.0742 58.4919C50.8498 58.3531 50.6763 58.1572 50.5539 57.9042C50.4335 57.6491 50.3733 57.3491 50.3733 57.0043V57.0012C50.3733 56.6604 50.4335 56.3615 50.5539 56.1044C50.6763 55.8473 50.8487 55.6463 51.0712 55.5014C51.2936 55.3565 51.5538 55.2841 51.8517 55.2841C52.1517 55.2841 52.4088 55.3535 52.623 55.4922C52.8393 55.631 53.0046 55.8248 53.1189 56.0738C53.2352 56.3207 53.2934 56.6084 53.2934 56.9369V57.1451H50.6488V56.7196H53.0209L52.7577 57.1083V56.8972C52.7577 56.638 52.7189 56.4248 52.6414 56.2574C52.5639 56.0901 52.4567 55.9656 52.32 55.884C52.1833 55.8003 52.0262 55.7585 51.8486 55.7585C51.6711 55.7585 51.5119 55.8024 51.3711 55.8901C51.2324 55.9758 51.1222 56.1034 51.0406 56.2727C50.9589 56.4421 50.9181 56.6502 50.9181 56.8972V57.1083C50.9181 57.343 50.9579 57.544 51.0375 57.7113C51.1171 57.8766 51.2303 58.0042 51.3773 58.0939C51.5242 58.1817 51.6976 58.2256 51.8976 58.2256C52.0466 58.2256 52.1761 58.2052 52.2863 58.1643C52.3965 58.1235 52.4873 58.0715 52.5588 58.0082C52.6302 57.945 52.6802 57.8807 52.7087 57.8154L52.721 57.7879H53.2536L53.2474 57.8123C53.2189 57.9246 53.1679 58.0338 53.0944 58.1399C53.023 58.2439 52.9301 58.3388 52.8159 58.4245C52.7016 58.5082 52.5659 58.5755 52.4088 58.6265C52.2537 58.6755 52.0792 58.7 51.8854 58.7Z" fill="#272727" fill-opacity="0.5"/><path d="M46.3024 58.7459C45.9759 58.7459 45.6963 58.652 45.4637 58.4643C45.2331 58.2765 45.0556 58.0103 44.9311 57.6654C44.8066 57.3185 44.7444 56.9083 44.7444 56.4349V56.4288C44.7444 55.9554 44.8066 55.5463 44.9311 55.2014C45.0556 54.8565 45.2331 54.5902 45.4637 54.4025C45.6963 54.2148 45.9759 54.1209 46.3024 54.1209C46.6289 54.1209 46.9084 54.2148 47.141 54.4025C47.3737 54.5902 47.5522 54.8565 47.6767 55.2014C47.8032 55.5463 47.8665 55.9554 47.8665 56.4288V56.4349C47.8665 56.9083 47.8032 57.3185 47.6767 57.6654C47.5522 58.0103 47.3737 58.2765 47.141 58.4643C46.9084 58.652 46.6289 58.7459 46.3024 58.7459ZM46.3024 58.2653C46.5146 58.2653 46.6952 58.1908 46.8441 58.0419C46.9951 57.8929 47.1104 57.6817 47.19 57.4083C47.2716 57.1348 47.3125 56.8104 47.3125 56.4349V56.4288C47.3125 56.0533 47.2716 55.7299 47.19 55.4585C47.1104 55.1851 46.9951 54.9749 46.8441 54.828C46.6952 54.679 46.5146 54.6045 46.3024 54.6045C46.0922 54.6045 45.9116 54.679 45.7606 54.828C45.6116 54.9749 45.4974 55.1851 45.4178 55.4585C45.3382 55.7299 45.2984 56.0533 45.2984 56.4288V56.4349C45.2984 56.8104 45.3382 57.1348 45.4178 57.4083C45.4974 57.6817 45.6116 57.8929 45.7606 58.0419C45.9116 58.1908 46.0922 58.2653 46.3024 58.2653Z" fill="#272727" fill-opacity="0.5"/><path d="M42.2774 54.1209C42.4794 54.1209 42.6784 54.1597 42.8743 54.2372C43.0722 54.3148 43.2508 54.4403 43.4099 54.6137C43.5712 54.7872 43.6997 55.0167 43.7956 55.3024C43.8915 55.586 43.9395 55.936 43.9395 56.3523V56.3584C43.9395 56.8604 43.8721 57.2899 43.7375 57.647C43.6028 58.0021 43.4089 58.2745 43.1559 58.4643C42.9029 58.652 42.5978 58.7459 42.2407 58.7459C41.9938 58.7459 41.7703 58.701 41.5704 58.6112C41.3724 58.5194 41.2071 58.3918 41.0745 58.2286C40.9419 58.0653 40.85 57.8756 40.799 57.6593L40.7898 57.6195H41.3439L41.3561 57.6532C41.401 57.7756 41.4643 57.8817 41.5459 57.9715C41.6295 58.0613 41.7295 58.1306 41.8458 58.1796C41.9642 58.2286 42.0979 58.2531 42.2468 58.2531C42.5141 58.2531 42.7315 58.1755 42.8988 58.0205C43.0661 57.8633 43.1906 57.6552 43.2722 57.396C43.3538 57.1369 43.3997 56.8543 43.4099 56.5482C43.412 56.5196 43.413 56.4921 43.413 56.4655C43.413 56.437 43.413 56.4094 43.413 56.3829L43.2814 55.6483C43.2814 55.4544 43.2365 55.2789 43.1467 55.1218C43.059 54.9647 42.9396 54.8402 42.7886 54.7484C42.6396 54.6545 42.4713 54.6076 42.2835 54.6076C42.0999 54.6076 41.9326 54.6535 41.7816 54.7453C41.6306 54.8351 41.5102 54.9575 41.4204 55.1126C41.3306 55.2657 41.2857 55.4381 41.2857 55.6299V55.636C41.2857 55.8319 41.3286 56.0064 41.4143 56.1594C41.5 56.3105 41.6173 56.4298 41.7663 56.5176C41.9152 56.6033 42.0846 56.6461 42.2744 56.6461C42.4662 56.6461 42.6376 56.6033 42.7886 56.5176C42.9396 56.4319 43.059 56.3145 43.1467 56.1656C43.2365 56.0146 43.2814 55.8432 43.2814 55.6513V55.6483H43.462V56.4441H43.3549C43.3018 56.5645 43.2202 56.6767 43.11 56.7808C43.0018 56.8849 42.8692 56.9685 42.7121 57.0318C42.557 57.0951 42.3795 57.1267 42.1795 57.1267C41.904 57.1267 41.6571 57.0624 41.4387 56.9338C41.2204 56.8053 41.048 56.6298 40.9215 56.4074C40.7949 56.1829 40.7317 55.9299 40.7317 55.6483V55.6422C40.7317 55.3483 40.798 55.0871 40.9306 54.8586C41.0653 54.628 41.249 54.4474 41.4816 54.3168C41.7163 54.1862 41.9815 54.1209 42.2774 54.1209Z" fill="#272727" fill-opacity="0.5"/><path d="M39.6543 58.6724C39.5461 58.6724 39.4522 58.6337 39.3727 58.5561C39.2951 58.4765 39.2563 58.3827 39.2563 58.2745C39.2563 58.1643 39.2951 58.0705 39.3727 57.9929C39.4522 57.9154 39.5461 57.8766 39.6543 57.8766C39.7645 57.8766 39.8583 57.9154 39.9359 57.9929C40.0134 58.0705 40.0522 58.1643 40.0522 58.2745C40.0522 58.3827 40.0134 58.4765 39.9359 58.5561C39.8583 58.6337 39.7645 58.6724 39.6543 58.6724Z" fill="#272727" fill-opacity="0.5"/><path d="M37.4135 58.6418V57.7266H35.2617V57.2246C35.3821 57.0246 35.5045 56.8226 35.629 56.6186C35.7535 56.4125 35.879 56.2074 36.0055 56.0033C36.1341 55.7972 36.2626 55.5932 36.3912 55.3912C36.5197 55.1891 36.6473 54.9902 36.7738 54.7943C36.9023 54.5984 37.0289 54.4086 37.1533 54.225H37.9522V57.2338H38.5797V57.7266H37.9522V58.6418H37.4135ZM35.8249 57.2369H37.4166V54.7361H37.3798C37.2799 54.8851 37.1778 55.0402 37.0738 55.2014C36.9697 55.3605 36.8636 55.5238 36.7554 55.6911C36.6493 55.8584 36.5432 56.0268 36.4371 56.1962C36.331 56.3655 36.2259 56.5349 36.1218 56.7043C36.0198 56.8716 35.9208 57.0369 35.8249 57.2001V57.2369Z" fill="#272727" fill-opacity="0.5"/><path d="M32.9479 58.5775C32.6765 58.5775 32.4244 58.5285 32.1918 58.4306C31.9592 58.3327 31.7704 58.1919 31.6256 58.0082C31.4827 57.8245 31.4062 57.6042 31.396 57.3471V57.344L31.9286 57.3409V57.3471C31.949 57.4879 31.9969 57.6154 32.0724 57.7297C32.1479 57.8439 32.2571 57.9347 32.4 58.0021C32.5448 58.0674 32.7295 58.1 32.954 58.1C33.1846 58.1 33.3692 58.0694 33.508 58.0082C33.6488 57.9449 33.7508 57.8613 33.8141 57.7572C33.8773 57.6511 33.909 57.5348 33.909 57.4083V57.4021C33.909 57.2348 33.8559 57.0961 33.7498 56.9859C33.6457 56.8736 33.4417 56.7808 33.1376 56.7073L32.6816 56.5971C32.4285 56.5359 32.2143 56.4563 32.0388 56.3584C31.8653 56.2584 31.7337 56.136 31.6439 55.9911C31.5541 55.8462 31.5092 55.6738 31.5092 55.4738V55.4677C31.5092 55.2289 31.5715 55.0218 31.696 54.8463C31.8225 54.6688 31.9939 54.5321 32.2102 54.4362C32.4265 54.3382 32.6724 54.2892 32.9479 54.2892C33.2111 54.2892 33.4498 54.3392 33.6641 54.4392C33.8804 54.5392 34.0549 54.68 34.1875 54.8616C34.3201 55.0412 34.3905 55.2524 34.3987 55.4952V55.4983L33.8661 55.5014V55.4952C33.8518 55.3401 33.8029 55.2085 33.7192 55.1004C33.6376 54.9922 33.5304 54.9096 33.3978 54.8524C33.2652 54.7953 33.1152 54.7667 32.9479 54.7667C32.7499 54.7667 32.5836 54.7994 32.4489 54.8647C32.3143 54.9279 32.2122 55.0106 32.1428 55.1126C32.0755 55.2126 32.0418 55.3187 32.0418 55.431V55.4371C32.0418 55.535 32.0643 55.6258 32.1092 55.7095C32.1561 55.7932 32.2316 55.8676 32.3357 55.9329C32.4398 55.9982 32.5806 56.0523 32.7581 56.0952L33.2142 56.2054C33.608 56.2992 33.911 56.4349 34.1232 56.6124C34.3354 56.79 34.4416 57.0389 34.4416 57.3593V57.3654C34.4416 57.6287 34.3722 57.8511 34.2334 58.0327C34.0947 58.2123 33.912 58.348 33.6855 58.4398C33.459 58.5316 33.2131 58.5775 32.9479 58.5775ZM32.752 59.0856V53.7811H33.1193V59.0856H32.752Z" fill="#272727" fill-opacity="0.5"/><path d="M67.5351 46.7162C67.4748 46.7162 67.4118 46.7149 67.3462 46.7123C67.2807 46.7097 67.2177 46.7044 67.1573 46.6966V45.9449C67.1993 45.9502 67.2452 45.9541 67.2951 45.9567C67.3476 45.9593 67.4 45.9607 67.4525 45.9607C67.6519 45.9607 67.8119 45.9174 67.9326 45.8308C68.0559 45.7442 68.1438 45.6025 68.1963 45.4058L68.2514 45.2129L66.7126 40.9155H67.7791L68.9125 44.7092L68.6528 44.2724H68.9794L68.7276 44.7092L69.857 40.9155H70.8881L69.3454 45.3034C69.2247 45.6602 69.0844 45.941 68.9243 46.1456C68.7643 46.3529 68.5715 46.4998 68.3458 46.5864C68.1228 46.673 67.8526 46.7162 67.5351 46.7162Z" fill="#272727"/><path d="M64.8748 45.209V39.2548H65.8547V45.209H64.8748Z" fill="#272727"/><path d="M61.5178 45.209V40.9155H62.4938V41.5767H62.5607C62.6342 41.3431 62.7653 41.1634 62.9542 41.0375C63.1458 40.9089 63.3819 40.8447 63.6626 40.8447C63.7361 40.8447 63.8069 40.8486 63.8751 40.8565C63.946 40.8643 64.0063 40.8748 64.0562 40.888V41.7655C63.9774 41.7472 63.8974 41.7341 63.8161 41.7262C63.7374 41.7157 63.6561 41.7105 63.5721 41.7105C63.3543 41.7105 63.1641 41.7511 63.0015 41.8325C62.8414 41.9138 62.7168 42.0292 62.6276 42.1788C62.5384 42.3283 62.4938 42.5067 62.4938 42.714V45.209H61.5178Z" fill="#272727"/><path d="M58.0664 45.2799C57.7935 45.2799 57.5508 45.2274 57.3383 45.1224C57.1258 45.0175 56.9579 44.8693 56.8346 44.6777C56.7139 44.4836 56.6536 44.2567 56.6536 43.9969V43.989C56.6536 43.7319 56.7165 43.5116 56.8425 43.3279C56.9684 43.1442 57.152 42.9999 57.3934 42.895C57.6374 42.7901 57.9339 42.7271 58.2828 42.7061L59.8727 42.6117V43.2571L58.4206 43.3515C58.1477 43.3673 57.9457 43.425 57.8145 43.5247C57.6833 43.6244 57.6177 43.7621 57.6177 43.9379V43.9458C57.6177 44.1294 57.6873 44.2724 57.8263 44.3747C57.9654 44.477 58.1438 44.5282 58.3615 44.5282C58.5583 44.5282 58.7341 44.4888 58.8889 44.4101C59.0437 44.3314 59.1657 44.2252 59.2549 44.0914C59.3441 43.9549 59.3887 43.8015 59.3887 43.6309V42.2771C59.3887 42.062 59.3205 41.8967 59.184 41.7813C59.0476 41.6658 58.8469 41.6081 58.5819 41.6081C58.3563 41.6081 58.1726 41.6475 58.031 41.7262C57.8893 41.8049 57.7935 41.9151 57.7437 42.0568L57.7397 42.0725H56.8149L56.8189 42.041C56.853 41.797 56.9474 41.5845 57.1022 41.4035C57.2596 41.2225 57.4682 41.0821 57.7279 40.9824C57.9877 40.8801 58.2881 40.8289 58.6291 40.8289C58.9964 40.8289 59.3086 40.8866 59.5658 41.0021C59.8255 41.1175 60.0223 41.2828 60.1561 41.4979C60.2899 41.7131 60.3568 41.9715 60.3568 42.2732V45.209H59.3887V44.6148H59.3218C59.2431 44.7538 59.1407 44.8732 59.0148 44.9729C58.8915 45.0726 58.7498 45.1487 58.5898 45.2011C58.4297 45.2536 58.2553 45.2799 58.0664 45.2799Z" fill="#272727"/><path d="M53.9896 45.2956C53.5645 45.2956 53.1985 45.2051 52.8916 45.0241C52.5872 44.843 52.3524 44.5872 52.1871 44.2567C52.0219 43.9235 51.9392 43.5286 51.9392 43.0721V43.0682C51.9392 42.6169 52.0205 42.2247 52.1832 41.8915C52.3485 41.5557 52.582 41.2946 52.8837 41.1083C53.1854 40.9221 53.5396 40.8289 53.9463 40.8289C54.3529 40.8289 54.7032 40.9194 54.997 41.1005C55.2935 41.2789 55.5217 41.5294 55.6818 41.8521C55.8418 42.1748 55.9218 42.5526 55.9218 42.9855V43.3082H52.4311V42.651H55.4417L54.9773 43.2649V42.8753C54.9773 42.5894 54.934 42.3519 54.8475 42.163C54.7609 41.9741 54.6402 41.8324 54.4854 41.738C54.3332 41.6435 54.1575 41.5963 53.9581 41.5963C53.7561 41.5963 53.5763 41.6462 53.4189 41.7459C53.2641 41.8429 53.1408 41.9872 53.049 42.1788C52.9598 42.3677 52.9152 42.5998 52.9152 42.8753V43.2689C52.9152 43.5312 52.9598 43.7569 53.049 43.9458C53.1382 44.1347 53.2641 44.279 53.4268 44.3787C53.5921 44.4783 53.7875 44.5282 54.0132 44.5282C54.1889 44.5282 54.3398 44.5033 54.4657 44.4534C54.5917 44.401 54.694 44.3393 54.7727 44.2685C54.854 44.195 54.9091 44.1242 54.938 44.0559L54.9498 44.0284H55.8785L55.8707 44.0678C55.8366 44.2068 55.7736 44.3485 55.6818 44.4928C55.5926 44.6345 55.4706 44.7669 55.3158 44.8903C55.1636 45.0109 54.9773 45.1093 54.757 45.1854C54.5366 45.2589 54.2808 45.2956 53.9896 45.2956Z" fill="#272727"/><path d="M49.0231 45.209V42.9698L47.0317 39.5302H48.1415L49.4953 41.9702H49.5622L50.916 39.5302H52.0258L50.0344 42.9698V45.209H49.0231Z" fill="#272727"/><g clip-path="url(#clip0_1836_11123)"><path d="M25.3582 32.2239C25.3582 32.8413 25.4798 33.4527 25.716 34.0231C25.9523 34.5935 26.2986 35.1118 26.7352 35.5484C27.1718 35.985 27.6901 36.3313 28.2605 36.5675C28.8309 36.8038 29.4422 36.9254 30.0596 36.9254C30.6771 36.9254 31.2884 36.8038 31.8588 36.5675C32.4292 36.3313 32.9475 35.985 33.3841 35.5484C33.8207 35.1118 34.167 34.5935 34.4033 34.0231C34.6395 33.4527 34.7611 32.8413 34.7611 32.2239C34.7611 31.6065 34.6395 30.9952 34.4033 30.4247C34.167 29.8543 33.8207 29.336 33.3841 28.8995C32.9475 28.4629 32.4292 28.1166 31.8588 27.8803C31.2884 27.644 30.6771 27.5224 30.0596 27.5224C29.4422 27.5224 28.8309 27.644 28.2605 27.8803C27.6901 28.1166 27.1718 28.4629 26.7352 28.8995C26.2986 29.336 25.9523 29.8543 25.716 30.4247C25.4798 30.9952 25.3582 31.6065 25.3582 32.2239Z" fill="#AB7DFF" stroke="#AB7DFF" stroke-width="1.04478" stroke-linecap="round" stroke-linejoin="round"/><path d="M28.4924 32.2239L29.5372 33.2687L31.6268 31.1791" stroke="white" stroke-width="0.671642" stroke-linecap="round" stroke-linejoin="round"/></g><path d="M98.5671 31.3284C98.5671 27.3717 101.775 24.1642 105.731 24.1642H164.836C168.792 24.1642 172 27.3717 172 31.3284V74.7612C172 78.7179 168.792 81.9254 164.836 81.9254H105.731C101.775 81.9254 98.5671 78.7179 98.5671 74.7612V31.3284Z" fill="#F9F9F9"/><path d="M138.05 64.0154C138.352 64.0154 138.639 64.0718 138.912 64.1846C139.185 64.2974 139.426 64.4706 139.636 64.7041C139.848 64.9376 140.015 65.238 140.136 65.6053C140.256 65.9726 140.317 66.4121 140.317 66.9237V66.9315C140.317 67.5691 140.225 68.1148 140.041 68.5687C139.857 69.0226 139.595 69.3702 139.254 69.6116C138.913 69.8529 138.504 69.9736 138.026 69.9736C137.677 69.9736 137.362 69.9106 137.082 69.7847C136.804 69.6562 136.573 69.4804 136.389 69.2574C136.205 69.0344 136.083 68.7786 136.023 68.49L136.015 68.4467H137.011L137.027 68.4821C137.076 68.6159 137.147 68.7326 137.239 68.8323C137.334 68.9294 137.446 69.0055 137.578 69.0606C137.711 69.1157 137.861 69.1432 138.026 69.1432C138.328 69.1432 138.573 69.0553 138.762 68.8796C138.954 68.7012 139.097 68.4637 139.191 68.1673C139.286 67.8682 139.339 67.5376 139.352 67.1755C139.355 67.1362 139.356 67.0981 139.356 67.0614C139.356 67.0221 139.356 66.984 139.356 66.9473L139.179 66.0028C139.179 65.785 139.129 65.5896 139.03 65.4164C138.93 65.2406 138.795 65.1016 138.624 64.9993C138.456 64.8943 138.268 64.8418 138.058 64.8418C137.85 64.8418 137.662 64.893 137.491 64.9953C137.32 65.095 137.184 65.2301 137.082 65.4007C136.979 65.5712 136.928 65.764 136.928 65.9792V65.987C136.928 66.2048 136.977 66.399 137.074 66.5695C137.171 66.7374 137.303 66.8699 137.471 66.967C137.642 67.064 137.833 67.1126 138.046 67.1126C138.261 67.1126 138.454 67.0653 138.624 66.9709C138.795 66.8738 138.93 66.7426 139.03 66.5774C139.129 66.4121 139.179 66.2219 139.179 66.0067V66.0028H139.415V67.0417H139.282C139.213 67.1913 139.112 67.3316 138.979 67.4628C138.845 67.5914 138.679 67.695 138.483 67.7737C138.286 67.8524 138.056 67.8918 137.794 67.8918C137.432 67.8918 137.111 67.8104 136.83 67.6478C136.552 67.4851 136.334 67.2621 136.177 66.9788C136.019 66.6954 135.94 66.3753 135.94 66.0185V66.0107C135.94 65.6276 136.03 65.2852 136.208 64.9835C136.389 64.6818 136.638 64.4457 136.956 64.2751C137.276 64.102 137.641 64.0154 138.05 64.0154Z" fill="#272727" fill-opacity="0.7"/><path d="M132.69 64.0154C132.992 64.0154 133.279 64.0718 133.552 64.1846C133.825 64.2974 134.066 64.4706 134.276 64.7041C134.488 64.9376 134.655 65.238 134.776 65.6053C134.896 65.9726 134.957 66.4121 134.957 66.9237V66.9315C134.957 67.5691 134.865 68.1148 134.681 68.5687C134.498 69.0226 134.235 69.3702 133.894 69.6116C133.553 69.8529 133.144 69.9736 132.666 69.9736C132.317 69.9736 132.003 69.9106 131.722 69.7847C131.444 69.6562 131.213 69.4804 131.029 69.2574C130.846 69.0344 130.724 68.7786 130.663 68.49L130.655 68.4467H131.651L131.667 68.4821C131.717 68.6159 131.787 68.7326 131.879 68.8323C131.974 68.9294 132.087 69.0055 132.218 69.0606C132.351 69.1157 132.501 69.1432 132.666 69.1432C132.968 69.1432 133.213 69.0553 133.402 68.8796C133.594 68.7012 133.737 68.4637 133.831 68.1673C133.926 67.8682 133.979 67.5376 133.993 67.1755C133.995 67.1362 133.996 67.0981 133.996 67.0614C133.996 67.0221 133.996 66.984 133.996 66.9473L133.819 66.0028C133.819 65.785 133.77 65.5896 133.67 65.4164C133.57 65.2406 133.435 65.1016 133.265 64.9993C133.097 64.8943 132.908 64.8418 132.698 64.8418C132.491 64.8418 132.302 64.893 132.131 64.9953C131.961 65.095 131.824 65.2301 131.722 65.4007C131.62 65.5712 131.568 65.764 131.568 65.9792V65.987C131.568 66.2048 131.617 66.399 131.714 66.5695C131.811 66.7374 131.944 66.8699 132.111 66.967C132.282 67.064 132.473 67.1126 132.686 67.1126C132.901 67.1126 133.094 67.0653 133.265 66.9709C133.435 66.8738 133.57 66.7426 133.67 66.5774C133.77 66.4121 133.819 66.2219 133.819 66.0067V66.0028H134.056V67.0417H133.922C133.854 67.1913 133.752 67.3316 133.619 67.4628C133.485 67.5914 133.32 67.695 133.123 67.7737C132.926 67.8524 132.697 67.8918 132.434 67.8918C132.072 67.8918 131.751 67.8104 131.47 67.6478C131.192 67.4851 130.974 67.2621 130.817 66.9788C130.659 66.6954 130.581 66.3753 130.581 66.0185V66.0107C130.581 65.6276 130.67 65.2852 130.848 64.9835C131.029 64.6818 131.278 64.4457 131.596 64.2751C131.916 64.102 132.281 64.0154 132.69 64.0154Z" fill="#272727" fill-opacity="0.7"/><path d="M129.085 69.9106C128.909 69.9106 128.761 69.8516 128.64 69.7335C128.522 69.6128 128.463 69.4659 128.463 69.2928C128.463 69.1196 128.522 68.974 128.64 68.8559C128.761 68.7352 128.909 68.6749 129.085 68.6749C129.266 68.6749 129.416 68.7352 129.534 68.8559C129.652 68.974 129.711 69.1196 129.711 69.2928C129.711 69.4659 129.652 69.6128 129.534 69.7335C129.416 69.8516 129.266 69.9106 129.085 69.9106Z" fill="#272727" fill-opacity="0.7"/><path d="M125.362 69.95C124.927 69.95 124.542 69.8805 124.209 69.7414C123.876 69.5997 123.615 69.4056 123.426 69.159C123.24 68.9097 123.146 68.6237 123.146 68.301V68.2932C123.146 68.0492 123.2 67.8275 123.308 67.6281C123.418 67.4287 123.57 67.2621 123.764 67.1283C123.958 66.9919 124.181 66.8987 124.433 66.8489V66.8253C124.108 66.7387 123.846 66.5839 123.646 66.3609C123.45 66.1353 123.351 65.8703 123.351 65.5659V65.5581C123.351 65.2668 123.436 65.0071 123.607 64.7789C123.78 64.5506 124.018 64.3709 124.319 64.2397C124.624 64.1085 124.971 64.0429 125.362 64.0429C125.753 64.0429 126.099 64.1085 126.401 64.2397C126.705 64.3709 126.943 64.5506 127.113 64.7789C127.284 65.0071 127.369 65.2668 127.369 65.5581V65.5659C127.369 65.8703 127.271 66.1353 127.074 66.3609C126.877 66.5839 126.616 66.7387 126.291 66.8253V66.8489C126.543 66.8987 126.766 66.9919 126.96 67.1283C127.154 67.2621 127.305 67.4287 127.412 67.6281C127.523 67.8275 127.578 68.0492 127.578 68.2932V68.301C127.578 68.6237 127.483 68.9097 127.294 69.159C127.108 69.4056 126.848 69.5997 126.515 69.7414C126.182 69.8805 125.798 69.95 125.362 69.95ZM125.362 69.1747C125.59 69.1747 125.791 69.1353 125.964 69.0566C126.14 68.9753 126.278 68.8638 126.377 68.7221C126.477 68.5778 126.527 68.4152 126.527 68.2341V68.2263C126.527 68.0426 126.477 67.88 126.377 67.7383C126.28 67.594 126.144 67.4812 125.968 67.3998C125.792 67.3185 125.59 67.2778 125.362 67.2778C125.131 67.2778 124.928 67.3185 124.752 67.3998C124.579 67.4812 124.443 67.594 124.343 67.7383C124.246 67.88 124.197 68.0426 124.197 68.2263V68.2341C124.197 68.4152 124.247 68.5778 124.347 68.7221C124.446 68.8638 124.583 68.9753 124.756 69.0566C124.932 69.1353 125.134 69.1747 125.362 69.1747ZM125.362 66.5026C125.562 66.5026 125.736 66.4671 125.886 66.3963C126.038 66.3228 126.156 66.2232 126.24 66.0972C126.326 65.9713 126.37 65.8257 126.37 65.6604V65.6525C126.37 65.4872 126.326 65.3416 126.24 65.2157C126.156 65.0871 126.038 64.9874 125.886 64.9166C125.733 64.8458 125.559 64.8103 125.362 64.8103C125.165 64.8103 124.991 64.8458 124.839 64.9166C124.687 64.9874 124.567 65.0871 124.481 65.2157C124.397 65.3416 124.355 65.4872 124.355 65.6525V65.6604C124.355 65.8257 124.397 65.9713 124.481 66.0972C124.567 66.2232 124.685 66.3228 124.835 66.3963C124.987 66.4671 125.163 66.5026 125.362 66.5026Z" fill="#272727" fill-opacity="0.7"/><path d="M120.022 69.7532C119.639 69.7532 119.291 69.6915 118.979 69.5682C118.669 69.4423 118.421 69.2612 118.235 69.0251C118.049 68.7864 117.949 68.4978 117.936 68.1593V68.1554L118.853 68.1515V68.1593C118.879 68.3194 118.937 68.461 119.026 68.5844C119.118 68.705 119.247 68.7995 119.412 68.8677C119.58 68.9359 119.788 68.97 120.038 68.97C120.295 68.97 120.505 68.9399 120.667 68.8795C120.832 68.8165 120.954 68.73 121.033 68.6198C121.112 68.507 121.151 68.3797 121.151 68.238V68.2302C121.151 68.036 121.083 67.8799 120.947 67.7619C120.81 67.6438 120.558 67.5415 120.191 67.4549L119.601 67.3211C119.265 67.2424 118.98 67.1374 118.747 67.0063C118.516 66.8751 118.34 66.7124 118.219 66.5183C118.101 66.3215 118.042 66.0867 118.042 65.8138V65.806C118.042 65.4833 118.128 65.2052 118.298 64.9717C118.471 64.7382 118.706 64.5584 119.003 64.4325C119.302 64.304 119.641 64.2397 120.022 64.2397C120.407 64.2397 120.749 64.3066 121.045 64.4404C121.341 64.5716 121.576 64.7565 121.749 64.9953C121.925 65.234 122.02 65.5161 122.033 65.8414L122.029 65.8493L121.116 65.8532V65.8453C121.095 65.6669 121.036 65.5174 120.939 65.3967C120.844 65.2734 120.718 65.1802 120.561 65.1173C120.406 65.0543 120.229 65.0228 120.03 65.0228C119.804 65.0228 119.614 65.0556 119.459 65.1212C119.304 65.1868 119.187 65.2734 119.109 65.3809C119.03 65.4885 118.991 65.6066 118.991 65.7351V65.743C118.991 65.8584 119.021 65.9621 119.081 66.0539C119.142 66.1457 119.237 66.227 119.369 66.2979C119.502 66.3687 119.677 66.4304 119.892 66.4829L120.482 66.6167C121.01 66.7373 121.411 66.9144 121.686 67.1479C121.962 67.3814 122.1 67.7107 122.1 68.1357V68.1436C122.1 68.4899 122.007 68.7837 121.82 69.0251C121.637 69.2639 121.389 69.4449 121.076 69.5682C120.764 69.6915 120.413 69.7532 120.022 69.7532ZM119.801 70.3986V63.5864H120.262V70.3986H119.801Z" fill="#272727" fill-opacity="0.7"/><path d="M151.217 69.894C150.904 69.894 150.634 69.8256 150.405 69.6889C150.179 69.5502 150.003 69.3532 149.879 69.0982C149.757 68.8431 149.695 68.5401 149.695 68.1891V68.183C149.695 67.83 149.757 67.5259 149.879 67.2708C150.003 67.0158 150.179 66.8199 150.405 66.6832C150.634 66.5464 150.904 66.4781 151.217 66.4781C151.531 66.4781 151.801 66.5464 152.028 66.6832C152.254 66.8199 152.429 67.0158 152.551 67.2708C152.676 67.5259 152.738 67.83 152.738 68.183V68.1891C152.738 68.5401 152.676 68.8431 152.551 69.0982C152.429 69.3532 152.254 69.5502 152.028 69.6889C151.801 69.8256 151.531 69.894 151.217 69.894ZM151.217 69.4226C151.425 69.4226 151.601 69.3737 151.746 69.2757C151.891 69.1778 152.001 69.037 152.077 68.8533C152.154 68.6697 152.193 68.4483 152.193 68.1891V68.183C152.193 67.9218 152.154 67.6994 152.077 67.5157C152.001 67.3321 151.891 67.1923 151.746 67.0964C151.601 66.9984 151.425 66.9494 151.217 66.9494C151.008 66.9494 150.832 66.9984 150.687 67.0964C150.542 67.1923 150.431 67.3321 150.353 67.5157C150.278 67.6994 150.24 67.9218 150.24 68.183V68.1891C150.24 68.4483 150.278 68.6697 150.353 68.8533C150.431 69.037 150.542 69.1778 150.687 69.2757C150.832 69.3737 151.008 69.4226 151.217 69.4226Z" fill="#272727" fill-opacity="0.5"/><path d="M144.406 69.8358V66.5362H144.939V67.0382H144.988C145.061 66.8607 145.173 66.7229 145.324 66.625C145.477 66.527 145.662 66.4781 145.878 66.4781C146.027 66.4781 146.161 66.5026 146.279 66.5515C146.398 66.6005 146.5 66.6689 146.585 66.7566C146.671 66.8423 146.739 66.9423 146.79 67.0566H146.839C146.899 66.9403 146.978 66.8393 147.078 66.7536C147.178 66.6658 147.293 66.5985 147.424 66.5515C147.557 66.5026 147.698 66.4781 147.849 66.4781C148.074 66.4781 148.264 66.5199 148.419 66.6036C148.576 66.6872 148.695 66.8097 148.777 66.9709C148.859 67.13 148.899 67.3249 148.899 67.5555V69.8358H148.367V67.6779C148.367 67.5147 148.341 67.38 148.29 67.2739C148.241 67.1657 148.166 67.0851 148.064 67.0321C147.962 66.977 147.833 66.9494 147.678 66.9494C147.525 66.9494 147.391 66.9841 147.277 67.0535C147.163 67.1229 147.074 67.2157 147.011 67.3321C146.948 67.4463 146.916 67.5739 146.916 67.7147V69.8358H146.383V67.5953C146.383 67.4647 146.355 67.3514 146.298 67.2555C146.243 67.1576 146.163 67.0821 146.059 67.029C145.957 66.976 145.836 66.9494 145.698 66.9494C145.555 66.9494 145.425 66.9872 145.309 67.0627C145.195 67.1382 145.104 67.2402 145.037 67.3688C144.971 67.4953 144.939 67.6361 144.939 67.7912V69.8358H144.406Z" fill="#272727" fill-opacity="0.5"/><path d="M143.907 65.2262L142.511 70.9378H142L143.396 65.2262H143.907Z" fill="#272727" fill-opacity="0.5"/><path d="M160.043 58.6418V54.0322H160.576V55.8381H160.625C160.708 55.6626 160.829 55.5269 160.986 55.431C161.143 55.333 161.343 55.284 161.586 55.284C161.833 55.284 162.042 55.332 162.213 55.4279C162.385 55.5218 162.515 55.6595 162.605 55.8411C162.695 56.0227 162.74 56.2441 162.74 56.5053V58.6418H162.207V56.6339C162.207 56.336 162.144 56.1156 162.017 55.9727C161.893 55.8279 161.699 55.7554 161.436 55.7554C161.26 55.7554 161.108 55.7932 160.98 55.8687C160.851 55.9442 160.751 56.0513 160.68 56.1901C160.61 56.3288 160.576 56.4951 160.576 56.689V58.6418H160.043Z" fill="#272727" fill-opacity="0.5"/><path d="M158.907 58.6663C158.569 58.6663 158.323 58.5979 158.17 58.4612C158.019 58.3245 157.943 58.099 157.943 57.7848V55.783H157.423V55.3422H157.943V54.4882H158.494V55.3422H159.217V55.783H158.494V57.6501C158.494 57.844 158.531 57.9837 158.604 58.0694C158.678 58.1531 158.8 58.1949 158.972 58.1949C159.019 58.1949 159.058 58.1939 159.091 58.1919C159.126 58.1898 159.168 58.1868 159.217 58.1827V58.6357C159.166 58.6439 159.114 58.651 159.063 58.6571C159.012 58.6632 158.96 58.6663 158.907 58.6663Z" fill="#272727" fill-opacity="0.5"/><path d="M154.074 58.6418V55.3422H154.607V55.8381H154.656C154.739 55.6626 154.86 55.5269 155.017 55.431C155.174 55.333 155.374 55.2841 155.617 55.2841C155.988 55.2841 156.273 55.3902 156.471 55.6024C156.671 55.8126 156.771 56.1136 156.771 56.5054V58.6418H156.238V56.6339C156.238 56.336 156.175 56.1156 156.048 55.9728C155.924 55.8279 155.73 55.7554 155.467 55.7554C155.291 55.7554 155.139 55.7932 155.011 55.8687C154.882 55.9442 154.782 56.0513 154.711 56.1901C154.641 56.3288 154.607 56.4952 154.607 56.689V58.6418H154.074Z" fill="#272727" fill-opacity="0.5"/><path d="M151.727 58.7C151.414 58.7 151.144 58.6316 150.915 58.4949C150.689 58.3562 150.513 58.1592 150.389 57.9042C150.267 57.6491 150.205 57.3461 150.205 56.9951V56.989C150.205 56.636 150.267 56.3319 150.389 56.0768C150.513 55.8218 150.689 55.6259 150.915 55.4892C151.144 55.3524 151.414 55.2841 151.727 55.2841C152.041 55.2841 152.311 55.3524 152.538 55.4892C152.764 55.6259 152.939 55.8218 153.061 56.0768C153.186 56.3319 153.248 56.636 153.248 56.989V56.9951C153.248 57.3461 153.186 57.6491 153.061 57.9042C152.939 58.1592 152.764 58.3562 152.538 58.4949C152.311 58.6316 152.041 58.7 151.727 58.7ZM151.727 58.2286C151.935 58.2286 152.111 58.1797 152.256 58.0817C152.401 57.9838 152.511 57.843 152.587 57.6593C152.664 57.4757 152.703 57.2543 152.703 56.9951V56.989C152.703 56.7278 152.664 56.5054 152.587 56.3217C152.511 56.1381 152.401 55.9983 152.256 55.9024C152.111 55.8044 151.935 55.7554 151.727 55.7554C151.518 55.7554 151.342 55.8044 151.197 55.9024C151.052 55.9983 150.941 56.1381 150.863 56.3217C150.788 56.5054 150.75 56.7278 150.75 56.989V56.9951C150.75 57.2543 150.788 57.4757 150.863 57.6593C150.941 57.843 151.052 57.9838 151.197 58.0817C151.342 58.1797 151.518 58.2286 151.727 58.2286Z" fill="#272727" fill-opacity="0.5"/><path d="M144.916 58.6418V55.3422H145.449V55.8442H145.498C145.571 55.6667 145.683 55.5289 145.834 55.431C145.987 55.333 146.172 55.2841 146.388 55.2841C146.537 55.2841 146.671 55.3086 146.789 55.3575C146.908 55.4065 147.01 55.4749 147.095 55.5626C147.181 55.6483 147.249 55.7483 147.3 55.8626H147.349C147.409 55.7463 147.488 55.6453 147.588 55.5596C147.688 55.4718 147.803 55.4045 147.934 55.3575C148.067 55.3086 148.208 55.2841 148.359 55.2841C148.584 55.2841 148.774 55.3259 148.929 55.4096C149.086 55.4932 149.205 55.6157 149.287 55.7769C149.369 55.936 149.409 56.1309 149.409 56.3615V58.6418H148.877V56.4839C148.877 56.3207 148.851 56.186 148.8 56.0799C148.751 55.9717 148.676 55.8911 148.574 55.8381C148.472 55.783 148.343 55.7554 148.188 55.7554C148.035 55.7554 147.901 55.7901 147.787 55.8595C147.673 55.9289 147.584 56.0217 147.521 56.1381C147.458 56.2523 147.426 56.3799 147.426 56.5207V58.6418H146.893V56.4013C146.893 56.2707 146.865 56.1574 146.808 56.0615C146.753 55.9636 146.673 55.8881 146.569 55.835C146.467 55.782 146.346 55.7554 146.208 55.7554C146.065 55.7554 145.935 55.7932 145.819 55.8687C145.705 55.9442 145.614 56.0462 145.547 56.1748C145.481 56.3013 145.449 56.4421 145.449 56.5972V58.6418H144.916Z" fill="#272727" fill-opacity="0.5"/><path d="M140.031 59.7988C139.996 59.7988 139.958 59.7968 139.915 59.7927C139.872 59.7907 139.832 59.7866 139.795 59.7805V59.3428C139.828 59.3489 139.864 59.353 139.902 59.355C139.941 59.357 139.979 59.3581 140.016 59.3581C140.167 59.3581 140.29 59.3193 140.386 59.2418C140.484 59.1642 140.563 59.0306 140.622 58.8408L140.683 58.6449L139.462 55.3422H140.031L141.047 58.3908L140.836 58.0572H141.087L140.876 58.3908L141.889 55.3422H142.449L141.16 58.8438C141.071 59.0908 140.976 59.2836 140.876 59.4223C140.776 59.5611 140.658 59.658 140.524 59.7131C140.391 59.7703 140.227 59.7988 140.031 59.7988Z" fill="#272727" fill-opacity="0.5"/><path d="M137.331 58.6418V55.3422H137.864V55.832H137.913C137.976 55.6585 138.083 55.5238 138.234 55.4279C138.385 55.332 138.572 55.2841 138.794 55.2841C138.845 55.2841 138.895 55.2871 138.944 55.2933C138.995 55.2973 139.034 55.3014 139.061 55.3055V55.8228C139.006 55.8126 138.952 55.8054 138.898 55.8014C138.847 55.7952 138.792 55.7922 138.733 55.7922C138.564 55.7922 138.414 55.8258 138.283 55.8932C138.153 55.9605 138.05 56.0544 137.974 56.1748C137.901 56.2952 137.864 56.436 137.864 56.5972V58.6418H137.331Z" fill="#272727" fill-opacity="0.5"/><path d="M135.097 58.7C134.783 58.7 134.512 58.6306 134.286 58.4919C134.061 58.3531 133.888 58.1572 133.765 57.9042C133.645 57.6491 133.585 57.3491 133.585 57.0043V57.0012C133.585 56.6604 133.645 56.3615 133.765 56.1044C133.888 55.8473 134.06 55.6463 134.283 55.5014C134.505 55.3565 134.765 55.2841 135.063 55.2841C135.363 55.2841 135.62 55.3535 135.834 55.4922C136.051 55.631 136.216 55.8248 136.33 56.0738C136.447 56.3207 136.505 56.6084 136.505 56.9369V57.1451H133.86V56.7196H136.232L135.969 57.1083V56.8972C135.969 56.638 135.93 56.4248 135.853 56.2574C135.775 56.0901 135.668 55.9656 135.531 55.884C135.395 55.8003 135.238 55.7585 135.06 55.7585C134.883 55.7585 134.723 55.8024 134.583 55.8901C134.444 55.9758 134.334 56.1034 134.252 56.2727C134.17 56.4421 134.13 56.6502 134.13 56.8972V57.1083C134.13 57.343 134.169 57.544 134.249 57.7113C134.329 57.8766 134.442 58.0042 134.589 58.0939C134.736 58.1817 134.909 58.2256 135.109 58.2256C135.258 58.2256 135.388 58.2052 135.498 58.1643C135.608 58.1235 135.699 58.0715 135.77 58.0082C135.842 57.945 135.892 57.8807 135.92 57.8154L135.932 57.7879H136.465L136.459 57.8123C136.43 57.9246 136.379 58.0338 136.306 58.1399C136.234 58.2439 136.142 58.3388 136.027 58.4245C135.913 58.5082 135.777 58.5755 135.62 58.6265C135.465 58.6755 135.291 58.7 135.097 58.7Z" fill="#272727" fill-opacity="0.5"/><path d="M131.409 58.6418L130.187 55.3422H130.75L131.653 58.0603H131.702L132.605 55.3422H133.169L131.947 58.6418H131.409Z" fill="#272727" fill-opacity="0.5"/><path d="M128.302 58.7C127.987 58.7 127.717 58.6306 127.49 58.4919C127.266 58.3531 127.093 58.1572 126.97 57.9042C126.85 57.6491 126.79 57.3491 126.79 57.0043V57.0012C126.79 56.6604 126.85 56.3615 126.97 56.1044C127.093 55.8473 127.265 55.6463 127.487 55.5014C127.71 55.3565 127.97 55.2841 128.268 55.2841C128.568 55.2841 128.825 55.3535 129.039 55.4922C129.256 55.631 129.421 55.8248 129.535 56.0738C129.651 56.3207 129.71 56.6084 129.71 56.9369V57.1451H127.065V56.7196H129.437L129.174 57.1083V56.8972C129.174 56.638 129.135 56.4248 129.058 56.2574C128.98 56.0901 128.873 55.9656 128.736 55.884C128.6 55.8003 128.442 55.7585 128.265 55.7585C128.087 55.7585 127.928 55.8024 127.787 55.8901C127.649 55.9758 127.538 56.1034 127.457 56.2727C127.375 56.4421 127.334 56.6502 127.334 56.8972V57.1083C127.334 57.343 127.374 57.544 127.454 57.7113C127.533 57.8766 127.647 58.0042 127.794 58.0939C127.94 58.1817 128.114 58.2256 128.314 58.2256C128.463 58.2256 128.592 58.2052 128.703 58.1643C128.813 58.1235 128.904 58.0715 128.975 58.0082C129.046 57.945 129.096 57.8807 129.125 57.8154L129.137 57.7879H129.67L129.664 57.8123C129.635 57.9246 129.584 58.0338 129.511 58.1399C129.439 58.2439 129.346 58.3388 129.232 58.4245C129.118 58.5082 128.982 58.5755 128.825 58.6265C128.67 58.6755 128.495 58.7 128.302 58.7Z" fill="#272727" fill-opacity="0.5"/><path d="M122.642 54.1209C122.844 54.1209 123.043 54.1597 123.239 54.2372C123.437 54.3148 123.616 54.4403 123.775 54.6137C123.936 54.7872 124.064 55.0167 124.16 55.3024C124.256 55.586 124.304 55.936 124.304 56.3523V56.3584C124.304 56.8604 124.237 57.2899 124.102 57.647C123.968 58.0021 123.774 58.2745 123.521 58.4643C123.268 58.652 122.963 58.7459 122.605 58.7459C122.359 58.7459 122.135 58.701 121.935 58.6112C121.737 58.5194 121.572 58.3918 121.439 58.2286C121.307 58.0653 121.215 57.8756 121.164 57.6593L121.155 57.6195H121.709L121.721 57.6532C121.766 57.7756 121.829 57.8817 121.911 57.9715C121.994 58.0613 122.094 58.1306 122.211 58.1796C122.329 58.2286 122.463 58.2531 122.612 58.2531C122.879 58.2531 123.096 58.1755 123.264 58.0205C123.431 57.8633 123.555 57.6552 123.637 57.396C123.719 57.1369 123.764 56.8543 123.775 56.5482C123.777 56.5196 123.778 56.4921 123.778 56.4655C123.778 56.437 123.778 56.4094 123.778 56.3829L123.646 55.6483C123.646 55.4544 123.601 55.2789 123.511 55.1218C123.424 54.9647 123.304 54.8402 123.153 54.7484C123.004 54.6545 122.836 54.6076 122.648 54.6076C122.465 54.6076 122.297 54.6535 122.146 54.7453C121.995 54.8351 121.875 54.9575 121.785 55.1126C121.695 55.2657 121.65 55.4381 121.65 55.6299V55.636C121.65 55.8319 121.693 56.0064 121.779 56.1594C121.865 56.3105 121.982 56.4298 122.131 56.5176C122.28 56.6033 122.449 56.6461 122.639 56.6461C122.831 56.6461 123.002 56.6033 123.153 56.5176C123.304 56.4319 123.424 56.3145 123.511 56.1656C123.601 56.0146 123.646 55.8432 123.646 55.6513V55.6483H123.827V56.4441H123.72C123.667 56.5645 123.585 56.6767 123.475 56.7808C123.367 56.8849 123.234 56.9685 123.077 57.0318C122.922 57.0951 122.744 57.1267 122.544 57.1267C122.269 57.1267 122.022 57.0624 121.803 56.9338C121.585 56.8053 121.413 56.6298 121.286 56.4074C121.16 56.1829 121.096 55.9299 121.096 55.6483V55.6422C121.096 55.3483 121.163 55.0871 121.295 54.8586C121.43 54.628 121.614 54.4474 121.846 54.3168C122.081 54.1862 122.346 54.1209 122.642 54.1209Z" fill="#272727" fill-opacity="0.5"/><path d="M118.651 54.1209C118.853 54.1209 119.052 54.1597 119.248 54.2372C119.446 54.3148 119.624 54.4403 119.783 54.6137C119.944 54.7872 120.073 55.0167 120.169 55.3024C120.265 55.586 120.313 55.936 120.313 56.3523V56.3584C120.313 56.8604 120.245 57.2899 120.111 57.647C119.976 58.0021 119.782 58.2745 119.529 58.4643C119.276 58.652 118.971 58.7459 118.614 58.7459C118.367 58.7459 118.144 58.701 117.944 58.6112C117.746 58.5194 117.58 58.3918 117.448 58.2286C117.315 58.0653 117.223 57.8756 117.172 57.6593L117.163 57.6195H117.717L117.729 57.6532C117.774 57.7756 117.838 57.8817 117.919 57.9715C118.003 58.0613 118.103 58.1306 118.219 58.1796C118.337 58.2286 118.471 58.2531 118.62 58.2531C118.887 58.2531 119.105 58.1755 119.272 58.0205C119.439 57.8633 119.564 57.6552 119.646 57.396C119.727 57.1369 119.773 56.8543 119.783 56.5482C119.785 56.5196 119.786 56.4921 119.786 56.4655C119.786 56.437 119.786 56.4094 119.786 56.3829L119.655 55.6483C119.655 55.4544 119.61 55.2789 119.52 55.1218C119.432 54.9647 119.313 54.8402 119.162 54.7484C119.013 54.6545 118.845 54.6076 118.657 54.6076C118.473 54.6076 118.306 54.6535 118.155 54.7453C118.004 54.8351 117.883 54.9575 117.794 55.1126C117.704 55.2657 117.659 55.4381 117.659 55.6299V55.636C117.659 55.8319 117.702 56.0064 117.788 56.1594C117.873 56.3105 117.991 56.4298 118.14 56.5176C118.289 56.6033 118.458 56.6461 118.648 56.6461C118.839 56.6461 119.011 56.6033 119.162 56.5176C119.313 56.4319 119.432 56.3145 119.52 56.1656C119.61 56.0146 119.655 55.8432 119.655 55.6513V55.6483H119.835V56.4441H119.728C119.675 56.5645 119.593 56.6767 119.483 56.7808C119.375 56.8849 119.242 56.9685 119.085 57.0318C118.93 57.0951 118.753 57.1267 118.553 57.1267C118.277 57.1267 118.03 57.0624 117.812 56.9338C117.594 56.8053 117.421 56.6298 117.295 56.4074C117.168 56.1829 117.105 55.9299 117.105 55.6483V55.6422C117.105 55.3483 117.171 55.0871 117.304 54.8586C117.439 54.628 117.622 54.4474 117.855 54.3168C118.09 54.1862 118.355 54.1209 118.651 54.1209Z" fill="#272727" fill-opacity="0.5"/><path d="M116.028 58.6724C115.919 58.6724 115.826 58.6337 115.746 58.5561C115.668 58.4765 115.63 58.3827 115.63 58.2745C115.63 58.1643 115.668 58.0705 115.746 57.9929C115.826 57.9154 115.919 57.8766 116.028 57.8766C116.138 57.8766 116.232 57.9154 116.309 57.9929C116.387 58.0705 116.425 58.1643 116.425 58.2745C116.425 58.3827 116.387 58.4765 116.309 58.5561C116.232 58.6337 116.138 58.6724 116.028 58.6724Z" fill="#272727" fill-opacity="0.5"/><path d="M113.31 58.7153C112.997 58.7153 112.721 58.6612 112.48 58.553C112.239 58.4449 112.05 58.2959 111.911 58.1062C111.774 57.9143 111.706 57.695 111.706 57.4481V57.442C111.706 57.2603 111.746 57.092 111.825 56.9369C111.905 56.7818 112.016 56.6502 112.159 56.5421C112.302 56.4319 112.467 56.3553 112.655 56.3125V56.3002C112.414 56.2247 112.222 56.1003 112.079 55.9268C111.936 55.7534 111.865 55.5503 111.865 55.3177V55.3116C111.865 55.0892 111.927 54.8912 112.052 54.7178C112.176 54.5423 112.348 54.4046 112.566 54.3046C112.784 54.2025 113.032 54.1515 113.31 54.1515C113.589 54.1515 113.837 54.2025 114.053 54.3046C114.272 54.4046 114.443 54.5423 114.568 54.7178C114.692 54.8912 114.754 55.0892 114.754 55.3116V55.3177C114.754 55.5503 114.683 55.7534 114.54 55.9268C114.399 56.1003 114.208 56.2247 113.965 56.3002V56.3125C114.155 56.3553 114.32 56.4319 114.461 56.5421C114.603 56.6502 114.715 56.7818 114.794 56.9369C114.874 57.092 114.914 57.2603 114.914 57.442V57.4481C114.914 57.695 114.845 57.9143 114.709 58.1062C114.572 58.2959 114.382 58.4449 114.139 58.553C113.898 58.6612 113.622 58.7153 113.31 58.7153ZM113.31 58.2347C113.514 58.2347 113.693 58.2 113.848 58.1306C114.006 58.0592 114.129 57.9623 114.219 57.8399C114.309 57.7154 114.353 57.5736 114.353 57.4144V57.4083C114.353 57.2471 114.309 57.1042 114.219 56.9798C114.131 56.8553 114.009 56.7573 113.851 56.6859C113.694 56.6145 113.514 56.5788 113.31 56.5788C113.106 56.5788 112.925 56.6145 112.768 56.6859C112.611 56.7573 112.487 56.8553 112.398 56.9798C112.31 57.1042 112.266 57.2471 112.266 57.4083V57.4144C112.266 57.5736 112.311 57.7154 112.401 57.8399C112.49 57.9623 112.614 58.0592 112.771 58.1306C112.928 58.2 113.108 58.2347 113.31 58.2347ZM113.31 56.0952C113.487 56.0952 113.643 56.0646 113.778 56.0033C113.913 55.9401 114.018 55.8534 114.093 55.7432C114.169 55.633 114.207 55.5065 114.207 55.3636V55.3575C114.207 55.2147 114.169 55.0881 114.093 54.978C114.018 54.8678 113.913 54.7821 113.778 54.7208C113.643 54.6576 113.487 54.626 113.31 54.626C113.132 54.626 112.976 54.6576 112.841 54.7208C112.707 54.7821 112.602 54.8678 112.526 54.978C112.451 55.0881 112.413 55.2147 112.413 55.3575V55.3636C112.413 55.5065 112.451 55.633 112.526 55.7432C112.602 55.8534 112.707 55.9401 112.841 56.0033C112.976 56.0646 113.132 56.0952 113.31 56.0952Z" fill="#272727" fill-opacity="0.5"/><path d="M109.352 58.5775C109.081 58.5775 108.829 58.5285 108.596 58.4306C108.363 58.3327 108.174 58.1919 108.03 58.0082C107.887 57.8245 107.81 57.6042 107.8 57.3471V57.344L108.333 57.3409V57.3471C108.353 57.4879 108.401 57.6154 108.477 57.7297C108.552 57.8439 108.661 57.9347 108.804 58.0021C108.949 58.0674 109.134 58.1 109.358 58.1C109.589 58.1 109.773 58.0694 109.912 58.0082C110.053 57.9449 110.155 57.8613 110.218 57.7572C110.281 57.6511 110.313 57.5348 110.313 57.4083V57.4021C110.313 57.2348 110.26 57.0961 110.154 56.9859C110.05 56.8736 109.846 56.7808 109.542 56.7073L109.086 56.5971C108.833 56.5359 108.618 56.4563 108.443 56.3584C108.269 56.2584 108.138 56.136 108.048 55.9911C107.958 55.8462 107.913 55.6738 107.913 55.4738V55.4677C107.913 55.2289 107.976 55.0218 108.1 54.8463C108.227 54.6688 108.398 54.5321 108.614 54.4362C108.831 54.3382 109.076 54.2892 109.352 54.2892C109.615 54.2892 109.854 54.3392 110.068 54.4392C110.284 54.5392 110.459 54.68 110.592 54.8616C110.724 55.0412 110.795 55.2524 110.803 55.4952V55.4983L110.27 55.5014V55.4952C110.256 55.3401 110.207 55.2085 110.123 55.1004C110.042 54.9922 109.934 54.9096 109.802 54.8524C109.669 54.7953 109.519 54.7667 109.352 54.7667C109.154 54.7667 108.988 54.7994 108.853 54.8647C108.718 54.9279 108.616 55.0106 108.547 55.1126C108.48 55.2126 108.446 55.3187 108.446 55.431V55.4371C108.446 55.535 108.468 55.6258 108.513 55.7095C108.56 55.7932 108.636 55.8676 108.74 55.9329C108.844 55.9982 108.985 56.0523 109.162 56.0952L109.618 56.2054C110.012 56.2992 110.315 56.4349 110.527 56.6124C110.74 56.79 110.846 57.0389 110.846 57.3593V57.3654C110.846 57.6287 110.776 57.8511 110.637 58.0327C110.499 58.2123 110.316 58.348 110.09 58.4398C109.863 58.5316 109.617 58.5775 109.352 58.5775ZM109.156 59.0856V53.7811H109.523V59.0856H109.156Z" fill="#272727" fill-opacity="0.5"/><path d="M147.558 46.7162C147.498 46.7162 147.435 46.7149 147.369 46.7123C147.303 46.7097 147.24 46.7044 147.18 46.6966V45.9449C147.222 45.9502 147.268 45.9541 147.318 45.9567C147.37 45.9593 147.423 45.9607 147.475 45.9607C147.675 45.9607 147.835 45.9174 147.955 45.8308C148.079 45.7442 148.167 45.6025 148.219 45.4058L148.274 45.2129L146.735 40.9155H147.802L148.935 44.7092L148.676 44.2724H149.002L148.75 44.7092L149.88 40.9155H150.911L149.368 45.3034C149.247 45.6602 149.107 45.941 148.947 46.1456C148.787 46.3529 148.594 46.4998 148.369 46.5864C148.146 46.673 147.875 46.7162 147.558 46.7162Z" fill="#272727" fill-opacity="0.7"/><path d="M144.898 45.209V39.2548H145.878V45.209H144.898Z" fill="#272727" fill-opacity="0.7"/><path d="M139.947 45.209V39.2548H140.927V41.5727H140.994C141.096 41.3418 141.251 41.1608 141.458 41.0296C141.665 40.8958 141.925 40.8289 142.237 40.8289C142.555 40.8289 142.824 40.8919 143.044 41.0178C143.265 41.1438 143.431 41.3261 143.544 41.5648C143.659 41.8036 143.717 42.0935 143.717 42.4346V45.209H142.741V42.6589C142.741 42.3257 142.67 42.0751 142.529 41.9072C142.387 41.7393 142.168 41.6554 141.871 41.6554C141.677 41.6554 141.509 41.6986 141.368 41.7852C141.229 41.8718 141.12 41.9938 141.041 42.1512C140.965 42.306 140.927 42.491 140.927 42.7061V45.209H139.947Z" fill="#272727" fill-opacity="0.7"/><path d="M138.44 45.2326C137.949 45.2326 137.595 45.1421 137.377 44.9611C137.159 44.78 137.05 44.4823 137.05 44.0677V41.6711H136.385V40.9155H137.05V39.8569H138.046V40.9155H138.947V41.6711H138.046V43.8434C138.046 44.0559 138.091 44.2107 138.18 44.3078C138.272 44.4049 138.419 44.4534 138.621 44.4534C138.689 44.4534 138.745 44.4521 138.79 44.4495C138.837 44.4442 138.889 44.439 138.947 44.4337V45.1893C138.879 45.1998 138.8 45.209 138.711 45.2169C138.624 45.2274 138.534 45.2326 138.44 45.2326Z" fill="#272727" fill-opacity="0.7"/><path d="M131.844 45.209V40.9155H132.82V41.5727H132.887C132.989 41.3418 133.144 41.1608 133.351 41.0296C133.559 40.8958 133.818 40.8289 134.13 40.8289C134.611 40.8289 134.977 40.968 135.228 41.2461C135.483 41.5242 135.61 41.919 135.61 42.4306V45.209H134.63V42.6549C134.63 42.3217 134.559 42.0725 134.418 41.9072C134.279 41.7393 134.062 41.6554 133.768 41.6554C133.572 41.6554 133.402 41.6986 133.261 41.7852C133.122 41.8718 133.013 41.9938 132.934 42.1512C132.858 42.306 132.82 42.491 132.82 42.7061V45.209H131.844Z" fill="#272727" fill-opacity="0.7"/><path d="M128.802 45.2956C128.374 45.2956 128.005 45.2064 127.696 45.028C127.389 44.847 127.151 44.5898 126.984 44.2567C126.818 43.9235 126.736 43.526 126.736 43.0642V43.0564C126.736 42.5972 126.82 42.2011 126.987 41.8679C127.155 41.5347 127.393 41.2789 127.7 41.1005C128.009 40.9194 128.377 40.8289 128.802 40.8289C129.229 40.8289 129.597 40.9181 129.904 41.0965C130.213 41.2749 130.452 41.5307 130.62 41.8639C130.788 42.1971 130.872 42.5946 130.872 43.0564V43.0642C130.872 43.526 130.788 43.9235 130.62 44.2567C130.455 44.5898 130.217 44.847 129.908 45.028C129.601 45.2064 129.232 45.2956 128.802 45.2956ZM128.802 44.5006C129.03 44.5006 129.223 44.4442 129.38 44.3314C129.538 44.216 129.658 44.052 129.742 43.8395C129.826 43.6244 129.868 43.3659 129.868 43.0642V43.0564C129.868 42.7546 129.826 42.4975 129.742 42.285C129.658 42.0699 129.536 41.9059 129.376 41.7931C129.219 41.6803 129.027 41.6239 128.802 41.6239C128.576 41.6239 128.385 41.6803 128.227 41.7931C128.07 41.9059 127.948 42.0699 127.861 42.285C127.777 42.4975 127.735 42.7546 127.735 43.0564V43.0642C127.735 43.3686 127.777 43.6283 127.861 43.8434C127.945 44.0559 128.066 44.2186 128.223 44.3314C128.383 44.4442 128.576 44.5006 128.802 44.5006Z" fill="#272727" fill-opacity="0.7"/><path d="M119.857 45.209V39.5302H121.022L122.73 43.8985H122.796L124.5 39.5302H125.665V45.209H124.752V41.1713H124.256L125.268 39.6876L123.107 45.209H122.415L120.258 39.6876L121.266 41.1713H120.77V45.209H119.857Z" fill="#272727" fill-opacity="0.7"/><g clip-path="url(#clip1_1836_11123)"><path d="M101.925 32.2239C101.925 32.8413 102.047 33.4527 102.283 34.0231C102.519 34.5935 102.866 35.1118 103.302 35.5484C103.739 35.985 104.257 36.3313 104.828 36.5675C105.398 36.8038 106.009 36.9254 106.627 36.9254C107.244 36.9254 107.856 36.8038 108.426 36.5675C108.996 36.3313 109.515 35.985 109.951 35.5484C110.388 35.1118 110.734 34.5935 110.97 34.0231C111.207 33.4527 111.328 32.8413 111.328 32.2239C111.328 31.6065 111.207 30.9952 110.97 30.4247C110.734 29.8543 110.388 29.336 109.951 28.8995C109.515 28.4629 108.996 28.1166 108.426 27.8803C107.856 27.644 107.244 27.5224 106.627 27.5224C106.009 27.5224 105.398 27.644 104.828 27.8803C104.257 28.1166 103.739 28.4629 103.302 28.8995C102.866 29.336 102.519 29.8543 102.283 30.4247C102.047 30.9952 101.925 31.6065 101.925 32.2239Z" stroke="#CABAF9" stroke-width="0.671642" stroke-linecap="round" stroke-linejoin="round"/></g><rect x="46.627" y="16" width="24.1791" height="15.2239" rx="7.61194" fill="#AB7DFF"/><path d="M61.5867 23.6085C61.4258 23.6085 61.2876 23.5674 61.1722 23.4852C61.0567 23.4012 60.9675 23.2832 60.9046 23.131C60.8434 22.9771 60.8127 22.796 60.8127 22.5879V22.5853C60.8127 22.3754 60.8434 22.1944 60.9046 22.0422C60.9675 21.89 61.0567 21.7728 61.1722 21.6906C61.2876 21.6084 61.4258 21.5673 61.5867 21.5673C61.7476 21.5673 61.8858 21.6084 62.0012 21.6906C62.1184 21.7728 62.2076 21.89 62.2688 22.0422C62.3318 22.1944 62.3633 22.3754 62.3633 22.5853V22.5879C62.3633 22.796 62.3318 22.9771 62.2688 23.131C62.2076 23.2832 62.1184 23.4012 62.0012 23.4852C61.8858 23.5674 61.7476 23.6085 61.5867 23.6085ZM61.5867 23.2963C61.7161 23.2963 61.8167 23.2342 61.8884 23.11C61.9619 22.9841 61.9986 22.81 61.9986 22.5879V22.5853C61.9986 22.3631 61.9619 22.19 61.8884 22.0658C61.8167 21.9416 61.7161 21.8795 61.5867 21.8795C61.4573 21.8795 61.3567 21.9416 61.285 22.0658C61.2133 22.19 61.1774 22.3631 61.1774 22.5853V22.5879C61.1774 22.81 61.2133 22.9841 61.285 23.11C61.3567 23.2342 61.4573 23.2963 61.5867 23.2963ZM61.8701 25.403H61.445L64.0214 21.6172H64.4464L61.8701 25.403ZM64.2995 25.4529C64.1386 25.4529 64.0004 25.4118 63.885 25.3296C63.7695 25.2456 63.6803 25.1275 63.6174 24.9754C63.5562 24.8232 63.5255 24.6422 63.5255 24.4323V24.4297C63.5255 24.2198 63.5562 24.0388 63.6174 23.8866C63.6803 23.7344 63.7695 23.6172 63.885 23.535C64.0004 23.4528 64.1386 23.4117 64.2995 23.4117C64.4604 23.4117 64.5986 23.4528 64.714 23.535C64.8312 23.6172 64.9204 23.7344 64.9816 23.8866C65.0446 24.0388 65.0761 24.2198 65.0761 24.4297V24.4323C65.0761 24.6422 65.0446 24.8232 64.9816 24.9754C64.9204 25.1275 64.8312 25.2456 64.714 25.3296C64.5986 25.4118 64.4604 25.4529 64.2995 25.4529ZM64.2995 25.1407C64.4289 25.1407 64.5295 25.0786 64.6012 24.9544C64.6747 24.8285 64.7114 24.6544 64.7114 24.4323V24.4297C64.7114 24.2075 64.6747 24.0344 64.6012 23.9102C64.5295 23.786 64.4289 23.7239 64.2995 23.7239C64.1701 23.7239 64.0695 23.786 63.9978 23.9102C63.9261 24.0344 63.8902 24.2075 63.8902 24.4297V24.4323C63.8902 24.6544 63.9261 24.8285 63.9978 24.9544C64.0695 25.0786 64.1701 25.1407 64.2995 25.1407Z" fill="white"/><path d="M58.7427 25.466C58.4751 25.466 58.2381 25.4196 58.0317 25.3269C57.8253 25.2342 57.6626 25.1065 57.5437 24.9439C57.4265 24.7794 57.3679 24.5914 57.3679 24.3798V24.3745C57.3679 24.2189 57.402 24.0746 57.4702 23.9416C57.5385 23.8087 57.6338 23.6959 57.7562 23.6032C57.8786 23.5088 58.0203 23.4432 58.1812 23.4064V23.3959C57.9748 23.3312 57.8104 23.2245 57.688 23.0759C57.5656 22.9272 57.5043 22.7532 57.5043 22.5538V22.5485C57.5043 22.3579 57.5577 22.1882 57.6644 22.0395C57.7711 21.8891 57.918 21.7711 58.1052 21.6853C58.2923 21.5979 58.5048 21.5542 58.7427 21.5542C58.9823 21.5542 59.1948 21.5979 59.3802 21.6853C59.5674 21.7711 59.7143 21.8891 59.821 22.0395C59.9277 22.1882 59.981 22.3579 59.981 22.5485V22.5538C59.981 22.7532 59.9198 22.9272 59.7974 23.0759C59.6767 23.2245 59.5123 23.3312 59.3041 23.3959V23.4064C59.4668 23.4432 59.6085 23.5088 59.7292 23.6032C59.8516 23.6959 59.9469 23.8087 60.0151 23.9416C60.0833 24.0746 60.1175 24.2189 60.1175 24.3745V24.3798C60.1175 24.5914 60.0589 24.7794 59.9417 24.9439C59.8245 25.1065 59.6618 25.2342 59.4537 25.3269C59.2473 25.4196 59.0103 25.466 58.7427 25.466ZM58.7427 25.0541C58.9176 25.0541 59.0715 25.0243 59.2044 24.9648C59.3391 24.9036 59.4449 24.8206 59.5219 24.7156C59.5989 24.6089 59.6373 24.4874 59.6373 24.3509V24.3457C59.6373 24.2075 59.5989 24.0851 59.5219 23.9784C59.4467 23.8717 59.3417 23.7877 59.2071 23.7265C59.0724 23.6653 58.9176 23.6347 58.7427 23.6347C58.5678 23.6347 58.413 23.6653 58.2783 23.7265C58.1436 23.7877 58.0378 23.8717 57.9609 23.9784C57.8856 24.0851 57.848 24.2075 57.848 24.3457V24.3509C57.848 24.4874 57.8865 24.6089 57.9635 24.7156C58.0404 24.8206 58.1463 24.9036 58.2809 24.9648C58.4156 25.0243 58.5695 25.0541 58.7427 25.0541ZM58.7427 23.2202C58.8949 23.2202 59.0287 23.1939 59.1441 23.1414C59.2595 23.0872 59.3496 23.0129 59.4143 22.9184C59.479 22.824 59.5114 22.7155 59.5114 22.5931V22.5879C59.5114 22.4654 59.479 22.357 59.4143 22.2625C59.3496 22.1681 59.2595 22.0946 59.1441 22.0422C59.0287 21.9879 58.8949 21.9608 58.7427 21.9608C58.5905 21.9608 58.4567 21.9879 58.3413 22.0422C58.2258 22.0946 58.1358 22.1681 58.071 22.2625C58.0063 22.357 57.974 22.4654 57.974 22.5879V22.5931C57.974 22.7155 58.0063 22.824 58.071 22.9184C58.1358 23.0129 58.2258 23.0872 58.3413 23.1414C58.4567 23.1939 58.5905 23.2202 58.7427 23.2202Z" fill="white"/><path d="M55.8828 25.403V22.1419H55.8408L54.8779 22.8398V22.3413L55.8854 21.6172H56.355V25.403H55.8828Z" fill="white"/><path d="M52.3857 24.0912V23.6662H54.1488V24.0912H52.3857Z" fill="white"/></g><defs><filter id="filter0_d_1836_11123" x="0" y="0" width="194" height="105" filterUnits="userSpaceOnUse" color-interpolation-filters="sRGB"><feFlood flood-opacity="0" result="BackgroundImageFix"/><feColorMatrix in="SourceAlpha" type="matrix" values="0 0 0 0 0 0 0 0 0 0 0 0 0 0 0 0 0 0 127 0" result="hardAlpha"/><feOffset dy="4"/><feGaussianBlur stdDeviation="6"/><feComposite in2="hardAlpha" operator="out"/><feColorMatrix type="matrix" values="0 0 0 0 0.0590918 0 0 0 0 0.105306 0 0 0 0 0.213141 0 0 0 0.06 0"/><feBlend mode="normal" in2="BackgroundImageFix" result="effect1_dropShadow_1836_11123"/><feBlend mode="normal" in="SourceGraphic" in2="effect1_dropShadow_1836_11123" result="shape"/></filter><clipPath id="clip0_1836_11123"><rect width="12.5373" height="12.5373" fill="white" transform="translate(23.791 25.9552)"/></clipPath><clipPath id="clip1_1836_11123"><rect width="12.5373" height="12.5373" fill="white" transform="translate(100.358 25.9552)"/></clipPath></defs></svg>