<svg width="194" height="109" viewBox="0 0 194 109" fill="none" xmlns="http://www.w3.org/2000/svg"><g filter="url(#filter0_d_1836_10120)"><path d="M12 16C12 11.5817 15.5817 8 20 8H174C178.418 8 182 11.5817 182 16V85C182 89.4183 178.418 93 174 93H20C15.5817 93 12 89.4183 12 85V16Z" fill="white"/><g filter="url(#filter1_d_1836_10120)"><rect x="22" y="21" width="150" height="29.1045" rx="2.23881" fill="white" shape-rendering="crispEdges"/><rect x="21.5522" y="20.5522" width="150.896" height="30" rx="2.68657" stroke="#AB7DFF" stroke-width="0.895522" shape-rendering="crispEdges"/><path d="M73.0947 34.0448V29.7513H74.0707V30.4124H74.1376C74.2111 30.1789 74.3422 29.9992 74.5311 29.8733C74.7227 29.7447 74.9588 29.6804 75.2395 29.6804C75.313 29.6804 75.3838 29.6844 75.452 29.6922C75.5229 29.7001 75.5832 29.7106 75.6331 29.7237V30.6013C75.5544 30.5829 75.4743 30.5698 75.393 30.5619C75.3143 30.5515 75.233 30.5462 75.149 30.5462C74.9312 30.5462 74.741 30.5869 74.5784 30.6682C74.4183 30.7495 74.2937 30.865 74.2045 31.0145C74.1153 31.1641 74.0707 31.3425 74.0707 31.5497V34.0448H73.0947Z" fill="#272727"/><path d="M69.6433 34.1157C69.3704 34.1157 69.1277 34.0632 68.9152 33.9582C68.7027 33.8533 68.5348 33.7051 68.4115 33.5135C68.2908 33.3194 68.2305 33.0925 68.2305 32.8327V32.8248C68.2305 32.5677 68.2934 32.3474 68.4194 32.1637C68.5453 31.98 68.729 31.8357 68.9703 31.7308C69.2143 31.6259 69.5108 31.5629 69.8597 31.5419L71.4496 31.4475V32.0929L69.9975 32.1873C69.7246 32.2031 69.5226 32.2608 69.3914 32.3605C69.2602 32.4602 69.1946 32.5979 69.1946 32.7737V32.7816C69.1946 32.9652 69.2642 33.1082 69.4032 33.2105C69.5423 33.3128 69.7207 33.364 69.9384 33.364C70.1352 33.364 70.311 33.3246 70.4658 33.2459C70.6206 33.1672 70.7426 33.061 70.8318 32.9272C70.921 32.7907 70.9656 32.6373 70.9656 32.4667V31.1129C70.9656 30.8978 70.8974 30.7325 70.7609 30.6171C70.6245 30.5016 70.4238 30.4439 70.1588 30.4439C69.9332 30.4439 69.7495 30.4833 69.6079 30.562C69.4662 30.6407 69.3704 30.7509 69.3206 30.8926L69.3166 30.9083H68.3918L68.3958 30.8768C68.4299 30.6328 68.5243 30.4203 68.6791 30.2393C68.8365 30.0583 69.0451 29.9179 69.3048 29.8182C69.5646 29.7159 69.865 29.6647 70.206 29.6647C70.5733 29.6647 70.8856 29.7224 71.1427 29.8379C71.4024 29.9533 71.5992 30.1186 71.733 30.3337C71.8668 30.5489 71.9337 30.8073 71.9337 31.109V34.0448H70.9656V33.4506H70.8987C70.82 33.5896 70.7176 33.709 70.5917 33.8087C70.4684 33.9084 70.3267 33.9845 70.1667 34.0369C70.0066 34.0894 69.8322 34.1157 69.6433 34.1157Z" fill="#272727"/><path d="M65.5661 34.1314C65.1411 34.1314 64.7751 34.0409 64.4681 33.8599C64.1638 33.6788 63.929 33.423 63.7637 33.0925C63.5984 32.7593 63.5157 32.3644 63.5157 31.9079V31.904C63.5157 31.4527 63.5971 31.0605 63.7597 30.7273C63.925 30.3915 64.1585 30.1304 64.4602 29.9441C64.762 29.7579 65.1161 29.6647 65.5228 29.6647C65.9295 29.6647 66.2797 29.7552 66.5736 29.9363C66.87 30.1147 67.0983 30.3652 67.2583 30.6879C67.4184 31.0106 67.4984 31.3884 67.4984 31.8213V32.144H64.0077V31.4868H67.0183L66.5539 32.1007V31.7111C66.5539 31.4252 66.5106 31.1877 66.424 30.9988C66.3374 30.8099 66.2167 30.6682 66.062 30.5738C65.9098 30.4793 65.734 30.4321 65.5346 30.4321C65.3326 30.4321 65.1529 30.482 64.9955 30.5817C64.8407 30.6787 64.7174 30.823 64.6255 31.0146C64.5363 31.2035 64.4917 31.4356 64.4917 31.7111V32.1047C64.4917 32.367 64.5363 32.5927 64.6255 32.7816C64.7147 32.9705 64.8407 33.1148 65.0033 33.2145C65.1686 33.3141 65.3641 33.364 65.5897 33.364C65.7655 33.364 65.9163 33.3391 66.0423 33.2892C66.1682 33.2368 66.2705 33.1751 66.3492 33.1043C66.4306 33.0308 66.4857 32.96 66.5145 32.8917L66.5263 32.8642H67.4551L67.4472 32.9036C67.4131 33.0426 67.3501 33.1843 67.2583 33.3286C67.1691 33.4703 67.0471 33.6027 66.8923 33.7261C66.7402 33.8467 66.5539 33.9451 66.3335 34.0212C66.1131 34.0947 65.8573 34.1314 65.5661 34.1314Z" fill="#272727"/><path d="M59.7181 35.5521C59.6578 35.5521 59.5948 35.5508 59.5292 35.5482C59.4636 35.5455 59.4007 35.5403 59.3403 35.5324V34.7808C59.3823 34.786 59.4282 34.7899 59.4781 34.7926C59.5305 34.7952 59.583 34.7965 59.6355 34.7965C59.8349 34.7965 59.9949 34.7532 60.1156 34.6666C60.2389 34.58 60.3268 34.4384 60.3793 34.2416L60.4344 34.0488L58.8956 29.7513H59.9621L61.0955 33.545L60.8358 33.1082H61.1624L60.9106 33.545L62.04 29.7513H63.0711L61.5284 34.1393C61.4077 34.4961 61.2674 34.7768 61.1073 34.9815C60.9473 35.1887 60.7545 35.3356 60.5288 35.4222C60.3058 35.5088 60.0356 35.5521 59.7181 35.5521Z" fill="#272727"/><path d="M58.6635 28.0905L56.9791 35.4734H56.0701L57.7544 28.0905H58.6635Z" fill="#272727"/><path d="M53.3153 28.2243C53.617 28.2243 53.9043 28.2807 54.1772 28.3935C54.45 28.5064 54.6914 28.6795 54.9013 28.913C55.1138 29.1465 55.2804 29.4469 55.4011 29.8142C55.5218 30.1815 55.5821 30.621 55.5821 31.1326V31.1405C55.5821 31.778 55.4903 32.3237 55.3066 32.7776C55.123 33.2315 54.8606 33.5791 54.5195 33.8205C54.1785 34.0618 53.7692 34.1825 53.2917 34.1825C52.9428 34.1825 52.6279 34.1196 52.3472 33.9936C52.0691 33.8651 51.8382 33.6893 51.6546 33.4663C51.4709 33.2433 51.3489 32.9875 51.2886 32.6989L51.2807 32.6556H52.2764L52.2921 32.691C52.342 32.8248 52.4128 32.9416 52.5046 33.0413C52.5991 33.1383 52.7119 33.2144 52.8431 33.2695C52.9769 33.3246 53.1264 33.3521 53.2917 33.3521C53.5934 33.3521 53.8387 33.2643 54.0276 33.0885C54.2191 32.9101 54.3621 32.6726 54.4566 32.3762C54.551 32.0771 54.6048 31.7465 54.6179 31.3844C54.6205 31.3451 54.6219 31.3071 54.6219 31.2703C54.6219 31.231 54.6219 31.1929 54.6219 31.1562L54.4448 30.2117C54.4448 29.9939 54.3949 29.7985 54.2952 29.6253C54.1955 29.4495 54.0604 29.3105 53.8899 29.2082C53.722 29.1032 53.5331 29.0508 53.3232 29.0508C53.1159 29.0508 52.927 29.1019 52.7565 29.2042C52.5859 29.3039 52.4495 29.439 52.3472 29.6096C52.2449 29.7801 52.1937 29.9729 52.1937 30.1881V30.196C52.1937 30.4137 52.2423 30.6079 52.3393 30.7784C52.4364 30.9463 52.5689 31.0788 52.7368 31.1759C52.9073 31.2729 53.0989 31.3215 53.3114 31.3215C53.5265 31.3215 53.7193 31.2743 53.8899 31.1798C54.0604 31.0827 54.1955 30.9516 54.2952 30.7863C54.3949 30.621 54.4448 30.4308 54.4448 30.2156V30.2117H54.6809V31.2506H54.5471C54.4789 31.4002 54.3779 31.5406 54.2441 31.6717C54.1103 31.8003 53.945 31.9039 53.7482 31.9826C53.5514 32.0613 53.3219 32.1007 53.0595 32.1007C52.6974 32.1007 52.3761 32.0194 52.0953 31.8567C51.8172 31.694 51.5995 31.471 51.4421 31.1877C51.2846 30.9043 51.2059 30.5842 51.2059 30.2274V30.2196C51.2059 29.8365 51.2951 29.4941 51.4735 29.1924C51.6546 28.8907 51.9038 28.6546 52.2213 28.4841C52.5413 28.3109 52.906 28.2243 53.3153 28.2243Z" fill="#272727"/><path d="M47.9552 28.2243C48.2569 28.2243 48.5442 28.2807 48.8171 28.3935C49.0899 28.5064 49.3313 28.6795 49.5412 28.913C49.7537 29.1465 49.9203 29.4469 50.041 29.8142C50.1616 30.1815 50.222 30.621 50.222 31.1326V31.1405C50.222 31.778 50.1302 32.3237 49.9465 32.7776C49.7629 33.2315 49.5005 33.5791 49.1594 33.8205C48.8184 34.0618 48.4091 34.1825 47.9316 34.1825C47.5826 34.1825 47.2678 34.1196 46.9871 33.9936C46.709 33.8651 46.4781 33.6893 46.2945 33.4663C46.1108 33.2433 45.9888 32.9875 45.9285 32.6989L45.9206 32.6556H46.9163L46.932 32.691C46.9818 32.8248 47.0527 32.9416 47.1445 33.0413C47.239 33.1383 47.3518 33.2144 47.483 33.2695C47.6168 33.3246 47.7663 33.3521 47.9316 33.3521C48.2333 33.3521 48.4786 33.2643 48.6675 33.0885C48.859 32.9101 49.002 32.6726 49.0965 32.3762C49.1909 32.0771 49.2447 31.7465 49.2578 31.3844C49.2604 31.3451 49.2618 31.3071 49.2618 31.2703C49.2618 31.231 49.2618 31.1929 49.2618 31.1562L49.0847 30.2117C49.0847 29.9939 49.0348 29.7985 48.9351 29.6253C48.8354 29.4495 48.7003 29.3105 48.5298 29.2082C48.3619 29.1032 48.173 29.0508 47.9631 29.0508C47.7558 29.0508 47.5669 29.1019 47.3964 29.2042C47.2258 29.3039 47.0894 29.439 46.9871 29.6096C46.8848 29.7801 46.8336 29.9729 46.8336 30.1881V30.196C46.8336 30.4137 46.8821 30.6079 46.9792 30.7784C47.0763 30.9463 47.2088 31.0788 47.3767 31.1759C47.5472 31.2729 47.7388 31.3215 47.9513 31.3215C48.1664 31.3215 48.3592 31.2743 48.5298 31.1798C48.7003 31.0827 48.8354 30.9516 48.9351 30.7863C49.0348 30.621 49.0847 30.4308 49.0847 30.2156V30.2117H49.3208V31.2506H49.187C49.1188 31.4002 49.0178 31.5406 48.884 31.6717C48.7502 31.8003 48.5849 31.9039 48.3881 31.9826C48.1913 32.0613 47.9618 32.1007 47.6994 32.1007C47.3373 32.1007 47.016 32.0194 46.7352 31.8567C46.4571 31.694 46.2394 31.471 46.0819 31.1877C45.9245 30.9043 45.8458 30.5842 45.8458 30.2274V30.2196C45.8458 29.8365 45.935 29.4941 46.1134 29.1924C46.2945 28.8907 46.5437 28.6546 46.8612 28.4841C47.1812 28.3109 47.5459 28.2243 47.9552 28.2243Z" fill="#272727"/><path d="M44.3506 34.1195C44.1748 34.1195 44.0265 34.0605 43.9059 33.9424C43.7878 33.8218 43.7288 33.6748 43.7288 33.5017C43.7288 33.3285 43.7878 33.1829 43.9059 33.0648C44.0265 32.9442 44.1748 32.8838 44.3506 32.8838C44.5316 32.8838 44.6811 32.9442 44.7992 33.0648C44.9173 33.1829 44.9763 33.3285 44.9763 33.5017C44.9763 33.6748 44.9173 33.8218 44.7992 33.9424C44.6811 34.0605 44.5316 34.1195 44.3506 34.1195Z" fill="#272727"/><path d="M40.6591 28.2243C40.9608 28.2243 41.2481 28.2807 41.5209 28.3935C41.7938 28.5064 42.0351 28.6795 42.245 28.913C42.4575 29.1465 42.6241 29.4469 42.7448 29.8142C42.8655 30.1815 42.9258 30.621 42.9258 31.1326V31.1405C42.9258 31.778 42.834 32.3237 42.6504 32.7776C42.4667 33.2315 42.2044 33.5791 41.8633 33.8205C41.5222 34.0618 41.1129 34.1825 40.6354 34.1825C40.2865 34.1825 39.9717 34.1196 39.6909 33.9936C39.4128 33.8651 39.182 33.6893 38.9983 33.4663C38.8147 33.2433 38.6927 32.9875 38.6323 32.6989L38.6245 32.6556H39.6201L39.6359 32.691C39.6857 32.8248 39.7565 32.9416 39.8484 33.0413C39.9428 33.1383 40.0556 33.2144 40.1868 33.2695C40.3206 33.3246 40.4702 33.3521 40.6354 33.3521C40.9372 33.3521 41.1825 33.2643 41.3714 33.0885C41.5629 32.9101 41.7059 32.6726 41.8003 32.3762C41.8948 32.0771 41.9486 31.7465 41.9617 31.3844C41.9643 31.3451 41.9656 31.3071 41.9656 31.2703C41.9656 31.231 41.9656 31.1929 41.9656 31.1562L41.7885 30.2117C41.7885 29.9939 41.7387 29.7985 41.639 29.6253C41.5393 29.4495 41.4042 29.3105 41.2336 29.2082C41.0657 29.1032 40.8768 29.0508 40.6669 29.0508C40.4597 29.0508 40.2708 29.1019 40.1002 29.2042C39.9297 29.3039 39.7933 29.439 39.6909 29.6096C39.5886 29.7801 39.5375 29.9729 39.5375 30.1881V30.196C39.5375 30.4137 39.586 30.6079 39.6831 30.7784C39.7802 30.9463 39.9126 31.0788 40.0806 31.1759C40.2511 31.2729 40.4426 31.3215 40.6551 31.3215C40.8703 31.3215 41.0631 31.2743 41.2336 31.1798C41.4042 31.0827 41.5393 30.9516 41.639 30.7863C41.7387 30.621 41.7885 30.4308 41.7885 30.2156V30.2117H42.0246V31.2506H41.8908C41.8226 31.4002 41.7216 31.5406 41.5878 31.6717C41.454 31.8003 41.2887 31.9039 41.092 31.9826C40.8952 32.0613 40.6656 32.1007 40.4033 32.1007C40.0412 32.1007 39.7198 32.0194 39.4391 31.8567C39.161 31.694 38.9432 31.471 38.7858 31.1877C38.6284 30.9043 38.5497 30.5842 38.5497 30.2274V30.2196C38.5497 29.8365 38.6389 29.4941 38.8173 29.1924C38.9983 28.8907 39.2476 28.6546 39.565 28.4841C39.8851 28.3109 40.2498 28.2243 40.6591 28.2243Z" fill="#272727"/><path d="M35.8657 34.0448V32.9547H33.0873V32.1243C33.2342 31.8672 33.3837 31.6114 33.5359 31.3569C33.6881 31.0998 33.8416 30.844 33.9964 30.5895C34.1538 30.3324 34.3099 30.0792 34.4647 29.83C34.6221 29.5781 34.7782 29.3302 34.933 29.0862C35.0904 28.8422 35.2465 28.6022 35.4013 28.366H36.8338V32.1165H37.6012V32.9547H36.8338V34.0448H35.8657ZM34.0278 32.1401H35.8814V29.1767H35.8263C35.7083 29.3551 35.5876 29.5388 35.4643 29.7277C35.3436 29.9166 35.2216 30.1094 35.0983 30.3062C34.975 30.503 34.8517 30.701 34.7283 30.9004C34.6077 31.0998 34.4883 31.2992 34.3702 31.4986C34.2522 31.6954 34.138 31.8908 34.0278 32.085V32.1401Z" fill="#272727"/><path d="M30.0217 33.9622C29.6386 33.9622 29.291 33.9005 28.9788 33.7772C28.6692 33.6513 28.4213 33.4703 28.235 33.2341C28.0487 32.9954 27.949 32.7068 27.9359 32.3683V32.3644L28.8529 32.3605V32.3683C28.8791 32.5284 28.9368 32.6701 29.026 32.7934C29.1178 32.9141 29.2464 33.0085 29.4117 33.0767C29.5796 33.1449 29.7882 33.179 30.0374 33.179C30.2945 33.179 30.5044 33.1489 30.6671 33.0885C30.8324 33.0256 30.9544 32.939 31.0331 32.8288C31.1118 32.716 31.1511 32.5887 31.1511 32.4471V32.4392C31.1511 32.245 31.0829 32.0889 30.9465 31.9709C30.8101 31.8528 30.5582 31.7505 30.1909 31.6639L29.6006 31.5301C29.2648 31.4514 28.9801 31.3465 28.7466 31.2153C28.5157 31.0841 28.3399 30.9214 28.2193 30.7273C28.1012 30.5305 28.0422 30.2957 28.0422 30.0228V30.015C28.0422 29.6923 28.1274 29.4142 28.298 29.1807C28.4711 28.9472 28.7059 28.7675 29.0024 28.6415C29.3015 28.513 29.6413 28.4487 30.0217 28.4487C30.4073 28.4487 30.7484 28.5156 31.0449 28.6494C31.3413 28.7806 31.5762 28.9655 31.7493 29.2043C31.9251 29.443 32.0195 29.7251 32.0327 30.0504L32.0287 30.0583L31.1157 30.0622V30.0543C31.0947 29.8759 31.0357 29.7264 30.9386 29.6057C30.8442 29.4824 30.7182 29.3892 30.5608 29.3263C30.406 29.2633 30.2289 29.2318 30.0295 29.2318C29.8039 29.2318 29.6137 29.2646 29.4589 29.3302C29.3041 29.3958 29.1874 29.4824 29.1087 29.59C29.03 29.6975 28.9906 29.8156 28.9906 29.9441V29.952C28.9906 30.0674 29.0208 30.1711 29.0811 30.2629C29.1415 30.3547 29.2372 30.4361 29.3684 30.5069C29.5022 30.5777 29.6767 30.6394 29.8918 30.6919L30.4821 30.8257C31.0095 30.9464 31.4109 31.1234 31.6864 31.3569C31.9618 31.5904 32.0996 31.9197 32.0996 32.3447V32.3526C32.0996 32.6989 32.0064 32.9928 31.8202 33.2341C31.6365 33.4729 31.3886 33.6539 31.0764 33.7772C30.7642 33.9005 30.4126 33.9622 30.0217 33.9622ZM29.8013 34.6076V27.7954H30.2617V34.6076H29.8013Z" fill="#272727"/><path d="M56.411 43.4478V39.4966H56.8675V41.0446H56.9095C56.9812 40.8941 57.0844 40.7778 57.2191 40.6956C57.3538 40.6117 57.5252 40.5697 57.7333 40.5697C57.9449 40.5697 58.1242 40.6108 58.2711 40.693C58.4181 40.7735 58.53 40.8915 58.607 41.0472C58.6839 41.2029 58.7224 41.3926 58.7224 41.6165V43.4478H58.2659V41.7267C58.2659 41.4713 58.2117 41.2824 58.1032 41.16C57.9965 41.0358 57.8304 40.9737 57.6047 40.9737C57.4543 40.9737 57.324 41.0061 57.2138 41.0708C57.1036 41.1355 57.0179 41.2273 56.9567 41.3463C56.8973 41.4652 56.8675 41.6078 56.8675 41.7739V43.4478H56.411Z" fill="#272727" fill-opacity="0.5"/><path d="M55.4379 43.4688C55.1475 43.4688 54.9367 43.4102 54.8056 43.293C54.6761 43.1758 54.6114 42.9825 54.6114 42.7132V40.9973H54.1654V40.6195H54.6114V39.8876H55.0837V40.6195H55.7028V40.9973H55.0837V42.5977C55.0837 42.7639 55.1151 42.8837 55.1781 42.9572C55.2411 43.0289 55.346 43.0647 55.4929 43.0647C55.5332 43.0647 55.5673 43.0639 55.5953 43.0621C55.625 43.0604 55.6609 43.0577 55.7028 43.0542V43.4425C55.6591 43.4495 55.6154 43.4557 55.5717 43.4609C55.5279 43.4661 55.4833 43.4688 55.4379 43.4688Z" fill="#272727" fill-opacity="0.5"/><path d="M51.295 43.4478V40.6196H51.7516V41.0446H51.7935C51.8652 40.8942 51.9684 40.7778 52.1031 40.6956C52.2378 40.6117 52.4092 40.5697 52.6173 40.5697C52.9357 40.5697 53.1797 40.6607 53.3493 40.8426C53.5207 41.0227 53.6064 41.2807 53.6064 41.6165V43.4478H53.1499V41.7267C53.1499 41.4713 53.0957 41.2824 52.9873 41.16C52.8806 41.0358 52.7144 40.9737 52.4888 40.9737C52.3384 40.9737 52.2081 41.0061 52.0979 41.0708C51.9877 41.1355 51.902 41.2274 51.8408 41.3463C51.7813 41.4652 51.7516 41.6078 51.7516 41.7739V43.4478H51.295Z" fill="#272727" fill-opacity="0.5"/><path d="M49.2828 43.4976C49.0152 43.4976 48.7835 43.439 48.5876 43.3219C48.3934 43.2029 48.243 43.0341 48.1363 42.8155C48.0314 42.5969 47.9789 42.3371 47.9789 42.0363V42.031C47.9789 41.7285 48.0314 41.4678 48.1363 41.2492C48.243 41.0306 48.3934 40.8627 48.5876 40.7455C48.7835 40.6283 49.0152 40.5697 49.2828 40.5697C49.5522 40.5697 49.7839 40.6283 49.9781 40.7455C50.1722 40.8627 50.3218 41.0306 50.4267 41.2492C50.5334 41.4678 50.5867 41.7285 50.5867 42.031V42.0363C50.5867 42.3371 50.5334 42.5969 50.4267 42.8155C50.3218 43.0341 50.1722 43.2029 49.9781 43.3219C49.7839 43.439 49.5522 43.4976 49.2828 43.4976ZM49.2828 43.0936C49.4612 43.0936 49.6125 43.0516 49.7367 42.9677C49.8609 42.8837 49.9553 42.763 50.02 42.6056C50.0865 42.4482 50.1197 42.2584 50.1197 42.0363V42.031C50.1197 41.8072 50.0865 41.6165 50.02 41.4591C49.9553 41.3017 49.8609 41.1819 49.7367 41.0997C49.6125 41.0157 49.4612 40.9737 49.2828 40.9737C49.1044 40.9737 48.9531 41.0157 48.8289 41.0997C48.7047 41.1819 48.6094 41.3017 48.543 41.4591C48.4782 41.6165 48.4459 41.8072 48.4459 42.031V42.0363C48.4459 42.2584 48.4782 42.4482 48.543 42.6056C48.6094 42.763 48.7047 42.8837 48.8289 42.9677C48.9531 43.0516 49.1044 43.0936 49.2828 43.0936Z" fill="#272727" fill-opacity="0.5"/><path d="M43.4453 43.4478V40.6196H43.9018V41.0498H43.9438C44.0068 40.8977 44.103 40.7796 44.2324 40.6956C44.3636 40.6117 44.5219 40.5697 44.7073 40.5697C44.8349 40.5697 44.9495 40.5907 45.051 40.6327C45.1524 40.6746 45.2399 40.7332 45.3133 40.8084C45.3868 40.8819 45.4454 40.9676 45.4891 41.0656H45.5311C45.5818 40.9659 45.65 40.8793 45.7357 40.8058C45.8214 40.7306 45.9202 40.6729 46.0322 40.6327C46.1459 40.5907 46.2674 40.5697 46.3969 40.5697C46.5893 40.5697 46.7519 40.6056 46.8849 40.6773C47.0195 40.749 47.1219 40.8539 47.1918 40.9921C47.2618 41.1285 47.2968 41.2956 47.2968 41.4932V43.4478H46.8403V41.5982C46.8403 41.4582 46.8184 41.3428 46.7747 41.2518C46.7327 41.1591 46.668 41.09 46.5805 41.0446C46.4931 40.9973 46.3829 40.9737 46.2499 40.9737C46.1188 40.9737 46.0042 41.0035 45.9063 41.0629C45.8083 41.1224 45.7322 41.202 45.678 41.3017C45.6238 41.3996 45.5967 41.509 45.5967 41.6296V43.4478H45.1402V41.5273C45.1402 41.4154 45.1157 41.3183 45.0667 41.2361C45.0195 41.1521 44.9513 41.0874 44.8621 41.042C44.7746 40.9965 44.6714 40.9737 44.5525 40.9737C44.43 40.9737 44.319 41.0061 44.2193 41.0708C44.1213 41.1355 44.0435 41.223 43.9858 41.3332C43.9298 41.4416 43.9018 41.5623 43.9018 41.6952V43.4478H43.4453Z" fill="#272727" fill-opacity="0.5"/><path d="M43.0177 39.4966L41.8213 44.3923H41.3832L42.5795 39.4966H43.0177Z" fill="#272727" fill-opacity="0.5"/><path d="M39.7225 43.537C39.5493 43.537 39.3779 43.5038 39.2082 43.4373C39.0403 43.3708 38.8873 43.2633 38.7491 43.1146C38.6127 42.9659 38.5034 42.77 38.4212 42.5269C38.339 42.282 38.2979 41.9812 38.2979 41.6244V41.6191C38.2979 41.1889 38.3556 40.8216 38.471 40.5172C38.5864 40.2111 38.7526 39.9776 38.9695 39.8167C39.1864 39.6541 39.4479 39.5727 39.754 39.5727C39.9656 39.5727 40.1562 39.6121 40.3259 39.6908C40.4973 39.7677 40.6399 39.8762 40.7535 40.0161C40.869 40.1543 40.9477 40.317 40.9897 40.5041L40.9975 40.5382H40.5227L40.5122 40.5093C40.4737 40.4027 40.4186 40.3117 40.3469 40.2365C40.2769 40.1595 40.1912 40.1001 40.0898 40.0581C39.9901 40.0161 39.8764 39.9951 39.7487 39.9951C39.5196 39.9951 39.3333 40.0625 39.1899 40.1971C39.0465 40.3301 38.9398 40.5076 38.8698 40.7297C38.8016 40.9501 38.7622 41.1924 38.7517 41.4565C38.75 41.4792 38.7491 41.5028 38.7491 41.5273C38.7491 41.55 38.7491 41.5737 38.7491 41.5981L38.8619 42.2278C38.8619 42.394 38.8995 42.5444 38.9747 42.6791C39.0517 42.8137 39.1549 42.9213 39.2843 43.0018C39.4138 43.0805 39.5581 43.1198 39.7172 43.1198C39.8764 43.1198 40.0207 43.0814 40.1501 43.0044C40.2795 42.9257 40.3819 42.8199 40.4571 42.6869C40.534 42.554 40.5725 42.4062 40.5725 42.2435V42.2383C40.5725 42.0704 40.5358 41.9217 40.4623 41.7923C40.3906 41.6611 40.2909 41.5588 40.1632 41.4853C40.0355 41.4101 39.8895 41.3725 39.7251 41.3725C39.5624 41.3725 39.4155 41.4092 39.2843 41.4827C39.1549 41.5562 39.0517 41.6576 38.9747 41.787C38.8995 41.9147 38.8619 42.0608 38.8619 42.2252V42.2278H38.7071V41.5457H38.799C38.8462 41.4425 38.9161 41.3463 39.0088 41.2571C39.1015 41.1679 39.2152 41.0962 39.3499 41.0419C39.4846 40.9877 39.6368 40.9606 39.8064 40.9606C40.0443 40.9606 40.2568 41.0157 40.444 41.1259C40.6311 41.2361 40.778 41.3865 40.8847 41.5772C40.9932 41.7678 41.0474 41.9847 41.0474 42.2278V42.2331C41.0474 42.4849 40.9897 42.7088 40.8742 42.9047C40.7605 43.1006 40.604 43.2554 40.4046 43.3691C40.2052 43.481 39.9778 43.537 39.7225 43.537Z" fill="#272727" fill-opacity="0.5"/><path d="M36.8181 43.4478V40.1866H36.7761L35.8132 40.8845V40.386L36.8207 39.6619H37.2903V43.4478H36.8181Z" fill="#272727" fill-opacity="0.5"/><path d="M34.8293 43.474C34.7366 43.474 34.6562 43.4408 34.588 43.3743C34.5215 43.3061 34.4883 43.2257 34.4883 43.133C34.4883 43.0385 34.5215 42.9581 34.588 42.8916C34.6562 42.8251 34.7366 42.7919 34.8293 42.7919C34.9238 42.7919 35.0043 42.8251 35.0707 42.8916C35.1372 42.9581 35.1704 43.0385 35.1704 43.133C35.1704 43.2257 35.1372 43.3061 35.0707 43.3743C35.0043 43.4408 34.9238 43.474 34.8293 43.474Z" fill="#272727" fill-opacity="0.5"/><path d="M32.909 43.4478V42.6633H31.0646V42.233C31.1678 42.0616 31.2727 41.8885 31.3794 41.7136C31.4861 41.5369 31.5937 41.3611 31.7021 41.1862C31.8123 41.0096 31.9225 40.8347 32.0327 40.6615C32.1429 40.4883 32.2522 40.3178 32.3606 40.1499C32.4708 39.982 32.5793 39.8193 32.686 39.6619H33.3707V42.2409H33.9086V42.6633H33.3707V43.4478H32.909ZM31.5473 42.2435H32.9116V40.1001H32.8801C32.7944 40.2277 32.7069 40.3607 32.6177 40.4988C32.5285 40.6353 32.4376 40.7752 32.3449 40.9186C32.2539 41.062 32.163 41.2063 32.072 41.3515C31.9811 41.4967 31.891 41.6419 31.8018 41.787C31.7144 41.9305 31.6295 42.0721 31.5473 42.2121V42.2435Z" fill="#272727" fill-opacity="0.5"/><path d="M29.0811 43.3927C28.8485 43.3927 28.6325 43.3508 28.4331 43.2668C28.2337 43.1828 28.0719 43.0622 27.9477 42.9047C27.8253 42.7473 27.7597 42.5584 27.751 42.3381V42.3354L28.2075 42.3328V42.3381C28.225 42.4587 28.2661 42.5681 28.3308 42.666C28.3955 42.7639 28.4891 42.8418 28.6115 42.8995C28.7357 42.9555 28.894 42.9835 29.0864 42.9835C29.284 42.9835 29.4423 42.9572 29.5613 42.9047C29.6819 42.8505 29.7694 42.7788 29.8236 42.6896C29.8778 42.5987 29.905 42.499 29.905 42.3905V42.3853C29.905 42.2419 29.8595 42.1229 29.7685 42.0285C29.6793 41.9323 29.5044 41.8527 29.2438 41.7897L28.8529 41.6953C28.636 41.6428 28.4524 41.5746 28.3019 41.4906C28.1533 41.4049 28.0404 41.3 27.9635 41.1758C27.8865 41.0516 27.848 40.9038 27.848 40.7324V40.7272C27.848 40.5225 27.9014 40.345 28.0081 40.1946C28.1165 40.0424 28.2635 39.9252 28.4489 39.843C28.6343 39.7591 28.845 39.7171 29.0811 39.7171C29.3068 39.7171 29.5114 39.7599 29.6951 39.8456C29.8805 39.9313 30.03 40.052 30.1437 40.2077C30.2574 40.3616 30.3177 40.5426 30.3247 40.7508V40.7534L29.8682 40.756V40.7508C29.856 40.6178 29.814 40.505 29.7423 40.4123C29.6723 40.3196 29.5805 40.2488 29.4668 40.1998C29.3531 40.1508 29.2246 40.1264 29.0811 40.1264C28.9115 40.1264 28.7689 40.1543 28.6535 40.2103C28.5381 40.2645 28.4506 40.3354 28.3911 40.4228C28.3334 40.5085 28.3046 40.5995 28.3046 40.6957V40.7009C28.3046 40.7849 28.3238 40.8627 28.3623 40.9344C28.4025 41.0061 28.4672 41.07 28.5564 41.1259C28.6456 41.1819 28.7663 41.2283 28.9185 41.265L29.3094 41.3594C29.647 41.4399 29.9067 41.5562 30.0886 41.7084C30.2705 41.8606 30.3615 42.0739 30.3615 42.3485V42.3538C30.3615 42.5794 30.302 42.7701 30.1831 42.9257C30.0641 43.0797 29.9076 43.196 29.7134 43.2747C29.5193 43.3534 29.3085 43.3927 29.0811 43.3927ZM28.9132 43.8283V39.2816H29.2281V43.8283H28.9132Z" fill="#272727" fill-opacity="0.5"/><path d="M79.3135 21.0597C79.3135 18.0922 81.7191 15.6866 84.6866 15.6866H109.761C112.729 15.6866 115.134 18.0922 115.134 21.0597C115.134 24.0272 112.729 26.4329 109.761 26.4329H84.6866C81.7191 26.4329 79.3135 24.0272 79.3135 21.0597Z" fill="#E5FF5D"/><path d="M108.068 22.8507V19.6958H109.273C109.475 19.6958 109.652 19.7352 109.802 19.8139C109.953 19.8911 110.071 19.9997 110.154 20.1397C110.237 20.2796 110.278 20.4443 110.278 20.6338V20.6381C110.278 20.8568 110.222 21.0463 110.11 21.2066C109.998 21.3669 109.843 21.4784 109.644 21.5411L110.375 22.8507H109.913L109.238 21.6023C109.235 21.6023 109.231 21.6023 109.227 21.6023C109.222 21.6023 109.219 21.6023 109.216 21.6023H108.462V22.8507H108.068ZM108.462 21.2525H109.238C109.44 21.2525 109.596 21.2008 109.706 21.0973C109.816 20.9923 109.872 20.8437 109.872 20.6513V20.6469C109.872 20.4589 109.814 20.3116 109.699 20.2052C109.584 20.0988 109.424 20.0456 109.22 20.0456H108.462V21.2525Z" fill="#272727"/><path d="M105.401 22.8507V19.6958H107.355V20.05H105.794V21.0623H107.274V21.4121H105.794V22.4965H107.355V22.8507H105.401Z" fill="#272727"/><path d="M102.838 22.8507V19.6958H104.754V20.05H103.232V21.1344H104.629V21.4843H103.232V22.8507H102.838Z" fill="#272727"/><path d="M100.276 22.8507V19.6958H102.191V20.05H100.669V21.1344H102.066V21.4843H100.669V22.8507H100.276Z" fill="#272727"/><path d="M98.1464 22.9251C97.8447 22.9251 97.586 22.858 97.3703 22.7239C97.1546 22.5884 96.9884 22.3967 96.8718 22.1489C96.7567 21.9011 96.6991 21.6096 96.6991 21.2744V21.27C96.6991 20.9319 96.7574 20.6396 96.874 20.3933C96.9921 20.147 97.159 19.9568 97.3747 19.8227C97.5918 19.6886 97.8491 19.6215 98.1464 19.6215C98.4452 19.6215 98.7025 19.6886 98.9182 19.8227C99.1354 19.9568 99.3023 20.1477 99.4189 20.3955C99.5355 20.6418 99.5938 20.9333 99.5938 21.27V21.2744C99.5938 21.6096 99.5355 21.9011 99.4189 22.1489C99.3037 22.3953 99.1376 22.5862 98.9204 22.7217C98.7047 22.8573 98.4467 22.9251 98.1464 22.9251ZM98.1464 22.5621C98.3622 22.5621 98.548 22.5089 98.704 22.4025C98.8599 22.2961 98.9802 22.1467 99.0647 21.9543C99.1492 21.7605 99.1915 21.5338 99.1915 21.2744V21.27C99.1915 21.0077 99.1492 20.7803 99.0647 20.5879C98.9802 20.3955 98.8599 20.2468 98.704 20.1419C98.548 20.0369 98.3622 19.9845 98.1464 19.9845C97.9322 19.9845 97.7471 20.0369 97.5911 20.1419C97.4352 20.2468 97.3142 20.3955 97.2282 20.5879C97.1437 20.7803 97.1014 21.0077 97.1014 21.27V21.2744C97.1014 21.5338 97.1429 21.7605 97.226 21.9543C97.3091 22.1467 97.4286 22.2961 97.5846 22.4025C97.7405 22.5089 97.9278 22.5621 98.1464 22.5621Z" fill="#272727"/><path d="M93.5442 22.8507V20.05H92.5276V19.6958H94.9544V20.05H93.9378V22.8507H93.5442Z" fill="#272727"/><path d="M90.9031 22.9251C90.6728 22.9251 90.4717 22.8879 90.2997 22.8136C90.1292 22.7378 89.9936 22.6343 89.893 22.5031C89.7939 22.3705 89.7364 22.2189 89.7203 22.0484L89.7181 22.0243H90.1117L90.1139 22.0484C90.1241 22.1533 90.1642 22.2444 90.2341 22.3216C90.3055 22.3974 90.4003 22.4565 90.5183 22.4987C90.6379 22.541 90.7734 22.5621 90.925 22.5621C91.0678 22.5621 91.1946 22.5395 91.3054 22.4944C91.4176 22.4477 91.5058 22.3836 91.57 22.302C91.6341 22.2203 91.6662 22.1263 91.6662 22.0199V22.0177C91.6662 21.8866 91.6181 21.7765 91.5219 21.6876C91.4257 21.5972 91.269 21.528 91.0518 21.4799L90.702 21.4034C90.3857 21.3334 90.1554 21.2256 90.0111 21.0798C89.8683 20.9326 89.7968 20.7446 89.7968 20.5157V20.5135C89.7983 20.3386 89.8457 20.1841 89.939 20.05C90.0337 19.9159 90.1642 19.811 90.3303 19.7352C90.4979 19.6594 90.6903 19.6215 90.9075 19.6215C91.1174 19.6215 91.3032 19.6594 91.465 19.7352C91.6268 19.8095 91.7551 19.9101 91.8498 20.0369C91.946 20.1637 91.9992 20.3058 92.0094 20.4633L92.0116 20.4939H91.6181L91.6137 20.4654C91.5991 20.3722 91.5612 20.2898 91.5 20.2184C91.4388 20.1455 91.3572 20.0879 91.2551 20.0457C91.1531 20.0034 91.0336 19.983 90.8966 19.9845C90.7654 19.9845 90.6473 20.0049 90.5424 20.0457C90.4374 20.0865 90.3536 20.1455 90.291 20.2228C90.2297 20.2986 90.1991 20.3918 90.1991 20.5026V20.5048C90.1991 20.6301 90.2458 20.7358 90.3391 20.8218C90.4323 20.9078 90.5861 20.9741 90.8004 21.0208L91.1502 21.0995C91.3703 21.1476 91.5474 21.2103 91.6815 21.2875C91.8156 21.3648 91.9132 21.4595 91.9744 21.5717C92.0371 21.6825 92.0684 21.8137 92.0684 21.9653V21.9675C92.0684 22.1642 92.0203 22.334 91.9242 22.4769C91.828 22.6197 91.6924 22.7305 91.5175 22.8092C91.3426 22.8864 91.1378 22.9251 90.9031 22.9251Z" fill="#272727"/><path d="M87.2018 22.8507V19.6958H89.1564V20.05H87.5953V21.0623H89.0755V21.4121H87.5953V22.4965H89.1564V22.8507H87.2018Z" fill="#272727"/><path d="M84.4557 22.8507V22.5031H85.4308C85.6684 22.5031 85.8484 22.4557 85.9708 22.361C86.0932 22.2662 86.1545 22.1285 86.1545 21.9478V21.9434C86.1545 21.8224 86.126 21.7211 86.0692 21.6395C86.0124 21.5579 85.9271 21.4966 85.8134 21.4558C85.7012 21.415 85.5612 21.3946 85.3936 21.3946H84.4557V21.0557H85.2821C85.5212 21.0557 85.7004 21.0135 85.82 20.9289C85.9409 20.8444 86.0014 20.719 86.0014 20.5529V20.5485C86.0014 20.3882 85.9468 20.2643 85.8374 20.1768C85.7296 20.0879 85.578 20.0435 85.3827 20.0435H84.4557V19.6958H85.4658C85.6596 19.6958 85.8258 19.7279 85.9643 19.792C86.1042 19.8562 86.2113 19.9473 86.2856 20.0653C86.3614 20.1819 86.3993 20.3204 86.3993 20.4807V20.4851C86.3993 20.5944 86.3746 20.6972 86.325 20.7934C86.2769 20.8896 86.212 20.9705 86.1304 21.0361C86.0488 21.1016 85.957 21.1439 85.8549 21.1629V21.1978C85.9992 21.2153 86.1239 21.2583 86.2288 21.3268C86.3337 21.3953 86.4146 21.4843 86.4715 21.5936C86.5298 21.7014 86.5589 21.8246 86.5589 21.9631V21.9674C86.5589 22.1511 86.5159 22.3092 86.4299 22.4419C86.3454 22.573 86.2237 22.6743 86.0648 22.7458C85.9059 22.8157 85.7143 22.8507 85.4898 22.8507H84.4557ZM84.2589 22.8507V19.6958H84.6525V22.8507H84.2589Z" fill="#272727"/><g clip-path="url(#clip0_1836_10120)"><path d="M155.657 35.388C155.657 36.0055 155.778 36.6168 156.015 37.1872C156.251 37.7576 156.597 38.2759 157.034 38.7125C157.47 39.1491 157.989 39.4954 158.559 39.7317C159.129 39.9679 159.741 40.0895 160.358 40.0895C160.976 40.0895 161.587 39.9679 162.157 39.7317C162.728 39.4954 163.246 39.1491 163.683 38.7125C164.119 38.2759 164.466 37.7576 164.702 37.1872C164.938 36.6168 165.06 36.0055 165.06 35.388C165.06 34.7706 164.938 34.1593 164.702 33.5889C164.466 33.0185 164.119 32.5002 163.683 32.0636C163.246 31.627 162.728 31.2807 162.157 31.0444C161.587 30.8082 160.976 30.6866 160.358 30.6866C159.741 30.6866 159.129 30.8082 158.559 31.0444C157.989 31.2807 157.47 31.627 157.034 32.0636C156.597 32.5002 156.251 33.0185 156.015 33.5889C155.778 34.1593 155.657 34.7706 155.657 35.388Z" fill="#AB7DFF" stroke="#AB7DFF" stroke-width="1.04478" stroke-linecap="round" stroke-linejoin="round"/><path d="M158.791 35.3881L159.836 36.4328L161.925 34.3433" stroke="white" stroke-width="0.671642" stroke-linecap="round" stroke-linejoin="round"/></g></g><g filter="url(#filter2_d_1836_10120)"><rect x="22" y="55.4777" width="150" height="29.1045" rx="2.23881" fill="white"/><path d="M74.2949 68.5224V62.5682H75.2748V64.8861H75.3417C75.4441 64.6553 75.5989 64.4742 75.8061 64.343C76.0134 64.2092 76.2731 64.1423 76.5853 64.1423C76.9028 64.1423 77.1717 64.2053 77.3921 64.3312C77.6125 64.4572 77.7791 64.6395 77.8919 64.8783C78.0073 65.117 78.065 65.4069 78.065 65.748V68.5224H77.0891V65.9723C77.0891 65.6391 77.0182 65.3885 76.8765 65.2206C76.7349 65.0527 76.5158 64.9688 76.2193 64.9688C76.0252 64.9688 75.8573 65.0121 75.7156 65.0986C75.5766 65.1852 75.4677 65.3072 75.389 65.4646C75.3129 65.6194 75.2748 65.8044 75.2748 66.0195V68.5224H74.2949Z" fill="#272727"/><path d="M72.7877 68.546C72.2971 68.546 71.9429 68.4555 71.7251 68.2745C71.5074 68.0934 71.3985 67.7957 71.3985 67.3811V64.9845H70.7334V64.2289H71.3985V63.1702H72.3941V64.2289H73.2953V64.9845H72.3941V67.1568C72.3941 67.3693 72.4387 67.5241 72.5279 67.6212C72.6198 67.7183 72.7667 67.7668 72.9687 67.7668C73.0369 67.7668 73.0933 67.7655 73.1379 67.7629C73.1852 67.7576 73.2376 67.7524 73.2953 67.7471V68.5027C73.2271 68.5132 73.1484 68.5224 73.0592 68.5303C72.9726 68.5408 72.8821 68.546 72.7877 68.546Z" fill="#272727"/><path d="M66.1919 68.5224V64.2289H67.1679V64.8861H67.2348C67.3371 64.6552 67.4919 64.4742 67.6992 64.343C67.9064 64.2092 68.1662 64.1423 68.4784 64.1423C68.9585 64.1423 69.3245 64.2813 69.5763 64.5594C69.8308 64.8375 69.9581 65.2324 69.9581 65.744V68.5224H68.9782V65.9683C68.9782 65.6351 68.9073 65.3859 68.7656 65.2206C68.6266 65.0527 68.4101 64.9687 68.1163 64.9687C67.9195 64.9687 67.7503 65.012 67.6086 65.0986C67.4696 65.1852 67.3607 65.3072 67.282 65.4646C67.2059 65.6194 67.1679 65.8043 67.1679 66.0195V68.5224H66.1919Z" fill="#272727"/><path d="M63.1499 68.609C62.7223 68.609 62.3537 68.5198 62.0441 68.3414C61.7371 68.1603 61.4997 67.9032 61.3318 67.57C61.1665 67.2368 61.0839 66.8393 61.0839 66.3776V66.3697C61.0839 65.9106 61.1678 65.5144 61.3357 65.1812C61.5036 64.848 61.7411 64.5922 62.048 64.4138C62.3576 64.2328 62.7249 64.1423 63.1499 64.1423C63.5776 64.1423 63.9449 64.2315 64.2519 64.4099C64.5614 64.5883 64.8002 64.8441 64.9681 65.1773C65.136 65.5105 65.22 65.908 65.22 66.3697V66.3776C65.22 66.8393 65.136 67.2368 64.9681 67.57C64.8028 67.9032 64.5654 68.1603 64.2558 68.3414C63.9488 68.5198 63.5802 68.609 63.1499 68.609ZM63.1499 67.814C63.3782 67.814 63.571 67.7576 63.7285 67.6448C63.8859 67.5294 64.0066 67.3654 64.0905 67.1529C64.1745 66.9377 64.2164 66.6793 64.2164 66.3776V66.3697C64.2164 66.068 64.1745 65.8109 64.0905 65.5984C64.0066 65.3833 63.8846 65.2193 63.7245 65.1065C63.5671 64.9936 63.3756 64.9372 63.1499 64.9372C62.9243 64.9372 62.7328 64.9936 62.5754 65.1065C62.418 65.2193 62.296 65.3833 62.2094 65.5984C62.1254 65.8109 62.0835 66.068 62.0835 66.3697V66.3776C62.0835 66.6819 62.1254 66.9417 62.2094 67.1568C62.2933 67.3693 62.414 67.532 62.5714 67.6448C62.7315 67.7576 62.9243 67.814 63.1499 67.814Z" fill="#272727"/><path d="M53.9922 68.5224V64.2289H54.9682V64.8939H55.0351C55.1269 64.6552 55.2751 64.4702 55.4798 64.3391C55.687 64.2079 55.9323 64.1423 56.2157 64.1423C56.4098 64.1423 56.5843 64.1738 56.7391 64.2367C56.8965 64.2997 57.0316 64.3902 57.1444 64.5083C57.2573 64.6237 57.3438 64.7628 57.4042 64.9254H57.4711C57.5393 64.768 57.6377 64.6303 57.7662 64.5122C57.8948 64.3942 58.0443 64.3036 58.2149 64.2407C58.388 64.1751 58.5743 64.1423 58.7737 64.1423C59.0623 64.1423 59.3089 64.2 59.5136 64.3154C59.7208 64.4283 59.8795 64.5909 59.9897 64.8034C60.0999 65.0159 60.155 65.2704 60.155 65.5669V68.5224H59.179V65.807C59.179 65.6207 59.1502 65.4659 59.0925 65.3426C59.0347 65.2167 58.9482 65.1235 58.8327 65.0632C58.7173 65.0002 58.573 64.9687 58.3998 64.9687C58.2293 64.9687 58.0811 65.0068 57.9551 65.0828C57.8292 65.1589 57.7308 65.2626 57.66 65.3937C57.5918 65.5249 57.5577 65.6745 57.5577 65.8424V68.5224H56.5817V65.7361C56.5817 65.5761 56.5502 65.4397 56.4872 65.3268C56.4269 65.2114 56.3377 65.1235 56.2196 65.0632C56.1042 65.0002 55.9664 64.9687 55.8064 64.9687C55.6464 64.9687 55.5021 65.0094 55.3735 65.0907C55.2476 65.1721 55.1479 65.2849 55.0744 65.4292C55.0036 65.5708 54.9682 65.7296 54.9682 65.9053V68.5224H53.9922Z" fill="#272727"/><path d="M53.3979 62.5682L51.7135 69.951H50.8044L52.4888 62.5682H53.3979Z" fill="#272727"/><path d="M48.0498 62.702C48.3515 62.702 48.6388 62.7584 48.9117 62.8712C49.1845 62.984 49.4259 63.1572 49.6358 63.3907C49.8483 63.6242 50.0149 63.9246 50.1356 64.2919C50.2563 64.6592 50.3166 65.0986 50.3166 65.6102V65.6181C50.3166 66.2556 50.2248 66.8013 50.0411 67.2552C49.8575 67.7091 49.5951 68.0567 49.254 68.2981C48.913 68.5395 48.5037 68.6602 48.0262 68.6602C47.6773 68.6602 47.3624 68.5972 47.0817 68.4713C46.8036 68.3427 46.5727 68.1669 46.3891 67.9439C46.2054 67.7209 46.0834 67.4651 46.0231 67.1765L46.0152 67.1332H47.0109L47.0266 67.1686C47.0764 67.3024 47.1473 67.4192 47.2391 67.5189C47.3336 67.616 47.4464 67.6921 47.5776 67.7471C47.7114 67.8022 47.8609 67.8298 48.0262 67.8298C48.3279 67.8298 48.5732 67.7419 48.7621 67.5661C48.9536 67.3877 49.0966 67.1503 49.1911 66.8538C49.2855 66.5547 49.3393 66.2241 49.3524 65.8621C49.355 65.8227 49.3564 65.7847 49.3564 65.748C49.3564 65.7086 49.3564 65.6706 49.3564 65.6338L49.1793 64.6893C49.1793 64.4716 49.1294 64.2761 49.0297 64.103C48.93 63.9272 48.7949 63.7881 48.6244 63.6858C48.4565 63.5809 48.2676 63.5284 48.0577 63.5284C47.8504 63.5284 47.6615 63.5796 47.491 63.6819C47.3204 63.7816 47.184 63.9167 47.0817 64.0872C46.9794 64.2578 46.9282 64.4506 46.9282 64.6657V64.6736C46.9282 64.8914 46.9768 65.0855 47.0738 65.256C47.1709 65.424 47.3034 65.5564 47.4713 65.6535C47.6418 65.7506 47.8334 65.7991 48.0459 65.7991C48.261 65.7991 48.4538 65.7519 48.6244 65.6575C48.7949 65.5604 48.93 65.4292 49.0297 65.2639C49.1294 65.0986 49.1793 64.9084 49.1793 64.6933V64.6893H49.4154V65.7283H49.2816C49.2134 65.8778 49.1124 66.0182 48.9786 66.1494C48.8448 66.2779 48.6795 66.3816 48.4827 66.4603C48.2859 66.539 48.0564 66.5783 47.794 66.5783C47.4319 66.5783 47.1106 66.497 46.8298 66.3343C46.5517 66.1717 46.334 65.9487 46.1766 65.6653C46.0191 65.382 45.9404 65.0619 45.9404 64.7051V64.6972C45.9404 64.3142 46.0296 63.9718 46.208 63.6701C46.3891 63.3684 46.6383 63.1322 46.9558 62.9617C47.2758 62.7885 47.6405 62.702 48.0498 62.702Z" fill="#272727"/><path d="M42.6897 62.702C42.9914 62.702 43.2787 62.7584 43.5516 62.8712C43.8244 62.984 44.0658 63.1572 44.2757 63.3907C44.4882 63.6242 44.6548 63.9246 44.7755 64.2919C44.8961 64.6592 44.9565 65.0986 44.9565 65.6102V65.6181C44.9565 66.2556 44.8647 66.8013 44.681 67.2552C44.4974 67.7091 44.235 68.0567 43.8939 68.2981C43.5529 68.5395 43.1436 68.6602 42.6661 68.6602C42.3171 68.6602 42.0023 68.5972 41.7216 68.4713C41.4435 68.3427 41.2126 68.1669 41.029 67.9439C40.8453 67.7209 40.7233 67.4651 40.663 67.1765L40.6551 67.1332H41.6508L41.6665 67.1686C41.7163 67.3024 41.7872 67.4192 41.879 67.5189C41.9735 67.616 42.0863 67.6921 42.2174 67.7471C42.3513 67.8022 42.5008 67.8298 42.6661 67.8298C42.9678 67.8298 43.2131 67.7419 43.402 67.5661C43.5935 67.3877 43.7365 67.1503 43.831 66.8538C43.9254 66.5547 43.9792 66.2241 43.9923 65.8621C43.9949 65.8227 43.9963 65.7847 43.9963 65.748C43.9963 65.7086 43.9963 65.6706 43.9963 65.6338L43.8192 64.6893C43.8192 64.4716 43.7693 64.2761 43.6696 64.103C43.5699 63.9272 43.4348 63.7881 43.2643 63.6858C43.0964 63.5809 42.9075 63.5284 42.6976 63.5284C42.4903 63.5284 42.3014 63.5796 42.1309 63.6819C41.9603 63.7816 41.8239 63.9167 41.7216 64.0872C41.6193 64.2578 41.5681 64.4506 41.5681 64.6657V64.6736C41.5681 64.8914 41.6166 65.0855 41.7137 65.256C41.8108 65.424 41.9433 65.5564 42.1112 65.6535C42.2817 65.7506 42.4733 65.7991 42.6858 65.7991C42.9009 65.7991 43.0937 65.7519 43.2643 65.6575C43.4348 65.5604 43.5699 65.4292 43.6696 65.2639C43.7693 65.0986 43.8192 64.9084 43.8192 64.6933V64.6893H44.0553V65.7283H43.9215C43.8533 65.8778 43.7523 66.0182 43.6185 66.1494C43.4846 66.2779 43.3194 66.3816 43.1226 66.4603C42.9258 66.539 42.6963 66.5783 42.4339 66.5783C42.0718 66.5783 41.7504 66.497 41.4697 66.3343C41.1916 66.1717 40.9739 65.9487 40.8164 65.6653C40.659 65.382 40.5803 65.0619 40.5803 64.7051V64.6972C40.5803 64.3142 40.6695 63.9718 40.8479 63.6701C41.029 63.3684 41.2782 63.1322 41.5957 62.9617C41.9157 62.7885 42.2804 62.702 42.6897 62.702Z" fill="#272727"/><path d="M39.0849 68.5972C38.9091 68.5972 38.7609 68.5382 38.6402 68.4201C38.5222 68.2994 38.4631 68.1525 38.4631 67.9793C38.4631 67.8062 38.5222 67.6606 38.6402 67.5425C38.7609 67.4218 38.9091 67.3615 39.0849 67.3615C39.266 67.3615 39.4155 67.4218 39.5336 67.5425C39.6516 67.6606 39.7107 67.8062 39.7107 67.9793C39.7107 68.1525 39.6516 68.2994 39.5336 68.4201C39.4155 68.5382 39.266 68.5972 39.0849 68.5972Z" fill="#272727"/><path d="M35.362 68.6366C34.9265 68.6366 34.5421 68.567 34.2089 68.428C33.8757 68.2863 33.6147 68.0922 33.4258 67.8456C33.2395 67.5963 33.1464 67.3103 33.1464 66.9876V66.9798C33.1464 66.7358 33.2001 66.5141 33.3077 66.3147C33.4179 66.1153 33.5701 65.9487 33.7642 65.8149C33.9584 65.6785 34.1814 65.5853 34.4332 65.5355V65.5119C34.1079 65.4253 33.8456 65.2705 33.6462 65.0475C33.4494 64.8219 33.351 64.5569 33.351 64.2525V64.2447C33.351 63.9534 33.4363 63.6937 33.6068 63.4655C33.78 63.2372 34.0174 63.0575 34.3191 62.9263C34.6234 62.7951 34.9711 62.7295 35.362 62.7295C35.7529 62.7295 36.0992 62.7951 36.4009 62.9263C36.7053 63.0575 36.9427 63.2372 37.1132 63.4655C37.2838 63.6937 37.369 63.9534 37.369 64.2447V64.2525C37.369 64.5569 37.2707 64.8219 37.0739 65.0475C36.8771 65.2705 36.6161 65.4253 36.2907 65.5119V65.5355C36.5426 65.5853 36.7656 65.6785 36.9598 65.8149C37.1539 65.9487 37.3048 66.1153 37.4123 66.3147C37.5225 66.5141 37.5776 66.7358 37.5776 66.9798V66.9876C37.5776 67.3103 37.4832 67.5963 37.2943 67.8456C37.108 68.0922 36.8483 68.2863 36.5151 68.428C36.1819 68.567 35.7975 68.6366 35.362 68.6366ZM35.362 67.8613C35.5902 67.8613 35.791 67.8219 35.9641 67.7432C36.1399 67.6619 36.2776 67.5504 36.3773 67.4087C36.477 67.2644 36.5269 67.1018 36.5269 66.9207V66.9129C36.5269 66.7292 36.477 66.5666 36.3773 66.4249C36.2803 66.2806 36.1438 66.1678 35.968 66.0864C35.7923 66.0051 35.5902 65.9644 35.362 65.9644C35.1311 65.9644 34.9278 66.0051 34.752 66.0864C34.5788 66.1678 34.4424 66.2806 34.3427 66.4249C34.2457 66.5666 34.1971 66.7292 34.1971 66.9129V66.9207C34.1971 67.1018 34.247 67.2644 34.3467 67.4087C34.4464 67.5504 34.5828 67.6619 34.7559 67.7432C34.9317 67.8219 35.1337 67.8613 35.362 67.8613ZM35.362 65.1892C35.5614 65.1892 35.7359 65.1537 35.8854 65.0829C36.0376 65.0094 36.1556 64.9098 36.2396 64.7838C36.3262 64.6579 36.3695 64.5123 36.3695 64.347V64.3391C36.3695 64.1738 36.3262 64.0282 36.2396 63.9023C36.1556 63.7737 36.0376 63.674 35.8854 63.6032C35.7332 63.5324 35.5588 63.4969 35.362 63.4969C35.1652 63.4969 34.9908 63.5324 34.8386 63.6032C34.6864 63.674 34.567 63.7737 34.4805 63.9023C34.3965 64.0282 34.3545 64.1738 34.3545 64.3391V64.347C34.3545 64.5123 34.3965 64.6579 34.4805 64.7838C34.567 64.9098 34.6851 65.0094 34.8346 65.0829C34.9868 65.1537 35.1626 65.1892 35.362 65.1892Z" fill="#272727"/><path d="M30.0217 68.4397C29.6386 68.4397 29.291 68.3781 28.9788 68.2548C28.6692 68.1288 28.4213 67.9478 28.235 67.7117C28.0487 67.4729 27.949 67.1843 27.9359 66.8459V66.8419L28.8529 66.838V66.8459C28.8791 67.0059 28.9368 67.1476 29.026 67.2709C29.1178 67.3916 29.2464 67.486 29.4117 67.5543C29.5796 67.6225 29.7882 67.6566 30.0374 67.6566C30.2945 67.6566 30.5044 67.6264 30.6671 67.5661C30.8324 67.5031 30.9544 67.4165 31.0331 67.3063C31.1118 67.1935 31.1511 67.0663 31.1511 66.9246V66.9167C31.1511 66.7226 31.0829 66.5665 30.9465 66.4484C30.8101 66.3303 30.5582 66.228 30.1909 66.1414L29.6006 66.0076C29.2648 65.9289 28.9801 65.824 28.7466 65.6928C28.5157 65.5616 28.3399 65.399 28.2193 65.2048C28.1012 65.0081 28.0422 64.7732 28.0422 64.5004V64.4925C28.0422 64.1698 28.1274 63.8917 28.298 63.6582C28.4711 63.4247 28.7059 63.245 29.0024 63.1191C29.3015 62.9905 29.6413 62.9262 30.0217 62.9262C30.4073 62.9262 30.7484 62.9931 31.0449 63.1269C31.3413 63.2581 31.5762 63.4431 31.7493 63.6818C31.9251 63.9206 32.0195 64.2026 32.0327 64.5279L32.0287 64.5358L31.1157 64.5397V64.5319C31.0947 64.3535 31.0357 64.2039 30.9386 64.0832C30.8442 63.9599 30.7182 63.8668 30.5608 63.8038C30.406 63.7409 30.2289 63.7094 30.0295 63.7094C29.8039 63.7094 29.6137 63.7422 29.4589 63.8078C29.3041 63.8733 29.1874 63.9599 29.1087 64.0675C29.03 64.1751 28.9906 64.2931 28.9906 64.4217V64.4295C28.9906 64.545 29.0208 64.6486 29.0811 64.7404C29.1415 64.8323 29.2372 64.9136 29.3684 64.9844C29.5022 65.0553 29.6767 65.1169 29.8918 65.1694L30.4821 65.3032C31.0095 65.4239 31.4109 65.601 31.6864 65.8345C31.9618 66.068 32.0996 66.3972 32.0996 66.8223V66.8301C32.0996 67.1765 32.0064 67.4703 31.8202 67.7117C31.6365 67.9504 31.3886 68.1314 31.0764 68.2548C30.7642 68.3781 30.4126 68.4397 30.0217 68.4397ZM29.8013 69.0851V62.2729H30.2617V69.0851H29.8013Z" fill="#272727"/><path d="M79.9554 78.9171C79.9257 78.9171 79.8924 78.9154 79.8557 78.9119C79.819 78.9101 79.7849 78.9066 79.7534 78.9014V78.5262C79.7814 78.5314 79.812 78.5349 79.8452 78.5367C79.8784 78.5384 79.9108 78.5393 79.9423 78.5393C80.0717 78.5393 80.1775 78.5061 80.2597 78.4396C80.3437 78.3731 80.411 78.2586 80.4618 78.0959L80.5142 77.928L79.4674 75.0971H79.9554L80.8264 77.7102L80.6454 77.4243H80.8605L80.6795 77.7102L81.5479 75.0971H82.028L80.9235 78.0985C80.8465 78.3102 80.7652 78.4755 80.6795 78.5944C80.5938 78.7133 80.4932 78.7964 80.3778 78.8436C80.2641 78.8926 80.1233 78.9171 79.9554 78.9171Z" fill="#272727" fill-opacity="0.5"/><path d="M78.3811 77.9254V73.9743H78.8376V77.9254H78.3811Z" fill="#272727" fill-opacity="0.5"/><path d="M77.0221 77.9254V73.9743H77.4786V77.9254H77.0221Z" fill="#272727" fill-opacity="0.5"/><path d="M74.8079 77.9752C74.6295 77.9752 74.4686 77.9411 74.3252 77.8729C74.1835 77.8047 74.0707 77.7076 73.9867 77.5817C73.9045 77.4558 73.8634 77.3071 73.8634 77.1357V77.1304C73.8634 76.9625 73.9036 76.8191 73.9841 76.7002C74.0645 76.5795 74.1817 76.485 74.3357 76.4168C74.4896 76.3486 74.6758 76.3084 74.8945 76.2961L75.9334 76.2332V76.5978L74.9496 76.6608C74.7344 76.673 74.577 76.7176 74.4773 76.7946C74.3794 76.8716 74.3304 76.98 74.3304 77.1199V77.1252C74.3304 77.2686 74.3846 77.3805 74.4931 77.461C74.6015 77.5397 74.7379 77.5791 74.9023 77.5791C75.058 77.5791 75.1962 77.5485 75.3169 77.4872C75.4376 77.4243 75.532 77.3394 75.6002 77.2327C75.6702 77.1261 75.7052 77.0054 75.7052 76.8707V75.9892C75.7052 75.8143 75.6518 75.6813 75.5451 75.5904C75.4402 75.4977 75.2819 75.4513 75.0703 75.4513C74.9006 75.4513 74.7615 75.4819 74.6531 75.5431C74.5447 75.6026 74.4721 75.6874 74.4353 75.7976L74.4327 75.8055H73.9762L73.9788 75.7898C74.0033 75.6411 74.0645 75.5117 74.1625 75.4015C74.2622 75.2895 74.3907 75.203 74.5482 75.1417C74.7056 75.0788 74.8849 75.0473 75.086 75.0473C75.3169 75.0473 75.5119 75.0849 75.6711 75.1601C75.832 75.2353 75.9535 75.3438 76.0357 75.4854C76.1197 75.6254 76.1617 75.7933 76.1617 75.9892V77.9254H75.7052V77.5082H75.6632C75.6037 77.6079 75.5311 77.6928 75.4454 77.7627C75.3615 77.8327 75.2662 77.886 75.1595 77.9228C75.0528 77.9577 74.9356 77.9752 74.8079 77.9752Z" fill="#272727" fill-opacity="0.5"/><path d="M72.1816 77.9752C71.9175 77.9752 71.6884 77.9149 71.4942 77.7942C71.3001 77.6735 71.1497 77.503 71.043 77.2826C70.9363 77.0622 70.8829 76.8025 70.8829 76.5034V76.4981C70.8829 76.2043 70.9354 75.9489 71.0404 75.732C71.147 75.5152 71.2975 75.3473 71.4916 75.2283C71.6858 75.1076 71.9149 75.0473 72.179 75.0473C72.4081 75.0473 72.6058 75.0875 72.7719 75.168C72.9381 75.2484 73.071 75.3569 73.1707 75.4933C73.2704 75.628 73.3343 75.7793 73.3622 75.9472L73.3649 75.9629H72.911L72.9084 75.9551C72.8734 75.8151 72.7938 75.6962 72.6696 75.5982C72.5454 75.5003 72.3819 75.4513 72.179 75.4513C72.0093 75.4513 71.8624 75.4942 71.7382 75.5799C71.614 75.6656 71.5178 75.7871 71.4496 75.9446C71.3832 76.1002 71.3499 76.2848 71.3499 76.4981V76.5034C71.3499 76.7203 71.384 76.9092 71.4523 77.0701C71.5205 77.2292 71.6167 77.3526 71.7409 77.44C71.865 77.5275 72.0111 77.5712 72.179 77.5712C72.3696 77.5712 72.5253 77.5301 72.646 77.4479C72.7667 77.3657 72.8533 77.2459 72.9057 77.0884L72.911 77.0727L73.3622 77.0701L73.357 77.0989C73.3185 77.2686 73.2503 77.4199 73.1523 77.5528C73.0544 77.684 72.925 77.7872 72.7641 77.8624C72.6031 77.9376 72.409 77.9752 72.1816 77.9752Z" fill="#272727" fill-opacity="0.5"/><path d="M69.7076 77.9254V75.0972H70.1641V77.9254H69.7076ZM69.9385 74.5514C69.8528 74.5514 69.7784 74.5208 69.7155 74.4596C69.6543 74.3967 69.6237 74.3223 69.6237 74.2366C69.6237 74.1492 69.6543 74.0748 69.7155 74.0136C69.7784 73.9524 69.8528 73.9218 69.9385 73.9218C70.0259 73.9218 70.1003 73.9524 70.1615 74.0136C70.2227 74.0748 70.2533 74.1492 70.2533 74.2366C70.2533 74.3223 70.2227 74.3967 70.1615 74.4596C70.1003 74.5208 70.0259 74.5514 69.9385 74.5514Z" fill="#272727" fill-opacity="0.5"/><path d="M68.75 77.9463C68.4596 77.9463 68.2489 77.8877 68.1177 77.7706C67.9883 77.6534 67.9236 77.4601 67.9236 77.1907V75.4749H67.4775V75.0971H67.9236V74.3651H68.3958V75.0971H69.015V75.4749H68.3958V77.0753C68.3958 77.2415 68.4273 77.3613 68.4902 77.4347C68.5532 77.5065 68.6582 77.5423 68.8051 77.5423C68.8453 77.5423 68.8794 77.5414 68.9074 77.5397C68.9371 77.5379 68.973 77.5353 69.015 77.5318V77.9201C68.9712 77.9271 68.9275 77.9332 68.8838 77.9385C68.8401 77.9437 68.7955 77.9463 68.75 77.9463Z" fill="#272727" fill-opacity="0.5"/><path d="M65.557 77.9752C65.3786 77.9752 65.2177 77.9411 65.0743 77.8729C64.9326 77.8047 64.8198 77.7076 64.7359 77.5817C64.6537 77.4558 64.6125 77.3071 64.6125 77.1357V77.1304C64.6125 76.9625 64.6528 76.8191 64.7332 76.7002C64.8137 76.5795 64.9309 76.485 65.0848 76.4168C65.2387 76.3486 65.425 76.3084 65.6436 76.2961L66.6826 76.2332V76.5978L65.6987 76.6608C65.4836 76.673 65.3262 76.7176 65.2265 76.7946C65.1285 76.8716 65.0795 76.98 65.0795 77.1199V77.1252C65.0795 77.2686 65.1338 77.3805 65.2422 77.461C65.3507 77.5397 65.4871 77.5791 65.6515 77.5791C65.8072 77.5791 65.9453 77.5485 66.066 77.4872C66.1867 77.4243 66.2812 77.3394 66.3494 77.2327C66.4193 77.1261 66.4543 77.0054 66.4543 76.8707V75.9892C66.4543 75.8143 66.401 75.6813 66.2943 75.5904C66.1893 75.4977 66.031 75.4513 65.8194 75.4513C65.6497 75.4513 65.5107 75.4819 65.4023 75.5431C65.2938 75.6026 65.2212 75.6874 65.1845 75.7976L65.1819 75.8055H64.7254L64.728 75.7898C64.7525 75.6411 64.8137 75.5117 64.9116 75.4015C65.0113 75.2895 65.1399 75.203 65.2973 75.1417C65.4547 75.0788 65.634 75.0473 65.8351 75.0473C66.066 75.0473 66.261 75.0849 66.4202 75.1601C66.5811 75.2353 66.7027 75.3438 66.7849 75.4854C66.8688 75.6254 66.9108 75.7933 66.9108 75.9892V77.9254H66.4543V77.5082H66.4123C66.3529 77.6079 66.2803 77.6928 66.1946 77.7627C66.1106 77.8327 66.0153 77.886 65.9086 77.9228C65.8019 77.9577 65.6847 77.9752 65.557 77.9752Z" fill="#272727" fill-opacity="0.5"/><path d="M60.1052 77.9254V75.0971H60.5617V75.5274H60.6037C60.6667 75.3752 60.7629 75.2572 60.8923 75.1732C61.0235 75.0893 61.1818 75.0473 61.3672 75.0473C61.4949 75.0473 61.6094 75.0683 61.7109 75.1103C61.8123 75.1522 61.8998 75.2108 61.9732 75.286C62.0467 75.3595 62.1053 75.4452 62.149 75.5431H62.191C62.2417 75.4435 62.3099 75.3569 62.3956 75.2834C62.4813 75.2082 62.5802 75.1505 62.6921 75.1103C62.8058 75.0683 62.9273 75.0473 63.0568 75.0473C63.2492 75.0473 63.4118 75.0831 63.5448 75.1549C63.6794 75.2266 63.7818 75.3315 63.8517 75.4697C63.9217 75.6061 63.9567 75.7731 63.9567 75.9708V77.9254H63.5002V76.0757C63.5002 75.9358 63.4783 75.8204 63.4346 75.7294C63.3926 75.6367 63.3279 75.5676 63.2404 75.5222C63.153 75.4749 63.0428 75.4513 62.9099 75.4513C62.7787 75.4513 62.6641 75.4811 62.5662 75.5405C62.4682 75.6 62.3921 75.6796 62.3379 75.7793C62.2837 75.8772 62.2566 75.9865 62.2566 76.1072V77.9254H61.8001V76.0049C61.8001 75.893 61.7756 75.7959 61.7266 75.7137C61.6794 75.6297 61.6112 75.565 61.522 75.5195C61.4345 75.4741 61.3313 75.4513 61.2124 75.4513C61.0899 75.4513 60.9789 75.4837 60.8792 75.5484C60.7812 75.6131 60.7034 75.7006 60.6457 75.8108C60.5897 75.9192 60.5617 76.0399 60.5617 76.1728V77.9254H60.1052Z" fill="#272727" fill-opacity="0.5"/><path d="M58.0929 77.9752C57.8253 77.9752 57.5935 77.9166 57.3976 77.7994C57.2035 77.6805 57.053 77.5117 56.9464 77.2931C56.8414 77.0745 56.7889 76.8147 56.7889 76.5139V76.5086C56.7889 76.206 56.8414 75.9454 56.9464 75.7268C57.053 75.5082 57.2035 75.3403 57.3976 75.2231C57.5935 75.1059 57.8253 75.0473 58.0929 75.0473C58.3622 75.0473 58.594 75.1059 58.7881 75.2231C58.9823 75.3403 59.1318 75.5082 59.2368 75.7268C59.3435 75.9454 59.3968 76.206 59.3968 76.5086V76.5139C59.3968 76.8147 59.3435 77.0745 59.2368 77.2931C59.1318 77.5117 58.9823 77.6805 58.7881 77.7994C58.594 77.9166 58.3622 77.9752 58.0929 77.9752ZM58.0929 77.5712C58.2713 77.5712 58.4226 77.5292 58.5468 77.4453C58.6709 77.3613 58.7654 77.2406 58.8301 77.0832C58.8966 76.9258 58.9298 76.736 58.9298 76.5139V76.5086C58.9298 76.2848 58.8966 76.0941 58.8301 75.9367C58.7654 75.7793 58.6709 75.6595 58.5468 75.5773C58.4226 75.4933 58.2713 75.4513 58.0929 75.4513C57.9145 75.4513 57.7632 75.4933 57.639 75.5773C57.5148 75.6595 57.4195 75.7793 57.353 75.9367C57.2883 76.0941 57.2559 76.2848 57.2559 76.5086V76.5139C57.2559 76.736 57.2883 76.9258 57.353 77.0832C57.4195 77.2406 57.5148 77.3613 57.639 77.4453C57.7632 77.5292 57.9145 77.5712 58.0929 77.5712Z" fill="#272727" fill-opacity="0.5"/><path d="M56.0202 77.9463C55.7299 77.9463 55.5191 77.8877 55.388 77.7706C55.2585 77.6534 55.1938 77.4601 55.1938 77.1907V75.4749H54.7478V75.0971H55.1938V74.3651H55.6661V75.0971H56.2852V75.4749H55.6661V77.0753C55.6661 77.2415 55.6975 77.3613 55.7605 77.4347C55.8235 77.5065 55.9284 77.5423 56.0753 77.5423C56.1156 77.5423 56.1497 77.5414 56.1777 77.5397C56.2074 77.5379 56.2433 77.5353 56.2852 77.5318V77.9201C56.2415 77.9271 56.1978 77.9332 56.1541 77.9385C56.1103 77.9437 56.0657 77.9463 56.0202 77.9463Z" fill="#272727" fill-opacity="0.5"/><path d="M52.8248 77.9752C52.6114 77.9752 52.4321 77.935 52.287 77.8545C52.1418 77.7723 52.0325 77.6534 51.959 77.4977C51.8873 77.3403 51.8514 77.1505 51.8514 76.9284V75.0971H52.3079V76.8182C52.3079 77.0718 52.3569 77.2607 52.4549 77.3849C52.5546 77.5091 52.7172 77.5712 52.9429 77.5712C53.067 77.5712 53.1764 77.5528 53.2708 77.5161C53.367 77.4794 53.4475 77.4269 53.5122 77.3587C53.5769 77.2887 53.625 77.2048 53.6565 77.1068C53.6897 77.0071 53.7063 76.8952 53.7063 76.771V75.0971H54.1628V77.9254H53.7063V77.503H53.6643C53.6189 77.6027 53.5568 77.6884 53.4781 77.7601C53.3994 77.8301 53.3049 77.8834 53.1947 77.9201C53.0863 77.9569 52.963 77.9752 52.8248 77.9752Z" fill="#272727" fill-opacity="0.5"/><path d="M49.6895 77.9752C49.5111 77.9752 49.3502 77.9411 49.2067 77.8729C49.0651 77.8047 48.9523 77.7076 48.8683 77.5817C48.7861 77.4558 48.745 77.3071 48.745 77.1357V77.1304C48.745 76.9625 48.7852 76.8191 48.8657 76.7002C48.9461 76.5795 49.0633 76.485 49.2172 76.4168C49.3712 76.3486 49.5574 76.3084 49.7761 76.2961L50.815 76.2332V76.5978L49.8312 76.6608C49.616 76.673 49.4586 76.7176 49.3589 76.7946C49.261 76.8716 49.212 76.98 49.212 77.1199V77.1252C49.212 77.2686 49.2662 77.3805 49.3747 77.461C49.4831 77.5397 49.6195 77.5791 49.7839 77.5791C49.9396 77.5791 50.0778 77.5485 50.1985 77.4872C50.3192 77.4243 50.4136 77.3394 50.4818 77.2327C50.5518 77.1261 50.5868 77.0054 50.5868 76.8707V75.9892C50.5868 75.8143 50.5334 75.6813 50.4267 75.5904C50.3218 75.4977 50.1635 75.4513 49.9519 75.4513C49.7822 75.4513 49.6431 75.4819 49.5347 75.5431C49.4263 75.6026 49.3537 75.6874 49.3169 75.7976L49.3143 75.8055H48.8578L48.8604 75.7898C48.8849 75.6411 48.9461 75.5117 49.0441 75.4015C49.1438 75.2895 49.2723 75.203 49.4298 75.1417C49.5872 75.0788 49.7665 75.0473 49.9676 75.0473C50.1985 75.0473 50.3935 75.0849 50.5527 75.1601C50.7136 75.2353 50.8351 75.3438 50.9173 75.4854C51.0013 75.6254 51.0433 75.7933 51.0433 75.9892V77.9254H50.5868V77.5082H50.5448C50.4853 77.6079 50.4127 77.6928 50.327 77.7627C50.2431 77.8327 50.1477 77.886 50.0411 77.9228C49.9344 77.9577 49.8172 77.9752 49.6895 77.9752Z" fill="#272727" fill-opacity="0.5"/><path d="M45.56 77.9752C45.3501 77.9752 45.1647 77.9437 45.0038 77.8808C44.8429 77.8161 44.7134 77.726 44.6155 77.6105C44.5193 77.4951 44.4624 77.3596 44.4449 77.2039H44.9119C44.9504 77.3211 45.0256 77.4155 45.1376 77.4872C45.2495 77.5589 45.3956 77.5948 45.5757 77.5948C45.7034 77.5948 45.8153 77.5764 45.9115 77.5397C46.0095 77.5012 46.0864 77.4496 46.1424 77.3849C46.1984 77.3185 46.2264 77.2424 46.2264 77.1567V77.1514C46.2264 77.0552 46.1879 76.9739 46.1109 76.9074C46.034 76.8392 45.908 76.7841 45.7331 76.7421L45.295 76.6372C45.1183 76.5952 44.9732 76.541 44.8595 76.4745C44.7458 76.4063 44.6618 76.3232 44.6076 76.2253C44.5534 76.1256 44.5263 76.0084 44.5263 75.8737V75.8711C44.5263 75.7137 44.5718 75.5729 44.6627 75.4487C44.7554 75.3245 44.8813 75.2266 45.0405 75.1549C45.1997 75.0831 45.3789 75.0473 45.5783 75.0473C45.776 75.0473 45.9509 75.0788 46.1031 75.1417C46.257 75.203 46.3803 75.2904 46.473 75.4041C46.5674 75.5178 46.6252 75.6516 46.6461 75.8055H46.1975C46.1678 75.6936 46.0996 75.6026 45.9929 75.5327C45.8862 75.4627 45.7471 75.4277 45.5757 75.4277C45.4638 75.4277 45.3641 75.4461 45.2766 75.4828C45.1892 75.5178 45.1201 75.5668 45.0694 75.6297C45.0186 75.6927 44.9933 75.7662 44.9933 75.8501V75.8554C44.9933 75.9183 45.0099 75.9743 45.0431 76.0233C45.0764 76.0722 45.128 76.1151 45.1979 76.1518C45.2679 76.1886 45.358 76.2209 45.4682 76.2489L45.9037 76.3538C46.1695 76.4186 46.3672 76.5113 46.4966 76.6319C46.6278 76.7526 46.6934 76.9144 46.6934 77.1173V77.1226C46.6934 77.2905 46.6435 77.4391 46.5438 77.5686C46.4441 77.6962 46.3086 77.7959 46.1372 77.8677C45.9675 77.9394 45.7751 77.9752 45.56 77.9752Z" fill="#272727" fill-opacity="0.5"/><path d="M41.0526 77.9254L40.2603 75.0971H40.7168L41.273 77.3587H41.3149L41.9472 75.0971H42.3801L43.0124 77.3587H43.0544L43.6106 75.0971H44.0645L43.2721 77.9254H42.813L42.1807 75.7373H42.1388L41.5091 77.9254H41.0526Z" fill="#272727" fill-opacity="0.5"/><path d="M38.5916 77.9752C38.3222 77.9752 38.0905 77.9158 37.8963 77.7968C37.7039 77.6779 37.5553 77.51 37.4503 77.2931C37.3471 77.0745 37.2955 76.8173 37.2955 76.5218V76.5191C37.2955 76.227 37.3471 75.9708 37.4503 75.7504C37.5553 75.53 37.7031 75.3577 37.8937 75.2336C38.0844 75.1094 38.3074 75.0473 38.5627 75.0473C38.8198 75.0473 39.0402 75.1068 39.2239 75.2257C39.4093 75.3446 39.551 75.5108 39.6489 75.7242C39.7486 75.9358 39.7984 76.1824 39.7984 76.464V76.6424H37.5317V76.2778H39.5649L39.3393 76.611V76.4299C39.3393 76.2078 39.3061 76.025 39.2396 75.8816C39.1732 75.7382 39.0813 75.6315 38.9641 75.5615C38.847 75.4898 38.7123 75.4539 38.5601 75.4539C38.4079 75.4539 38.2715 75.4916 38.1508 75.5668C38.0319 75.6402 37.9374 75.7495 37.8675 75.8947C37.7975 76.0399 37.7625 76.2183 37.7625 76.4299V76.611C37.7625 76.8121 37.7966 76.9844 37.8649 77.1278C37.9331 77.2695 38.0301 77.3788 38.1561 77.4558C38.282 77.531 38.4307 77.5686 38.6021 77.5686C38.7298 77.5686 38.8408 77.5511 38.9353 77.5161C39.0297 77.4811 39.1076 77.4365 39.1688 77.3823C39.23 77.3281 39.2729 77.273 39.2973 77.217L39.3078 77.1934H39.7643L39.7591 77.2144C39.7346 77.3106 39.6909 77.4042 39.6279 77.4951C39.5667 77.5843 39.4871 77.6656 39.3892 77.7391C39.2912 77.8108 39.1749 77.8685 39.0402 77.9123C38.9073 77.9542 38.7578 77.9752 38.5916 77.9752Z" fill="#272727" fill-opacity="0.5"/><path d="M34.2994 77.9254V75.0971H34.7559V75.5222H34.7979C34.8696 75.3717 34.9728 75.2554 35.1075 75.1732C35.2422 75.0893 35.4136 75.0473 35.6217 75.0473C35.9401 75.0473 36.1841 75.1382 36.3537 75.3201C36.5251 75.5003 36.6108 75.7583 36.6108 76.0941V77.9254H36.1543V76.2043C36.1543 75.9489 36.1001 75.76 35.9917 75.6376C35.885 75.5134 35.7188 75.4513 35.4932 75.4513C35.3428 75.4513 35.2125 75.4837 35.1023 75.5484C34.9921 75.6131 34.9064 75.7049 34.8451 75.8239C34.7857 75.9428 34.7559 76.0854 34.7559 76.2515V77.9254H34.2994Z" fill="#272727" fill-opacity="0.5"/><path d="M32.3842 77.9752C32.1148 77.9752 31.8831 77.9158 31.6889 77.7968C31.4965 77.6779 31.3479 77.51 31.2429 77.2931C31.1397 77.0745 31.0881 76.8173 31.0881 76.5218V76.5191C31.0881 76.227 31.1397 75.9708 31.2429 75.7504C31.3479 75.53 31.4957 75.3577 31.6863 75.2336C31.877 75.1094 32.1 75.0473 32.3553 75.0473C32.6124 75.0473 32.8328 75.1068 33.0165 75.2257C33.2019 75.3446 33.3436 75.5108 33.4415 75.7242C33.5412 75.9358 33.591 76.1824 33.591 76.464V76.6424H31.3243V76.2778H33.3575L33.1319 76.611V76.4299C33.1319 76.2078 33.0987 76.025 33.0322 75.8816C32.9658 75.7382 32.8739 75.6315 32.7567 75.5615C32.6396 75.4898 32.5049 75.4539 32.3527 75.4539C32.2005 75.4539 32.0641 75.4916 31.9434 75.5668C31.8245 75.6402 31.73 75.7495 31.6601 75.8947C31.5901 76.0399 31.5551 76.2183 31.5551 76.4299V76.611C31.5551 76.8121 31.5892 76.9844 31.6575 77.1278C31.7257 77.2695 31.8227 77.3788 31.9487 77.4558C32.0746 77.531 32.2233 77.5686 32.3947 77.5686C32.5224 77.5686 32.6334 77.5511 32.7279 77.5161C32.8223 77.4811 32.9002 77.4365 32.9614 77.3823C33.0226 77.3281 33.0655 77.273 33.0899 77.217L33.1004 77.1934H33.5569L33.5517 77.2144C33.5272 77.3106 33.4835 77.4042 33.4205 77.4951C33.3593 77.5843 33.2797 77.6656 33.1818 77.7391C33.0838 77.8108 32.9675 77.8685 32.8328 77.9123C32.6999 77.9542 32.5504 77.9752 32.3842 77.9752Z" fill="#272727" fill-opacity="0.5"/><path d="M27.856 77.9254V74.1396H29.3016C29.5447 74.1396 29.7563 74.1868 29.9365 74.2812C30.1184 74.3739 30.2592 74.5042 30.3589 74.6721C30.4586 74.8401 30.5084 75.0377 30.5084 75.2651V75.2703C30.5084 75.5327 30.4411 75.7601 30.3064 75.9525C30.1717 76.1449 29.9854 76.2787 29.7476 76.3539L30.6239 77.9254H30.0703L29.2596 76.4273C29.2561 76.4273 29.2517 76.4273 29.2465 76.4273C29.2412 76.4273 29.2368 76.4273 29.2333 76.4273H28.3282V77.9254H27.856ZM28.3282 76.0076H29.2596C29.5027 76.0076 29.6899 75.9455 29.821 75.8213C29.954 75.6954 30.0204 75.5169 30.0204 75.2861V75.2808C30.0204 75.0552 29.9513 74.8785 29.8132 74.7509C29.675 74.6232 29.4835 74.5593 29.2386 74.5593H28.3282V76.0076Z" fill="#272727" fill-opacity="0.5"/><g clip-path="url(#clip1_1836_10120)"><path d="M155.657 69.8657C155.657 70.4831 155.778 71.0945 156.015 71.6649C156.251 72.2353 156.597 72.7536 157.034 73.1901C157.47 73.6267 157.989 73.973 158.559 74.2093C159.129 74.4456 159.741 74.5672 160.358 74.5672C160.976 74.5672 161.587 74.4456 162.157 74.2093C162.728 73.973 163.246 73.6267 163.683 73.1901C164.119 72.7536 164.466 72.2353 164.702 71.6649C164.938 71.0945 165.06 70.4831 165.06 69.8657C165.06 69.2483 164.938 68.6369 164.702 68.0665C164.466 67.4961 164.119 66.9778 163.683 66.5412C163.246 66.1047 162.728 65.7584 162.157 65.5221C161.587 65.2858 160.976 65.1642 160.358 65.1642C159.741 65.1642 159.129 65.2858 158.559 65.5221C157.989 65.7584 157.47 66.1047 157.034 66.5412C156.597 66.9778 156.251 67.4961 156.015 68.0665C155.778 68.6369 155.657 69.2483 155.657 69.8657Z" stroke="#CABAF9" stroke-width="0.671642" stroke-linecap="round" stroke-linejoin="round"/></g></g></g><defs><filter id="filter0_d_1836_10120" x="0" y="0" width="194" height="109" filterUnits="userSpaceOnUse" color-interpolation-filters="sRGB"><feFlood flood-opacity="0" result="BackgroundImageFix"/><feColorMatrix in="SourceAlpha" type="matrix" values="0 0 0 0 0 0 0 0 0 0 0 0 0 0 0 0 0 0 127 0" result="hardAlpha"/><feOffset dy="4"/><feGaussianBlur stdDeviation="6"/><feComposite in2="hardAlpha" operator="out"/><feColorMatrix type="matrix" values="0 0 0 0 0.0590918 0 0 0 0 0.105306 0 0 0 0 0.213141 0 0 0 0.06 0"/><feBlend mode="normal" in2="BackgroundImageFix" result="effect1_dropShadow_1836_10120"/><feBlend mode="normal" in="SourceGraphic" in2="effect1_dropShadow_1836_10120" result="shape"/></filter><filter id="filter1_d_1836_10120" x="15.7314" y="12.1045" width="162.537" height="46.0597" filterUnits="userSpaceOnUse" color-interpolation-filters="sRGB"><feFlood flood-opacity="0" result="BackgroundImageFix"/><feColorMatrix in="SourceAlpha" type="matrix" values="0 0 0 0 0 0 0 0 0 0 0 0 0 0 0 0 0 0 127 0" result="hardAlpha"/><feOffset dy="1.79104"/><feGaussianBlur stdDeviation="2.68657"/><feComposite in2="hardAlpha" operator="out"/><feColorMatrix type="matrix" values="0 0 0 0 0.0590918 0 0 0 0 0.105306 0 0 0 0 0.213141 0 0 0 0.12 0"/><feBlend mode="normal" in2="BackgroundImageFix" result="effect1_dropShadow_1836_10120"/><feBlend mode="normal" in="SourceGraphic" in2="effect1_dropShadow_1836_10120" result="shape"/></filter><filter id="filter2_d_1836_10120" x="16.6269" y="51.8956" width="160.746" height="39.8507" filterUnits="userSpaceOnUse" color-interpolation-filters="sRGB"><feFlood flood-opacity="0" result="BackgroundImageFix"/><feColorMatrix in="SourceAlpha" type="matrix" values="0 0 0 0 0 0 0 0 0 0 0 0 0 0 0 0 0 0 127 0" result="hardAlpha"/><feOffset dy="1.79104"/><feGaussianBlur stdDeviation="2.68657"/><feComposite in2="hardAlpha" operator="out"/><feColorMatrix type="matrix" values="0 0 0 0 0.0590918 0 0 0 0 0.105306 0 0 0 0 0.213141 0 0 0 0.12 0"/><feBlend mode="normal" in2="BackgroundImageFix" result="effect1_dropShadow_1836_10120"/><feBlend mode="normal" in="SourceGraphic" in2="effect1_dropShadow_1836_10120" result="shape"/></filter><clipPath id="clip0_1836_10120"><rect width="12.5373" height="12.5373" fill="white" transform="translate(154.09 29.1194)"/></clipPath><clipPath id="clip1_1836_10120"><rect width="12.5373" height="12.5373" fill="white" transform="translate(154.09 63.597)"/></clipPath></defs></svg>