<svg width="194" height="98" viewBox="0 0 194 98" fill="none" xmlns="http://www.w3.org/2000/svg"><g filter="url(#filter0_d_1836_11650)"><path d="M12 16C12 11.5817 15.5817 8 20 8H174C178.418 8 182 11.5817 182 16V74C182 78.4183 178.418 82 174 82H20C15.5817 82 12 78.4183 12 74V16Z" fill="white"/><path d="M22 23.2836C22 19.3269 25.2075 16.1194 29.1642 16.1194H62.4478C66.4044 16.1194 69.6119 19.3269 69.6119 23.2836V66.7164C69.6119 70.6731 66.4044 73.8806 62.4478 73.8806H29.1642C25.2075 73.8806 22 70.6731 22 66.7164V23.2836Z" fill="#AB7DFF"/><path d="M60.9914 56.7642C61.4462 56.7642 61.8642 56.8447 62.2455 57.0056C62.6303 57.163 62.9644 57.4026 63.2477 57.7244C63.5311 58.0463 63.7514 58.4486 63.9089 58.9313C64.0663 59.414 64.145 59.9772 64.145 60.6209V60.6314C64.145 61.4639 64.0173 62.1776 63.7619 62.7723C63.5066 63.3669 63.1428 63.8234 62.6705 64.1418C62.1983 64.4601 61.6333 64.6193 60.9757 64.6193C60.4894 64.6193 60.0487 64.5318 59.6534 64.3569C59.2616 64.182 58.938 63.9424 58.6826 63.638C58.4273 63.3337 58.2611 62.9856 58.1842 62.5938L58.1737 62.5466H59.7373L59.7531 62.5886C59.816 62.7425 59.9035 62.8772 60.0154 62.9926C60.1309 63.1081 60.2691 63.199 60.43 63.2655C60.5909 63.3285 60.7745 63.3599 60.9809 63.3599C61.3517 63.3599 61.6543 63.2532 61.8887 63.0399C62.1231 62.8265 62.2997 62.5379 62.4187 62.1741C62.5376 61.8103 62.6058 61.4045 62.6233 60.9567C62.6268 60.9042 62.6285 60.8535 62.6285 60.8046C62.632 60.7521 62.6338 60.6996 62.6338 60.6471L62.3924 59.3878C62.3924 59.1289 62.3312 58.8981 62.2088 58.6952C62.0863 58.4888 61.9202 58.3261 61.7103 58.2072C61.5039 58.0848 61.2695 58.0235 61.0072 58.0235C60.7518 58.0235 60.5192 58.083 60.3093 58.2019C60.0994 58.3209 59.9315 58.4818 59.8056 58.6847C59.6796 58.8841 59.6167 59.1097 59.6167 59.3616V59.3721C59.6167 59.6344 59.6761 59.8671 59.7951 60.0699C59.9175 60.2728 60.0819 60.432 60.2883 60.5474C60.4982 60.6629 60.7326 60.7206 60.9914 60.7206C61.2573 60.7206 61.4951 60.6646 61.705 60.5527C61.9184 60.4372 62.0863 60.2798 62.2088 60.0804C62.3312 59.881 62.3924 59.6519 62.3924 59.3931V59.3878H62.7125V60.6891H62.5866C62.4886 60.9165 62.3452 61.1211 62.1563 61.303C61.9674 61.4814 61.7365 61.6249 61.4637 61.7333C61.1943 61.8382 60.8865 61.8907 60.5402 61.8907C60.0539 61.8907 59.6254 61.784 59.2546 61.5706C58.8838 61.3573 58.5934 61.0652 58.3836 60.6944C58.1772 60.3236 58.074 59.902 58.074 59.4298V59.4193C58.074 58.9016 58.1999 58.4433 58.4518 58.0445C58.7036 57.6457 59.0482 57.3327 59.4855 57.1053C59.9262 56.8779 60.4282 56.7642 60.9914 56.7642Z" fill="white"/><path d="M53.9182 56.7642C54.3729 56.7642 54.791 56.8447 55.1723 57.0056C55.5571 57.163 55.8911 57.4026 56.1745 57.7244C56.4578 58.0463 56.6782 58.4486 56.8356 58.9313C56.993 59.414 57.0717 59.9772 57.0717 60.6209V60.6314C57.0717 61.4639 56.9441 62.1776 56.6887 62.7723C56.4333 63.3669 56.0695 63.8234 55.5973 64.1418C55.125 64.4601 54.5601 64.6193 53.9024 64.6193C53.4162 64.6193 52.9754 64.5318 52.5801 64.3569C52.1883 64.182 51.8648 63.9424 51.6094 63.638C51.354 63.3337 51.1879 62.9856 51.1109 62.5938L51.1004 62.5466H52.6641L52.6798 62.5886C52.7428 62.7425 52.8303 62.8772 52.9422 62.9926C53.0576 63.1081 53.1958 63.199 53.3567 63.2655C53.5176 63.3285 53.7013 63.3599 53.9077 63.3599C54.2785 63.3599 54.5811 63.2532 54.8154 63.0399C55.0498 62.8265 55.2265 62.5379 55.3454 62.1741C55.4644 61.8103 55.5326 61.4045 55.5501 60.9567C55.5536 60.9042 55.5553 60.8535 55.5553 60.8046C55.5588 60.7521 55.5606 60.6996 55.5606 60.6471L55.3192 59.3878C55.3192 59.1289 55.258 58.8981 55.1355 58.6952C55.0131 58.4888 54.8469 58.3261 54.637 58.2072C54.4307 58.0848 54.1963 58.0235 53.9339 58.0235C53.6786 58.0235 53.4459 58.083 53.236 58.2019C53.0262 58.3209 52.8582 58.4818 52.7323 58.6847C52.6064 58.8841 52.5434 59.1097 52.5434 59.3616V59.3721C52.5434 59.6344 52.6029 59.8671 52.7218 60.0699C52.8442 60.2728 53.0087 60.432 53.2151 60.5474C53.4249 60.6629 53.6593 60.7206 53.9182 60.7206C54.184 60.7206 54.4219 60.6646 54.6318 60.5527C54.8452 60.4372 55.0131 60.2798 55.1355 60.0804C55.258 59.881 55.3192 59.6519 55.3192 59.3931V59.3878H55.6393V60.6891H55.5133C55.4154 60.9165 55.272 61.1211 55.0831 61.303C54.8942 61.4814 54.6633 61.6249 54.3904 61.7333C54.1211 61.8382 53.8132 61.8907 53.4669 61.8907C52.9807 61.8907 52.5522 61.784 52.1814 61.5706C51.8106 61.3573 51.5202 61.0652 51.3103 60.6944C51.1039 60.3236 51.0007 59.902 51.0007 59.4298V59.4193C51.0007 58.9016 51.1267 58.4433 51.3785 58.0445C51.6304 57.6457 51.975 57.3327 52.4122 57.1053C52.853 56.8779 53.355 56.7642 53.9182 56.7642Z" fill="white"/><path d="M49.1906 64.572C48.9492 64.572 48.7446 64.4898 48.5767 64.3254C48.4123 64.1575 48.3301 63.9529 48.3301 63.7115C48.3301 63.4701 48.4123 63.2672 48.5767 63.1028C48.7446 62.9349 48.9492 62.851 49.1906 62.851C49.4355 62.851 49.6401 62.9349 49.8045 63.1028C49.9725 63.2672 50.0564 63.4701 50.0564 63.7115C50.0564 63.9529 49.9725 64.1575 49.8045 64.3254C49.6401 64.4898 49.4355 64.572 49.1906 64.572Z" fill="white"/><path d="M44.4839 56.7642C44.9386 56.7642 45.3566 56.8447 45.7379 57.0056C46.1227 57.163 46.4568 57.4026 46.7401 57.7244C47.0235 58.0463 47.2439 58.4486 47.4013 58.9313C47.5587 59.414 47.6374 59.9772 47.6374 60.6209V60.6314C47.6374 61.4639 47.5097 62.1776 47.2544 62.7723C46.999 63.3669 46.6352 63.8234 46.163 64.1418C45.6907 64.4601 45.1258 64.6193 44.4681 64.6193C43.9819 64.6193 43.5411 64.5318 43.1458 64.3569C42.754 64.182 42.4304 63.9424 42.1751 63.638C41.9197 63.3337 41.7536 62.9856 41.6766 62.5938L41.6661 62.5466H43.2298L43.2455 62.5886C43.3085 62.7425 43.3959 62.8772 43.5079 62.9926C43.6233 63.1081 43.7615 63.199 43.9224 63.2655C44.0833 63.3285 44.267 63.3599 44.4734 63.3599C44.8442 63.3599 45.1467 63.2532 45.3811 63.0399C45.6155 62.8265 45.7922 62.5379 45.9111 62.1741C46.03 61.8103 46.0982 61.4045 46.1157 60.9567C46.1192 60.9042 46.121 60.8535 46.121 60.8046C46.1245 60.7521 46.1262 60.6996 46.1262 60.6471L45.8849 59.3878C45.8849 59.1289 45.8236 58.8981 45.7012 58.6952C45.5788 58.4888 45.4126 58.3261 45.2027 58.2072C44.9963 58.0848 44.762 58.0235 44.4996 58.0235C44.2442 58.0235 44.0116 58.083 43.8017 58.2019C43.5918 58.3209 43.4239 58.4818 43.298 58.6847C43.172 58.8841 43.1091 59.1097 43.1091 59.3616V59.3721C43.1091 59.6344 43.1686 59.8671 43.2875 60.0699C43.4099 60.2728 43.5743 60.432 43.7807 60.5474C43.9906 60.6629 44.225 60.7206 44.4839 60.7206C44.7497 60.7206 44.9876 60.6646 45.1975 60.5527C45.4109 60.4372 45.5788 60.2798 45.7012 60.0804C45.8236 59.881 45.8849 59.6519 45.8849 59.3931V59.3878H46.2049V60.6891H46.079C45.9811 60.9165 45.8376 61.1211 45.6487 61.303C45.4598 61.4814 45.229 61.6249 44.9561 61.7333C44.6867 61.8382 44.3789 61.8907 44.0326 61.8907C43.5464 61.8907 43.1178 61.784 42.747 61.5706C42.3762 61.3573 42.0859 61.0652 41.876 60.6944C41.6696 60.3236 41.5664 59.902 41.5664 59.4298V59.4193C41.5664 58.9016 41.6923 58.4433 41.9442 58.0445C42.1961 57.6457 42.5406 57.3327 42.9779 57.1053C43.4187 56.8779 43.9207 56.7642 44.4839 56.7642Z" fill="white"/><path d="M38.1609 64.4776V63.0871H34.4092V61.7805C34.6086 61.4552 34.808 61.1299 35.0074 60.8046C35.2103 60.4757 35.4131 60.1487 35.616 59.8233C35.8189 59.498 36.0201 59.1727 36.2195 58.8473C36.4224 58.522 36.6252 58.1984 36.8281 57.8766C37.031 57.5513 37.2339 57.2277 37.4368 56.9059H39.6669V61.8225H40.6638V63.0871H39.6669V64.4776H38.1609ZM35.7944 61.8645H38.1924V58.0603H38.1452C37.9913 58.3086 37.8356 58.557 37.6782 58.8054C37.5208 59.0537 37.3634 59.3039 37.2059 59.5557C37.0485 59.8076 36.8894 60.0595 36.7284 60.3113C36.571 60.5632 36.4136 60.815 36.2562 61.0669C36.1023 61.3153 35.9484 61.5654 35.7944 61.8173V61.8645Z" fill="white"/><path d="M30.4895 64.3674C29.9438 64.3674 29.4593 64.287 29.036 64.126C28.6162 63.9616 28.2822 63.7238 28.0338 63.4124C27.7854 63.1011 27.6472 62.7268 27.6193 62.2895L27.614 62.2213H29.015L29.0255 62.2685C29.0605 62.4504 29.1357 62.6114 29.2511 62.7513C29.3666 62.8912 29.5275 62.9996 29.7339 63.0766C29.9438 63.1536 30.2079 63.192 30.5262 63.192C30.8445 63.192 31.1034 63.1553 31.3028 63.0819C31.5022 63.0084 31.6491 62.9069 31.7436 62.7775C31.8415 62.6446 31.8905 62.4924 31.8905 62.321V62.3105C31.8905 62.0796 31.8065 61.896 31.6386 61.7596C31.4742 61.6196 31.1646 61.4989 30.7099 61.3975L29.8441 61.2138C29.3788 61.1159 28.9888 60.9777 28.6739 60.7993C28.3591 60.6174 28.1212 60.3918 27.9603 60.1224C27.8029 59.8496 27.7242 59.5277 27.7242 59.1569V59.1464C27.7242 58.7127 27.8414 58.3366 28.0758 58.0183C28.3101 57.7 28.632 57.4534 29.0413 57.2784C29.454 57.1035 29.928 57.0161 30.4632 57.0161C31.0055 57.0161 31.4795 57.1 31.8852 57.268C32.291 57.4324 32.6111 57.6702 32.8455 57.9816C33.0833 58.2894 33.218 58.6602 33.2495 59.094L33.2548 59.1727H31.8538L31.8485 59.1307C31.8205 58.9278 31.7471 58.7564 31.6281 58.6165C31.5092 58.4766 31.3518 58.3716 31.1559 58.3016C30.96 58.2282 30.7309 58.1915 30.4685 58.1915C30.1886 58.1915 29.9543 58.2299 29.7654 58.3069C29.5765 58.3804 29.433 58.4818 29.3351 58.6112C29.2371 58.7372 29.1882 58.8771 29.1882 59.031V59.0415C29.1882 59.1849 29.2249 59.3126 29.2984 59.4246C29.3718 59.5365 29.489 59.6344 29.6499 59.7184C29.8143 59.7989 30.0295 59.8688 30.2953 59.9283L31.1716 60.1172C31.9027 60.2711 32.4484 60.509 32.8087 60.8308C33.1725 61.1491 33.3545 61.5934 33.3545 62.1636V62.1688C33.3545 62.6376 33.2303 63.0364 32.9819 63.3652C32.737 63.6905 32.3977 63.9389 31.9639 64.1103C31.5337 64.2817 31.0422 64.3674 30.4895 64.3674ZM30.2324 65.2384V56.1451H30.7676V65.2384H30.2324Z" fill="white"/><path d="M51.9814 49.2538V44.9603H52.9574V45.6214H53.0243C53.0978 45.3879 53.229 45.2082 53.4179 45.0823C53.6094 44.9537 53.8455 44.8895 54.1262 44.8895C54.1997 44.8895 54.2705 44.8934 54.3388 44.9013C54.4096 44.9091 54.4699 44.9196 54.5198 44.9328V45.8103C54.4411 45.792 54.3611 45.7789 54.2797 45.771C54.201 45.7605 54.1197 45.7553 54.0357 45.7553C53.818 45.7553 53.6278 45.7959 53.4651 45.8773C53.3051 45.9586 53.1804 46.074 53.0912 46.2236C53.002 46.3731 52.9574 46.5515 52.9574 46.7588V49.2538H51.9814Z" fill="white"/><path d="M48.5302 49.3247C48.2574 49.3247 48.0147 49.2722 47.8022 49.1672C47.5897 49.0623 47.4218 48.9141 47.2985 48.7225C47.1778 48.5284 47.1174 48.3015 47.1174 48.0417V48.0338C47.1174 47.7767 47.1804 47.5564 47.3063 47.3727C47.4323 47.189 47.6159 47.0447 47.8573 46.9398C48.1013 46.8349 48.3977 46.7719 48.7467 46.7509L50.3366 46.6565V47.3019L48.8844 47.3963C48.6116 47.4121 48.4096 47.4698 48.2784 47.5695C48.1472 47.6692 48.0816 47.8069 48.0816 47.9827V47.9906C48.0816 48.1742 48.1511 48.3172 48.2902 48.4195C48.4292 48.5218 48.6076 48.573 48.8254 48.573C49.0222 48.573 49.1979 48.5336 49.3527 48.4549C49.5075 48.3762 49.6295 48.27 49.7187 48.1362C49.8079 47.9997 49.8525 47.8463 49.8525 47.6757V46.3219C49.8525 46.1068 49.7843 45.9415 49.6479 45.8261C49.5115 45.7106 49.3108 45.6529 49.0458 45.6529C48.8201 45.6529 48.6365 45.6923 48.4948 45.771C48.3531 45.8497 48.2574 45.9599 48.2075 46.1016L48.2036 46.1173H47.2788L47.2827 46.0858C47.3168 45.8418 47.4113 45.6293 47.5661 45.4483C47.7235 45.2673 47.9321 45.1269 48.1918 45.0272C48.4515 44.9249 48.7519 44.8737 49.093 44.8737C49.4603 44.8737 49.7725 44.9314 50.0296 45.0469C50.2894 45.1623 50.4861 45.3276 50.6199 45.5427C50.7537 45.7579 50.8206 46.0163 50.8206 46.318V49.2538H49.8525V48.6596H49.7856C49.7069 48.7986 49.6046 48.918 49.4787 49.0177C49.3554 49.1174 49.2137 49.1935 49.0536 49.2459C48.8936 49.2984 48.7191 49.3247 48.5302 49.3247Z" fill="white"/><path d="M44.4529 49.3404C44.0279 49.3404 43.6619 49.2499 43.355 49.0689C43.0506 48.8878 42.8158 48.632 42.6505 48.3015C42.4852 47.9683 42.4026 47.5734 42.4026 47.1169V47.113C42.4026 46.6617 42.4839 46.2695 42.6466 45.9363C42.8119 45.6005 43.0454 45.3394 43.3471 45.1531C43.6488 44.9669 44.003 44.8737 44.4096 44.8737C44.8163 44.8737 45.1666 44.9642 45.4604 45.1453C45.7569 45.3237 45.9851 45.5742 46.1452 45.8969C46.3052 46.2196 46.3852 46.5974 46.3852 47.0303V47.353H42.8945V46.6958H45.9051L45.4407 47.3097V46.9201C45.4407 46.6342 45.3974 46.3967 45.3108 46.2078C45.2243 46.0189 45.1036 45.8772 44.9488 45.7828C44.7966 45.6883 44.6208 45.6411 44.4214 45.6411C44.2194 45.6411 44.0397 45.691 43.8823 45.7907C43.7275 45.8877 43.6042 46.032 43.5124 46.2236C43.4232 46.4125 43.3786 46.6446 43.3786 46.9201V47.3137C43.3786 47.576 43.4232 47.8017 43.5124 47.9906C43.6016 48.1795 43.7275 48.3238 43.8902 48.4234C44.0555 48.5231 44.2509 48.573 44.4765 48.573C44.6523 48.573 44.8032 48.5481 44.9291 48.4982C45.055 48.4458 45.1574 48.3841 45.2361 48.3133C45.3174 48.2398 45.3725 48.169 45.4014 48.1007L45.4132 48.0732H46.3419L46.3341 48.1126C46.2999 48.2516 46.237 48.3933 46.1452 48.5376C46.056 48.6793 45.934 48.8117 45.7792 48.9351C45.627 49.0557 45.4407 49.1541 45.2203 49.2302C45 49.3037 44.7442 49.3404 44.4529 49.3404Z" fill="white"/><path d="M39.4867 49.2538V47.0145L37.4954 43.575H38.6051L39.9589 46.0149H40.0258L41.3796 43.575H42.4894L40.4981 47.0145V49.2538H39.4867Z" fill="white"/><g clip-path="url(#clip0_1836_11650)"><path d="M49.3655 31.3433C49.2523 30.4795 48.8281 29.6865 48.1724 29.1128C47.5166 28.5392 46.6743 28.2242 45.8031 28.2268C44.9318 28.2294 44.0914 28.5494 43.4391 29.127C42.7869 29.7045 42.3674 30.5 42.2594 31.3645C42.1513 32.2291 42.362 33.1033 42.8521 33.8237C43.3421 34.544 44.0779 35.0611 44.9217 35.2781C45.7654 35.4951 46.6594 35.3971 47.4361 35.0025C48.2129 34.6079 48.8192 33.9437 49.1416 33.1343M49.3655 35.3732V33.1343H47.1267" stroke="#CABAF9" stroke-width="0.895522" stroke-linecap="round" stroke-linejoin="round"/><path d="M45.3582 31.7911C45.3582 31.9098 45.4053 32.0237 45.4893 32.1077C45.5733 32.1917 45.6872 32.2388 45.8059 32.2388C45.9247 32.2388 46.0386 32.1917 46.1225 32.1077C46.2065 32.0237 46.2537 31.9098 46.2537 31.7911C46.2537 31.6723 46.2065 31.5584 46.1225 31.4745C46.0386 31.3905 45.9247 31.3433 45.8059 31.3433C45.6872 31.3433 45.5733 31.3905 45.4893 31.4745C45.4053 31.5584 45.3582 31.6723 45.3582 31.7911Z" stroke="#CABAF9" stroke-width="0.895522" stroke-linecap="round" stroke-linejoin="round"/></g><g clip-path="url(#clip1_1836_11650)"><path d="M25.3582 24.1791C25.3582 24.7965 25.4798 25.4079 25.716 25.9783C25.9523 26.5487 26.2986 27.067 26.7352 27.5036C27.1718 27.9401 27.6901 28.2864 28.2605 28.5227C28.8309 28.759 29.4422 28.8806 30.0596 28.8806C30.6771 28.8806 31.2884 28.759 31.8588 28.5227C32.4292 28.2864 32.9475 27.9401 33.3841 27.5036C33.8207 27.067 34.167 26.5487 34.4033 25.9783C34.6395 25.4079 34.7611 24.7965 34.7611 24.1791C34.7611 23.5617 34.6395 22.9503 34.4033 22.3799C34.167 21.8095 33.8207 21.2912 33.3841 20.8547C32.9475 20.4181 32.4292 20.0718 31.8588 19.8355C31.2884 19.5992 30.6771 19.4776 30.0596 19.4776C29.4422 19.4776 28.8309 19.5992 28.2605 19.8355C27.6901 20.0718 27.1718 20.4181 26.7352 20.8547C26.2986 21.2912 25.9523 21.8095 25.716 22.3799C25.4798 22.9503 25.3582 23.5617 25.3582 24.1791Z" fill="white" stroke="white" stroke-width="1.04478" stroke-linecap="round" stroke-linejoin="round"/><path d="M28.4927 24.1791L29.5375 25.2239L31.627 23.1343" stroke="#AB7DFF" stroke-width="0.671642" stroke-linecap="round" stroke-linejoin="round"/></g><path d="M73.1941 23.2836C73.1941 19.3269 76.4016 16.1194 80.3583 16.1194H113.642C117.599 16.1194 120.806 19.3269 120.806 23.2836V66.7164C120.806 70.6731 117.599 73.8806 113.642 73.8806H80.3583C76.4016 73.8806 73.1941 70.6731 73.1941 66.7164V23.2836Z" fill="#F9F9F9"/><path d="M80.3582 16.5676H113.642C117.351 16.5679 120.358 19.5743 120.358 23.2835V66.7161C120.358 70.4253 117.351 73.4326 113.642 73.4329H80.3582C76.6488 73.4328 73.6423 70.4254 73.6423 66.7161V23.2835C73.6424 19.5742 76.6489 16.5677 80.3582 16.5676Z" stroke="#272727" stroke-opacity="0.2" stroke-width="0.895522"/><path d="M108.748 56.7642C109.203 56.7642 109.621 56.8447 110.003 57.0056C110.387 57.163 110.721 57.4026 111.005 57.7244C111.288 58.0463 111.509 58.4486 111.666 58.9313C111.823 59.414 111.902 59.9772 111.902 60.6209V60.6314C111.902 61.4639 111.774 62.1776 111.519 62.7723C111.264 63.3669 110.9 63.8234 110.428 64.1418C109.955 64.4601 109.39 64.6193 108.733 64.6193C108.247 64.6193 107.806 64.5318 107.41 64.3569C107.019 64.182 106.695 63.9424 106.44 63.638C106.184 63.3337 106.018 62.9856 105.941 62.5938L105.931 62.5466H107.494L107.51 62.5886C107.573 62.7425 107.661 62.8772 107.773 62.9926C107.888 63.1081 108.026 63.199 108.187 63.2655C108.348 63.3285 108.532 63.3599 108.738 63.3599C109.109 63.3599 109.411 63.2532 109.646 63.0399C109.88 62.8265 110.057 62.5379 110.176 62.1741C110.295 61.8103 110.363 61.4045 110.38 60.9567C110.384 60.9042 110.386 60.8535 110.386 60.8046C110.389 60.7521 110.391 60.6996 110.391 60.6471L110.15 59.3878C110.15 59.1289 110.088 58.8981 109.966 58.6952C109.843 58.4888 109.677 58.3261 109.467 58.2072C109.261 58.0848 109.027 58.0235 108.764 58.0235C108.509 58.0235 108.276 58.083 108.066 58.2019C107.856 58.3209 107.689 58.4818 107.563 58.6847C107.437 58.8841 107.374 59.1097 107.374 59.3616V59.3721C107.374 59.6344 107.433 59.8671 107.552 60.0699C107.675 60.2728 107.839 60.432 108.045 60.5474C108.255 60.6629 108.49 60.7206 108.748 60.7206C109.014 60.7206 109.252 60.6646 109.462 60.5527C109.676 60.4372 109.843 60.2798 109.966 60.0804C110.088 59.881 110.15 59.6519 110.15 59.3931V59.3878H110.47V60.6891H110.344C110.246 60.9165 110.102 61.1211 109.913 61.303C109.724 61.4814 109.494 61.6249 109.221 61.7333C108.951 61.8382 108.644 61.8907 108.297 61.8907C107.811 61.8907 107.382 61.784 107.012 61.5706C106.641 61.3573 106.351 61.0652 106.141 60.6944C105.934 60.3236 105.831 59.902 105.831 59.4298V59.4193C105.831 58.9016 105.957 58.4433 106.209 58.0445C106.461 57.6457 106.805 57.3327 107.243 57.1053C107.683 56.8779 108.185 56.7642 108.748 56.7642Z" fill="#272727" fill-opacity="0.7"/><path d="M101.675 56.7642C102.13 56.7642 102.548 56.8447 102.929 57.0056C103.314 57.163 103.648 57.4026 103.932 57.7244C104.215 58.0463 104.435 58.4486 104.593 58.9313C104.75 59.414 104.829 59.9772 104.829 60.6209V60.6314C104.829 61.4639 104.701 62.1776 104.446 62.7723C104.19 63.3669 103.827 63.8234 103.354 64.1418C102.882 64.4601 102.317 64.6193 101.66 64.6193C101.173 64.6193 100.733 64.5318 100.337 64.3569C99.9454 64.182 99.6219 63.9424 99.3665 63.638C99.1111 63.3337 98.945 62.9856 98.868 62.5938L98.8575 62.5466H100.421L100.437 62.5886C100.5 62.7425 100.587 62.8772 100.699 62.9926C100.815 63.1081 100.953 63.199 101.114 63.2655C101.275 63.3285 101.458 63.3599 101.665 63.3599C102.036 63.3599 102.338 63.2532 102.573 63.0399C102.807 62.8265 102.984 62.5379 103.102 62.1741C103.221 61.8103 103.29 61.4045 103.307 60.9567C103.311 60.9042 103.312 60.8535 103.312 60.8046C103.316 60.7521 103.318 60.6996 103.318 60.6471L103.076 59.3878C103.076 59.1289 103.015 58.8981 102.893 58.6952C102.77 58.4888 102.604 58.3261 102.394 58.2072C102.188 58.0848 101.953 58.0235 101.691 58.0235C101.436 58.0235 101.203 58.083 100.993 58.2019C100.783 58.3209 100.615 58.4818 100.489 58.6847C100.363 58.8841 100.3 59.1097 100.3 59.3616V59.3721C100.3 59.6344 100.36 59.8671 100.479 60.0699C100.601 60.2728 100.766 60.432 100.972 60.5474C101.182 60.6629 101.416 60.7206 101.675 60.7206C101.941 60.7206 102.179 60.6646 102.389 60.5527C102.602 60.4372 102.77 60.2798 102.893 60.0804C103.015 59.881 103.076 59.6519 103.076 59.3931V59.3878H103.396V60.6891H103.27C103.172 60.9165 103.029 61.1211 102.84 61.303C102.651 61.4814 102.42 61.6249 102.148 61.7333C101.878 61.8382 101.57 61.8907 101.224 61.8907C100.738 61.8907 100.309 61.784 99.9384 61.5706C99.5676 61.3573 99.2773 61.0652 99.0674 60.6944C98.861 60.3236 98.7578 59.902 98.7578 59.4298V59.4193C98.7578 58.9016 98.8837 58.4433 99.1356 58.0445C99.3875 57.6457 99.732 57.3327 100.169 57.1053C100.61 56.8779 101.112 56.7642 101.675 56.7642Z" fill="#272727" fill-opacity="0.7"/><path d="M96.9475 64.572C96.7061 64.572 96.5014 64.4898 96.3335 64.3254C96.1691 64.1575 96.0869 63.9529 96.0869 63.7115C96.0869 63.4701 96.1691 63.2672 96.3335 63.1028C96.5014 62.9349 96.7061 62.851 96.9475 62.851C97.1923 62.851 97.397 62.9349 97.5614 63.1028C97.7293 63.2672 97.8132 63.4701 97.8132 63.7115C97.8132 63.9529 97.7293 64.1575 97.5614 64.3254C97.397 64.4898 97.1923 64.572 96.9475 64.572Z" fill="#272727" fill-opacity="0.7"/><path d="M92.1569 64.614C91.5552 64.614 91.0235 64.5213 90.5617 64.3359C90.1035 64.1505 89.7449 63.8934 89.4861 63.5646C89.2307 63.2322 89.103 62.8492 89.103 62.4154V62.4049C89.103 62.0761 89.1765 61.7805 89.3234 61.5181C89.4738 61.2558 89.6802 61.0371 89.9426 60.8622C90.2084 60.6838 90.511 60.5614 90.8503 60.4949V60.4635C90.4131 60.355 90.058 60.1539 89.7852 59.86C89.5123 59.5627 89.3759 59.2094 89.3759 58.8001V58.7896C89.3759 58.4013 89.4931 58.055 89.7274 57.7507C89.9653 57.4463 90.2924 57.2067 90.7087 57.0318C91.1284 56.8569 91.6112 56.7694 92.1569 56.7694C92.7026 56.7694 93.1836 56.8569 93.5999 57.0318C94.0197 57.2067 94.3467 57.4463 94.5811 57.7507C94.819 58.055 94.9379 58.4013 94.9379 58.7896V58.8001C94.9379 59.2094 94.8015 59.5627 94.5286 59.86C94.2558 60.1539 93.9007 60.355 93.4635 60.4635V60.4949C93.8028 60.5614 94.1036 60.6838 94.366 60.8622C94.6283 61.0371 94.8347 61.2558 94.9851 61.5181C95.1356 61.7805 95.2108 62.0761 95.2108 62.4049V62.4154C95.2108 62.8492 95.0813 63.2322 94.8225 63.5646C94.5671 63.8934 94.2086 64.1505 93.7468 64.3359C93.2885 64.5213 92.7586 64.614 92.1569 64.614ZM92.1569 63.4649C92.4333 63.4649 92.6764 63.4159 92.8863 63.3179C93.0996 63.2165 93.2658 63.0783 93.3847 62.9034C93.5072 62.7285 93.5684 62.5309 93.5684 62.3105V62.3C93.5684 62.0726 93.5089 61.8732 93.39 61.7018C93.2711 61.5269 93.1049 61.3887 92.8915 61.2873C92.6781 61.1858 92.4333 61.1351 92.1569 61.1351C91.877 61.1351 91.6304 61.1858 91.417 61.2873C91.2072 61.3887 91.0427 61.5269 90.9238 61.7018C90.8049 61.8732 90.7454 62.0726 90.7454 62.3V62.3105C90.7454 62.5309 90.8049 62.7285 90.9238 62.9034C91.0462 63.0783 91.2124 63.2165 91.4223 63.3179C91.6357 63.4159 91.8805 63.4649 92.1569 63.4649ZM92.1569 59.986C92.3948 59.986 92.6047 59.9422 92.7866 59.8548C92.9685 59.7673 93.1101 59.6466 93.2116 59.4927C93.3165 59.3353 93.369 59.1552 93.369 58.9523V58.9418C93.369 58.7389 93.3165 58.5605 93.2116 58.4066C93.1101 58.2491 92.9685 58.1284 92.7866 58.0445C92.6047 57.957 92.3948 57.9133 92.1569 57.9133C91.919 57.9133 91.7091 57.957 91.5272 58.0445C91.3453 58.1284 91.2019 58.2491 91.097 58.4066C90.9955 58.5605 90.9448 58.7389 90.9448 58.9418V58.9523C90.9448 59.1552 90.9955 59.3353 91.097 59.4927C91.1984 59.6466 91.3401 59.7673 91.522 59.8548C91.7074 59.9422 91.919 59.986 92.1569 59.986Z" fill="#272727" fill-opacity="0.7"/><path d="M85.1203 64.3674C84.5746 64.3674 84.0901 64.287 83.6669 64.126C83.2471 63.9616 82.913 63.7238 82.6646 63.4124C82.4163 63.1011 82.2781 62.7268 82.2501 62.2895L82.2449 62.2213H83.6459L83.6564 62.2685C83.6914 62.4504 83.7666 62.6114 83.882 62.7513C83.9974 62.8912 84.1584 62.9996 84.3647 63.0766C84.5746 63.1536 84.8387 63.192 85.1571 63.192C85.4754 63.192 85.7343 63.1553 85.9337 63.0819C86.133 63.0084 86.28 62.9069 86.3744 62.7775C86.4724 62.6446 86.5213 62.4924 86.5213 62.321V62.3105C86.5213 62.0796 86.4374 61.896 86.2695 61.7596C86.1051 61.6196 85.7955 61.4989 85.3407 61.3975L84.4749 61.2138C84.0097 61.1159 83.6196 60.9777 83.3048 60.7993C82.99 60.6174 82.7521 60.3918 82.5912 60.1224C82.4338 59.8496 82.3551 59.5277 82.3551 59.1569V59.1464C82.3551 58.7127 82.4723 58.3366 82.7066 58.0183C82.941 57.7 83.2628 57.4534 83.6721 57.2784C84.0849 57.1035 84.5589 57.0161 85.0941 57.0161C85.6363 57.0161 86.1103 57.1 86.5161 57.268C86.9219 57.4324 87.242 57.6702 87.4763 57.9816C87.7142 58.2894 87.8489 58.6602 87.8804 59.094L87.8856 59.1727H86.4846L86.4794 59.1307C86.4514 58.9278 86.3779 58.7564 86.259 58.6165C86.14 58.4766 85.9826 58.3716 85.7867 58.3016C85.5908 58.2282 85.3617 58.1915 85.0994 58.1915C84.8195 58.1915 84.5851 58.2299 84.3962 58.3069C84.2073 58.3804 84.0639 58.4818 83.966 58.6112C83.868 58.7372 83.819 58.8771 83.819 59.031V59.0415C83.819 59.1849 83.8558 59.3126 83.9292 59.4246C84.0027 59.5365 84.1199 59.6344 84.2808 59.7184C84.4452 59.7989 84.6603 59.8688 84.9262 59.9283L85.8025 60.1172C86.5336 60.2711 87.0793 60.509 87.4396 60.8308C87.8034 61.1491 87.9853 61.5934 87.9853 62.1636V62.1688C87.9853 62.6376 87.8611 63.0364 87.6128 63.3652C87.3679 63.6905 87.0286 63.9389 86.5948 64.1103C86.1645 64.2817 85.673 64.3674 85.1203 64.3674ZM84.8632 65.2384V56.1451H85.3984V65.2384H84.8632Z" fill="#272727" fill-opacity="0.7"/><path d="M105.229 49.2538V43.2996H106.209V45.6175H106.276C106.378 45.3866 106.533 45.2056 106.74 45.0744C106.947 44.9406 107.207 44.8737 107.519 44.8737C107.837 44.8737 108.106 44.9367 108.326 45.0626C108.547 45.1886 108.713 45.3709 108.826 45.6096C108.941 45.8484 108.999 46.1383 108.999 46.4794V49.2538H108.023V46.7037C108.023 46.3705 107.952 46.1199 107.811 45.952C107.669 45.7841 107.45 45.7002 107.153 45.7002C106.959 45.7002 106.791 45.7434 106.65 45.83C106.511 45.9166 106.402 46.0386 106.323 46.196C106.247 46.3508 106.209 46.5358 106.209 46.7509V49.2538H105.229Z" fill="#272727" fill-opacity="0.7"/><path d="M103.722 49.2774C103.231 49.2774 102.877 49.1869 102.659 49.0059C102.441 48.8249 102.333 48.5271 102.333 48.1126V45.7159H101.667V44.9603H102.333V43.9017H103.328V44.9603H104.229V45.7159H103.328V47.8882C103.328 48.1007 103.373 48.2555 103.462 48.3526C103.554 48.4497 103.701 48.4982 103.903 48.4982C103.971 48.4982 104.027 48.4969 104.072 48.4943C104.119 48.489 104.172 48.4838 104.229 48.4785V49.2341C104.161 49.2446 104.083 49.2538 103.993 49.2617C103.907 49.2722 103.816 49.2774 103.722 49.2774Z" fill="#272727" fill-opacity="0.7"/><path d="M97.126 49.2538V44.9603H98.102V45.6175H98.1689C98.2712 45.3866 98.426 45.2056 98.6332 45.0744C98.8405 44.9406 99.1002 44.8737 99.4124 44.8737C99.8926 44.8737 100.259 45.0128 100.51 45.2909C100.765 45.569 100.892 45.9638 100.892 46.4754V49.2538H99.9122V46.6997C99.9122 46.3665 99.8414 46.1173 99.6997 45.952C99.5607 45.7841 99.3442 45.7001 99.0504 45.7001C98.8536 45.7001 98.6844 45.7434 98.5427 45.83C98.4037 45.9166 98.2948 46.0386 98.2161 46.196C98.14 46.3508 98.102 46.5358 98.102 46.7509V49.2538H97.126Z" fill="#272727" fill-opacity="0.7"/><path d="M94.0839 49.3404C93.6563 49.3404 93.2876 49.2512 92.9781 49.0728C92.6711 48.8917 92.4337 48.6346 92.2658 48.3014C92.1005 47.9682 92.0178 47.5708 92.0178 47.109V47.1011C92.0178 46.642 92.1018 46.2458 92.2697 45.9126C92.4376 45.5795 92.675 45.3237 92.982 45.1452C93.2916 44.9642 93.6589 44.8737 94.0839 44.8737C94.5116 44.8737 94.8789 44.9629 95.1858 45.1413C95.4954 45.3197 95.7342 45.5755 95.9021 45.9087C96.07 46.2419 96.1539 46.6394 96.1539 47.1011V47.109C96.1539 47.5708 96.07 47.9682 95.9021 48.3014C95.7368 48.6346 95.4993 48.8917 95.1898 49.0728C94.8828 49.2512 94.5142 49.3404 94.0839 49.3404ZM94.0839 48.5454C94.3122 48.5454 94.505 48.489 94.6624 48.3762C94.8198 48.2608 94.9405 48.0968 95.0245 47.8843C95.1084 47.6691 95.1504 47.4107 95.1504 47.109V47.1011C95.1504 46.7994 95.1084 46.5423 95.0245 46.3298C94.9405 46.1147 94.8185 45.9507 94.6585 45.8379C94.5011 45.7251 94.3095 45.6687 94.0839 45.6687C93.8583 45.6687 93.6668 45.7251 93.5093 45.8379C93.3519 45.9507 93.2299 46.1147 93.1433 46.3298C93.0594 46.5423 93.0174 46.7994 93.0174 47.1011V47.109C93.0174 47.4133 93.0594 47.6731 93.1433 47.8882C93.2273 48.1007 93.348 48.2634 93.5054 48.3762C93.6654 48.489 93.8583 48.5454 94.0839 48.5454Z" fill="#272727" fill-opacity="0.7"/><path d="M85.1387 49.2538V43.575H86.3036L88.0115 47.9433H88.0784L89.7824 43.575H90.9473V49.2538H90.0343V45.2161H89.5385L90.5498 43.7325L88.3893 49.2538H87.6967L85.5401 43.7325L86.5475 45.2161H86.0517V49.2538H85.1387Z" fill="#272727" fill-opacity="0.7"/><g clip-path="url(#clip2_1836_11650)"><path d="M93.418 29.5523C93.418 29.3148 93.5123 29.087 93.6803 28.9191C93.8482 28.7511 94.076 28.6568 94.3135 28.6568H99.6866C99.9241 28.6568 100.152 28.7511 100.32 28.9191C100.488 29.087 100.582 29.3148 100.582 29.5523V34.9254C100.582 35.1629 100.488 35.3907 100.32 35.5587C100.152 35.7266 99.9241 35.8209 99.6866 35.8209H94.3135C94.076 35.8209 93.8482 35.7266 93.6803 35.5587C93.5123 35.3907 93.418 35.1629 93.418 34.9254V29.5523Z" stroke="#CABAF9" stroke-width="0.895522" stroke-linecap="round" stroke-linejoin="round"/><path d="M98.791 27.7612V29.5523" stroke="#CABAF9" stroke-width="0.895522" stroke-linecap="round" stroke-linejoin="round"/><path d="M95.209 27.7612V29.5523" stroke="#CABAF9" stroke-width="0.895522" stroke-linecap="round" stroke-linejoin="round"/><path d="M93.418 31.3433H100.582" stroke="#CABAF9" stroke-width="0.895522" stroke-linecap="round" stroke-linejoin="round"/><path d="M95.209 33.1343H96.1045V34.0299H95.209V33.1343Z" stroke="#CABAF9" stroke-width="0.895522" stroke-linecap="round" stroke-linejoin="round"/></g><g clip-path="url(#clip3_1836_11650)"><path d="M76.5522 24.1791C76.5522 24.7965 76.6739 25.4079 76.9101 25.9783C77.1464 26.5487 77.4927 27.067 77.9293 27.5036C78.3659 27.9401 78.8841 28.2864 79.4546 28.5227C80.025 28.759 80.6363 28.8806 81.2537 28.8806C81.8711 28.8806 82.4825 28.759 83.0529 28.5227C83.6233 28.2864 84.1416 27.9401 84.5782 27.5036C85.0148 27.067 85.3611 26.5487 85.5974 25.9783C85.8336 25.4079 85.9552 24.7965 85.9552 24.1791C85.9552 23.5617 85.8336 22.9503 85.5974 22.3799C85.3611 21.8095 85.0148 21.2912 84.5782 20.8547C84.1416 20.4181 83.6233 20.0718 83.0529 19.8355C82.4825 19.5992 81.8711 19.4776 81.2537 19.4776C80.6363 19.4776 80.025 19.5992 79.4546 19.8355C78.8841 20.0718 78.3659 20.4181 77.9293 20.8547C77.4927 21.2912 77.1464 21.8095 76.9101 22.3799C76.6739 22.9503 76.5522 23.5617 76.5522 24.1791Z" stroke="#CABAF9" stroke-width="0.671642" stroke-linecap="round" stroke-linejoin="round"/></g><path d="M124.388 23.2836C124.388 19.3269 127.595 16.1194 131.552 16.1194H164.836C168.792 16.1194 172 19.3269 172 23.2836V66.7164C172 70.6731 168.792 73.8806 164.836 73.8806H131.552C127.595 73.8806 124.388 70.6731 124.388 66.7164V23.2836Z" fill="#F9F9F9"/><path d="M131.552 16.5676H164.836C168.545 16.5679 171.552 19.5743 171.552 23.2835V66.7161C171.552 70.4253 168.545 73.4326 164.836 73.4329H131.552C127.843 73.4328 124.836 70.4254 124.836 66.7161V23.2835C124.836 19.5742 127.843 16.5677 131.552 16.5676Z" stroke="#272727" stroke-opacity="0.2" stroke-width="0.895522"/><path d="M157.859 64.614C157.258 64.614 156.726 64.5213 156.264 64.3359C155.806 64.1505 155.447 63.8934 155.188 63.5646C154.933 63.2322 154.805 62.8492 154.805 62.4154V62.4049C154.805 62.0761 154.879 61.7805 155.026 61.5181C155.176 61.2558 155.383 61.0371 155.645 60.8622C155.911 60.6838 156.213 60.5614 156.553 60.4949V60.4635C156.115 60.355 155.76 60.1539 155.488 59.86C155.215 59.5627 155.078 59.2094 155.078 58.8001V58.7896C155.078 58.4013 155.195 58.055 155.43 57.7507C155.668 57.4463 155.995 57.2067 156.411 57.0318C156.831 56.8569 157.314 56.7694 157.859 56.7694C158.405 56.7694 158.886 56.8569 159.302 57.0318C159.722 57.2067 160.049 57.4463 160.283 57.7507C160.521 58.055 160.64 58.4013 160.64 58.7896V58.8001C160.64 59.2094 160.504 59.5627 160.231 59.86C159.958 60.1539 159.603 60.355 159.166 60.4635V60.4949C159.505 60.5614 159.806 60.6838 160.068 60.8622C160.331 61.0371 160.537 61.2558 160.688 61.5181C160.838 61.7805 160.913 62.0761 160.913 62.4049V62.4154C160.913 62.8492 160.784 63.2322 160.525 63.5646C160.27 63.8934 159.911 64.1505 159.449 64.3359C158.991 64.5213 158.461 64.614 157.859 64.614ZM157.859 63.4649C158.136 63.4649 158.379 63.4159 158.589 63.3179C158.802 63.2165 158.968 63.0783 159.087 62.9034C159.21 62.7285 159.271 62.5309 159.271 62.3105V62.3C159.271 62.0726 159.211 61.8732 159.092 61.7018C158.973 61.5269 158.807 61.3887 158.594 61.2873C158.381 61.1858 158.136 61.1351 157.859 61.1351C157.579 61.1351 157.333 61.1858 157.119 61.2873C156.91 61.3887 156.745 61.5269 156.626 61.7018C156.507 61.8732 156.448 62.0726 156.448 62.3V62.3105C156.448 62.5309 156.507 62.7285 156.626 62.9034C156.749 63.0783 156.915 63.2165 157.125 63.3179C157.338 63.4159 157.583 63.4649 157.859 63.4649ZM157.859 59.986C158.097 59.986 158.307 59.9422 158.489 59.8548C158.671 59.7673 158.813 59.6466 158.914 59.4927C159.019 59.3353 159.071 59.1552 159.071 58.9523V58.9418C159.071 58.7389 159.019 58.5605 158.914 58.4066C158.813 58.2491 158.671 58.1284 158.489 58.0445C158.307 57.957 158.097 57.9133 157.859 57.9133C157.621 57.9133 157.412 57.957 157.23 58.0445C157.048 58.1284 156.904 58.2491 156.799 58.4066C156.698 58.5605 156.647 58.7389 156.647 58.9418V58.9523C156.647 59.1552 156.698 59.3353 156.799 59.4927C156.901 59.6466 157.042 59.7673 157.224 59.8548C157.41 59.9422 157.621 59.986 157.859 59.986Z" fill="#272727" fill-opacity="0.7"/><path d="M150.776 64.6193C150.139 64.6193 149.59 64.4601 149.128 64.1418C148.67 63.8234 148.318 63.3704 148.073 62.7827C147.828 62.1951 147.706 61.4989 147.706 60.6944V60.6839C147.706 59.8793 147.828 59.1832 148.073 58.5955C148.318 58.0078 148.67 57.5565 149.128 57.2417C149.59 56.9234 150.139 56.7642 150.776 56.7642C151.412 56.7642 151.96 56.9234 152.418 57.2417C152.876 57.5565 153.228 58.0078 153.473 58.5955C153.721 59.1832 153.845 59.8793 153.845 60.6839V60.6944C153.845 61.4989 153.721 62.1951 153.473 62.7827C153.228 63.3704 152.876 63.8234 152.418 64.1418C151.96 64.4601 151.412 64.6193 150.776 64.6193ZM150.776 63.3547C151.087 63.3547 151.351 63.2497 151.568 63.0399C151.788 62.8265 151.956 62.5221 152.072 62.1268C152.187 61.7281 152.245 61.2506 152.245 60.6944V60.6839C152.245 60.1277 152.187 59.6519 152.072 59.2566C151.956 58.8578 151.788 58.5535 151.568 58.3436C151.351 58.1337 151.087 58.0288 150.776 58.0288C150.464 58.0288 150.198 58.1337 149.978 58.3436C149.761 58.5535 149.595 58.8578 149.48 59.2566C149.364 59.6519 149.306 60.1277 149.306 60.6839V60.6944C149.306 61.2506 149.364 61.7281 149.48 62.1268C149.595 62.5221 149.761 62.8265 149.978 63.0399C150.198 63.2497 150.464 63.3547 150.776 63.3547Z" fill="#272727" fill-opacity="0.7"/><path d="M144.458 64.4776V58.3699H144.416L142.496 59.6764V58.2649L144.453 56.9059H146.032V64.4776H144.458Z" fill="#272727" fill-opacity="0.7"/><path d="M138.492 64.3674C137.946 64.3674 137.462 64.287 137.038 64.126C136.619 63.9616 136.285 63.7238 136.036 63.4124C135.788 63.1011 135.65 62.7268 135.622 62.2895L135.616 62.2213H137.017L137.028 62.2685C137.063 62.4504 137.138 62.6114 137.254 62.7513C137.369 62.8912 137.53 62.9996 137.736 63.0766C137.946 63.1536 138.21 63.192 138.529 63.192C138.847 63.192 139.106 63.1553 139.305 63.0819C139.505 63.0084 139.652 62.9069 139.746 62.7775C139.844 62.6446 139.893 62.4924 139.893 62.321V62.3105C139.893 62.0796 139.809 61.896 139.641 61.7596C139.477 61.6196 139.167 61.4989 138.712 61.3975L137.847 61.2138C137.381 61.1159 136.991 60.9777 136.676 60.7993C136.362 60.6174 136.124 60.3918 135.963 60.1224C135.805 59.8496 135.727 59.5277 135.727 59.1569V59.1464C135.727 58.7127 135.844 58.3366 136.078 58.0183C136.313 57.7 136.634 57.4534 137.044 57.2784C137.456 57.1035 137.93 57.0161 138.466 57.0161C139.008 57.0161 139.482 57.1 139.888 57.268C140.293 57.4324 140.614 57.6702 140.848 57.9816C141.086 58.2894 141.22 58.6602 141.252 59.094L141.257 59.1727H139.856L139.851 59.1307C139.823 58.9278 139.75 58.7564 139.631 58.6165C139.512 58.4766 139.354 58.3716 139.158 58.3016C138.962 58.2282 138.733 58.1915 138.471 58.1915C138.191 58.1915 137.957 58.2299 137.768 58.3069C137.579 58.3804 137.435 58.4818 137.338 58.6112C137.24 58.7372 137.191 58.8771 137.191 59.031V59.0415C137.191 59.1849 137.227 59.3126 137.301 59.4246C137.374 59.5365 137.491 59.6344 137.652 59.7184C137.817 59.7989 138.032 59.8688 138.298 59.9283L139.174 60.1172C139.905 60.2711 140.451 60.509 140.811 60.8308C141.175 61.1491 141.357 61.5934 141.357 62.1636V62.1688C141.357 62.6376 141.233 63.0364 140.984 63.3652C140.739 63.6905 140.4 63.9389 139.966 64.1103C139.536 64.2817 139.045 64.3674 138.492 64.3674ZM138.235 65.2384V56.1451H138.77V65.2384H138.235Z" fill="#272727" fill-opacity="0.7"/><path d="M161.866 49.3404C161.441 49.3404 161.075 49.2499 160.768 49.0689C160.463 48.8878 160.228 48.632 160.063 48.3015C159.898 47.9683 159.815 47.5734 159.815 47.1169V47.113C159.815 46.6617 159.897 46.2695 160.059 45.9363C160.224 45.6005 160.458 45.3394 160.76 45.1531C161.061 44.9669 161.416 44.8737 161.822 44.8737C162.229 44.8737 162.579 44.9642 162.873 45.1453C163.169 45.3237 163.398 45.5742 163.558 45.8969C163.718 46.2196 163.798 46.5974 163.798 47.0303V47.353H160.307V46.6958H163.318L162.853 47.3097V46.9201C162.853 46.6342 162.81 46.3967 162.723 46.2078C162.637 46.0189 162.516 45.8772 162.361 45.7828C162.209 45.6883 162.033 45.6411 161.834 45.6411C161.632 45.6411 161.452 45.691 161.295 45.7907C161.14 45.8877 161.017 46.032 160.925 46.2236C160.836 46.4125 160.791 46.6446 160.791 46.9201V47.3137C160.791 47.576 160.836 47.8017 160.925 47.9906C161.014 48.1795 161.14 48.3238 161.303 48.4234C161.468 48.5231 161.664 48.573 161.889 48.573C162.065 48.573 162.216 48.5481 162.342 48.4982C162.468 48.4458 162.57 48.3841 162.649 48.3133C162.73 48.2398 162.785 48.169 162.814 48.1007L162.826 48.0732H163.755L163.747 48.1126C163.713 48.2516 163.65 48.3933 163.558 48.5376C163.469 48.6793 163.347 48.8117 163.192 48.9351C163.04 49.0557 162.853 49.1541 162.633 49.2302C162.413 49.3037 162.157 49.3404 161.866 49.3404Z" fill="#272727" fill-opacity="0.7"/><path d="M152.723 49.2538V44.9603H153.699V45.6254H153.766C153.858 45.3866 154.006 45.2017 154.211 45.0705C154.418 44.9393 154.664 44.8737 154.947 44.8737C155.141 44.8737 155.316 44.9052 155.47 44.9682C155.628 45.0311 155.763 45.1216 155.876 45.2397C155.988 45.3551 156.075 45.4942 156.135 45.6569H156.202C156.27 45.4994 156.369 45.3617 156.497 45.2436C156.626 45.1256 156.776 45.0351 156.946 44.9721C157.119 44.9065 157.306 44.8737 157.505 44.8737C157.793 44.8737 158.04 44.9314 158.245 45.0469C158.452 45.1597 158.611 45.3224 158.721 45.5349C158.831 45.7474 158.886 46.0019 158.886 46.2983V49.2538H157.91V46.5384C157.91 46.3521 157.881 46.1973 157.824 46.074C157.766 45.9481 157.679 45.8549 157.564 45.7946C157.448 45.7316 157.304 45.7002 157.131 45.7002C156.961 45.7002 156.812 45.7382 156.686 45.8143C156.56 45.8904 156.462 45.994 156.391 46.1252C156.323 46.2564 156.289 46.4059 156.289 46.5738V49.2538H155.313V46.4676C155.313 46.3075 155.281 46.1711 155.218 46.0583C155.158 45.9428 155.069 45.8549 154.951 45.7946C154.835 45.7316 154.698 45.7002 154.538 45.7002C154.378 45.7002 154.233 45.7408 154.105 45.8221C153.979 45.9035 153.879 46.0163 153.806 46.1606C153.735 46.3023 153.699 46.461 153.699 46.6368V49.2538H152.723Z" fill="#272727" fill-opacity="0.7"/><path d="M150.555 49.2538V44.9603H151.531V49.2538H150.555ZM151.047 44.2441C150.887 44.2441 150.749 44.1877 150.634 44.0748C150.521 43.962 150.465 43.8269 150.465 43.6695C150.465 43.5095 150.521 43.373 150.634 43.2602C150.749 43.1474 150.887 43.091 151.047 43.091C151.207 43.091 151.344 43.1474 151.456 43.2602C151.569 43.373 151.626 43.5095 151.626 43.6695C151.626 43.8269 151.569 43.962 151.456 44.0748C151.344 44.1877 151.207 44.2441 151.047 44.2441Z" fill="#272727" fill-opacity="0.7"/><path d="M149.072 49.2774C148.581 49.2774 148.227 49.1869 148.009 49.0059C147.791 48.8249 147.682 48.5271 147.682 48.1126V45.7159H147.017V44.9603H147.682V43.9017H148.678V44.9603H149.579V45.7159H148.678V47.8882C148.678 48.1008 148.723 48.2556 148.812 48.3526C148.904 48.4497 149.051 48.4982 149.253 48.4982C149.321 48.4982 149.377 48.4969 149.422 48.4943C149.469 48.4891 149.522 48.4838 149.579 48.4786V49.2342C149.511 49.2447 149.432 49.2538 149.343 49.2617C149.257 49.2722 149.166 49.2774 149.072 49.2774Z" fill="#272727" fill-opacity="0.7"/><path d="M144.487 49.3404C144.062 49.3404 143.696 49.2499 143.389 49.0689C143.084 48.8878 142.849 48.632 142.684 48.3015C142.519 47.9683 142.436 47.5734 142.436 47.1169V47.113C142.436 46.6617 142.518 46.2695 142.68 45.9363C142.846 45.6005 143.079 45.3394 143.381 45.1531C143.682 44.9669 144.037 44.8737 144.443 44.8737C144.85 44.8737 145.2 44.9642 145.494 45.1453C145.791 45.3237 146.019 45.5742 146.179 45.8969C146.339 46.2196 146.419 46.5974 146.419 47.0303V47.353H142.928V46.6958H145.939L145.474 47.3097V46.9201C145.474 46.6342 145.431 46.3967 145.345 46.2078C145.258 46.0189 145.137 45.8772 144.982 45.7828C144.83 45.6883 144.655 45.6411 144.455 45.6411C144.253 45.6411 144.073 45.691 143.916 45.7907C143.761 45.8877 143.638 46.032 143.546 46.2236C143.457 46.4125 143.412 46.6446 143.412 46.9201V47.3137C143.412 47.576 143.457 47.8017 143.546 47.9906C143.635 48.1795 143.761 48.3238 143.924 48.4234C144.089 48.5231 144.285 48.573 144.51 48.573C144.686 48.573 144.837 48.5481 144.963 48.4982C145.089 48.4458 145.191 48.3841 145.27 48.3133C145.351 48.2398 145.406 48.169 145.435 48.1007L145.447 48.0732H146.376L146.368 48.1126C146.334 48.2516 146.271 48.3933 146.179 48.5376C146.09 48.6793 145.968 48.8117 145.813 48.9351C145.661 49.0557 145.474 49.1541 145.254 49.2302C145.034 49.3037 144.778 49.3404 144.487 49.3404Z" fill="#272727" fill-opacity="0.7"/><path d="M139.992 49.2538V45.7159H139.296V44.9603H139.992V44.5313C139.992 44.2453 140.041 44.0092 140.138 43.8229C140.238 43.634 140.39 43.4924 140.595 43.3979C140.802 43.3035 141.064 43.2562 141.382 43.2562C141.487 43.2562 141.584 43.2602 141.673 43.268C141.762 43.2759 141.845 43.2864 141.921 43.2995V43.9843C141.884 43.9764 141.837 43.9712 141.779 43.9685C141.721 43.9659 141.658 43.9646 141.59 43.9646C141.362 43.9646 141.199 44.0184 141.102 44.126C141.005 44.2309 140.957 44.3857 140.957 44.5903V44.9603H141.885V45.7159H140.972V49.2538H139.992Z" fill="#272727" fill-opacity="0.7"/><path d="M137.513 49.2538V44.9603H138.489V49.2538H137.513ZM138.005 44.2441C137.845 44.2441 137.707 44.1877 137.592 44.0748C137.479 43.962 137.423 43.8269 137.423 43.6695C137.423 43.5095 137.479 43.373 137.592 43.2602C137.707 43.1474 137.845 43.091 138.005 43.091C138.165 43.091 138.302 43.1474 138.414 43.2602C138.527 43.373 138.584 43.5095 138.584 43.6695C138.584 43.8269 138.527 43.962 138.414 44.0748C138.302 44.1877 138.165 44.2441 138.005 44.2441Z" fill="#272727" fill-opacity="0.7"/><path d="M132.905 49.2538V43.5751H133.916V48.3999H136.521V49.2538H132.905Z" fill="#272727" fill-opacity="0.7"/><g clip-path="url(#clip4_1836_11650)"><path d="M148.194 31.7911C147.948 32.268 147.619 32.6969 147.221 33.0574C146.971 33.3079 146.652 33.4785 146.304 33.5477C145.957 33.6168 145.597 33.5814 145.269 33.4459C144.942 33.3103 144.662 33.0807 144.465 32.7862C144.269 32.4917 144.164 32.1453 144.164 31.7911C144.164 31.4368 144.269 31.0905 144.465 30.796C144.662 30.5014 144.942 30.2719 145.269 30.1363C145.597 30.0008 145.957 29.9653 146.304 30.0345C146.652 30.1037 146.971 30.2743 147.221 30.5248C147.619 30.8852 147.948 31.3141 148.194 31.7911ZM148.194 31.7911C148.44 31.3141 148.769 30.8852 149.166 30.5248C149.417 30.2743 149.736 30.1037 150.083 30.0345C150.431 29.9653 150.791 30.0008 151.118 30.1363C151.446 30.2719 151.725 30.5014 151.922 30.796C152.119 31.0905 152.224 31.4368 152.224 31.7911C152.224 32.1453 152.119 32.4917 151.922 32.7862C151.725 33.0807 151.446 33.3103 151.118 33.4459C150.791 33.5814 150.431 33.6168 150.083 33.5477C149.736 33.4785 149.417 33.3079 149.166 33.0574C148.769 32.6969 148.44 32.268 148.194 31.7911Z" stroke="#CABAF9" stroke-width="0.895522" stroke-linecap="round" stroke-linejoin="round"/></g><g clip-path="url(#clip5_1836_11650)"><path d="M127.746 24.1791C127.746 24.7965 127.868 25.4079 128.104 25.9783C128.34 26.5487 128.687 27.067 129.123 27.5036C129.56 27.9401 130.078 28.2864 130.648 28.5227C131.219 28.759 131.83 28.8806 132.448 28.8806C133.065 28.8806 133.676 28.759 134.247 28.5227C134.817 28.2864 135.335 27.9401 135.772 27.5036C136.209 27.067 136.555 26.5487 136.791 25.9783C137.027 25.4079 137.149 24.7965 137.149 24.1791C137.149 23.5617 137.027 22.9503 136.791 22.3799C136.555 21.8095 136.209 21.2912 135.772 20.8547C135.335 20.4181 134.817 20.0718 134.247 19.8355C133.676 19.5992 133.065 19.4776 132.448 19.4776C131.83 19.4776 131.219 19.5992 130.648 19.8355C130.078 20.0718 129.56 20.4181 129.123 20.8547C128.687 21.2912 128.34 21.8095 128.104 22.3799C127.868 22.9503 127.746 23.5617 127.746 24.1791Z" stroke="#CABAF9" stroke-width="0.671642" stroke-linecap="round" stroke-linejoin="round"/></g></g><defs><filter id="filter0_d_1836_11650" x="0" y="0" width="194" height="98" filterUnits="userSpaceOnUse" color-interpolation-filters="sRGB"><feFlood flood-opacity="0" result="BackgroundImageFix"/><feColorMatrix in="SourceAlpha" type="matrix" values="0 0 0 0 0 0 0 0 0 0 0 0 0 0 0 0 0 0 127 0" result="hardAlpha"/><feOffset dy="4"/><feGaussianBlur stdDeviation="6"/><feComposite in2="hardAlpha" operator="out"/><feColorMatrix type="matrix" values="0 0 0 0 0.0590918 0 0 0 0 0.105306 0 0 0 0 0.213141 0 0 0 0.06 0"/><feBlend mode="normal" in2="BackgroundImageFix" result="effect1_dropShadow_1836_11650"/><feBlend mode="normal" in="SourceGraphic" in2="effect1_dropShadow_1836_11650" result="shape"/></filter><clipPath id="clip0_1836_11650"><rect width="10.7463" height="10.7463" fill="white" transform="translate(40.4329 26.4179)"/></clipPath><clipPath id="clip1_1836_11650"><rect width="12.5373" height="12.5373" fill="white" transform="translate(23.791 17.9105)"/></clipPath><clipPath id="clip2_1836_11650"><rect width="10.7463" height="10.7463" fill="white" transform="translate(91.627 26.4179)"/></clipPath><clipPath id="clip3_1836_11650"><rect width="12.5373" height="12.5373" fill="white" transform="translate(74.9851 17.9105)"/></clipPath><clipPath id="clip4_1836_11650"><rect width="10.7463" height="10.7463" fill="white" transform="translate(142.821 26.4179)"/></clipPath><clipPath id="clip5_1836_11650"><rect width="12.5373" height="12.5373" fill="white" transform="translate(126.179 17.9105)"/></clipPath></defs></svg>