<svg width="194" height="68" viewBox="0 0 194 68" fill="none" xmlns="http://www.w3.org/2000/svg"><g filter="url(#filter0_d_single)"><rect x="12" y="8" width="170" height="52" rx="8" fill="white"/><g clip-path="url(#clip0_single)"><path d="M30.0579 20.5111H163.942C167.602 20.5111 170.569 23.4787 170.57 27.139V44.8138C170.57 48.4743 167.602 51.4418 163.942 51.4418H30.0579C26.3976 51.4415 23.4299 48.4742 23.4299 44.8138V27.139C23.4302 23.4789 26.3977 20.5113 30.0579 20.5111Z" fill="#F3F0FE"/><path d="M30.0579 20.5111H163.942C167.602 20.5111 170.569 23.4787 170.57 27.139V44.8138C170.57 48.4743 167.602 51.4418 163.942 51.4418H30.0579C26.3976 51.4415 23.4299 48.4742 23.4299 44.8138V27.139C23.4302 23.4789 26.3977 20.5113 30.0579 20.5111Z" stroke="#AB7DFF" stroke-width="0.883721"/><!--Title: Yearly--><path d="M57.6448 41.0491C57.9417 41.0491 58.1609 40.9395 58.3023 40.7203C58.4507 40.5082 58.525 40.2891 58.525 40.0628C58.525 39.9497 58.5073 39.8366 58.4719 39.7235C58.4437 39.6033 58.3942 39.4584 58.3235 39.2887L56.4677 34.6863H57.9205L59.1188 37.8359C59.1612 37.9348 59.2143 37.9843 59.2779 37.9843C59.3486 37.9843 59.4016 37.9348 59.437 37.8359L60.6247 34.6863H62.0457L59.596 40.8476C59.4122 41.3142 59.1718 41.6535 58.8749 41.8656C58.585 42.0848 58.2245 42.1944 57.7932 42.1944H57.0191V41.0491H57.6448Z" fill="#272727"/><path d="M54.4292 32.6075H55.7972V40.0308H54.4292V32.6075Z" fill="#272727"/><path d="M52.7866 35.8314C52.4756 35.8314 52.2247 35.9551 52.0338 36.2025C51.843 36.4499 51.7475 36.7397 51.7475 37.072V40.0302H50.3798V34.6863H51.7475V34.8983C51.7475 34.969 51.7581 35.022 51.7794 35.0574C51.8076 35.0927 51.8394 35.1104 51.8748 35.1104C51.9313 35.1104 52.0056 35.0715 52.0974 34.9938C52.3166 34.7888 52.5958 34.6863 52.9351 34.6863H53.6985V35.8314H52.7866Z" fill="#272727"/><path d="M46.0806 40.1149C45.4657 40.1149 44.9779 39.97 44.6174 39.6801C44.264 39.3903 44.0873 39.0086 44.0873 38.535C44.0873 38.0614 44.2711 37.6762 44.6386 37.3793C45.0062 37.0753 45.4833 36.8916 46.07 36.8279L47.4484 36.6689C47.6393 36.6477 47.7347 36.5664 47.7347 36.425C47.7347 36.2059 47.657 36.0292 47.5014 35.8949C47.3459 35.7606 47.1445 35.6934 46.8971 35.6934H46.4305C46.1619 35.6934 45.9428 35.7606 45.7732 35.8949C45.6106 36.0221 45.5222 36.2059 45.5081 36.4462H44.1191C44.1403 36.0645 44.2569 35.7358 44.469 35.4602C44.6881 35.1774 44.9673 34.9654 45.3066 34.824C45.653 34.6755 46.0276 34.6013 46.4305 34.6013H46.8971C47.3283 34.6013 47.71 34.6826 48.0422 34.8452C48.3815 35.0078 48.643 35.2375 48.8268 35.5344C49.0177 35.8313 49.1131 36.1706 49.1131 36.5523V38.4926C49.1131 38.6623 49.1555 38.7718 49.2403 38.8213C49.3322 38.8637 49.5054 38.8849 49.7599 38.8849V40.03H48.848C48.6289 40.03 48.4557 39.9982 48.3285 39.9346C48.2083 39.8639 48.1129 39.7579 48.0422 39.6165C47.9927 39.5317 47.9326 39.4893 47.8619 39.4893C47.8054 39.4893 47.7382 39.5211 47.6605 39.5847C47.4908 39.7473 47.2646 39.8781 46.9819 39.977C46.7062 40.0689 46.4058 40.1149 46.0806 40.1149ZM46.3139 39.0758C46.7168 39.0758 47.0526 38.9768 47.3212 38.7789C47.5898 38.581 47.7241 38.2982 47.7241 37.9307V37.8882C47.7241 37.8105 47.6958 37.7504 47.6393 37.708C47.5898 37.6585 47.5156 37.6408 47.4166 37.655L46.3033 37.8034C45.7519 37.8882 45.4763 38.1144 45.4763 38.482C45.4763 38.6729 45.547 38.8213 45.6883 38.9273C45.8297 39.0263 46.0382 39.0758 46.3139 39.0758Z" fill="#272727"/><path d="M39.7986 37.655C39.7067 37.655 39.636 37.6762 39.5866 37.7186C39.5371 37.7539 39.5123 37.807 39.5123 37.8776C39.5123 37.9059 39.5194 37.9413 39.5335 37.9837C39.5972 38.2735 39.7279 38.5138 39.9259 38.7047C40.1238 38.8885 40.3641 38.9804 40.6469 38.9804H41.0816C41.336 38.9804 41.5587 38.9097 41.7496 38.7683C41.9475 38.6198 42.0641 38.4396 42.0995 38.2275H43.4036C43.3683 38.5951 43.2411 38.9238 43.0219 39.2136C42.8028 39.4964 42.52 39.719 42.1737 39.8816C41.8344 40.0371 41.4633 40.1149 41.0604 40.1149H40.6363C40.1556 40.1149 39.7209 39.9982 39.3321 39.765C38.9433 39.5246 38.6358 39.1959 38.4096 38.7789C38.1905 38.3548 38.0809 37.8776 38.0809 37.3475C38.0809 36.7961 38.2046 36.3119 38.452 35.8949C38.6994 35.4778 39.0175 35.1597 39.4063 34.9406C39.7951 34.7144 40.198 34.6013 40.615 34.6013H41.0604C41.5128 34.6013 41.9192 34.718 42.2797 34.9512C42.6473 35.1774 42.9336 35.4884 43.1386 35.8843C43.3506 36.2801 43.4566 36.7148 43.4566 37.1884C43.4566 37.3015 43.4531 37.404 43.446 37.4959C43.439 37.5808 43.4354 37.6338 43.4354 37.655H39.7986ZM39.6608 36.3402C39.6254 36.3968 39.6078 36.4498 39.6078 36.4993C39.6078 36.5558 39.629 36.6017 39.6714 36.6371C39.7209 36.6724 39.7845 36.6901 39.8622 36.6901H41.7814C41.8662 36.6901 41.9334 36.6724 41.9828 36.6371C42.0323 36.5947 42.0571 36.5381 42.0571 36.4674C42.0571 36.4321 42.0464 36.3932 42.0252 36.3508C41.9475 36.1458 41.8203 35.9797 41.6435 35.8525C41.4668 35.7252 41.2724 35.6616 41.0604 35.6616H40.6363C40.4313 35.6616 40.2404 35.7217 40.0637 35.8419C39.894 35.955 39.7597 36.1211 39.6608 36.3402Z" fill="#272727"/><path d="M34.9574 37.1995C34.9574 37.0228 34.9185 36.8673 34.8407 36.7329L32.4229 32.6077H33.9605L35.4982 35.3331C35.5477 35.425 35.6113 35.471 35.6891 35.471C35.7669 35.471 35.8305 35.425 35.88 35.3331L37.4176 32.6077H38.9659L36.5481 36.7329C36.4632 36.8673 36.4208 37.0228 36.4208 37.1995V40.031H34.9574V37.1995Z" fill="#272727"/><!--Price: $49.99/year--><path d="M144.189 36.6783C143.845 36.6783 143.535 36.6014 143.259 36.4477C142.989 36.2886 142.774 36.0686 142.615 35.7877C142.461 35.5014 142.384 35.1753 142.384 34.8095C142.384 34.4543 142.466 34.1362 142.631 33.8553C142.795 33.569 143.026 33.3437 143.323 33.1793C143.62 33.015 143.956 32.9328 144.333 32.9328H144.667C145.107 32.9328 145.483 33.0415 145.796 33.2588C146.114 33.4762 146.355 33.7837 146.519 34.1813C146.684 34.5789 146.766 35.0428 146.766 35.5729C146.766 36.1879 146.663 36.726 146.456 37.1872C146.249 37.6485 145.96 38.0037 145.589 38.2528C145.223 38.502 144.807 38.6266 144.341 38.6266C143.779 38.6266 143.325 38.4782 142.981 38.1813C142.636 37.8791 142.432 37.4947 142.368 37.0282H143.466C143.508 37.2244 143.601 37.3834 143.744 37.5053C143.893 37.622 144.091 37.6803 144.341 37.6803C144.648 37.6803 144.905 37.5849 145.112 37.394C145.319 37.1979 145.462 36.946 145.541 36.6385C145.557 36.5908 145.565 36.5484 145.565 36.5113C145.565 36.4689 145.552 36.4371 145.525 36.4159C145.504 36.3947 145.478 36.3841 145.446 36.3841C145.404 36.3841 145.361 36.3973 145.319 36.4238C145.07 36.5935 144.81 36.6783 144.539 36.6783H144.189ZM144.349 33.8791C144.094 33.8791 143.89 33.9719 143.736 34.1574C143.582 34.3377 143.506 34.5551 143.506 34.8095C143.506 35.0693 143.585 35.2893 143.744 35.4696C143.908 35.6445 144.11 35.732 144.349 35.732H144.651C144.895 35.732 145.104 35.6445 145.279 35.4696C145.454 35.2893 145.541 35.0693 145.541 34.8095C145.541 34.5498 145.454 34.3297 145.279 34.1495C145.104 33.9692 144.897 33.8791 144.659 33.8791H144.349Z" fill="#272727" fill-opacity="0.7"/><path d="M139.149 36.6783C138.804 36.6783 138.494 36.6014 138.218 36.4477C137.948 36.2886 137.733 36.0686 137.574 35.7877C137.42 35.5014 137.344 35.1753 137.344 34.8095C137.344 34.4543 137.426 34.1362 137.59 33.8553C137.754 33.569 137.985 33.3437 138.282 33.1793C138.579 33.015 138.915 32.9328 139.292 32.9328H139.626C140.066 32.9328 140.442 33.0415 140.755 33.2588C141.073 33.4762 141.314 33.7837 141.479 34.1813C141.643 34.5789 141.725 35.0428 141.725 35.5729C141.725 36.1879 141.622 36.726 141.415 37.1872C141.208 37.6485 140.919 38.0037 140.548 38.2528C140.182 38.502 139.766 38.6266 139.3 38.6266C138.738 38.6266 138.285 38.4782 137.94 38.1813C137.595 37.8791 137.391 37.4947 137.328 37.0282H138.425C138.467 37.2244 138.56 37.3834 138.703 37.5053C138.852 37.622 139.051 37.6803 139.3 37.6803C139.607 37.6803 139.864 37.5849 140.071 37.394C140.278 37.1979 140.421 36.946 140.501 36.6385C140.516 36.5908 140.524 36.5484 140.524 36.5113C140.524 36.4689 140.511 36.4371 140.485 36.4159C140.463 36.3947 140.437 36.3841 140.405 36.3841C140.363 36.3841 140.32 36.3973 140.278 36.4238C140.029 36.5935 139.769 36.6783 139.499 36.6783H139.149ZM139.308 33.8791C139.053 33.8791 138.849 33.9719 138.695 34.1574C138.542 34.3377 138.465 34.5551 138.465 34.8095C138.465 35.0693 138.544 35.2893 138.703 35.4696C138.868 35.6445 139.069 35.732 139.308 35.732H139.61C139.854 35.732 140.063 35.6445 140.238 35.4696C140.413 35.2893 140.501 35.0693 140.501 34.8095C140.501 34.5498 140.413 34.3297 140.238 34.1495C140.063 33.9692 139.856 33.8791 139.618 33.8791H139.308Z" fill="#272727" fill-opacity="0.7"/><path d="M136.658 37.4662V38.5637H135.481V37.4662H136.658Z" fill="#272727" fill-opacity="0.7"/><path d="M132.438 36.6783C132.094 36.6783 131.783 36.6014 131.508 36.4477C131.237 36.2886 131.023 36.0686 130.864 35.7877C130.71 35.5014 130.633 35.1753 130.633 34.8095C130.633 34.4543 130.715 34.1362 130.879 33.8553C131.044 33.569 131.274 33.3437 131.571 33.1793C131.868 33.015 132.205 32.9328 132.581 32.9328H132.915C133.355 32.9328 133.732 33.0415 134.044 33.2588C134.363 33.4762 134.604 33.7837 134.768 34.1813C134.932 34.5789 135.015 35.0428 135.015 35.5729C135.015 36.1879 134.911 36.726 134.705 37.1872C134.498 37.6485 134.209 38.0037 133.838 38.2528C133.472 38.502 133.056 38.6266 132.589 38.6266C132.027 38.6266 131.574 38.4782 131.229 38.1813C130.885 37.8791 130.681 37.4947 130.617 37.0282H131.714C131.757 37.2244 131.85 37.3834 131.993 37.5053C132.141 37.622 132.34 37.6803 132.589 37.6803C132.897 37.6803 133.154 37.5849 133.361 37.394C133.567 37.1979 133.71 36.946 133.79 36.6385C133.806 36.5908 133.814 36.5484 133.814 36.5113C133.814 36.4689 133.801 36.4371 133.774 36.4159C133.753 36.3947 133.726 36.3841 133.695 36.3841C133.652 36.3841 133.61 36.3973 133.567 36.4238C133.318 36.5935 133.058 36.6783 132.788 36.6783H132.438ZM132.597 33.8791C132.343 33.8791 132.139 33.9719 131.985 34.1574C131.831 34.3377 131.754 34.5551 131.754 34.8095C131.754 35.0693 131.834 35.2893 131.993 35.4696C132.157 35.6445 132.359 35.732 132.597 35.732H132.899C133.143 35.732 133.353 35.6445 133.528 35.4696C133.703 35.2893 133.79 35.0693 133.79 34.8095C133.79 34.5498 133.703 34.3297 133.528 34.1495C133.353 33.9692 133.146 33.8791 132.907 33.8791H132.597Z" fill="#272727" fill-opacity="0.7"/><path d="M128.279 37.6565C128.279 37.5823 128.258 37.524 128.216 37.4816C128.173 37.4392 128.115 37.418 128.041 37.418H125.504V36.4716L128.2 32.9965H129.385V36.2251C129.385 36.2994 129.406 36.3577 129.448 36.4001C129.491 36.4425 129.549 36.4637 129.623 36.4637H130.061V37.418H129.623C129.549 37.418 129.491 37.4392 129.448 37.4816C129.406 37.524 129.385 37.5823 129.385 37.6565V38.5631H128.279V37.6565ZM126.8 36.2092C126.763 36.2516 126.745 36.2967 126.745 36.3444C126.745 36.3815 126.758 36.4107 126.784 36.4319C126.811 36.4531 126.848 36.4637 126.896 36.4637H128.049C128.123 36.4637 128.181 36.4425 128.224 36.4001C128.266 36.3577 128.287 36.2994 128.287 36.2251V34.7381C128.287 34.6956 128.274 34.6612 128.248 34.6347C128.226 34.6029 128.197 34.587 128.16 34.587C128.112 34.587 128.059 34.6188 128.001 34.6824L126.8 36.2092Z" fill="#272727" fill-opacity="0.7"/><path d="M122.37 38.8264C122.37 38.6833 122.296 38.6011 122.147 38.5799C121.696 38.5056 121.328 38.3148 121.042 38.0072C120.755 37.6997 120.602 37.3232 120.58 36.8778H121.678C121.704 37.127 121.8 37.3232 121.964 37.4664C122.134 37.6095 122.351 37.6811 122.616 37.6811H123.102C123.314 37.6811 123.497 37.6228 123.65 37.5061C123.809 37.3842 123.889 37.2172 123.889 37.0051C123.889 36.8672 123.836 36.7532 123.73 36.6631C123.629 36.5729 123.499 36.5014 123.34 36.4483C123.186 36.3953 122.969 36.3343 122.688 36.2654C122.269 36.1647 121.924 36.0613 121.654 35.9552C121.384 35.8439 121.15 35.6742 120.954 35.4462C120.763 35.2182 120.668 34.9133 120.668 34.5315C120.668 34.1286 120.808 33.7839 121.089 33.4976C121.37 33.206 121.728 33.031 122.163 32.9727C122.301 32.9461 122.37 32.864 122.37 32.7261V32.3046H123.221V32.7341C123.221 32.8719 123.295 32.9568 123.444 32.9886C123.825 33.0734 124.146 33.251 124.406 33.5214C124.666 33.7866 124.817 34.1259 124.859 34.5395H123.77C123.733 34.3327 123.645 34.171 123.507 34.0543C123.369 33.9377 123.192 33.8794 122.974 33.8794H122.497C122.296 33.8794 122.126 33.9324 121.988 34.0384C121.856 34.1445 121.789 34.2876 121.789 34.4679C121.789 34.6111 121.84 34.7277 121.94 34.8179C122.046 34.908 122.176 34.9796 122.33 35.0326C122.484 35.0856 122.707 35.1466 122.998 35.2155C123.412 35.311 123.751 35.4117 124.016 35.5178C124.287 35.6238 124.517 35.7908 124.708 36.0188C124.904 36.2468 125.002 36.557 125.002 36.9494C125.002 37.3895 124.857 37.758 124.565 38.0549C124.279 38.3519 123.908 38.5295 123.452 38.5878C123.298 38.6037 123.221 38.6886 123.221 38.8423V39.3116H122.37V38.8264Z" fill="#272727" fill-opacity="0.7"/><path d="M160.776 38.8635V35.9718H161.437V36.4537H161.467C161.52 36.2868 161.61 36.1582 161.739 36.0678C161.868 35.9762 162.015 35.9304 162.181 35.9304C162.219 35.9304 162.261 35.9322 162.307 35.936C162.355 35.9385 162.394 35.9429 162.426 35.9492V36.5761C162.397 36.5661 162.351 36.5573 162.288 36.5497C162.227 36.541 162.167 36.5366 162.109 36.5366C161.985 36.5366 161.873 36.5636 161.774 36.6175C161.676 36.6702 161.599 36.7437 161.543 36.8378C161.486 36.9319 161.458 37.0405 161.458 37.1635V38.8635H160.776Z" fill="#272727" fill-opacity="0.5"/><path d="M158.564 38.922C158.381 38.922 158.216 38.8894 158.069 38.8241C157.923 38.7576 157.808 38.6597 157.722 38.5304C157.638 38.4011 157.596 38.2417 157.596 38.0522C157.596 37.8891 157.626 37.7541 157.687 37.6475C157.747 37.5408 157.829 37.4554 157.933 37.3914C158.037 37.3274 158.155 37.2791 158.285 37.2465C158.417 37.2126 158.553 37.1881 158.694 37.173C158.863 37.1555 159.001 37.1398 159.106 37.126C159.212 37.1109 159.288 37.0883 159.336 37.0582C159.385 37.0268 159.409 36.9785 159.409 36.9132V36.9019C159.409 36.7601 159.367 36.6503 159.283 36.5725C159.199 36.4947 159.078 36.4558 158.92 36.4558C158.753 36.4558 158.62 36.4922 158.523 36.5649C158.426 36.6377 158.361 36.7237 158.327 36.8229L157.69 36.7325C157.741 36.5568 157.823 36.4099 157.939 36.292C158.054 36.1727 158.196 36.0836 158.363 36.0246C158.529 35.9644 158.714 35.9343 158.916 35.9343C159.055 35.9343 159.194 35.9506 159.332 35.9832C159.47 36.0158 159.596 36.0698 159.711 36.1451C159.825 36.2192 159.916 36.3202 159.985 36.4482C160.056 36.5762 160.091 36.7363 160.091 36.9283V38.8636H159.436V38.4664H159.413C159.372 38.5467 159.313 38.622 159.238 38.6923C159.164 38.7614 159.07 38.8172 158.957 38.8599C158.846 38.9013 158.715 38.922 158.564 38.922ZM158.741 38.4212C158.878 38.4212 158.996 38.3942 159.097 38.3403C159.197 38.285 159.274 38.2122 159.328 38.1219C159.384 38.0315 159.411 37.933 159.411 37.8263V37.4856C159.39 37.5031 159.353 37.5194 159.302 37.5345C159.252 37.5496 159.195 37.5627 159.133 37.574C159.07 37.5853 159.008 37.5954 158.946 37.6042C158.885 37.6129 158.831 37.6205 158.786 37.6268C158.684 37.6406 158.593 37.6631 158.513 37.6945C158.433 37.7259 158.369 37.7698 158.323 37.8263C158.277 37.8815 158.253 37.9531 158.253 38.0409C158.253 38.1664 158.299 38.2612 158.391 38.3252C158.482 38.3892 158.599 38.4212 158.741 38.4212Z" fill="#272727" fill-opacity="0.5"/><path d="M155.869 38.9201C155.579 38.9201 155.329 38.8599 155.118 38.7394C154.908 38.6176 154.747 38.4457 154.634 38.2235C154.521 38.0001 154.464 37.7372 154.464 37.4347C154.464 37.1373 154.521 36.8762 154.634 36.6515C154.748 36.4256 154.908 36.2499 155.112 36.1244C155.317 35.9976 155.557 35.9343 155.833 35.9343C156.011 35.9343 156.18 35.9631 156.338 36.0209C156.497 36.0773 156.638 36.1652 156.759 36.2844C156.882 36.4037 156.979 36.5555 157.049 36.74C157.12 36.9233 157.155 37.1417 157.155 37.3952V37.6042H154.785V37.1448H156.501C156.5 37.0143 156.472 36.8982 156.417 36.7965C156.362 36.6936 156.284 36.6126 156.185 36.5537C156.087 36.4947 155.973 36.4652 155.843 36.4652C155.703 36.4652 155.581 36.4991 155.475 36.5668C155.37 36.6333 155.288 36.7212 155.229 36.8304C155.171 36.9383 155.142 37.0569 155.14 37.1862V37.5872C155.14 37.7554 155.171 37.8997 155.233 38.0202C155.294 38.1395 155.38 38.2311 155.491 38.2951C155.601 38.3578 155.73 38.3892 155.878 38.3892C155.977 38.3892 156.067 38.3754 156.148 38.3478C156.228 38.3189 156.298 38.2769 156.357 38.2217C156.416 38.1664 156.46 38.098 156.49 38.0165L157.127 38.088C157.086 38.2562 157.01 38.403 156.897 38.5285C156.785 38.6528 156.642 38.7494 156.468 38.8185C156.293 38.8862 156.094 38.9201 155.869 38.9201Z" fill="#272727" fill-opacity="0.5"/><path d="M152.055 39.9476C151.962 39.9476 151.876 39.9401 151.797 39.925C151.72 39.9112 151.657 39.8949 151.611 39.8761L151.769 39.3452C151.868 39.374 151.957 39.3878 152.035 39.3866C152.112 39.3853 152.181 39.3609 152.24 39.3132C152.3 39.2667 152.351 39.1889 152.392 39.0797L152.451 38.9235L151.402 35.9715H152.125L152.791 38.1553H152.821L153.49 35.9715H154.215L153.057 39.2134C153.003 39.3665 152.931 39.4977 152.842 39.6069C152.753 39.7173 152.644 39.8014 152.515 39.8591C152.387 39.9181 152.233 39.9476 152.055 39.9476Z" fill="#272727" fill-opacity="0.5"/><path d="M151.197 34.827L149.955 39.4432H149.358L150.6 34.827H151.197Z" fill="#272727" fill-opacity="0.5"/></g></g><defs><filter id="filter0_d_single" x="0" y="0" width="194" height="68" filterUnits="userSpaceOnUse" color-interpolation-filters="sRGB"><feFlood flood-opacity="0" result="BackgroundImageFix"/><feColorMatrix in="SourceAlpha" type="matrix" values="0 0 0 0 0 0 0 0 0 0 0 0 0 0 0 0 0 0 127 0" result="hardAlpha"/><feOffset dy="4"/><feGaussianBlur stdDeviation="6"/><feComposite in2="hardAlpha" operator="out"/><feColorMatrix type="matrix" values="0 0 0 0 0.0590918 0 0 0 0 0.105306 0 0 0 0 0.213141 0 0 0 0.06 0"/><feBlend mode="normal" in2="BackgroundImageFix" result="effect1_dropShadow_single"/><feBlend mode="normal" in="SourceGraphic" in2="effect1_dropShadow_single" result="shape"/></filter><clipPath id="clip0_single"><rect width="148.023" height="42" fill="white" transform="translate(22.9884 13)"/></clipPath></defs></svg>