<svg width="194" height="84" viewBox="0 0 194 84" fill="none" xmlns="http://www.w3.org/2000/svg"><g filter="url(#filter0_d_1836_11401)"><path d="M12 16C12 11.5817 15.5817 8 20 8H174C178.418 8 182 11.5817 182 16V60C182 64.4183 178.418 68 174 68H20C15.5817 68 12 64.4183 12 60V16Z" fill="white"/><path d="M29.1641 16.5079H88.7168C92.426 16.5082 95.4326 19.5146 95.4326 23.2238V52.7765C95.4324 56.4856 92.4259 59.4921 88.7168 59.4923H29.1641C25.4549 59.4923 22.4484 56.4857 22.4482 52.7765V23.2238C22.4483 19.5145 25.4548 16.508 29.1641 16.5079Z" fill="#F3F0FE"/><path d="M29.1641 16.5079H88.7168C92.426 16.5082 95.4326 19.5146 95.4326 23.2238V52.7765C95.4324 56.4856 92.4259 59.4921 88.7168 59.4923H29.1641C25.4549 59.4923 22.4484 56.4857 22.4482 52.7765V23.2238C22.4483 19.5145 25.4548 16.508 29.1641 16.5079Z" stroke="#AB7DFF" stroke-width="0.895522"/><path d="M51.1046 47.1476C51.3961 47.1476 51.6678 47.2013 51.9197 47.3086C52.1739 47.4135 52.3954 47.5733 52.5843 47.7878C52.7756 48 52.9237 48.2705 53.0286 48.5994C53.1359 48.9259 53.1895 49.3107 53.1895 49.7538V49.7608C53.1895 50.3251 53.1044 50.8079 52.9342 51.209C52.7662 51.6101 52.526 51.9179 52.2135 52.1325C51.901 52.347 51.5291 52.4543 51.0976 52.4543C50.7735 52.4543 50.4808 52.396 50.2196 52.2794C49.9584 52.1605 49.7427 51.9984 49.5725 51.7932C49.4045 51.5856 49.2938 51.3501 49.2401 51.0865L49.2331 51.0551H50.2686L50.2791 51.0865C50.3211 51.1892 50.3794 51.2813 50.454 51.3629C50.5309 51.4422 50.6231 51.504 50.7303 51.5483C50.8376 51.5926 50.9589 51.6148 51.0941 51.6148C51.339 51.6148 51.5396 51.5425 51.6958 51.3979C51.8521 51.251 51.9698 51.0539 52.0491 50.8067C52.1284 50.5595 52.1739 50.2831 52.1856 49.9776C52.1879 49.9427 52.1891 49.9077 52.1891 49.8727C52.1891 49.8377 52.1891 49.8039 52.1891 49.7712L52.0281 48.9247C52.0281 48.7475 51.9873 48.5889 51.9057 48.4489C51.8241 48.3067 51.7145 48.1948 51.5769 48.1131C51.4393 48.0292 51.2842 47.9872 51.1116 47.9872C50.9414 47.9872 50.7863 48.028 50.6464 48.1096C50.5088 48.1889 50.398 48.2985 50.3141 48.4385C50.2324 48.576 50.1916 48.7311 50.1916 48.9037V48.9107C50.1916 49.0879 50.2313 49.2454 50.3106 49.383C50.3898 49.5205 50.4983 49.629 50.6359 49.7083C50.7735 49.7852 50.9297 49.8237 51.1046 49.8237C51.2795 49.8237 51.4358 49.7864 51.5734 49.7118C51.7133 49.6348 51.8241 49.5287 51.9057 49.3934C51.9873 49.2582 52.0281 49.1043 52.0281 48.9317V48.9247H52.238V49.8657H52.1156C52.0573 49.994 51.9698 50.1152 51.8532 50.2295C51.739 50.3414 51.5955 50.4324 51.423 50.5024C51.2504 50.57 51.0475 50.6038 50.8143 50.6038C50.4878 50.6038 50.2009 50.5327 49.9537 50.3904C49.7065 50.2458 49.5141 50.0488 49.3766 49.7992C49.239 49.5497 49.1702 49.2663 49.1702 48.9492V48.9422C49.1702 48.597 49.2518 48.2892 49.415 48.0187C49.5806 47.7482 49.8092 47.5359 50.1007 47.382C50.3922 47.2258 50.7268 47.1476 51.1046 47.1476Z" fill="#272727"/><path d="M46.2072 47.1476C46.4987 47.1476 46.7704 47.2013 47.0222 47.3086C47.2764 47.4135 47.498 47.5733 47.6869 47.7878C47.8781 48 48.0262 48.2705 48.1311 48.5994C48.2384 48.9259 48.2921 49.3107 48.2921 49.7538V49.7608C48.2921 50.3251 48.2069 50.8079 48.0367 51.209C47.8688 51.6101 47.6286 51.9179 47.3161 52.1325C47.0036 52.347 46.6316 52.4543 46.2002 52.4543C45.876 52.4543 45.5833 52.396 45.3221 52.2794C45.061 52.1605 44.8452 51.9984 44.675 51.7932C44.5071 51.5856 44.3963 51.3501 44.3427 51.0865L44.3357 51.0551H45.3711L45.3816 51.0865C45.4236 51.1892 45.4819 51.2813 45.5565 51.3629C45.6335 51.4422 45.7256 51.504 45.8329 51.5483C45.9401 51.5926 46.0614 51.6148 46.1967 51.6148C46.4415 51.6148 46.6421 51.5425 46.7984 51.3979C46.9546 51.251 47.0724 51.0539 47.1517 50.8067C47.231 50.5595 47.2764 50.2831 47.2881 49.9776C47.2904 49.9427 47.2916 49.9077 47.2916 49.8727C47.2916 49.8377 47.2916 49.8039 47.2916 49.7712L47.1307 48.9247C47.1307 48.7475 47.0899 48.5889 47.0082 48.4489C46.9266 48.3067 46.817 48.1948 46.6794 48.1131C46.5418 48.0292 46.3867 47.9872 46.2142 47.9872C46.0439 47.9872 45.8888 48.028 45.7489 48.1096C45.6113 48.1889 45.5006 48.2985 45.4166 48.4385C45.335 48.576 45.2942 48.7311 45.2942 48.9037V48.9107C45.2942 49.0879 45.3338 49.2454 45.4131 49.383C45.4924 49.5205 45.6008 49.629 45.7384 49.7083C45.876 49.7852 46.0323 49.8237 46.2072 49.8237C46.3821 49.8237 46.5383 49.7864 46.6759 49.7118C46.8158 49.6348 46.9266 49.5287 47.0082 49.3934C47.0899 49.2582 47.1307 49.1043 47.1307 48.9317V48.9247H47.3406V49.8657H47.2181C47.1598 49.994 47.0724 50.1152 46.9558 50.2295C46.8415 50.3414 46.6981 50.4324 46.5255 50.5024C46.3529 50.57 46.15 50.6038 45.9168 50.6038C45.5903 50.6038 45.3035 50.5327 45.0563 50.3904C44.8091 50.2458 44.6167 50.0488 44.4791 49.7992C44.3415 49.5497 44.2727 49.2663 44.2727 48.9492V48.9422C44.2727 48.597 44.3543 48.2892 44.5176 48.0187C44.6832 47.7482 44.9117 47.5359 45.2032 47.382C45.4947 47.2258 45.8294 47.1476 46.2072 47.1476Z" fill="#272727"/><path d="M42.884 52.4158C42.7067 52.4158 42.5598 52.3575 42.4432 52.2409C42.3266 52.1243 42.2683 51.9797 42.2683 51.8072C42.2683 51.6346 42.3266 51.4912 42.4432 51.3769C42.5598 51.2603 42.7067 51.202 42.884 51.202C43.0659 51.202 43.214 51.2603 43.3282 51.3769C43.4425 51.4912 43.4997 51.6346 43.4997 51.8072C43.4997 51.9797 43.4425 52.1243 43.3282 52.2409C43.214 52.3575 43.0659 52.4158 42.884 52.4158Z" fill="#272727"/><path d="M39.4909 47.1476C39.7824 47.1476 40.0541 47.2013 40.3059 47.3086C40.5601 47.4135 40.7817 47.5733 40.9706 47.7878C41.1618 48 41.3099 48.2705 41.4148 48.5994C41.5221 48.9259 41.5758 49.3107 41.5758 49.7538V49.7608C41.5758 50.3251 41.4906 50.8079 41.3204 51.209C41.1525 51.6101 40.9123 51.9179 40.5998 52.1325C40.2873 52.347 39.9153 52.4543 39.4839 52.4543C39.1597 52.4543 38.867 52.396 38.6058 52.2794C38.3446 52.1605 38.1289 51.9984 37.9587 51.7932C37.7908 51.5856 37.68 51.3501 37.6264 51.0865L37.6194 51.0551H38.6548L38.6653 51.0865C38.7073 51.1892 38.7656 51.2813 38.8402 51.3629C38.9172 51.4422 39.0093 51.504 39.1166 51.5483C39.2238 51.5926 39.3451 51.6148 39.4804 51.6148C39.7252 51.6148 39.9258 51.5425 40.082 51.3979C40.2383 51.251 40.3561 51.0539 40.4354 50.8067C40.5147 50.5595 40.5601 50.2831 40.5718 49.9776C40.5741 49.9427 40.5753 49.9077 40.5753 49.8727C40.5753 49.8377 40.5753 49.8039 40.5753 49.7712L40.4144 48.9247C40.4144 48.7475 40.3736 48.5889 40.2919 48.4489C40.2103 48.3067 40.1007 48.1948 39.9631 48.1131C39.8255 48.0292 39.6704 47.9872 39.4979 47.9872C39.3276 47.9872 39.1725 48.028 39.0326 48.1096C38.895 48.1889 38.7842 48.2985 38.7003 48.4385C38.6187 48.576 38.5779 48.7311 38.5779 48.9037V48.9107C38.5779 49.0879 38.6175 49.2454 38.6968 49.383C38.7761 49.5205 38.8845 49.629 39.0221 49.7083C39.1597 49.7852 39.316 49.8237 39.4909 49.8237C39.6658 49.8237 39.822 49.7864 39.9596 49.7118C40.0995 49.6348 40.2103 49.5287 40.2919 49.3934C40.3736 49.2582 40.4144 49.1043 40.4144 48.9317V48.9247H40.6243V49.8657H40.5018C40.4435 49.994 40.3561 50.1152 40.2395 50.2295C40.1252 50.3414 39.9818 50.4324 39.8092 50.5024C39.6366 50.57 39.4337 50.6038 39.2005 50.6038C38.874 50.6038 38.5872 50.5327 38.34 50.3904C38.0928 50.2458 37.9004 50.0488 37.7628 49.7992C37.6252 49.5497 37.5564 49.2663 37.5564 48.9492V48.9422C37.5564 48.597 37.638 48.2892 37.8013 48.0187C37.9668 47.7482 38.1954 47.5359 38.4869 47.382C38.7784 47.2258 39.1131 47.1476 39.4909 47.1476Z" fill="#272727"/><path d="M35.0376 52.3284V51.4014H32.5645V50.5723C32.6927 50.3438 32.8221 50.1176 32.9527 49.8937C33.0833 49.6675 33.2151 49.4436 33.348 49.222C33.4833 48.9981 33.6174 48.7778 33.7503 48.5609C33.8856 48.3417 34.0208 48.1259 34.1561 47.9137C34.2914 47.6992 34.4266 47.4881 34.5619 47.2806H36.0451V50.5548H36.7027V51.4014H36.0451V52.3284H35.0376ZM33.5159 50.5828H35.0586V48.0816H35.0027C34.9047 48.2332 34.8044 48.3883 34.7018 48.5469C34.6015 48.7055 34.5001 48.8676 34.3975 49.0331C34.2972 49.1987 34.1957 49.3655 34.0931 49.5334C33.9929 49.6989 33.8937 49.8657 33.7958 50.0336C33.7002 50.1992 33.6069 50.3636 33.5159 50.5268V50.5828Z" fill="#272727"/><path d="M29.7834 52.2549C29.4243 52.2549 29.1025 52.2001 28.818 52.0905C28.5358 51.9786 28.3107 51.8165 28.1428 51.6043C27.9772 51.392 27.8886 51.1332 27.877 50.8277L27.8805 50.8242H28.8145V50.8277C28.8378 50.9606 28.8879 51.076 28.9649 51.174C29.0442 51.2696 29.1526 51.3431 29.2902 51.3944C29.4278 51.4457 29.5969 51.4713 29.7974 51.4713C30.0073 51.4713 30.1811 51.4492 30.3187 51.4049C30.4562 51.3582 30.5589 51.2918 30.6265 51.2055C30.6964 51.1192 30.7314 51.0177 30.7314 50.9011V50.8941C30.7314 50.7309 30.6696 50.6038 30.546 50.5128C30.4248 50.4196 30.2055 50.3379 29.8884 50.268L29.3672 50.149C29.064 50.0814 28.8075 49.9881 28.5976 49.8692C28.3877 49.7502 28.2279 49.6022 28.1183 49.4249C28.0087 49.2453 27.9539 49.0308 27.9539 48.7813V48.7743C27.9539 48.4781 28.0332 48.2239 28.1918 48.0117C28.3504 47.7995 28.5673 47.6374 28.8424 47.5254C29.1176 47.4112 29.4301 47.354 29.7799 47.354C30.1461 47.354 30.4656 47.4135 30.7384 47.5324C31.0136 47.6514 31.2293 47.8204 31.3856 48.0397C31.5442 48.2565 31.6293 48.5131 31.6409 48.8092L31.6374 48.8127L30.7104 48.8162L30.7069 48.8092C30.6906 48.6623 30.6416 48.5399 30.56 48.4419C30.4784 48.3417 30.3723 48.2659 30.2417 48.2146C30.1111 48.1633 29.9618 48.1376 29.7939 48.1376C29.605 48.1376 29.4464 48.1621 29.3182 48.2111C29.1899 48.26 29.0931 48.3265 29.0278 48.4105C28.9625 48.4944 28.9299 48.59 28.9299 48.6973V48.7043C28.9299 48.7999 28.9579 48.885 29.0138 48.9597C29.0698 49.0343 29.1561 49.0996 29.2727 49.1556C29.3893 49.2115 29.5421 49.2617 29.731 49.306L30.2522 49.4214C30.7303 49.5287 31.0917 49.6873 31.3366 49.8972C31.5838 50.1071 31.7074 50.4044 31.7074 50.7892V50.7962C31.7074 51.1064 31.6235 51.371 31.4555 51.5903C31.29 51.8071 31.0614 51.9727 30.7699 52.087C30.4807 52.1989 30.1519 52.2549 29.7834 52.2549ZM29.6015 52.8251V46.7733H30.0038V52.8251H29.6015Z" fill="#272727"/><path d="M66.491 52.3284V49.5002H66.9475V49.9199H66.9895C67.0437 49.7713 67.1355 49.6558 67.2649 49.5736C67.3944 49.4914 67.5544 49.4503 67.745 49.4503C67.7888 49.4503 67.8316 49.4529 67.8736 49.4582C67.9173 49.4617 67.9506 49.4652 67.9733 49.4687V49.9121C67.9261 49.9033 67.8797 49.8972 67.8343 49.8937C67.7905 49.8884 67.7433 49.8858 67.6926 49.8858C67.5474 49.8858 67.4188 49.9147 67.3069 49.9724C67.195 50.0301 67.1066 50.1106 67.0419 50.2138C66.979 50.317 66.9475 50.4377 66.9475 50.5758V52.3284H66.491Z" fill="#272727" fill-opacity="0.5"/><path d="M64.3029 52.3782C64.1245 52.3782 63.9636 52.3441 63.8202 52.2759C63.6785 52.2077 63.5657 52.1106 63.4817 51.9847C63.3995 51.8588 63.3584 51.7101 63.3584 51.5387V51.5334C63.3584 51.3655 63.3986 51.2221 63.4791 51.1032C63.5595 50.9825 63.6767 50.888 63.8306 50.8198C63.9846 50.7516 64.1708 50.7114 64.3895 50.6991L65.4284 50.6362V51.0009L64.4446 51.0638C64.2294 51.0761 64.072 51.1207 63.9723 51.1976C63.8744 51.2746 63.8254 51.383 63.8254 51.5229V51.5282C63.8254 51.6716 63.8796 51.7836 63.9881 51.864C64.0965 51.9427 64.2329 51.9821 64.3973 51.9821C64.553 51.9821 64.6912 51.9515 64.8119 51.8903C64.9326 51.8273 65.027 51.7425 65.0952 51.6358C65.1652 51.5291 65.2002 51.4084 65.2002 51.2737V50.3922C65.2002 50.2173 65.1468 50.0843 65.0401 49.9934C64.9352 49.9007 64.7769 49.8543 64.5653 49.8543C64.3956 49.8543 64.2565 49.8849 64.1481 49.9462C64.0397 50.0056 63.9671 50.0905 63.9303 50.2007L63.9277 50.2085H63.4712L63.4738 50.1928C63.4983 50.0441 63.5595 49.9147 63.6575 49.8045C63.7572 49.6925 63.8857 49.606 64.0432 49.5448C64.2006 49.4818 64.3799 49.4503 64.581 49.4503C64.8119 49.4503 65.0069 49.4879 65.1661 49.5631C65.327 49.6383 65.4485 49.7468 65.5307 49.8884C65.6147 50.0284 65.6567 50.1963 65.6567 50.3922V52.3284H65.2002V51.9112H65.1582C65.0987 52.0109 65.0261 52.0958 64.9404 52.1657C64.8565 52.2357 64.7612 52.289 64.6545 52.3258C64.5478 52.3607 64.4306 52.3782 64.3029 52.3782Z" fill="#272727" fill-opacity="0.5"/><path d="M61.6112 52.3782C61.3419 52.3782 61.1101 52.3188 60.916 52.1998C60.7236 52.0809 60.5749 51.913 60.47 51.6961C60.3668 51.4775 60.3152 51.2204 60.3152 50.9248V50.9221C60.3152 50.63 60.3668 50.3738 60.47 50.1534C60.5749 49.933 60.7227 49.7608 60.9134 49.6366C61.104 49.5124 61.327 49.4503 61.5824 49.4503C61.8395 49.4503 62.0599 49.5098 62.2435 49.6287C62.4289 49.7476 62.5706 49.9138 62.6686 50.1272C62.7683 50.3388 62.8181 50.5854 62.8181 50.867V51.0455H60.5513V50.6808H62.5846L62.359 51.014V50.8329C62.359 50.6108 62.3257 50.428 62.2593 50.2846C62.1928 50.1412 62.101 50.0345 61.9838 49.9645C61.8666 49.8928 61.7319 49.857 61.5798 49.857C61.4276 49.857 61.2912 49.8946 61.1705 49.9698C61.0515 50.0432 60.9571 50.1526 60.8871 50.2977C60.8172 50.4429 60.7822 50.6213 60.7822 50.8329V51.014C60.7822 51.2151 60.8163 51.3874 60.8845 51.5308C60.9527 51.6725 61.0498 51.7818 61.1757 51.8588C61.3017 51.934 61.4503 51.9716 61.6217 51.9716C61.7494 51.9716 61.8605 51.9541 61.9549 51.9191C62.0494 51.8841 62.1272 51.8395 62.1884 51.7853C62.2497 51.7311 62.2925 51.676 62.317 51.62L62.3275 51.5964H62.784L62.7787 51.6174C62.7543 51.7136 62.7105 51.8072 62.6476 51.8981C62.5863 51.9873 62.5068 52.0687 62.4088 52.1421C62.3109 52.2138 62.1946 52.2715 62.0599 52.3153C61.927 52.3573 61.7774 52.3782 61.6112 52.3782Z" fill="#272727" fill-opacity="0.5"/><path d="M57.8857 53.3201C57.856 53.3201 57.8227 53.3184 57.786 53.3149C57.7493 53.3131 57.7152 53.3096 57.6837 53.3044V52.9292C57.7117 52.9344 57.7423 52.9379 57.7755 52.9397C57.8087 52.9414 57.8411 52.9423 57.8726 52.9423C58.002 52.9423 58.1078 52.9091 58.19 52.8426C58.274 52.7762 58.3413 52.6616 58.392 52.4989L58.4445 52.331L57.3977 49.5002H57.8857L58.7567 52.1133L58.5757 51.8273H58.7908L58.6098 52.1133L59.4782 49.5002H59.9583L58.8538 52.5016C58.7768 52.7132 58.6955 52.8785 58.6098 52.9974C58.5241 53.1163 58.4235 53.1994 58.3081 53.2467C58.1944 53.2956 58.0536 53.3201 57.8857 53.3201Z" fill="#272727" fill-opacity="0.5"/><path d="M57.2165 48.3772L56.0202 53.2729H55.582L56.7784 48.3772H57.2165Z" fill="#272727" fill-opacity="0.5"/><path d="M72.52 42.4776V38.5265H72.9765V40.0744H73.0185C73.0902 39.924 73.1934 39.8077 73.3281 39.7255C73.4628 39.6415 73.6342 39.5995 73.8423 39.5995C74.054 39.5995 74.2332 39.6406 74.3802 39.7229C74.5271 39.8033 74.639 39.9214 74.716 40.077C74.7929 40.2327 74.8314 40.4225 74.8314 40.6464V42.4776H74.3749V40.7565C74.3749 40.5012 74.3207 40.3123 74.2122 40.1899C74.1055 40.0657 73.9394 40.0036 73.7138 40.0036C73.5633 40.0036 73.433 40.0359 73.3228 40.1006C73.2127 40.1654 73.1269 40.2572 73.0657 40.3761C73.0063 40.4951 72.9765 40.6376 72.9765 40.8038V42.4776H72.52Z" fill="#272727" fill-opacity="0.5"/><path d="M71.5466 42.4986C71.2563 42.4986 71.0455 42.44 70.9143 42.3228C70.7849 42.2057 70.7202 42.0124 70.7202 41.743V40.0272H70.2742V39.6494H70.7202V38.9174H71.1924V39.6494H71.8116V40.0272H71.1924V41.6276C71.1924 41.7937 71.2239 41.9136 71.2869 41.987C71.3498 42.0587 71.4548 42.0946 71.6017 42.0946C71.6419 42.0946 71.676 42.0937 71.704 42.092C71.7338 42.0902 71.7696 42.0876 71.8116 42.0841V42.4724C71.7679 42.4794 71.7241 42.4855 71.6804 42.4907C71.6367 42.496 71.5921 42.4986 71.5466 42.4986Z" fill="#272727" fill-opacity="0.5"/><path d="M67.4041 42.4776V39.6494H67.8606V40.0744H67.9025C67.9742 39.924 68.0774 39.8077 68.2121 39.7255C68.3468 39.6415 68.5182 39.5995 68.7263 39.5995C69.0447 39.5995 69.2887 39.6905 69.4583 39.8724C69.6297 40.0525 69.7154 40.3105 69.7154 40.6463V42.4776H69.2589V40.7565C69.2589 40.5012 69.2047 40.3123 69.0963 40.1898C68.9896 40.0657 68.8234 40.0036 68.5978 40.0036C68.4474 40.0036 68.3171 40.0359 68.2069 40.1006C68.0967 40.1654 68.011 40.2572 67.9498 40.3761C67.8903 40.4951 67.8606 40.6376 67.8606 40.8038V42.4776H67.4041Z" fill="#272727" fill-opacity="0.5"/><path d="M65.3918 42.5275C65.1242 42.5275 64.8925 42.4689 64.6966 42.3517C64.5024 42.2328 64.352 42.064 64.2453 41.8453C64.1404 41.6267 64.0879 41.367 64.0879 41.0661V41.0609C64.0879 40.7583 64.1404 40.4977 64.2453 40.279C64.352 40.0604 64.5024 39.8925 64.6966 39.7753C64.8925 39.6581 65.1242 39.5995 65.3918 39.5995C65.6612 39.5995 65.8929 39.6581 66.0871 39.7753C66.2812 39.8925 66.4308 40.0604 66.5357 40.279C66.6424 40.4977 66.6957 40.7583 66.6957 41.0609V41.0661C66.6957 41.367 66.6424 41.6267 66.5357 41.8453C66.4308 42.064 66.2812 42.2328 66.0871 42.3517C65.8929 42.4689 65.6612 42.5275 65.3918 42.5275ZM65.3918 42.1234C65.5702 42.1234 65.7215 42.0815 65.8457 41.9975C65.9699 41.9135 66.0643 41.7929 66.1291 41.6354C66.1955 41.478 66.2287 41.2883 66.2287 41.0661V41.0609C66.2287 40.837 66.1955 40.6463 66.1291 40.4889C66.0643 40.3315 65.9699 40.2117 65.8457 40.1295C65.7215 40.0455 65.5702 40.0036 65.3918 40.0036C65.2134 40.0036 65.0621 40.0455 64.9379 40.1295C64.8138 40.2117 64.7184 40.3315 64.652 40.4889C64.5872 40.6463 64.5549 40.837 64.5549 41.0609V41.0661C64.5549 41.2883 64.5872 41.478 64.652 41.6354C64.7184 41.7929 64.8138 41.9135 64.9379 41.9975C65.0621 42.0815 65.2134 42.1234 65.3918 42.1234Z" fill="#272727" fill-opacity="0.5"/><path d="M59.5542 42.4776V39.6494H60.0107V40.0797H60.0527C60.1156 39.9275 60.2118 39.8094 60.3413 39.7255C60.4725 39.6415 60.6308 39.5995 60.8162 39.5995C60.9438 39.5995 61.0584 39.6205 61.1598 39.6625C61.2613 39.7045 61.3487 39.7631 61.4222 39.8383C61.4957 39.9117 61.5543 39.9974 61.598 40.0954H61.64C61.6907 39.9957 61.7589 39.9091 61.8446 39.8357C61.9303 39.7604 62.0291 39.7027 62.1411 39.6625C62.2548 39.6205 62.3763 39.5995 62.5058 39.5995C62.6981 39.5995 62.8608 39.6354 62.9937 39.7071C63.1284 39.7788 63.2307 39.8838 63.3007 40.0219C63.3707 40.1584 63.4056 40.3254 63.4056 40.523V42.4776H62.9491V40.628C62.9491 40.4881 62.9273 40.3726 62.8835 40.2817C62.8416 40.189 62.7769 40.1199 62.6894 40.0744C62.6019 40.0272 62.4918 40.0036 62.3588 40.0036C62.2276 40.0036 62.1131 40.0333 62.0151 40.0928C61.9172 40.1522 61.8411 40.2318 61.7869 40.3315C61.7327 40.4295 61.7056 40.5388 61.7056 40.6595V42.4776H61.249V40.5571C61.249 40.4452 61.2246 40.3481 61.1756 40.2659C61.1284 40.182 61.0601 40.1173 60.9709 40.0718C60.8835 40.0263 60.7803 40.0036 60.6614 40.0036C60.5389 40.0036 60.4279 40.0359 60.3282 40.1006C60.2302 40.1654 60.1524 40.2528 60.0947 40.363C60.0387 40.4714 60.0107 40.5921 60.0107 40.7251V42.4776H59.5542Z" fill="#272727" fill-opacity="0.5"/><path d="M55.3669 43.4693C55.3372 43.4693 55.3039 43.4676 55.2672 43.4641C55.2305 43.4624 55.1964 43.4589 55.1649 43.4536V43.0784C55.1929 43.0837 55.2235 43.0872 55.2567 43.0889C55.2899 43.0907 55.3223 43.0915 55.3538 43.0915C55.4832 43.0915 55.589 43.0583 55.6712 42.9919C55.7552 42.9254 55.8225 42.8108 55.8733 42.6482L55.9257 42.4802L54.8789 39.6494H55.3669L56.2379 42.2625L56.0569 41.9765H56.272L56.091 42.2625L56.9594 39.6494H57.4395L56.335 42.6508C56.258 42.8624 56.1767 43.0277 56.091 43.1466C56.0053 43.2656 55.9047 43.3487 55.7893 43.3959C55.6756 43.4449 55.5348 43.4693 55.3669 43.4693Z" fill="#272727" fill-opacity="0.5"/><path d="M53.053 42.4776V39.6494H53.5095V40.0692H53.5515C53.6057 39.9205 53.6975 39.805 53.8269 39.7228C53.9564 39.6406 54.1164 39.5995 54.3071 39.5995C54.3508 39.5995 54.3936 39.6022 54.4356 39.6074C54.4793 39.6109 54.5126 39.6144 54.5353 39.6179V40.0613C54.4881 40.0525 54.4417 40.0464 54.3963 40.0429C54.3525 40.0377 54.3053 40.0351 54.2546 40.0351C54.1094 40.0351 53.9809 40.0639 53.8689 40.1216C53.757 40.1793 53.6687 40.2598 53.6039 40.363C53.541 40.4662 53.5095 40.5869 53.5095 40.7251V42.4776H53.053Z" fill="#272727" fill-opacity="0.5"/><path d="M51.1376 42.5275C50.8683 42.5275 50.6365 42.468 50.4424 42.3491C50.25 42.2301 50.1013 42.0622 49.9963 41.8453C49.8932 41.6267 49.8416 41.3696 49.8416 41.074V41.0714C49.8416 40.7793 49.8932 40.523 49.9963 40.3027C50.1013 40.0823 50.2491 39.91 50.4397 39.7858C50.6304 39.6616 50.8534 39.5995 51.1088 39.5995C51.3659 39.5995 51.5862 39.659 51.7699 39.7779C51.9553 39.8969 52.097 40.063 52.1949 40.2764C52.2946 40.4881 52.3445 40.7347 52.3445 41.0163V41.1947H50.0777V40.83H52.111L51.8853 41.1632V40.9822C51.8853 40.76 51.8521 40.5773 51.7856 40.4338C51.7192 40.2904 51.6274 40.1837 51.5102 40.1138C51.393 40.042 51.2583 40.0062 51.1061 40.0062C50.954 40.0062 50.8175 40.0438 50.6968 40.119C50.5779 40.1925 50.4835 40.3018 50.4135 40.447C50.3435 40.5921 50.3086 40.7705 50.3086 40.9822V41.1632C50.3086 41.3643 50.3427 41.5366 50.4109 41.68C50.4791 41.8217 50.5762 41.931 50.7021 42.008C50.828 42.0832 50.9767 42.1208 51.1481 42.1208C51.2758 42.1208 51.3869 42.1033 51.4813 42.0683C51.5758 42.0334 51.6536 41.9888 51.7148 41.9345C51.776 41.8803 51.8189 41.8252 51.8434 41.7693L51.8539 41.7456H52.3104L52.3051 41.7666C52.2806 41.8628 52.2369 41.9564 52.1739 42.0474C52.1127 42.1366 52.0331 42.2179 51.9352 42.2913C51.8372 42.3631 51.7209 42.4208 51.5862 42.4645C51.4533 42.5065 51.3038 42.5275 51.1376 42.5275Z" fill="#272727" fill-opacity="0.5"/><path d="M47.9763 42.4776L46.9294 39.6494H47.4122L48.1861 41.9791H48.2281L49.0021 39.6494H49.4848L48.438 42.4776H47.9763Z" fill="#272727" fill-opacity="0.5"/><path d="M45.3134 42.5275C45.044 42.5275 44.8123 42.468 44.6181 42.3491C44.4257 42.2301 44.2771 42.0622 44.1721 41.8453C44.0689 41.6267 44.0173 41.3696 44.0173 41.074V41.0714C44.0173 40.7793 44.0689 40.523 44.1721 40.3027C44.2771 40.0823 44.4249 39.91 44.6155 39.7858C44.8062 39.6616 45.0292 39.5995 45.2845 39.5995C45.5416 39.5995 45.762 39.659 45.9457 39.7779C46.1311 39.8969 46.2728 40.063 46.3707 40.2764C46.4704 40.4881 46.5202 40.7347 46.5202 41.0163V41.1947H44.2535V40.83H46.2867L46.0611 41.1632V40.9822C46.0611 40.76 46.0279 40.5773 45.9614 40.4338C45.895 40.2904 45.8031 40.1837 45.6859 40.1138C45.5688 40.042 45.4341 40.0062 45.2819 40.0062C45.1297 40.0062 44.9933 40.0438 44.8726 40.119C44.7537 40.1925 44.6592 40.3018 44.5893 40.447C44.5193 40.5921 44.4843 40.7705 44.4843 40.9822V41.1632C44.4843 41.3643 44.5184 41.5366 44.5867 41.68C44.6549 41.8217 44.7519 41.931 44.8779 42.008C45.0038 42.0832 45.1525 42.1208 45.3239 42.1208C45.4516 42.1208 45.5626 42.1033 45.6571 42.0683C45.7515 42.0334 45.8294 41.9888 45.8906 41.9345C45.9518 41.8803 45.9947 41.8252 46.0191 41.7693L46.0296 41.7456H46.4861L46.4809 41.7666C46.4564 41.8628 46.4127 41.9564 46.3497 42.0474C46.2885 42.1366 46.2089 42.2179 46.111 42.2913C46.013 42.3631 45.8967 42.4208 45.762 42.4645C45.6291 42.5065 45.4796 42.5275 45.3134 42.5275Z" fill="#272727" fill-opacity="0.5"/><path d="M40.5278 42.5668C40.2479 42.5668 40.0083 42.4864 39.8089 42.3255C39.6113 42.1645 39.4591 41.9363 39.3524 41.6407C39.2457 41.3434 39.1924 40.9918 39.1924 40.586V40.5808C39.1924 40.175 39.2457 39.8243 39.3524 39.5287C39.4591 39.2331 39.6113 39.0049 39.8089 38.8439C40.0083 38.683 40.2479 38.6026 40.5278 38.6026C40.8076 38.6026 41.0473 38.683 41.2467 38.8439C41.4461 39.0049 41.5991 39.2331 41.7058 39.5287C41.8142 39.8243 41.8685 40.175 41.8685 40.5808V40.586C41.8685 40.9918 41.8142 41.3434 41.7058 41.6407C41.5991 41.9363 41.4461 42.1645 41.2467 42.3255C41.0473 42.4864 40.8076 42.5668 40.5278 42.5668ZM40.5278 42.1549C40.7097 42.1549 40.8645 42.0911 40.9922 41.9634C41.1216 41.8357 41.2204 41.6547 41.2886 41.4203C41.3586 41.1859 41.3936 40.9078 41.3936 40.586V40.5808C41.3936 40.2589 41.3586 39.9817 41.2886 39.7491C41.2204 39.5147 41.1216 39.3346 40.9922 39.2086C40.8645 39.0809 40.7097 39.0171 40.5278 39.0171C40.3476 39.0171 40.1928 39.0809 40.0634 39.2086C39.9357 39.3346 39.8378 39.5147 39.7696 39.7491C39.7014 39.9817 39.6673 40.2589 39.6673 40.5808V40.586C39.6673 40.9078 39.7014 41.1859 39.7696 41.4203C39.8378 41.6547 39.9357 41.8357 40.0634 41.9634C40.1928 42.0911 40.3476 42.1549 40.5278 42.1549Z" fill="#272727" fill-opacity="0.5"/><path d="M37.0778 38.6026C37.251 38.6026 37.4215 38.6358 37.5895 38.7023C37.7591 38.7687 37.9122 38.8763 38.0486 39.025C38.1868 39.1736 38.2969 39.3704 38.3792 39.6153C38.4614 39.8584 38.5025 40.1584 38.5025 40.5152V40.5204C38.5025 40.9507 38.4447 41.3189 38.3293 41.625C38.2139 41.9293 38.0477 42.1628 37.8308 42.3255C37.6139 42.4864 37.3525 42.5668 37.0464 42.5668C36.8347 42.5668 36.6432 42.5284 36.4718 42.4514C36.3021 42.3727 36.1605 42.2634 36.0468 42.1234C35.9331 41.9835 35.8544 41.8209 35.8106 41.6355L35.8028 41.6013H36.2776L36.2881 41.6302C36.3266 41.7351 36.3808 41.8261 36.4508 41.9031C36.5225 41.98 36.6082 42.0395 36.7079 42.0815C36.8094 42.1234 36.9239 42.1444 37.0516 42.1444C37.2807 42.1444 37.467 42.078 37.6104 41.945C37.7539 41.8104 37.8606 41.632 37.9305 41.4098C38.0005 41.1877 38.0398 40.9454 38.0486 40.6831C38.0503 40.6586 38.0512 40.635 38.0512 40.6122C38.0512 40.5878 38.0512 40.5641 38.0512 40.5414L37.9384 39.9117C37.9384 39.7456 37.8999 39.5952 37.823 39.4605C37.7477 39.3258 37.6454 39.2191 37.516 39.1404C37.3883 39.06 37.244 39.0197 37.0831 39.0197C36.9257 39.0197 36.7823 39.0591 36.6528 39.1378C36.5234 39.2147 36.4202 39.3197 36.3432 39.4526C36.2663 39.5838 36.2278 39.7316 36.2278 39.896V39.9013C36.2278 40.0692 36.2645 40.2187 36.338 40.3499C36.4115 40.4793 36.512 40.5816 36.6397 40.6568C36.7674 40.7303 36.9126 40.767 37.0752 40.767C37.2396 40.767 37.3866 40.7303 37.516 40.6568C37.6454 40.5834 37.7477 40.4828 37.823 40.3551C37.8999 40.2257 37.9384 40.0788 37.9384 39.9144V39.9117H38.0932V40.5939H38.0014C37.9559 40.6971 37.8859 40.7933 37.7915 40.8825C37.6988 40.9717 37.5851 41.0434 37.4504 41.0976C37.3175 41.1518 37.1653 41.1789 36.9939 41.1789C36.7578 41.1789 36.5461 41.1238 36.359 41.0137C36.1718 40.9035 36.024 40.753 35.9156 40.5624C35.8072 40.37 35.7529 40.1531 35.7529 39.9117V39.9065C35.7529 39.6546 35.8098 39.4308 35.9235 39.2349C36.0389 39.0372 36.1963 38.8824 36.3957 38.7705C36.5969 38.6585 36.8242 38.6026 37.0778 38.6026Z" fill="#272727" fill-opacity="0.5"/><path d="M34.8293 42.5039C34.7366 42.5039 34.6562 42.4706 34.588 42.4042C34.5215 42.336 34.4883 42.2555 34.4883 42.1628C34.4883 42.0684 34.5215 41.9879 34.588 41.9214C34.6562 41.855 34.7366 41.8217 34.8293 41.8217C34.9238 41.8217 35.0043 41.855 35.0707 41.9214C35.1372 41.9879 35.1704 42.0684 35.1704 42.1628C35.1704 42.2555 35.1372 42.336 35.0707 42.4042C35.0043 42.4706 34.9238 42.5039 34.8293 42.5039Z" fill="#272727" fill-opacity="0.5"/><path d="M32.9088 42.4776V41.6932H31.0645V41.2629C31.1676 41.0915 31.2726 40.9183 31.3793 40.7434C31.486 40.5668 31.5935 40.391 31.702 40.2161C31.8122 40.0394 31.9224 39.8645 32.0326 39.6914C32.1428 39.5182 32.2521 39.3477 32.3605 39.1798C32.4707 39.0119 32.5791 38.8492 32.6858 38.6918H33.3706V41.2708H33.9084V41.6932H33.3706V42.4776H32.9088ZM31.5472 41.2734H32.9115V39.1299H32.88C32.7943 39.2576 32.7068 39.3905 32.6176 39.5287C32.5284 39.6651 32.4375 39.8051 32.3448 39.9485C32.2538 40.0919 32.1629 40.2362 32.0719 40.3814C31.981 40.5265 31.8909 40.6717 31.8017 40.8169C31.7142 40.9603 31.6294 41.102 31.5472 41.2419V41.2734Z" fill="#272727" fill-opacity="0.5"/><path d="M29.0811 42.4225C28.8485 42.4225 28.6325 42.3806 28.4331 42.2966C28.2337 42.2126 28.0719 42.092 27.9477 41.9345C27.8253 41.7771 27.7597 41.5882 27.751 41.3679V41.3652L28.2075 41.3626V41.3679C28.225 41.4885 28.2661 41.5979 28.3308 41.6958C28.3955 41.7937 28.4891 41.8716 28.6115 41.9293C28.7357 41.9853 28.894 42.0133 29.0864 42.0133C29.284 42.0133 29.4423 41.987 29.5613 41.9345C29.6819 41.8803 29.7694 41.8086 29.8236 41.7194C29.8778 41.6285 29.905 41.5288 29.905 41.4203V41.4151C29.905 41.2717 29.8595 41.1527 29.7685 41.0583C29.6793 40.9621 29.5044 40.8825 29.2438 40.8195L28.8529 40.7251C28.636 40.6726 28.4524 40.6044 28.3019 40.5204C28.1533 40.4347 28.0404 40.3298 27.9635 40.2056C27.8865 40.0814 27.848 39.9336 27.848 39.7622V39.757C27.848 39.5523 27.9014 39.3748 28.0081 39.2244C28.1165 39.0722 28.2635 38.955 28.4489 38.8728C28.6343 38.7889 28.845 38.7469 29.0811 38.7469C29.3068 38.7469 29.5114 38.7897 29.6951 38.8754C29.8805 38.9611 30.03 39.0818 30.1437 39.2375C30.2574 39.3914 30.3177 39.5724 30.3247 39.7806V39.7832L29.8682 39.7858V39.7806C29.856 39.6476 29.814 39.5348 29.7423 39.4421C29.6723 39.3494 29.5805 39.2786 29.4668 39.2296C29.3531 39.1806 29.2246 39.1562 29.0811 39.1562C28.9115 39.1562 28.7689 39.1841 28.6535 39.2401C28.5381 39.2943 28.4506 39.3652 28.3911 39.4526C28.3334 39.5383 28.3046 39.6293 28.3046 39.7255V39.7307C28.3046 39.8147 28.3238 39.8925 28.3623 39.9642C28.4025 40.0359 28.4672 40.0998 28.5564 40.1557C28.6456 40.2117 28.7663 40.2581 28.9185 40.2948L29.3094 40.3892C29.647 40.4697 29.9067 40.586 30.0886 40.7382C30.2705 40.8904 30.3615 41.1037 30.3615 41.3783V41.3836C30.3615 41.6092 30.302 41.7999 30.1831 41.9555C30.0641 42.1095 29.9076 42.2258 29.7134 42.3045C29.5193 42.3832 29.3085 42.4225 29.0811 42.4225ZM28.9132 42.8581V38.3114H29.2281V42.8581H28.9132Z" fill="#272727" fill-opacity="0.5"/><path d="M46.4975 29.9543C46.4392 29.9543 46.3785 29.9532 46.3155 29.9508C46.2526 29.9485 46.1908 29.9462 46.1301 29.9438V29.1743C46.1651 29.1789 46.2059 29.1813 46.2526 29.1813C46.3016 29.1836 46.3494 29.1848 46.396 29.1848C46.5779 29.1848 46.7225 29.1486 46.8298 29.0763C46.9371 29.004 47.0082 28.8932 47.0432 28.744L47.0781 28.5971L45.7244 24.7456H46.8473L47.7673 28.0688L47.5329 27.6631H47.8372L47.6134 28.0688L48.5334 24.7456H49.6108L48.299 28.5936C48.1871 28.9317 48.0506 29.1999 47.8897 29.3981C47.7311 29.5987 47.5387 29.741 47.3125 29.8249C47.0863 29.9112 46.8146 29.9543 46.4975 29.9543Z" fill="#272727"/><path d="M43.9612 28.5971V23.2729H44.9826V28.5971H43.9612Z" fill="#272727"/><path d="M40.8059 28.5971V24.7456H41.8274V25.3438H41.8903C41.9533 25.1339 42.0687 24.9718 42.2366 24.8576C42.4046 24.7409 42.6133 24.6826 42.8628 24.6826C42.9328 24.6826 43.0004 24.6873 43.0657 24.6966C43.1333 24.706 43.1928 24.7176 43.2441 24.7316V25.6236C43.1671 25.605 43.089 25.591 43.0097 25.5817C42.9328 25.57 42.8546 25.5642 42.7754 25.5642C42.5818 25.5642 42.4139 25.6003 42.2716 25.6726C42.1294 25.7426 42.0198 25.8429 41.9428 25.9735C41.8658 26.1041 41.8274 26.2603 41.8274 26.4422V28.5971H40.8059Z" fill="#272727"/><path d="M37.6296 28.6565C37.3871 28.6565 37.1702 28.6099 36.979 28.5166C36.7901 28.421 36.642 28.2869 36.5347 28.1143C36.4274 27.9394 36.3738 27.7354 36.3738 27.5022V27.4952C36.3738 27.2643 36.4309 27.0661 36.5452 26.9005C36.6618 26.7349 36.8309 26.6055 37.0524 26.5122C37.2763 26.4166 37.548 26.3594 37.8675 26.3408L39.3017 26.2533V26.876L38.0214 26.9599C37.8022 26.9716 37.6389 27.0182 37.5317 27.0999C37.4244 27.1815 37.3707 27.2923 37.3707 27.4322V27.4392C37.3707 27.5861 37.4267 27.7015 37.5387 27.7855C37.6506 27.8695 37.7952 27.9114 37.9724 27.9114C38.131 27.9114 38.2721 27.88 38.3957 27.817C38.5193 27.754 38.6172 27.6689 38.6895 27.5616C38.7618 27.452 38.798 27.3296 38.798 27.1943V25.9665C38.798 25.7986 38.742 25.6703 38.6301 25.5817C38.5205 25.4907 38.3607 25.4452 38.1508 25.4452C37.9666 25.4452 37.8162 25.4767 37.6996 25.5397C37.5853 25.6003 37.5083 25.6878 37.4687 25.8021L37.4617 25.8161H36.5172L36.5207 25.7846C36.5487 25.5584 36.6338 25.3613 36.7761 25.1934C36.9207 25.0255 37.1142 24.8949 37.3568 24.8016C37.6016 24.7083 37.885 24.6617 38.2068 24.6617C38.5473 24.6617 38.8365 24.7141 39.0743 24.8191C39.3122 24.9217 39.4929 25.0709 39.6165 25.2668C39.7425 25.4604 39.8054 25.6936 39.8054 25.9665V28.5971H38.798V28.0863H38.735C38.6697 28.2053 38.5823 28.3079 38.4727 28.3942C38.3654 28.4781 38.2395 28.5434 38.0949 28.5901C37.9526 28.6344 37.7975 28.6565 37.6296 28.6565Z" fill="#272727"/><path d="M33.9635 28.6775C33.5741 28.6775 33.2383 28.5971 32.9561 28.4362C32.6762 28.2729 32.4605 28.042 32.3089 27.7435C32.1573 27.445 32.0815 27.0894 32.0815 26.6766V26.6731C32.0815 26.265 32.1562 25.9105 32.3054 25.6097C32.457 25.3088 32.6704 25.0756 32.9456 24.91C33.2231 24.7445 33.5484 24.6617 33.9216 24.6617C34.297 24.6617 34.6212 24.7421 34.894 24.903C35.1669 25.064 35.3768 25.289 35.5237 25.5782C35.6706 25.8674 35.7441 26.2067 35.7441 26.5961V26.9145H32.5923V26.2743H35.2544L34.7751 26.8795V26.4702C34.7751 26.2393 34.739 26.0469 34.6667 25.893C34.5967 25.7391 34.4988 25.6237 34.3728 25.5467C34.2492 25.4674 34.1046 25.4278 33.9391 25.4278C33.7758 25.4278 33.6301 25.4686 33.5018 25.5502C33.3759 25.6295 33.2756 25.7473 33.2009 25.9035C33.1287 26.0574 33.0925 26.2463 33.0925 26.4702V26.883C33.0925 27.0999 33.1287 27.2853 33.2009 27.4392C33.2732 27.5931 33.3759 27.7109 33.5088 27.7925C33.6417 27.8741 33.8003 27.9149 33.9845 27.9149C34.1338 27.9149 34.2609 27.8928 34.3658 27.8485C34.4708 27.8042 34.5547 27.7529 34.6177 27.6945C34.683 27.6339 34.7273 27.5791 34.7506 27.5301L34.7611 27.5091H35.7126L35.7056 27.5441C35.6753 27.6654 35.6205 27.7925 35.5412 27.9254C35.4619 28.056 35.3523 28.1785 35.2124 28.2927C35.0748 28.407 34.9022 28.5003 34.6946 28.5726C34.4894 28.6425 34.2457 28.6775 33.9635 28.6775Z" fill="#272727"/><path d="M29.3811 28.5971V26.7116L27.625 23.5493H28.7689L29.8813 25.6726H29.9443L31.0532 23.5493H32.1971L30.4375 26.7116V28.5971H29.3811Z" fill="#272727"/><rect x="68.5671" y="18.7463" width="25.0746" height="14.3284" rx="5.37313" fill="#AB7DFF"/><path d="M84.2623 26.2393C84.0785 26.2393 83.9202 26.1938 83.7876 26.1028C83.6569 26.01 83.5555 25.8802 83.4835 25.7134C83.4115 25.5448 83.3755 25.3458 83.3755 25.1166V25.1137C83.3755 24.8807 83.4115 24.6808 83.4835 24.514C83.5555 24.3473 83.6569 24.2184 83.7876 24.1275C83.9202 24.0365 84.0785 23.991 84.2623 23.991C84.4461 23.991 84.6043 24.0365 84.7369 24.1275C84.8715 24.2184 84.9738 24.3473 85.0439 24.514C85.1159 24.6808 85.1519 24.8807 85.1519 25.1137V25.1166C85.1519 25.3458 85.1159 25.5448 85.0439 25.7134C84.9738 25.8802 84.8715 26.01 84.7369 26.1028C84.6043 26.1938 84.4461 26.2393 84.2623 26.2393ZM84.2623 25.8584C84.3968 25.8584 84.501 25.793 84.5749 25.6623C84.6507 25.5315 84.6886 25.3496 84.6886 25.1166V25.1137C84.6886 24.8788 84.6507 24.6969 84.5749 24.568C84.501 24.4373 84.3968 24.3719 84.2623 24.3719C84.1296 24.3719 84.0264 24.4373 83.9525 24.568C83.8786 24.6969 83.8416 24.8788 83.8416 25.1137V25.1166C83.8416 25.3496 83.8786 25.5315 83.9525 25.6623C84.0264 25.793 84.1296 25.8584 84.2623 25.8584ZM84.6886 28.1492H84.1571L86.9368 24.0479H87.4683L84.6886 28.1492ZM87.3575 28.2061C87.1737 28.2061 87.0154 28.1606 86.8828 28.0696C86.7502 27.9768 86.6478 27.847 86.5758 27.6803C86.5057 27.5116 86.4707 27.3117 86.4707 27.0806V27.0777C86.4707 26.8465 86.5057 26.6476 86.5758 26.4808C86.6478 26.3141 86.7502 26.1852 86.8828 26.0943C87.0154 26.0033 87.1737 25.9579 87.3575 25.9579C87.5413 25.9579 87.6995 26.0033 87.8321 26.0943C87.9647 26.1852 88.0661 26.3141 88.1362 26.4808C88.2082 26.6476 88.2442 26.8465 88.2442 27.0777V27.0806C88.2442 27.3117 88.2082 27.5116 88.1362 27.6803C88.0661 27.847 87.9647 27.9768 87.8321 28.0696C87.6995 28.1606 87.5413 28.2061 87.3575 28.2061ZM87.3575 27.8252C87.492 27.8252 87.5962 27.7598 87.6701 27.6291C87.744 27.4984 87.781 27.3155 87.781 27.0806V27.0777C87.781 26.8446 87.744 26.6637 87.6701 26.5348C87.5962 26.4041 87.492 26.3387 87.3575 26.3387C87.2229 26.3387 87.1187 26.4041 87.0448 26.5348C86.9709 26.6637 86.934 26.8446 86.934 27.0777V27.0806C86.934 27.3155 86.9709 27.4984 87.0448 27.6291C87.1187 27.7598 87.2229 27.8252 87.3575 27.8252Z" fill="white"/><path d="M81.0818 28.226C80.7767 28.226 80.5077 28.1758 80.2746 28.0753C80.0415 27.9749 79.8587 27.8357 79.7261 27.6575C79.5934 27.4775 79.5271 27.2719 79.5271 27.0408V27.0351C79.5271 26.8627 79.565 26.7044 79.6408 26.5604C79.7185 26.4164 79.8255 26.2952 79.962 26.1966C80.1003 26.0962 80.2585 26.027 80.4366 25.9891V25.9749C80.2073 25.9086 80.0226 25.7949 79.8824 25.6339C79.7441 25.4728 79.6749 25.2833 79.6749 25.0654V25.0597C79.6749 24.8494 79.7346 24.6628 79.854 24.4998C79.9752 24.3369 80.142 24.208 80.3542 24.1133C80.5664 24.0185 80.8089 23.9712 81.0818 23.9712C81.3547 23.9712 81.5962 24.0185 81.8066 24.1133C82.0188 24.208 82.1846 24.3369 82.304 24.4998C82.4252 24.6628 82.4859 24.8494 82.4859 25.0597V25.0654C82.4859 25.2833 82.4167 25.4728 82.2784 25.6339C82.1401 25.7949 81.9563 25.9086 81.727 25.9749V25.9891C81.907 26.027 82.0643 26.0962 82.1988 26.1966C82.3352 26.2952 82.4413 26.4164 82.5171 26.5604C82.5948 26.7044 82.6337 26.8627 82.6337 27.0351V27.0408C82.6337 27.2719 82.5673 27.4775 82.4347 27.6575C82.304 27.8357 82.1211 27.9749 81.8862 28.0753C81.6531 28.1758 81.385 28.226 81.0818 28.226ZM81.0818 27.7144C81.2561 27.7144 81.4106 27.6841 81.5451 27.6234C81.6796 27.5609 81.7848 27.4766 81.8606 27.3705C81.9383 27.2625 81.9771 27.1393 81.9771 27.001V26.9953C81.9771 26.8551 81.9392 26.731 81.8634 26.623C81.7876 26.5131 81.6815 26.4278 81.5451 26.3672C81.4106 26.3046 81.2561 26.2734 81.0818 26.2734C80.9056 26.2734 80.7502 26.3046 80.6157 26.3672C80.4811 26.4278 80.376 26.5131 80.3002 26.623C80.2244 26.731 80.1865 26.8551 80.1865 26.9953V27.001C80.1865 27.1393 80.2244 27.2625 80.3002 27.3705C80.3779 27.4766 80.484 27.5609 80.6185 27.6234C80.753 27.6841 80.9075 27.7144 81.0818 27.7144ZM81.0818 25.7589C81.2334 25.7589 81.367 25.7324 81.4826 25.6793C81.6 25.6244 81.691 25.5486 81.7554 25.452C81.8198 25.3553 81.852 25.2454 81.852 25.1223V25.1166C81.852 24.9915 81.8189 24.8807 81.7526 24.784C81.6881 24.6874 81.5981 24.6126 81.4826 24.5595C81.367 24.5046 81.2334 24.4771 81.0818 24.4771C80.9302 24.4771 80.7957 24.5046 80.6782 24.5595C80.5626 24.6126 80.4717 24.6874 80.4053 24.784C80.3409 24.8807 80.3087 24.9915 80.3087 25.1166V25.1223C80.3087 25.2454 80.3409 25.3553 80.4053 25.452C80.4717 25.5486 80.5626 25.6244 80.6782 25.6793C80.7938 25.7324 80.9283 25.7589 81.0818 25.7589Z" fill="white"/><path d="M77.8047 28.1492V24.7045H77.7593L76.7275 25.4406V24.8153L77.8076 24.0479H78.4442V28.1492H77.8047Z" fill="white"/><path d="M74.0217 26.7793V26.2137H75.9232V26.7793H74.0217Z" fill="white"/><path d="M98.1194 23.2239C98.1194 19.2672 101.327 16.0597 105.284 16.0597H164.836C168.792 16.0597 172 19.2672 172 23.2239V52.7761C172 56.7328 168.792 59.9403 164.836 59.9403H105.284C101.327 59.9403 98.1194 56.7328 98.1194 52.7761V23.2239Z" fill="#F9F9F9"/><path d="M105.283 16.5079H164.836C168.545 16.5082 171.552 19.5146 171.552 23.2238V52.7765C171.552 56.4856 168.545 59.4921 164.836 59.4923H105.283C101.574 59.4923 98.5678 56.4857 98.5676 52.7765V23.2238C98.5677 19.5145 101.574 16.508 105.283 16.5079Z" stroke="#272727" stroke-opacity="0.2" stroke-width="0.895522"/><path d="M122.466 47.1476C122.758 47.1476 123.03 47.2013 123.282 47.3086C123.536 47.4135 123.757 47.5733 123.946 47.7878C124.137 48 124.285 48.2705 124.39 48.5994C124.498 48.9259 124.551 49.3107 124.551 49.7538V49.7608C124.551 50.3251 124.466 50.8079 124.296 51.209C124.128 51.6101 123.888 51.9179 123.575 52.1325C123.263 52.347 122.891 52.4543 122.459 52.4543C122.135 52.4543 121.843 52.396 121.581 52.2794C121.32 52.1605 121.105 51.9984 120.934 51.7932C120.766 51.5856 120.656 51.3501 120.602 51.0865L120.595 51.0551H121.63L121.641 51.0865C121.683 51.1892 121.741 51.2813 121.816 51.3629C121.893 51.4422 121.985 51.504 122.092 51.5483C122.199 51.5926 122.321 51.6148 122.456 51.6148C122.701 51.6148 122.901 51.5425 123.058 51.3979C123.214 51.251 123.332 51.0539 123.411 50.8067C123.49 50.5595 123.536 50.2831 123.547 49.9776C123.55 49.9427 123.551 49.9077 123.551 49.8727C123.551 49.8377 123.551 49.8039 123.551 49.7712L123.39 48.9247C123.39 48.7475 123.349 48.5889 123.268 48.4489C123.186 48.3067 123.076 48.1948 122.939 48.1131C122.801 48.0292 122.646 47.9872 122.473 47.9872C122.303 47.9872 122.148 48.028 122.008 48.1096C121.871 48.1889 121.76 48.2985 121.676 48.4385C121.594 48.576 121.553 48.7311 121.553 48.9037V48.9107C121.553 49.0879 121.593 49.2454 121.672 49.383C121.752 49.5205 121.86 49.629 121.998 49.7083C122.135 49.7852 122.292 49.8237 122.466 49.8237C122.641 49.8237 122.798 49.7864 122.935 49.7118C123.075 49.6348 123.186 49.5287 123.268 49.3934C123.349 49.2582 123.39 49.1043 123.39 48.9317V48.9247H123.6V49.8657H123.477C123.419 49.994 123.332 50.1152 123.215 50.2295C123.101 50.3414 122.957 50.4324 122.785 50.5024C122.612 50.57 122.409 50.6038 122.176 50.6038C121.85 50.6038 121.563 50.5327 121.316 50.3904C121.068 50.2458 120.876 50.0488 120.738 49.7992C120.601 49.5497 120.532 49.2663 120.532 48.9492V48.9422C120.532 48.597 120.614 48.2892 120.777 48.0187C120.942 47.7482 121.171 47.5359 121.462 47.382C121.754 47.2258 122.089 47.1476 122.466 47.1476Z" fill="#272727" fill-opacity="0.7"/><path d="M117.569 47.1476C117.861 47.1476 118.132 47.2013 118.384 47.3086C118.638 47.4135 118.86 47.5733 119.049 47.7878C119.24 48 119.388 48.2705 119.493 48.5994C119.6 48.9259 119.654 49.3107 119.654 49.7538V49.7608C119.654 50.3251 119.569 50.8079 119.399 51.209C119.231 51.6101 118.991 51.9179 118.678 52.1325C118.366 52.347 117.994 52.4543 117.562 52.4543C117.238 52.4543 116.945 52.396 116.684 52.2794C116.423 52.1605 116.207 51.9984 116.037 51.7932C115.869 51.5856 115.758 51.3501 115.705 51.0865L115.698 51.0551H116.733L116.744 51.0865C116.786 51.1892 116.844 51.2813 116.919 51.3629C116.996 51.4422 117.088 51.504 117.195 51.5483C117.302 51.5926 117.423 51.6148 117.559 51.6148C117.804 51.6148 118.004 51.5425 118.16 51.3979C118.317 51.251 118.434 51.0539 118.514 50.8067C118.593 50.5595 118.638 50.2831 118.65 49.9776C118.652 49.9427 118.654 49.9077 118.654 49.8727C118.654 49.8377 118.654 49.8039 118.654 49.7712L118.493 48.9247C118.493 48.7475 118.452 48.5889 118.37 48.4489C118.289 48.3067 118.179 48.1948 118.041 48.1131C117.904 48.0292 117.749 47.9872 117.576 47.9872C117.406 47.9872 117.251 48.028 117.111 48.1096C116.973 48.1889 116.863 48.2985 116.779 48.4385C116.697 48.576 116.656 48.7311 116.656 48.9037V48.9107C116.656 49.0879 116.696 49.2454 116.775 49.383C116.854 49.5205 116.963 49.629 117.1 49.7083C117.238 49.7852 117.394 49.8237 117.569 49.8237C117.744 49.8237 117.9 49.7864 118.038 49.7118C118.178 49.6348 118.289 49.5287 118.37 49.3934C118.452 49.2582 118.493 49.1043 118.493 48.9317V48.9247H118.703V49.8657H118.58C118.522 49.994 118.434 50.1152 118.318 50.2295C118.204 50.3414 118.06 50.4324 117.888 50.5024C117.715 50.57 117.512 50.6038 117.279 50.6038C116.952 50.6038 116.666 50.5327 116.418 50.3904C116.171 50.2458 115.979 50.0488 115.841 49.7992C115.704 49.5497 115.635 49.2663 115.635 48.9492V48.9422C115.635 48.597 115.716 48.2892 115.88 48.0187C116.045 47.7482 116.274 47.5359 116.565 47.382C116.857 47.2258 117.191 47.1476 117.569 47.1476Z" fill="#272727" fill-opacity="0.7"/><path d="M114.246 52.4158C114.069 52.4158 113.922 52.3575 113.805 52.2409C113.689 52.1243 113.63 51.9797 113.63 51.8072C113.63 51.6346 113.689 51.4912 113.805 51.3769C113.922 51.2603 114.069 51.202 114.246 51.202C114.428 51.202 114.576 51.2603 114.69 51.3769C114.805 51.4912 114.862 51.6346 114.862 51.8072C114.862 51.9797 114.805 52.1243 114.69 52.2409C114.576 52.3575 114.428 52.4158 114.246 52.4158Z" fill="#272727" fill-opacity="0.7"/><path d="M110.793 52.4403C110.388 52.4403 110.031 52.3785 109.723 52.2549C109.415 52.129 109.175 51.9552 109.002 51.7337C108.83 51.5098 108.743 51.2521 108.743 50.9606V50.9536C108.743 50.7344 108.794 50.5362 108.894 50.3589C108.996 50.1817 109.136 50.0348 109.314 49.9182C109.491 49.7992 109.694 49.7176 109.922 49.6733V49.6523C109.626 49.58 109.386 49.4447 109.202 49.2465C109.02 49.046 108.929 48.8081 108.929 48.5329V48.5259C108.929 48.2647 109.008 48.0327 109.167 47.8298C109.325 47.6245 109.544 47.4636 109.824 47.347C110.104 47.2281 110.427 47.1686 110.793 47.1686C111.159 47.1686 111.482 47.2281 111.762 47.347C112.042 47.4636 112.261 47.6245 112.42 47.8298C112.579 48.0327 112.658 48.2647 112.658 48.5259V48.5329C112.658 48.8081 112.566 49.046 112.381 49.2465C112.197 49.4447 111.958 49.58 111.664 49.6523V49.6733C111.893 49.7176 112.096 49.7992 112.273 49.9182C112.45 50.0348 112.589 50.1817 112.689 50.3589C112.792 50.5362 112.843 50.7344 112.843 50.9536V50.9606C112.843 51.2521 112.757 51.5098 112.584 51.7337C112.412 51.9552 112.17 52.129 111.86 52.2549C111.552 52.3785 111.197 52.4403 110.793 52.4403ZM110.793 51.6707C110.978 51.6707 111.141 51.6381 111.283 51.5728C111.425 51.5051 111.536 51.413 111.615 51.2964C111.697 51.1775 111.738 51.0422 111.738 50.8906V50.8836C111.738 50.7321 111.698 50.598 111.619 50.4814C111.54 50.3624 111.429 50.2691 111.287 50.2015C111.144 50.1339 110.98 50.1001 110.793 50.1001C110.607 50.1001 110.442 50.1339 110.3 50.2015C110.158 50.2691 110.046 50.3624 109.964 50.4814C109.885 50.598 109.845 50.7321 109.845 50.8836V50.8906C109.845 51.0422 109.886 51.1775 109.968 51.2964C110.049 51.413 110.161 51.5051 110.304 51.5728C110.446 51.6381 110.609 51.6707 110.793 51.6707ZM110.793 49.334C110.954 49.334 111.096 49.3048 111.22 49.2465C111.344 49.1859 111.439 49.1031 111.507 48.9981C111.577 48.8932 111.612 48.7719 111.612 48.6343V48.6273C111.612 48.4898 111.577 48.3685 111.507 48.2635C111.437 48.1586 111.34 48.077 111.217 48.0187C111.095 47.9604 110.954 47.9312 110.793 47.9312C110.632 47.9312 110.49 47.9604 110.367 48.0187C110.243 48.077 110.146 48.1586 110.076 48.2635C110.006 48.3685 109.971 48.4898 109.971 48.6273V48.6343C109.971 48.7719 110.006 48.8932 110.076 48.9981C110.146 49.1031 110.243 49.1859 110.367 49.2465C110.49 49.3048 110.632 49.334 110.793 49.334Z" fill="#272727" fill-opacity="0.7"/><path d="M105.903 52.2549C105.544 52.2549 105.222 52.2001 104.937 52.0905C104.655 51.9786 104.43 51.8165 104.262 51.6043C104.097 51.392 104.008 51.1332 103.996 50.8277L104 50.8242H104.934V50.8277C104.957 50.9606 105.007 51.076 105.084 51.174C105.164 51.2696 105.272 51.3431 105.41 51.3944C105.547 51.4457 105.716 51.4713 105.917 51.4713C106.127 51.4713 106.3 51.4492 106.438 51.4049C106.576 51.3582 106.678 51.2918 106.746 51.2055C106.816 51.1192 106.851 51.0177 106.851 50.9011V50.8941C106.851 50.7309 106.789 50.6038 106.665 50.5128C106.544 50.4196 106.325 50.3379 106.008 50.268L105.487 50.149C105.183 50.0814 104.927 49.9881 104.717 49.8692C104.507 49.7502 104.347 49.6022 104.238 49.4249C104.128 49.2453 104.073 49.0308 104.073 48.7813V48.7743C104.073 48.4781 104.153 48.2239 104.311 48.0117C104.47 47.7995 104.687 47.6374 104.962 47.5254C105.237 47.4112 105.55 47.354 105.899 47.354C106.265 47.354 106.585 47.4135 106.858 47.5324C107.133 47.6514 107.349 47.8204 107.505 48.0397C107.664 48.2565 107.749 48.5131 107.76 48.8092L107.757 48.8127L106.83 48.8162L106.826 48.8092C106.81 48.6623 106.761 48.5399 106.679 48.4419C106.598 48.3417 106.492 48.2659 106.361 48.2146C106.23 48.1633 106.081 48.1376 105.913 48.1376C105.724 48.1376 105.566 48.1621 105.438 48.2111C105.309 48.26 105.213 48.3265 105.147 48.4105C105.082 48.4944 105.049 48.59 105.049 48.6973V48.7043C105.049 48.7999 105.077 48.885 105.133 48.9597C105.189 49.0343 105.275 49.0996 105.392 49.1556C105.509 49.2115 105.661 49.2617 105.85 49.306L106.372 49.4214C106.85 49.5287 107.211 49.6873 107.456 49.8972C107.703 50.1071 107.827 50.4044 107.827 50.7892V50.7962C107.827 51.1064 107.743 51.371 107.575 51.5903C107.409 51.8071 107.181 51.9727 106.889 52.087C106.6 52.1989 106.271 52.2549 105.903 52.2549ZM105.721 52.8251V46.7733H106.123V52.8251H105.721Z" fill="#272727" fill-opacity="0.7"/><path d="M134.676 52.3782C134.408 52.3782 134.176 52.3196 133.981 52.2025C133.786 52.0835 133.636 51.9147 133.529 51.6961C133.424 51.4775 133.372 51.2177 133.372 50.9169V50.9116C133.372 50.6091 133.424 50.3484 133.529 50.1298C133.636 49.9112 133.786 49.7433 133.981 49.6261C134.176 49.5089 134.408 49.4503 134.676 49.4503C134.945 49.4503 135.177 49.5089 135.371 49.6261C135.565 49.7433 135.715 49.9112 135.82 50.1298C135.926 50.3484 135.98 50.6091 135.98 50.9116V50.9169C135.98 51.2177 135.926 51.4775 135.82 51.6961C135.715 51.9147 135.565 52.0835 135.371 52.2025C135.177 52.3196 134.945 52.3782 134.676 52.3782ZM134.676 51.9742C134.854 51.9742 135.005 51.9322 135.13 51.8483C135.254 51.7643 135.348 51.6436 135.413 51.4862C135.479 51.3288 135.513 51.139 135.513 50.9169V50.9116C135.513 50.6878 135.479 50.4971 135.413 50.3397C135.348 50.1823 135.254 50.0625 135.13 49.9803C135.005 49.8963 134.854 49.8543 134.676 49.8543C134.497 49.8543 134.346 49.8963 134.222 49.9803C134.098 50.0625 134.002 50.1823 133.936 50.3397C133.871 50.4971 133.839 50.6878 133.839 50.9116V50.9169C133.839 51.139 133.871 51.3288 133.936 51.4862C134.002 51.6436 134.098 51.7643 134.222 51.8483C134.346 51.9322 134.497 51.9742 134.676 51.9742Z" fill="#272727" fill-opacity="0.5"/><path d="M128.838 52.3284V49.5002H129.295V49.9304H129.337C129.4 49.7783 129.496 49.6602 129.625 49.5762C129.757 49.4923 129.915 49.4503 130.1 49.4503C130.228 49.4503 130.343 49.4713 130.444 49.5133C130.545 49.5552 130.633 49.6138 130.706 49.689C130.78 49.7625 130.838 49.8482 130.882 49.9462H130.924C130.975 49.8465 131.043 49.7599 131.129 49.6864C131.214 49.6112 131.313 49.5535 131.425 49.5133C131.539 49.4713 131.66 49.4503 131.79 49.4503C131.982 49.4503 132.145 49.4862 132.278 49.5579C132.413 49.6296 132.515 49.7345 132.585 49.8727C132.655 50.0091 132.69 50.1762 132.69 50.3738V52.3284H132.233V50.4788C132.233 50.3388 132.211 50.2234 132.168 50.1324C132.126 50.0397 132.061 49.9706 131.974 49.9252C131.886 49.8779 131.776 49.8543 131.643 49.8543C131.512 49.8543 131.397 49.8841 131.299 49.9435C131.201 50.003 131.125 50.0826 131.071 50.1823C131.017 50.2802 130.99 50.3896 130.99 50.5102V52.3284H130.533V50.4079C130.533 50.296 130.509 50.1989 130.46 50.1167C130.413 50.0327 130.344 49.968 130.255 49.9226C130.168 49.8771 130.064 49.8543 129.946 49.8543C129.823 49.8543 129.712 49.8867 129.612 49.9514C129.514 50.0161 129.437 50.1036 129.379 50.2138C129.323 50.3222 129.295 50.4429 129.295 50.5758V52.3284H128.838Z" fill="#272727" fill-opacity="0.5"/><path d="M128.411 48.3772L127.214 53.2729H126.776L127.972 48.3772H128.411Z" fill="#272727" fill-opacity="0.5"/><path d="M148.65 42.4776V38.5265H149.106V40.0744H149.148C149.22 39.924 149.323 39.8077 149.458 39.7255C149.593 39.6415 149.764 39.5995 149.972 39.5995C150.184 39.5995 150.363 39.6406 150.51 39.7229C150.657 39.8033 150.769 39.9214 150.846 40.077C150.923 40.2327 150.961 40.4225 150.961 40.6464V42.4776H150.505V40.7565C150.505 40.5012 150.451 40.3123 150.342 40.1899C150.235 40.0657 150.069 40.0036 149.844 40.0036C149.693 40.0036 149.563 40.0359 149.453 40.1006C149.343 40.1654 149.257 40.2572 149.196 40.3761C149.136 40.4951 149.106 40.6376 149.106 40.8038V42.4776H148.65Z" fill="#272727" fill-opacity="0.5"/><path d="M147.676 42.4986C147.386 42.4986 147.175 42.44 147.044 42.3228C146.915 42.2057 146.85 42.0124 146.85 41.743V40.0272H146.404V39.6494H146.85V38.9174H147.322V39.6494H147.941V40.0272H147.322V41.6276C147.322 41.7937 147.354 41.9136 147.417 41.987C147.48 42.0587 147.585 42.0946 147.732 42.0946C147.772 42.0946 147.806 42.0937 147.834 42.092C147.864 42.0902 147.9 42.0876 147.941 42.0841V42.4724C147.898 42.4794 147.854 42.4855 147.81 42.4907C147.767 42.496 147.722 42.4986 147.676 42.4986Z" fill="#272727" fill-opacity="0.5"/><path d="M143.534 42.4776V39.6494H143.99V40.0744H144.032C144.104 39.924 144.207 39.8077 144.342 39.7255C144.477 39.6415 144.648 39.5995 144.856 39.5995C145.175 39.5995 145.419 39.6905 145.588 39.8724C145.76 40.0525 145.845 40.3105 145.845 40.6463V42.4776H145.389V40.7565C145.389 40.5012 145.335 40.3123 145.226 40.1898C145.119 40.0657 144.953 40.0036 144.728 40.0036C144.577 40.0036 144.447 40.0359 144.337 40.1006C144.227 40.1654 144.141 40.2572 144.08 40.3761C144.02 40.4951 143.99 40.6376 143.99 40.8038V42.4776H143.534Z" fill="#272727" fill-opacity="0.5"/><path d="M141.522 42.5275C141.254 42.5275 141.022 42.4689 140.826 42.3517C140.632 42.2328 140.482 42.064 140.375 41.8453C140.27 41.6267 140.218 41.367 140.218 41.0661V41.0609C140.218 40.7583 140.27 40.4977 140.375 40.279C140.482 40.0604 140.632 39.8925 140.826 39.7753C141.022 39.6581 141.254 39.5995 141.522 39.5995C141.791 39.5995 142.023 39.6581 142.217 39.7753C142.411 39.8925 142.561 40.0604 142.666 40.279C142.772 40.4977 142.826 40.7583 142.826 41.0609V41.0661C142.826 41.367 142.772 41.6267 142.666 41.8453C142.561 42.064 142.411 42.2328 142.217 42.3517C142.023 42.4689 141.791 42.5275 141.522 42.5275ZM141.522 42.1234C141.7 42.1234 141.851 42.0815 141.976 41.9975C142.1 41.9135 142.194 41.7929 142.259 41.6354C142.325 41.478 142.359 41.2883 142.359 41.0661V41.0609C142.359 40.837 142.325 40.6463 142.259 40.4889C142.194 40.3315 142.1 40.2117 141.976 40.1295C141.851 40.0455 141.7 40.0036 141.522 40.0036C141.343 40.0036 141.192 40.0455 141.068 40.1295C140.944 40.2117 140.848 40.3315 140.782 40.4889C140.717 40.6463 140.685 40.837 140.685 41.0609V41.0661C140.685 41.2883 140.717 41.478 140.782 41.6354C140.848 41.7929 140.944 41.9135 141.068 41.9975C141.192 42.0815 141.343 42.1234 141.522 42.1234Z" fill="#272727" fill-opacity="0.5"/><path d="M135.684 42.4776V39.6494H136.141V40.0797H136.183C136.246 39.9275 136.342 39.8094 136.471 39.7255C136.602 39.6415 136.761 39.5995 136.946 39.5995C137.074 39.5995 137.188 39.6205 137.29 39.6625C137.391 39.7045 137.479 39.7631 137.552 39.8383C137.626 39.9117 137.684 39.9974 137.728 40.0954H137.77C137.821 39.9957 137.889 39.9091 137.974 39.8357C138.06 39.7604 138.159 39.7027 138.271 39.6625C138.385 39.6205 138.506 39.5995 138.636 39.5995C138.828 39.5995 138.991 39.6354 139.124 39.7071C139.258 39.7788 139.361 39.8838 139.431 40.0219C139.501 40.1584 139.536 40.3254 139.536 40.523V42.4776H139.079V40.628C139.079 40.4881 139.057 40.3726 139.013 40.2817C138.971 40.189 138.907 40.1199 138.819 40.0744C138.732 40.0272 138.622 40.0036 138.489 40.0036C138.358 40.0036 138.243 40.0333 138.145 40.0928C138.047 40.1522 137.971 40.2318 137.917 40.3315C137.863 40.4295 137.835 40.5388 137.835 40.6595V42.4776H137.379V40.5571C137.379 40.4452 137.354 40.3481 137.305 40.2659C137.258 40.182 137.19 40.1173 137.101 40.0718C137.013 40.0263 136.91 40.0036 136.791 40.0036C136.669 40.0036 136.558 40.0359 136.458 40.1006C136.36 40.1654 136.282 40.2528 136.225 40.363C136.169 40.4714 136.141 40.5921 136.141 40.7251V42.4776H135.684Z" fill="#272727" fill-opacity="0.5"/><path d="M131.497 43.4693C131.467 43.4693 131.434 43.4676 131.397 43.4641C131.36 43.4624 131.326 43.4589 131.295 43.4536V43.0784C131.323 43.0837 131.353 43.0872 131.387 43.0889C131.42 43.0907 131.452 43.0915 131.484 43.0915C131.613 43.0915 131.719 43.0583 131.801 42.9919C131.885 42.9254 131.952 42.8108 132.003 42.6482L132.056 42.4802L131.009 39.6494H131.497L132.368 42.2625L132.187 41.9765H132.402L132.221 42.2625L133.089 39.6494H133.569L132.465 42.6508C132.388 42.8624 132.307 43.0277 132.221 43.1466C132.135 43.2656 132.035 43.3487 131.919 43.3959C131.805 43.4449 131.665 43.4693 131.497 43.4693Z" fill="#272727" fill-opacity="0.5"/><path d="M129.183 42.4776V39.6494H129.639V40.0692H129.681C129.736 39.9205 129.827 39.805 129.957 39.7228C130.086 39.6406 130.246 39.5995 130.437 39.5995C130.481 39.5995 130.524 39.6022 130.565 39.6074C130.609 39.6109 130.642 39.6144 130.665 39.6179V40.0613C130.618 40.0525 130.572 40.0464 130.526 40.0429C130.482 40.0377 130.435 40.0351 130.384 40.0351C130.239 40.0351 130.111 40.0639 129.999 40.1216C129.887 40.1793 129.799 40.2598 129.734 40.363C129.671 40.4662 129.639 40.5869 129.639 40.7251V42.4776H129.183Z" fill="#272727" fill-opacity="0.5"/><path d="M127.267 42.5275C126.998 42.5275 126.766 42.468 126.572 42.3491C126.38 42.2301 126.231 42.0622 126.126 41.8453C126.023 41.6267 125.971 41.3696 125.971 41.074V41.0714C125.971 40.7793 126.023 40.523 126.126 40.3027C126.231 40.0823 126.379 39.91 126.57 39.7858C126.76 39.6616 126.983 39.5995 127.239 39.5995C127.496 39.5995 127.716 39.659 127.9 39.7779C128.085 39.8969 128.227 40.063 128.325 40.2764C128.425 40.4881 128.474 40.7347 128.474 41.0163V41.1947H126.208V40.83H128.241L128.015 41.1632V40.9822C128.015 40.76 127.982 40.5773 127.916 40.4338C127.849 40.2904 127.757 40.1837 127.64 40.1138C127.523 40.042 127.388 40.0062 127.236 40.0062C127.084 40.0062 126.947 40.0438 126.827 40.119C126.708 40.1925 126.613 40.3018 126.543 40.447C126.473 40.5921 126.438 40.7705 126.438 40.9822V41.1632C126.438 41.3643 126.473 41.5366 126.541 41.68C126.609 41.8217 126.706 41.931 126.832 42.008C126.958 42.0832 127.107 42.1208 127.278 42.1208C127.406 42.1208 127.517 42.1033 127.611 42.0683C127.706 42.0334 127.783 41.9888 127.845 41.9345C127.906 41.8803 127.949 41.8252 127.973 41.7693L127.984 41.7456H128.44L128.435 41.7666C128.411 41.8628 128.367 41.9564 128.304 42.0474C128.243 42.1366 128.163 42.2179 128.065 42.2913C127.967 42.3631 127.851 42.4208 127.716 42.4645C127.583 42.5065 127.434 42.5275 127.267 42.5275Z" fill="#272727" fill-opacity="0.5"/><path d="M124.106 42.4776L123.059 39.6494H123.542L124.316 41.9791H124.358L125.132 39.6494H125.615L124.568 42.4776H124.106Z" fill="#272727" fill-opacity="0.5"/><path d="M121.443 42.5275C121.174 42.5275 120.942 42.468 120.748 42.3491C120.556 42.2301 120.407 42.0622 120.302 41.8453C120.199 41.6267 120.147 41.3696 120.147 41.074V41.0714C120.147 40.7793 120.199 40.523 120.302 40.3027C120.407 40.0823 120.555 39.91 120.745 39.7858C120.936 39.6616 121.159 39.5995 121.414 39.5995C121.672 39.5995 121.892 39.659 122.076 39.7779C122.261 39.8969 122.403 40.063 122.501 40.2764C122.6 40.4881 122.65 40.7347 122.65 41.0163V41.1947H120.383V40.83H122.417L122.191 41.1632V40.9822C122.191 40.76 122.158 40.5773 122.091 40.4338C122.025 40.2904 121.933 40.1837 121.816 40.1138C121.699 40.042 121.564 40.0062 121.412 40.0062C121.26 40.0062 121.123 40.0438 121.003 40.119C120.884 40.1925 120.789 40.3018 120.719 40.447C120.649 40.5921 120.614 40.7705 120.614 40.9822V41.1632C120.614 41.3643 120.648 41.5366 120.717 41.68C120.785 41.8217 120.882 41.931 121.008 42.008C121.134 42.0832 121.282 42.1208 121.454 42.1208C121.581 42.1208 121.693 42.1033 121.787 42.0683C121.881 42.0334 121.959 41.9888 122.02 41.9345C122.082 41.8803 122.125 41.8252 122.149 41.7693L122.16 41.7456H122.616L122.611 41.7666C122.586 41.8628 122.543 41.9564 122.48 42.0474C122.418 42.1366 122.339 42.2179 122.241 42.2913C122.143 42.3631 122.027 42.4208 121.892 42.4645C121.759 42.5065 121.609 42.5275 121.443 42.5275Z" fill="#272727" fill-opacity="0.5"/><path d="M116.592 38.6026C116.765 38.6026 116.936 38.6358 117.104 38.7023C117.274 38.7687 117.427 38.8763 117.563 39.025C117.701 39.1736 117.811 39.3704 117.894 39.6153C117.976 39.8584 118.017 40.1584 118.017 40.5152V40.5204C118.017 40.9507 117.959 41.3189 117.844 41.625C117.728 41.9293 117.562 42.1628 117.345 42.3255C117.128 42.4864 116.867 42.5668 116.561 42.5668C116.349 42.5668 116.158 42.5284 115.986 42.4514C115.817 42.3727 115.675 42.2634 115.561 42.1234C115.447 41.9835 115.369 41.8209 115.325 41.6355L115.317 41.6013H115.792L115.803 41.6302C115.841 41.7351 115.895 41.8261 115.965 41.9031C116.037 41.98 116.123 42.0395 116.222 42.0815C116.324 42.1234 116.438 42.1444 116.566 42.1444C116.795 42.1444 116.981 42.078 117.125 41.945C117.268 41.8104 117.375 41.632 117.445 41.4098C117.515 41.1877 117.554 40.9454 117.563 40.6831C117.565 40.6586 117.566 40.635 117.566 40.6122C117.566 40.5878 117.566 40.5641 117.566 40.5414L117.453 39.9117C117.453 39.7456 117.414 39.5952 117.337 39.4605C117.262 39.3258 117.16 39.2191 117.03 39.1404C116.903 39.06 116.758 39.0197 116.597 39.0197C116.44 39.0197 116.297 39.0591 116.167 39.1378C116.038 39.2147 115.935 39.3197 115.858 39.4526C115.781 39.5838 115.742 39.7316 115.742 39.896V39.9013C115.742 40.0692 115.779 40.2187 115.852 40.3499C115.926 40.4793 116.026 40.5816 116.154 40.6568C116.282 40.7303 116.427 40.767 116.59 40.767C116.754 40.767 116.901 40.7303 117.03 40.6568C117.16 40.5834 117.262 40.4828 117.337 40.3551C117.414 40.2257 117.453 40.0788 117.453 39.9144V39.9117H117.608V40.5939H117.516C117.47 40.6971 117.4 40.7933 117.306 40.8825C117.213 40.9717 117.099 41.0434 116.965 41.0976C116.832 41.1518 116.68 41.1789 116.508 41.1789C116.272 41.1789 116.061 41.1238 115.873 41.0137C115.686 40.9035 115.538 40.753 115.43 40.5624C115.322 40.37 115.267 40.1531 115.267 39.9117V39.9065C115.267 39.6546 115.324 39.4308 115.438 39.2349C115.553 39.0372 115.711 38.8824 115.91 38.7705C116.111 38.6585 116.339 38.6026 116.592 38.6026Z" fill="#272727" fill-opacity="0.5"/><path d="M113.171 38.6026C113.344 38.6026 113.515 38.6358 113.683 38.7023C113.852 38.7687 114.005 38.8763 114.142 39.025C114.28 39.1736 114.39 39.3704 114.472 39.6153C114.555 39.8584 114.596 40.1584 114.596 40.5152V40.5204C114.596 40.9507 114.538 41.3189 114.423 41.625C114.307 41.9293 114.141 42.1628 113.924 42.3255C113.707 42.4864 113.446 42.5668 113.14 42.5668C112.928 42.5668 112.736 42.5284 112.565 42.4514C112.395 42.3727 112.254 42.2634 112.14 42.1234C112.026 41.9835 111.948 41.8209 111.904 41.6355L111.896 41.6013H112.371L112.381 41.6302C112.42 41.7351 112.474 41.8261 112.544 41.9031C112.616 41.98 112.701 42.0395 112.801 42.0815C112.903 42.1234 113.017 42.1444 113.145 42.1444C113.374 42.1444 113.56 42.078 113.704 41.945C113.847 41.8104 113.954 41.632 114.024 41.4098C114.094 41.1877 114.133 40.9454 114.142 40.6831C114.144 40.6586 114.144 40.635 114.144 40.6122C114.144 40.5878 114.144 40.5641 114.144 40.5414L114.032 39.9117C114.032 39.7456 113.993 39.5952 113.916 39.4605C113.841 39.3258 113.739 39.2191 113.609 39.1404C113.482 39.06 113.337 39.0197 113.176 39.0197C113.019 39.0197 112.876 39.0591 112.746 39.1378C112.617 39.2147 112.513 39.3197 112.437 39.4526C112.36 39.5838 112.321 39.7316 112.321 39.896V39.9013C112.321 40.0692 112.358 40.2187 112.431 40.3499C112.505 40.4793 112.605 40.5816 112.733 40.6568C112.861 40.7303 113.006 40.767 113.168 40.767C113.333 40.767 113.48 40.7303 113.609 40.6568C113.739 40.5834 113.841 40.4828 113.916 40.3551C113.993 40.2257 114.032 40.0788 114.032 39.9144V39.9117H114.186V40.5939H114.095C114.049 40.6971 113.979 40.7933 113.885 40.8825C113.792 40.9717 113.678 41.0434 113.544 41.0976C113.411 41.1518 113.259 41.1789 113.087 41.1789C112.851 41.1789 112.639 41.1238 112.452 41.0137C112.265 40.9035 112.117 40.753 112.009 40.5624C111.9 40.37 111.846 40.1531 111.846 39.9117V39.9065C111.846 39.6546 111.903 39.4308 112.017 39.2349C112.132 39.0372 112.29 38.8824 112.489 38.7705C112.69 38.6585 112.917 38.6026 113.171 38.6026Z" fill="#272727" fill-opacity="0.5"/><path d="M110.923 42.5039C110.83 42.5039 110.749 42.4706 110.681 42.4042C110.615 42.336 110.582 42.2555 110.582 42.1628C110.582 42.0684 110.615 41.9879 110.681 41.9214C110.749 41.855 110.83 41.8217 110.923 41.8217C111.017 41.8217 111.098 41.855 111.164 41.9214C111.23 41.9879 111.264 42.0684 111.264 42.1628C111.264 42.2555 111.23 42.336 111.164 42.4042C111.098 42.4706 111.017 42.5039 110.923 42.5039Z" fill="#272727" fill-opacity="0.5"/><path d="M108.593 42.5406C108.325 42.5406 108.088 42.4942 107.882 42.4015C107.675 42.3088 107.513 42.1812 107.394 42.0185C107.277 41.8541 107.218 41.6661 107.218 41.4544V41.4492C107.218 41.2935 107.252 41.1492 107.32 41.0163C107.389 40.8833 107.484 40.7705 107.606 40.6778C107.729 40.5834 107.87 40.5178 108.031 40.4811V40.4706C107.825 40.4059 107.661 40.2992 107.538 40.1505C107.416 40.0018 107.354 39.8278 107.354 39.6284V39.6231C107.354 39.4325 107.408 39.2628 107.514 39.1142C107.621 38.9637 107.768 38.8457 107.955 38.76C108.142 38.6725 108.355 38.6288 108.593 38.6288C108.832 38.6288 109.045 38.6725 109.23 38.76C109.417 38.8457 109.564 38.9637 109.671 39.1142C109.778 39.2628 109.831 39.4325 109.831 39.6231V39.6284C109.831 39.8278 109.77 40.0018 109.647 40.1505C109.527 40.2992 109.362 40.4059 109.154 40.4706V40.4811C109.317 40.5178 109.459 40.5834 109.579 40.6778C109.702 40.7705 109.797 40.8833 109.865 41.0163C109.933 41.1492 109.968 41.2935 109.968 41.4492V41.4544C109.968 41.6661 109.909 41.8541 109.792 42.0185C109.675 42.1812 109.512 42.3088 109.304 42.4015C109.097 42.4942 108.86 42.5406 108.593 42.5406ZM108.593 42.1287C108.768 42.1287 108.922 42.0989 109.055 42.0395C109.189 41.9783 109.295 41.8952 109.372 41.7902C109.449 41.6835 109.487 41.562 109.487 41.4256V41.4203C109.487 41.2821 109.449 41.1597 109.372 41.053C109.297 40.9463 109.192 40.8624 109.057 40.8011C108.922 40.7399 108.768 40.7093 108.593 40.7093C108.418 40.7093 108.263 40.7399 108.128 40.8011C107.994 40.8624 107.888 40.9463 107.811 41.053C107.736 41.1597 107.698 41.2821 107.698 41.4203V41.4256C107.698 41.562 107.737 41.6835 107.814 41.7902C107.891 41.8952 107.996 41.9783 108.131 42.0395C108.266 42.0989 108.42 42.1287 108.593 42.1287ZM108.593 40.2948C108.745 40.2948 108.879 40.2685 108.994 40.2161C109.11 40.1619 109.2 40.0875 109.264 39.9931C109.329 39.8986 109.361 39.7902 109.361 39.6677V39.6625C109.361 39.5401 109.329 39.4316 109.264 39.3372C109.2 39.2427 109.11 39.1693 108.994 39.1168C108.879 39.0626 108.745 39.0355 108.593 39.0355C108.441 39.0355 108.307 39.0626 108.191 39.1168C108.076 39.1693 107.986 39.2427 107.921 39.3372C107.856 39.4316 107.824 39.5401 107.824 39.6625V39.6677C107.824 39.7902 107.856 39.8986 107.921 39.9931C107.986 40.0875 108.076 40.1619 108.191 40.2161C108.307 40.2685 108.441 40.2948 108.593 40.2948Z" fill="#272727" fill-opacity="0.5"/><path d="M105.201 42.4225C104.968 42.4225 104.752 42.3806 104.552 42.2966C104.353 42.2126 104.191 42.092 104.067 41.9345C103.945 41.7771 103.879 41.5882 103.87 41.3679V41.3652L104.327 41.3626V41.3679C104.344 41.4885 104.385 41.5979 104.45 41.6958C104.515 41.7937 104.608 41.8716 104.731 41.9293C104.855 41.9853 105.013 42.0133 105.206 42.0133C105.403 42.0133 105.562 41.987 105.681 41.9345C105.801 41.8803 105.889 41.8086 105.943 41.7194C105.997 41.6285 106.024 41.5288 106.024 41.4203V41.4151C106.024 41.2717 105.979 41.1527 105.888 41.0583C105.799 40.9621 105.624 40.8825 105.363 40.8195L104.972 40.7251C104.755 40.6726 104.572 40.6044 104.421 40.5204C104.273 40.4347 104.16 40.3298 104.083 40.2056C104.006 40.0814 103.967 39.9336 103.967 39.7622V39.757C103.967 39.5523 104.021 39.3748 104.127 39.2244C104.236 39.0722 104.383 38.955 104.568 38.8728C104.754 38.7889 104.964 38.7469 105.201 38.7469C105.426 38.7469 105.631 38.7897 105.814 38.8754C106 38.9611 106.149 39.0818 106.263 39.2375C106.377 39.3914 106.437 39.5724 106.444 39.7806V39.7832L105.988 39.7858V39.7806C105.975 39.6476 105.933 39.5348 105.862 39.4421C105.792 39.3494 105.7 39.2786 105.586 39.2296C105.473 39.1806 105.344 39.1562 105.201 39.1562C105.031 39.1562 104.888 39.1841 104.773 39.2401C104.657 39.2943 104.57 39.3652 104.511 39.4526C104.453 39.5383 104.424 39.6293 104.424 39.7255V39.7307C104.424 39.8147 104.443 39.8925 104.482 39.9642C104.522 40.0359 104.587 40.0998 104.676 40.1557C104.765 40.2117 104.886 40.2581 105.038 40.2948L105.429 40.3892C105.766 40.4697 106.026 40.586 106.208 40.7382C106.39 40.8904 106.481 41.1037 106.481 41.3783V41.3836C106.481 41.6092 106.421 41.7999 106.302 41.9555C106.184 42.1095 106.027 42.2258 105.833 42.3045C105.639 42.3832 105.428 42.4225 105.201 42.4225ZM105.033 42.8581V38.3114H105.347V42.8581H105.033Z" fill="#272727" fill-opacity="0.5"/><path d="M129.508 29.9543C129.45 29.9543 129.389 29.9532 129.326 29.9508C129.263 29.9485 129.202 29.9462 129.141 29.9438V29.1743C129.176 29.1789 129.217 29.1813 129.263 29.1813C129.312 29.1836 129.36 29.1848 129.407 29.1848C129.589 29.1848 129.733 29.1486 129.841 29.0763C129.948 29.004 130.019 28.8932 130.054 28.744L130.089 28.5971L128.735 24.7456H129.858L130.778 28.0688L130.544 27.6631H130.848L130.624 28.0688L131.544 24.7456H132.622L131.31 28.5936C131.198 28.9317 131.061 29.1999 130.9 29.3981C130.742 29.5987 130.549 29.741 130.323 29.8249C130.097 29.9112 129.825 29.9543 129.508 29.9543Z" fill="#272727" fill-opacity="0.7"/><path d="M126.972 28.5971V23.2729H127.993V28.5971H126.972Z" fill="#272727" fill-opacity="0.7"/><path d="M122.438 28.5971V23.2729H123.46V25.3403H123.523C123.612 25.1304 123.749 24.9648 123.936 24.8436C124.122 24.7223 124.353 24.6617 124.628 24.6617C124.915 24.6617 125.155 24.7188 125.349 24.8331C125.545 24.945 125.693 25.1083 125.793 25.3228C125.896 25.5374 125.947 25.7986 125.947 26.1064V28.5971H124.926V26.3373C124.926 26.0644 124.869 25.858 124.754 25.7181C124.64 25.5782 124.462 25.5082 124.219 25.5082C124.063 25.5082 123.928 25.5444 123.813 25.6167C123.701 25.6866 123.614 25.7857 123.551 25.914C123.49 26.0423 123.46 26.1938 123.46 26.3688V28.5971H122.438Z" fill="#272727" fill-opacity="0.7"/><path d="M121.043 28.6111C120.576 28.6111 120.241 28.5294 120.035 28.3662C119.83 28.2006 119.727 27.9313 119.727 27.5581V25.5152H119.133V24.7456H119.727V23.8256H120.759V24.7456H121.554V25.5152H120.759V27.3237C120.759 27.4963 120.798 27.6234 120.875 27.705C120.954 27.7843 121.08 27.824 121.253 27.824C121.318 27.824 121.372 27.8228 121.414 27.8205C121.458 27.8158 121.505 27.8111 121.554 27.8065V28.5656C121.491 28.5772 121.415 28.5877 121.326 28.5971C121.238 28.6064 121.143 28.6111 121.043 28.6111Z" fill="#272727" fill-opacity="0.7"/><path d="M114.945 28.5971V24.7456H115.967V25.3403H116.03C116.118 25.1304 116.256 24.9648 116.443 24.8436C116.629 24.7223 116.86 24.6617 117.135 24.6617C117.564 24.6617 117.891 24.7876 118.115 25.0395C118.341 25.289 118.454 25.6446 118.454 26.1064V28.5971H117.432V26.3373C117.432 26.0644 117.375 25.858 117.261 25.7181C117.147 25.5782 116.968 25.5082 116.726 25.5082C116.57 25.5082 116.434 25.5444 116.32 25.6167C116.208 25.6866 116.121 25.7857 116.058 25.914C115.997 26.0423 115.967 26.1938 115.967 26.3688V28.5971H114.945Z" fill="#272727" fill-opacity="0.7"/><path d="M112.213 28.6775C111.819 28.6775 111.48 28.5982 111.195 28.4397C110.911 28.2787 110.693 28.049 110.541 27.7505C110.39 27.4497 110.314 27.0905 110.314 26.6731V26.6661C110.314 26.251 110.391 25.8942 110.545 25.5957C110.699 25.2972 110.917 25.0675 111.199 24.9065C111.484 24.7433 111.822 24.6617 112.213 24.6617C112.605 24.6617 112.942 24.7421 113.224 24.903C113.509 25.064 113.728 25.2948 113.882 25.5957C114.036 25.8942 114.113 26.251 114.113 26.6661V26.6731C114.113 27.0905 114.037 27.4497 113.886 27.7505C113.734 28.049 113.516 28.2787 113.231 28.4397C112.949 28.5982 112.61 28.6775 112.213 28.6775ZM112.213 27.8765C112.395 27.8765 112.549 27.8286 112.675 27.733C112.801 27.6374 112.898 27.4998 112.966 27.3202C113.033 27.1407 113.067 26.925 113.067 26.6731V26.6661C113.067 26.4142 113.033 26.1997 112.966 26.0224C112.898 25.8429 112.8 25.7053 112.672 25.6097C112.546 25.5117 112.393 25.4627 112.213 25.4627C112.034 25.4627 111.88 25.5117 111.752 25.6097C111.626 25.7053 111.529 25.8429 111.461 26.0224C111.394 26.1997 111.36 26.4142 111.36 26.6661V26.6731C111.36 26.9273 111.393 27.1442 111.458 27.3237C111.525 27.5033 111.622 27.6409 111.748 27.7365C111.876 27.8298 112.032 27.8765 112.213 27.8765Z" fill="#272727" fill-opacity="0.7"/><path d="M104.105 28.5971V23.5493H105.315L106.711 27.2433H106.774L108.166 23.5493H109.376V28.5971H108.435V25.1619H107.914L108.922 23.6892L107.071 28.5971H106.41L104.563 23.6892L105.567 25.1619H105.046V28.5971H104.105Z" fill="#272727" fill-opacity="0.7"/></g><defs><filter id="filter0_d_1836_11401" x="0" y="0" width="194" height="84" filterUnits="userSpaceOnUse" color-interpolation-filters="sRGB"><feFlood flood-opacity="0" result="BackgroundImageFix"/><feColorMatrix in="SourceAlpha" type="matrix" values="0 0 0 0 0 0 0 0 0 0 0 0 0 0 0 0 0 0 127 0" result="hardAlpha"/><feOffset dy="4"/><feGaussianBlur stdDeviation="6"/><feComposite in2="hardAlpha" operator="out"/><feColorMatrix type="matrix" values="0 0 0 0 0.0590918 0 0 0 0 0.105306 0 0 0 0 0.213141 0 0 0 0.06 0"/><feBlend mode="normal" in2="BackgroundImageFix" result="effect1_dropShadow_1836_11401"/><feBlend mode="normal" in="SourceGraphic" in2="effect1_dropShadow_1836_11401" result="shape"/></filter></defs></svg>