<svg width="194" height="121" viewBox="0 0 194 121" fill="none" xmlns="http://www.w3.org/2000/svg"><g filter="url(#filter0_d_1836_10119)"><path d="M12 16C12 11.5817 15.5817 8 20 8H174C178.418 8 182 11.5817 182 16V97C182 101.418 178.418 105 174 105H20C15.5817 105 12 101.418 12 97V16Z" fill="white"/><rect width="150" height="37.6119" transform="translate(22 16.194)" fill="#AB7DFF"/><path d="M77.2347 45.4272C76.598 45.4272 76.045 45.2925 75.5757 45.0231C75.1064 44.7497 74.7411 44.362 74.4799 43.86C74.2228 43.3539 74.0942 42.752 74.0942 42.0541V42.0418C74.0942 41.348 74.2248 40.7501 74.486 40.2482C74.7472 39.7421 75.1125 39.3544 75.5818 39.085C76.0512 38.8116 76.6001 38.6749 77.2286 38.6749C77.8611 38.6749 78.4121 38.8116 78.8814 39.085C79.3548 39.3544 79.7222 39.7401 79.9833 40.242C80.2445 40.744 80.3751 41.344 80.3751 42.0418V42.0541C80.3751 42.756 80.2445 43.36 79.9833 43.8661C79.7262 44.3681 79.363 44.7538 78.8937 45.0231C78.4243 45.2925 77.8713 45.4272 77.2347 45.4272ZM77.2408 44.1967C77.5632 44.1967 77.8428 44.113 78.0795 43.9457C78.3162 43.7784 78.4978 43.5355 78.6243 43.2172C78.7549 42.8948 78.8202 42.5071 78.8202 42.0541V42.0418C78.8202 41.5929 78.7549 41.2093 78.6243 40.8909C78.4937 40.5726 78.308 40.3298 78.0672 40.1625C77.8305 39.9951 77.551 39.9115 77.2286 39.9115C76.9143 39.9115 76.6368 39.9951 76.396 40.1625C76.1593 40.3298 75.9736 40.5726 75.8389 40.8909C75.7083 41.2093 75.643 41.5929 75.643 42.0418V42.0541C75.643 42.5071 75.7083 42.8948 75.8389 43.2172C75.9736 43.5355 76.1593 43.7784 76.396 43.9457C76.6368 44.113 76.9184 44.1967 77.2408 44.1967Z" fill="white"/><path d="M63.8097 45.2986V38.8096H65.3279V39.8503H65.3646C65.4993 39.4952 65.7258 39.2116 66.0441 38.9993C66.3625 38.783 66.7359 38.6749 67.1644 38.6749C67.4664 38.6749 67.7378 38.7279 67.9786 38.834C68.2194 38.9361 68.4234 39.085 68.5908 39.2809C68.7622 39.4727 68.8867 39.7074 68.9642 39.9849H68.9948C69.1009 39.7156 69.2519 39.485 69.4478 39.2932C69.6478 39.0973 69.8804 38.9463 70.1457 38.8402C70.415 38.73 70.7048 38.6749 71.015 38.6749C71.4435 38.6749 71.8149 38.7667 72.1291 38.9504C72.4475 39.1299 72.6944 39.383 72.8699 39.7095C73.0494 40.0319 73.1392 40.4114 73.1392 40.8481V45.2986H71.6149V41.2215C71.6149 40.9522 71.57 40.7236 71.4802 40.5359C71.3904 40.3482 71.2598 40.2053 71.0884 40.1074C70.917 40.0094 70.7048 39.9604 70.4518 39.9604C70.2069 39.9604 69.9906 40.0176 69.8029 40.1319C69.6192 40.242 69.4743 40.3971 69.3682 40.5971C69.2662 40.7971 69.2152 41.0277 69.2152 41.2889V45.2986H67.7337V41.1419C67.7337 40.8971 67.6868 40.6869 67.5929 40.5114C67.4991 40.3359 67.3664 40.2012 67.195 40.1074C67.0236 40.0094 66.8195 39.9604 66.5828 39.9604C66.338 39.9604 66.1217 40.0196 65.9339 40.138C65.7462 40.2563 65.5972 40.4175 65.487 40.6216C65.3809 40.8257 65.3279 41.0603 65.3279 41.3256V45.2986H63.8097Z" fill="white"/><path d="M63.1914 36.4649L60.8774 47.4412H59.5L61.814 36.4649H63.1914Z" fill="white"/><path d="M55.5637 45.4516C55.078 45.4516 54.621 45.3639 54.1924 45.1884C53.7639 45.0129 53.3844 44.7436 53.0538 44.3803C52.7273 44.0171 52.4702 43.5559 52.2825 42.9968C52.0947 42.4336 52.0009 41.7643 52.0009 40.9889V40.9767C52.0009 40.0053 52.1437 39.1707 52.4294 38.4729C52.7191 37.775 53.1334 37.2404 53.6721 36.869C54.2108 36.4976 54.8536 36.3119 55.6004 36.3119C56.1473 36.3119 56.6391 36.4098 57.0758 36.6057C57.5165 36.7975 57.8798 37.0649 58.1654 37.4077C58.4552 37.7505 58.645 38.1443 58.7348 38.5892L58.7531 38.6565H57.186L57.1615 38.6014C57.0839 38.3974 56.9717 38.2219 56.8248 38.0749C56.6819 37.9239 56.5065 37.8076 56.2983 37.726C56.0943 37.6403 55.8596 37.5975 55.5943 37.5975C55.1209 37.5975 54.7352 37.7362 54.4373 38.0137C54.1394 38.2872 53.917 38.6524 53.77 39.1095C53.6231 39.5666 53.5395 40.0747 53.519 40.6338C53.515 40.6869 53.5109 40.7399 53.5068 40.793C53.5068 40.8461 53.5068 40.8991 53.5068 40.9522L53.7823 42.4153C53.7823 42.7377 53.8598 43.0315 54.0149 43.2968C54.17 43.5621 54.3822 43.7722 54.6516 43.9273C54.9209 44.0824 55.2188 44.16 55.5453 44.16C55.8759 44.16 56.1738 44.0845 56.4391 43.9335C56.7085 43.7784 56.9207 43.5723 57.0758 43.3152C57.2349 43.054 57.3145 42.7642 57.3145 42.4459V42.4336C57.3145 42.099 57.239 41.8031 57.088 41.546C56.937 41.2848 56.7289 41.0807 56.4636 40.9338C56.2024 40.7869 55.9024 40.7134 55.5637 40.7134C55.229 40.7134 54.927 40.7869 54.6577 40.9338C54.3883 41.0766 54.1741 41.2766 54.0149 41.5337C53.8598 41.7868 53.7823 42.0786 53.7823 42.4091V42.4153H53.4089V40.9154H53.5435C53.6578 40.6461 53.8292 40.4053 54.0578 40.1931C54.2904 39.9808 54.5679 39.8115 54.8903 39.685C55.2127 39.5584 55.5739 39.4952 55.9739 39.4952C56.5411 39.4952 57.0411 39.6197 57.4737 39.8686C57.9104 40.1176 58.2511 40.4604 58.496 40.8971C58.745 41.3297 58.8694 41.8235 58.8694 42.3785V42.3908C58.8694 42.9866 58.7266 43.5151 58.4409 43.9763C58.1552 44.4334 57.7634 44.7946 57.2655 45.0598C56.7676 45.321 56.2004 45.4516 55.5637 45.4516Z" fill="white"/><path d="M48.5115 45.2986V37.9647H48.4748L46.1914 39.5319V38.0872L48.4993 36.4649H50.0603V45.2986H48.5115Z" fill="white"/><path d="M44.6669 45.3965C44.418 45.3965 44.2078 45.3108 44.0364 45.1394C43.865 44.968 43.7793 44.7598 43.7793 44.515C43.7793 44.266 43.865 44.0558 44.0364 43.8844C44.2078 43.713 44.418 43.6273 44.6669 43.6273C44.9118 43.6273 45.12 43.713 45.2914 43.8844C45.4628 44.0558 45.5485 44.266 45.5485 44.515C45.5485 44.7598 45.4628 44.968 45.2914 45.1394C45.12 45.3108 44.9118 45.3965 44.6669 45.3965Z" fill="white"/><path d="M40.1552 45.2986V43.5967H35.7476V42.2561C35.9924 41.8724 36.2373 41.4868 36.4822 41.0991C36.727 40.7113 36.9719 40.3257 37.2168 39.942C37.4616 39.5543 37.7045 39.1687 37.9453 38.785C38.1901 38.3973 38.435 38.0117 38.6799 37.628C38.9247 37.2403 39.1696 36.8526 39.4145 36.4649H41.6612V42.3112H42.8549V43.5967H41.6612V45.2986H40.1552ZM37.1678 42.3418H40.1797V37.6586H40.143C39.943 37.9688 39.743 38.279 39.543 38.5891C39.3471 38.8952 39.1492 39.2034 38.9492 39.5135C38.7533 39.8237 38.5554 40.1339 38.3554 40.444C38.1554 40.7542 37.9555 41.0644 37.7555 41.3745C37.5596 41.6806 37.3637 41.9887 37.1678 42.2989V42.3418Z" fill="white"/><path d="M31.3278 45.17C30.7238 45.17 30.183 45.0761 29.7055 44.8884C29.2321 44.6966 28.8505 44.4211 28.5608 44.062C28.2751 43.7028 28.1139 43.2723 28.0772 42.7703L28.071 42.6846H29.4974L29.5097 42.7519C29.5505 42.9764 29.6402 43.1804 29.779 43.3641C29.9178 43.5478 30.1157 43.6926 30.3728 43.7987C30.634 43.9008 30.9646 43.9518 31.3645 43.9518C31.7686 43.9518 32.0951 43.9028 32.344 43.8049C32.597 43.7028 32.7807 43.5641 32.895 43.3886C33.0133 43.2131 33.0725 43.0152 33.0725 42.7948V42.7825C33.0725 42.4928 32.9725 42.2561 32.7725 42.0724C32.5766 41.8888 32.2012 41.7337 31.6461 41.6072L30.6544 41.3868C30.1239 41.2684 29.679 41.1072 29.3199 40.9032C28.9607 40.6991 28.6893 40.444 28.5057 40.1379C28.322 39.8278 28.2302 39.4625 28.2302 39.0422V39.0299C28.2302 38.5361 28.3608 38.1076 28.622 37.7443C28.8873 37.377 29.2525 37.0934 29.7178 36.8934C30.183 36.6935 30.7136 36.5935 31.3094 36.5935C31.9012 36.5935 32.4236 36.6894 32.8766 36.8812C33.3337 37.073 33.6969 37.3464 33.9663 37.7015C34.2397 38.0566 34.3948 38.479 34.4315 38.9687L34.4376 39.0666H33.0113L33.0052 39.0115C32.9684 38.7544 32.8766 38.5381 32.7297 38.3626C32.5828 38.1831 32.3889 38.0464 32.1481 37.9525C31.9073 37.8586 31.6278 37.8117 31.3094 37.8117C30.9585 37.8117 30.6626 37.8647 30.4218 37.9709C30.1851 38.0729 30.0055 38.2096 29.8831 38.381C29.7647 38.5483 29.7055 38.7299 29.7055 38.9258V38.932C29.7055 39.1115 29.7484 39.2727 29.8341 39.4156C29.9198 39.5584 30.0586 39.6849 30.2504 39.7951C30.4463 39.9012 30.7054 39.9931 31.0278 40.0706L32.0318 40.291C32.8603 40.4706 33.4847 40.746 33.9051 41.1174C34.3295 41.4847 34.5417 41.9949 34.5417 42.6479V42.6601C34.5417 43.1988 34.3989 43.6559 34.1132 44.0314C33.8316 44.4028 33.448 44.6864 32.9623 44.8823C32.4807 45.0741 31.9359 45.17 31.3278 45.17ZM30.9972 46.1862V35.5773H31.6584V46.1862H30.9972Z" fill="white"/><path d="M164.49 45.2986V41.9531H165.253V42.4673H165.305C165.362 42.2877 165.464 42.1479 165.611 42.0479C165.76 41.948 165.944 41.898 166.165 41.898C166.222 41.898 166.278 41.902 166.333 41.9102C166.39 41.9163 166.437 41.9245 166.474 41.9347V42.6173C166.413 42.603 166.35 42.5928 166.287 42.5867C166.226 42.5785 166.162 42.5744 166.094 42.5744C165.925 42.5744 165.777 42.606 165.651 42.6693C165.524 42.7326 165.426 42.8234 165.357 42.9417C165.287 43.058 165.253 43.1958 165.253 43.3549V45.2986H164.49Z" fill="white"/><path d="M161.791 45.3536C161.58 45.3536 161.392 45.3128 161.224 45.2312C161.059 45.1496 160.928 45.0343 160.833 44.8853C160.739 44.7343 160.692 44.5568 160.692 44.3527V44.3466C160.692 44.1487 160.741 43.9783 160.839 43.8354C160.937 43.6906 161.081 43.5773 161.27 43.4957C161.46 43.4141 161.691 43.3661 161.962 43.3518L163.199 43.2753V43.7773L162.069 43.8507C161.855 43.863 161.697 43.9079 161.595 43.9854C161.493 44.063 161.442 44.1711 161.442 44.3099V44.316C161.442 44.4588 161.496 44.5701 161.604 44.6496C161.714 44.7292 161.854 44.769 162.023 44.769C162.176 44.769 162.313 44.7384 162.433 44.6772C162.554 44.616 162.649 44.5333 162.718 44.4293C162.787 44.3231 162.822 44.2038 162.822 44.0711V43.0121C162.822 42.8447 162.769 42.7172 162.663 42.6295C162.557 42.5397 162.4 42.4948 162.192 42.4948C162.018 42.4948 161.876 42.5254 161.766 42.5866C161.656 42.6458 161.581 42.7305 161.543 42.8407L161.54 42.8529H160.82L160.823 42.8254C160.848 42.6376 160.921 42.4734 161.044 42.3326C161.166 42.1918 161.328 42.0826 161.53 42.005C161.732 41.9275 161.965 41.8887 162.228 41.8887C162.518 41.8887 162.763 41.9336 162.963 42.0234C163.163 42.1112 163.315 42.2397 163.419 42.4091C163.523 42.5764 163.575 42.7774 163.575 43.0121V45.2985H162.822V44.8394H162.77C162.709 44.9455 162.629 45.0373 162.531 45.1149C162.435 45.1924 162.325 45.2516 162.201 45.2924C162.076 45.3332 161.94 45.3536 161.791 45.3536Z" fill="white"/><path d="M158.614 45.3659C158.281 45.3659 157.995 45.2955 157.756 45.1547C157.52 45.0139 157.337 44.8139 157.209 44.5547C157.08 44.2956 157.016 43.9885 157.016 43.6334V43.6304C157.016 43.2794 157.079 42.9733 157.206 42.7121C157.334 42.4509 157.516 42.2489 157.75 42.1061C157.985 41.9612 158.26 41.8887 158.577 41.8887C158.895 41.8887 159.169 41.9591 159.397 42.0999C159.628 42.2387 159.805 42.4336 159.93 42.6846C160.054 42.9355 160.116 43.2294 160.116 43.5661V43.8171H157.398V43.3059H159.743L159.382 43.7834V43.4804C159.382 43.258 159.348 43.0733 159.281 42.9264C159.213 42.7794 159.12 42.6693 158.999 42.5958C158.881 42.5223 158.743 42.4856 158.586 42.4856C158.429 42.4856 158.289 42.5244 158.167 42.6019C158.046 42.6774 157.95 42.7896 157.879 42.9386C157.81 43.0855 157.775 43.2661 157.775 43.4804V43.7865C157.775 43.9926 157.81 44.1691 157.879 44.316C157.948 44.4609 158.046 44.5731 158.173 44.6527C158.301 44.7302 158.453 44.769 158.629 44.769C158.766 44.769 158.883 44.7496 158.981 44.7109C159.081 44.67 159.161 44.6221 159.223 44.567C159.284 44.5099 159.327 44.4558 159.351 44.4048L159.36 44.3833H160.083L160.077 44.4109C160.05 44.519 160.001 44.6292 159.93 44.7415C159.86 44.8517 159.765 44.9547 159.645 45.0506C159.527 45.1445 159.382 45.221 159.21 45.2802C159.039 45.3373 158.84 45.3659 158.614 45.3659Z" fill="white"/><path d="M154.056 46.4739C154.009 46.4739 153.96 46.4729 153.909 46.4709C153.86 46.4688 153.812 46.4658 153.765 46.4617V45.8771C153.796 45.8811 153.831 45.8832 153.872 45.8832C153.913 45.8852 153.953 45.8862 153.992 45.8862C154.149 45.8862 154.274 45.8515 154.368 45.7822C154.464 45.7148 154.532 45.6057 154.573 45.4547L154.613 45.3016L153.416 41.953H154.249L155.13 44.9159L154.922 44.567H155.185L154.983 44.9159L155.865 41.953H156.667L155.467 45.372C155.371 45.6495 155.261 45.8689 155.136 46.0301C155.012 46.1913 154.862 46.3056 154.686 46.3729C154.513 46.4402 154.303 46.4739 154.056 46.4739Z" fill="white"/><path d="M149.425 45.2986V41.9531H150.187V42.4673H150.239C150.296 42.2877 150.398 42.1479 150.545 42.0479C150.694 41.948 150.879 41.898 151.099 41.898C151.156 41.898 151.212 41.902 151.267 41.9102C151.325 41.9163 151.372 41.9245 151.408 41.9347V42.6173C151.347 42.603 151.285 42.5928 151.222 42.5867C151.16 42.5785 151.096 42.5744 151.029 42.5744C150.859 42.5744 150.711 42.606 150.585 42.6693C150.458 42.7326 150.36 42.8234 150.291 42.9417C150.222 43.058 150.187 43.1958 150.187 43.3549V45.2986H149.425Z" fill="white"/><path d="M147.16 45.3659C146.827 45.3659 146.541 45.2955 146.303 45.1547C146.066 45.0139 145.883 44.8139 145.755 44.5547C145.626 44.2956 145.562 43.9885 145.562 43.6334V43.6304C145.562 43.2794 145.625 42.9733 145.752 42.7121C145.88 42.4509 146.062 42.2489 146.296 42.1061C146.531 41.9612 146.807 41.8887 147.123 41.8887C147.441 41.8887 147.715 41.9591 147.943 42.0999C148.174 42.2387 148.351 42.4336 148.476 42.6846C148.6 42.9355 148.663 43.2294 148.663 43.5661V43.8171H145.944V43.3059H148.289L147.928 43.7834V43.4804C147.928 43.258 147.894 43.0733 147.827 42.9264C147.76 42.7794 147.666 42.6693 147.545 42.5958C147.427 42.5223 147.289 42.4856 147.132 42.4856C146.975 42.4856 146.835 42.5244 146.713 42.6019C146.592 42.6774 146.496 42.7896 146.425 42.9386C146.356 43.0855 146.321 43.2661 146.321 43.4804V43.7865C146.321 43.9926 146.356 44.1691 146.425 44.316C146.494 44.4609 146.592 44.5731 146.719 44.6527C146.847 44.7302 146.999 44.769 147.175 44.769C147.312 44.769 147.429 44.7496 147.527 44.7109C147.627 44.67 147.708 44.6221 147.769 44.567C147.83 44.5099 147.873 44.4558 147.897 44.4048L147.907 44.3833H148.629L148.623 44.4109C148.596 44.519 148.547 44.6292 148.476 44.7415C148.406 44.8517 148.312 44.9547 148.191 45.0506C148.073 45.1445 147.928 45.221 147.757 45.2802C147.585 45.3373 147.386 45.3659 147.16 45.3659Z" fill="white"/><path d="M141.754 46.4097V41.9531H142.516V42.4765H142.568C142.63 42.3561 142.709 42.253 142.807 42.1673C142.907 42.0816 143.022 42.0153 143.153 41.9684C143.284 41.9214 143.428 41.898 143.585 41.898C143.864 41.898 144.106 41.9684 144.31 42.1092C144.516 42.25 144.675 42.4499 144.788 42.7091C144.902 42.9662 144.959 43.2713 144.959 43.6243V43.6304C144.959 43.9855 144.903 44.2916 144.791 44.5487C144.678 44.8058 144.519 45.0047 144.313 45.1455C144.109 45.2843 143.866 45.3537 143.585 45.3537C143.432 45.3537 143.289 45.3302 143.156 45.2833C143.024 45.2343 142.907 45.166 142.807 45.0782C142.707 44.9905 142.628 44.8864 142.568 44.766H142.516V46.4097H141.754ZM143.346 44.7109C143.519 44.7109 143.668 44.668 143.793 44.5823C143.917 44.4946 144.013 44.3701 144.081 44.2089C144.148 44.0457 144.182 43.8528 144.182 43.6304V43.6243C144.182 43.3978 144.148 43.2039 144.081 43.0427C144.013 42.8815 143.917 42.7581 143.793 42.6724C143.668 42.5846 143.519 42.5407 143.346 42.5407C143.172 42.5407 143.022 42.5846 142.896 42.6724C142.772 42.7581 142.675 42.8815 142.605 43.0427C142.538 43.2039 142.504 43.3968 142.504 43.6212V43.6274C142.504 43.8518 142.538 44.0457 142.605 44.2089C142.675 44.3701 142.773 44.4946 142.899 44.5823C143.026 44.668 143.175 44.7109 143.346 44.7109Z" fill="white"/><path d="M137.463 40.7715C137.7 40.7715 137.924 40.8154 138.136 40.9032C138.348 40.9889 138.536 41.1235 138.699 41.3072C138.865 41.4888 138.994 41.7225 139.088 42.0081C139.182 42.2918 139.229 42.6336 139.229 43.0335V43.0396C139.229 43.5355 139.158 43.9599 139.015 44.313C138.872 44.666 138.667 44.9374 138.4 45.1272C138.134 45.3149 137.817 45.4088 137.448 45.4088C137.176 45.4088 136.931 45.3598 136.713 45.2618C136.497 45.1618 136.317 45.0251 136.174 44.8517C136.033 44.6762 135.939 44.4762 135.89 44.2518L135.883 44.2181H136.658L136.67 44.2487C136.709 44.3507 136.764 44.4405 136.835 44.518C136.909 44.5956 136.997 44.6558 137.099 44.6986C137.203 44.7394 137.319 44.7599 137.448 44.7599C137.68 44.7599 137.87 44.6915 138.017 44.5548C138.166 44.416 138.277 44.2313 138.351 44.0008C138.426 43.7681 138.469 43.511 138.479 43.2294C138.481 43.1988 138.482 43.1692 138.482 43.1407C138.482 43.11 138.482 43.0805 138.482 43.0519L138.344 42.3142C138.344 42.1469 138.306 41.9949 138.228 41.8582C138.151 41.7214 138.045 41.6133 137.913 41.5337C137.782 41.4541 137.634 41.4143 137.469 41.4143C137.31 41.4143 137.164 41.4531 137.031 41.5306C136.899 41.6082 136.793 41.7143 136.713 41.849C136.633 41.9816 136.594 42.1306 136.594 42.2959V42.302C136.594 42.4734 136.631 42.6254 136.707 42.758C136.782 42.8886 136.885 42.9917 137.016 43.0672C137.147 43.1427 137.296 43.1804 137.463 43.1804C137.63 43.1804 137.78 43.1437 137.913 43.0703C138.045 42.9968 138.151 42.8948 138.228 42.7642C138.306 42.6336 138.344 42.4856 138.344 42.3203V42.3142H138.528V43.1284H138.421C138.368 43.2447 138.289 43.3529 138.185 43.4529C138.081 43.5529 137.953 43.6335 137.8 43.6947C137.649 43.7559 137.471 43.7865 137.267 43.7865C136.985 43.7865 136.736 43.7232 136.52 43.5967C136.304 43.4702 136.133 43.2968 136.009 43.0764C135.887 42.856 135.825 42.607 135.825 42.3295V42.3234C135.825 42.0234 135.895 41.7571 136.033 41.5245C136.174 41.2899 136.368 41.1062 136.615 40.9736C136.864 40.8389 137.147 40.7715 137.463 40.7715Z" fill="white"/><path d="M133.282 40.7715C133.518 40.7715 133.743 40.8154 133.955 40.9032C134.167 40.9889 134.355 41.1235 134.518 41.3072C134.684 41.4888 134.813 41.7225 134.907 42.0081C135.001 42.2918 135.048 42.6336 135.048 43.0335V43.0396C135.048 43.5355 134.976 43.9599 134.834 44.313C134.691 44.666 134.486 44.9374 134.218 45.1272C133.953 45.3149 133.636 45.4088 133.266 45.4088C132.995 45.4088 132.75 45.3598 132.532 45.2618C132.316 45.1618 132.136 45.0251 131.993 44.8517C131.852 44.6762 131.757 44.4762 131.708 44.2518L131.702 44.2181H132.477L132.489 44.2487C132.528 44.3507 132.583 44.4405 132.654 44.518C132.728 44.5956 132.815 44.6558 132.917 44.6986C133.022 44.7394 133.138 44.7599 133.266 44.7599C133.499 44.7599 133.689 44.6915 133.836 44.5548C133.985 44.416 134.096 44.2313 134.169 44.0008C134.245 43.7681 134.288 43.511 134.298 43.2294C134.3 43.1988 134.301 43.1692 134.301 43.1407C134.301 43.11 134.301 43.0805 134.301 43.0519L134.163 42.3142C134.163 42.1469 134.124 41.9949 134.047 41.8582C133.969 41.7214 133.864 41.6133 133.732 41.5337C133.601 41.4541 133.453 41.4143 133.288 41.4143C133.129 41.4143 132.983 41.4531 132.85 41.5306C132.718 41.6082 132.611 41.7143 132.532 41.849C132.452 41.9816 132.412 42.1306 132.412 42.2959V42.302C132.412 42.4734 132.45 42.6254 132.526 42.758C132.601 42.8886 132.704 42.9917 132.835 43.0672C132.965 43.1427 133.114 43.1804 133.282 43.1804C133.449 43.1804 133.599 43.1437 133.732 43.0703C133.864 42.9968 133.969 42.8948 134.047 42.7642C134.124 42.6336 134.163 42.4856 134.163 42.3203V42.3142H134.347V43.1284H134.24C134.187 43.2447 134.108 43.3529 134.004 43.4529C133.9 43.5529 133.771 43.6335 133.618 43.6947C133.467 43.7559 133.29 43.7865 133.086 43.7865C132.804 43.7865 132.555 43.7232 132.339 43.5967C132.123 43.4702 131.952 43.2968 131.828 43.0764C131.705 42.856 131.644 42.607 131.644 42.3295V42.3234C131.644 42.0234 131.714 41.7571 131.852 41.5245C131.993 41.2899 132.187 41.1062 132.434 40.9736C132.683 40.8389 132.965 40.7715 133.282 40.7715Z" fill="white"/><path d="M130.481 45.3567C130.342 45.3567 130.226 45.3108 130.132 45.219C130.04 45.1251 129.994 45.0108 129.994 44.8762C129.994 44.7394 130.04 44.6252 130.132 44.5333C130.226 44.4395 130.342 44.3925 130.481 44.3925C130.622 44.3925 130.738 44.4395 130.83 44.5333C130.922 44.6252 130.968 44.7394 130.968 44.8762C130.968 45.0108 130.922 45.1251 130.83 45.219C130.738 45.3108 130.622 45.3567 130.481 45.3567Z" fill="white"/><path d="M127.588 40.7715C127.825 40.7715 128.05 40.8154 128.262 40.9032C128.474 40.9889 128.662 41.1235 128.825 41.3072C128.99 41.4888 129.12 41.7225 129.214 42.0081C129.308 42.2918 129.355 42.6336 129.355 43.0335V43.0396C129.355 43.5355 129.283 43.9599 129.14 44.313C128.998 44.666 128.792 44.9374 128.525 45.1272C128.26 45.3149 127.943 45.4088 127.573 45.4088C127.302 45.4088 127.057 45.3598 126.839 45.2618C126.622 45.1618 126.443 45.0251 126.3 44.8517C126.159 44.6762 126.064 44.4762 126.015 44.2518L126.009 44.2181H126.783L126.796 44.2487C126.834 44.3507 126.89 44.4405 126.961 44.518C127.034 44.5956 127.122 44.6558 127.224 44.6986C127.328 44.7394 127.445 44.7599 127.573 44.7599C127.806 44.7599 127.996 44.6915 128.143 44.5548C128.291 44.416 128.403 44.2313 128.476 44.0008C128.552 43.7681 128.594 43.511 128.605 43.2294C128.607 43.1988 128.608 43.1692 128.608 43.1407C128.608 43.11 128.608 43.0805 128.608 43.0519L128.47 42.3142C128.47 42.1469 128.431 41.9949 128.354 41.8582C128.276 41.7214 128.171 41.6133 128.038 41.5337C127.908 41.4541 127.76 41.4143 127.595 41.4143C127.435 41.4143 127.29 41.4531 127.157 41.5306C127.024 41.6082 126.918 41.7143 126.839 41.849C126.759 41.9816 126.719 42.1306 126.719 42.2959V42.302C126.719 42.4734 126.757 42.6254 126.832 42.758C126.908 42.8886 127.011 42.9917 127.142 43.0672C127.272 43.1427 127.421 43.1804 127.588 43.1804C127.756 43.1804 127.906 43.1437 128.038 43.0703C128.171 42.9968 128.276 42.8948 128.354 42.7642C128.431 42.6336 128.47 42.4856 128.47 42.3203V42.3142H128.654V43.1284H128.547C128.493 43.2447 128.415 43.3529 128.311 43.4529C128.207 43.5529 128.078 43.6335 127.925 43.6947C127.774 43.7559 127.597 43.7865 127.393 43.7865C127.111 43.7865 126.862 43.7232 126.646 43.5967C126.429 43.4702 126.259 43.2968 126.135 43.0764C126.012 42.856 125.951 42.607 125.951 42.3295V42.3234C125.951 42.0234 126.02 41.7571 126.159 41.5245C126.3 41.2899 126.494 41.1062 126.741 40.9736C126.99 40.8389 127.272 40.7715 127.588 40.7715Z" fill="white"/><path d="M123.857 45.2986V44.4507H121.696V43.8049C121.813 43.6069 121.929 43.408 122.045 43.208C122.164 43.008 122.283 42.8091 122.403 42.6111C122.526 42.4111 122.647 42.2142 122.768 42.0204C122.89 41.8245 123.012 41.6316 123.132 41.4419C123.254 41.2501 123.377 41.0633 123.499 40.8817H124.61V43.7987H125.207V44.4507H124.61V45.2986H123.857ZM122.431 43.8171H123.87V41.5123H123.824C123.734 41.651 123.641 41.7939 123.545 41.9408C123.451 42.0877 123.356 42.2377 123.261 42.3907C123.165 42.5438 123.07 42.6978 122.976 42.8529C122.882 43.006 122.789 43.16 122.697 43.3151C122.605 43.4682 122.517 43.6202 122.431 43.7712V43.8171Z" fill="white"/><path d="M119.309 45.2343C119.011 45.2343 118.741 45.1863 118.498 45.0904C118.255 44.9925 118.061 44.8517 117.916 44.668C117.771 44.4823 117.694 44.2579 117.684 43.9946L117.687 43.9916L118.397 43.9885L118.4 43.9946C118.418 44.1191 118.463 44.2293 118.535 44.3252C118.606 44.4191 118.706 44.4925 118.834 44.5456C118.963 44.5986 119.124 44.6252 119.318 44.6252C119.518 44.6252 119.682 44.6017 119.811 44.5548C119.939 44.5058 120.034 44.4385 120.096 44.3527C120.157 44.267 120.187 44.1681 120.187 44.0558V44.0497C120.187 43.8987 120.133 43.7773 120.025 43.6855C119.919 43.5937 119.723 43.5141 119.437 43.4467L118.981 43.3427C118.72 43.2814 118.499 43.1998 118.317 43.0978C118.138 42.9958 118.001 42.8692 117.907 42.7182C117.815 42.5652 117.769 42.3826 117.769 42.1703V42.1642C117.769 41.9132 117.836 41.6969 117.968 41.5153C118.103 41.3337 118.286 41.1939 118.516 41.096C118.749 40.996 119.012 40.946 119.306 40.946C119.606 40.946 119.871 40.998 120.102 41.1021C120.332 41.2041 120.516 41.349 120.653 41.5367C120.789 41.7224 120.862 41.9418 120.87 42.1948V42.1979L120.16 42.201L120.157 42.1948C120.142 42.0561 120.098 41.9398 120.022 41.8459C119.947 41.75 119.849 41.6775 119.728 41.6286C119.608 41.5796 119.47 41.5551 119.315 41.5551C119.138 41.5551 118.989 41.5806 118.868 41.6316C118.748 41.6826 118.657 41.75 118.596 41.8337C118.535 41.9173 118.504 42.0091 118.504 42.1091V42.1153C118.504 42.205 118.527 42.2856 118.574 42.3571C118.623 42.4285 118.699 42.4917 118.801 42.5468C118.905 42.6019 119.042 42.6499 119.211 42.6907L119.667 42.7948C120.075 42.8886 120.386 43.0264 120.601 43.208C120.815 43.3896 120.922 43.6457 120.922 43.9763V43.9824C120.922 44.2517 120.851 44.4803 120.708 44.668C120.565 44.8537 120.371 44.9945 120.126 45.0904C119.883 45.1863 119.611 45.2343 119.309 45.2343ZM119.138 45.7363V40.4379H119.493V45.7363H119.138Z" fill="white"/><path d="M43.6049 28.5634C43.558 28.5634 43.509 28.5624 43.458 28.5603C43.409 28.5583 43.3611 28.5552 43.3141 28.5512V27.9665C43.3448 27.9706 43.3805 27.9726 43.4213 27.9726C43.4621 27.9747 43.5019 27.9757 43.5407 27.9757C43.6978 27.9757 43.8233 27.941 43.9171 27.8716C44.013 27.8043 44.0814 27.6951 44.1222 27.5441L44.162 27.3911L42.9652 24.0425H43.7978L44.6793 27.0054L44.4712 26.6565H44.7344L44.5324 27.0054L45.4139 24.0425H46.2159L45.016 27.4615C44.9201 27.739 44.8099 27.9584 44.6854 28.1196C44.5609 28.2808 44.411 28.395 44.2355 28.4624C44.062 28.5297 43.8518 28.5634 43.6049 28.5634Z" fill="white"/><path d="M41.5266 27.388V22.7477H42.2888V27.388H41.5266Z" fill="white"/><path d="M38.8943 27.3881V24.0425H39.6564V24.5568H39.7085C39.7656 24.3772 39.8676 24.2374 40.0146 24.1374C40.1635 24.0374 40.3482 23.9874 40.5686 23.9874C40.6257 23.9874 40.6818 23.9915 40.7369 23.9997C40.7941 24.0058 40.841 24.014 40.8777 24.0242V24.7067C40.8165 24.6925 40.7543 24.6823 40.691 24.6761C40.6298 24.668 40.5655 24.6639 40.4982 24.6639C40.3288 24.6639 40.1809 24.6955 40.0544 24.7588C39.9278 24.822 39.8299 24.9128 39.7605 25.0312C39.6911 25.1475 39.6564 25.2852 39.6564 25.4444V27.3881H38.8943Z" fill="white"/><path d="M36.1946 27.4431C35.9844 27.4431 35.7956 27.4023 35.6283 27.3207C35.463 27.2391 35.3324 27.1238 35.2365 26.9748C35.1426 26.8238 35.0957 26.6463 35.0957 26.4422V26.4361C35.0957 26.2382 35.1447 26.0678 35.2426 25.9249C35.3406 25.7801 35.4844 25.6668 35.6742 25.5852C35.864 25.5036 36.0946 25.4556 36.366 25.4413L37.6026 25.3648V25.8668L36.4731 25.9402C36.2588 25.9525 36.1007 25.9974 35.9987 26.0749C35.8966 26.1525 35.8456 26.2606 35.8456 26.3994V26.4055C35.8456 26.5483 35.8997 26.6595 36.0078 26.7391C36.118 26.8187 36.2578 26.8585 36.4272 26.8585C36.5802 26.8585 36.7169 26.8279 36.8373 26.7667C36.9577 26.7055 37.0526 26.6228 37.122 26.5187C37.1914 26.4126 37.2261 26.2933 37.2261 26.1606V25.1016C37.2261 24.9342 37.173 24.8067 37.0669 24.719C36.9608 24.6292 36.8037 24.5843 36.5955 24.5843C36.4221 24.5843 36.2803 24.6149 36.1701 24.6761C36.0599 24.7353 35.9854 24.82 35.9466 24.9302L35.9436 24.9424H35.2243L35.2273 24.9149C35.2518 24.7271 35.3253 24.5629 35.4477 24.4221C35.5701 24.2813 35.7324 24.1721 35.9344 24.0945C36.1364 24.017 36.369 23.9782 36.6323 23.9782C36.922 23.9782 37.1669 24.0231 37.3669 24.1129C37.5668 24.2006 37.7189 24.3292 37.8229 24.4986C37.927 24.6659 37.979 24.8669 37.979 25.1016V27.388H37.2261V26.9289H37.174C37.1128 27.035 37.0332 27.1268 36.9353 27.2044C36.8394 27.2819 36.7292 27.3411 36.6047 27.3819C36.4802 27.4227 36.3435 27.4431 36.1946 27.4431Z" fill="white"/><path d="M33.0173 27.4554C32.6847 27.4554 32.399 27.385 32.1603 27.2442C31.9236 27.1034 31.7409 26.9034 31.6124 26.6442C31.4838 26.3851 31.4196 26.078 31.4196 25.7229V25.7199C31.4196 25.3689 31.4828 25.0628 31.6093 24.8016C31.7379 24.5404 31.9195 24.3384 32.1542 24.1955C32.3888 24.0507 32.6643 23.9782 32.9806 23.9782C33.2989 23.9782 33.5724 24.0486 33.8009 24.1894C34.0315 24.3282 34.209 24.5231 34.3335 24.7741C34.458 25.025 34.5202 25.3189 34.5202 25.6556V25.9066H31.8022V25.3954H34.1468L33.7856 25.8729V25.5699C33.7856 25.3475 33.7519 25.1628 33.6846 25.0159C33.6173 24.8689 33.5234 24.7587 33.403 24.6853C33.2846 24.6118 33.1469 24.5751 32.9898 24.5751C32.8327 24.5751 32.6929 24.6139 32.5704 24.6914C32.45 24.7669 32.3541 24.8791 32.2827 25.0281C32.2133 25.175 32.1787 25.3556 32.1787 25.5699V25.876C32.1787 26.0821 32.2133 26.2586 32.2827 26.4055C32.3521 26.5504 32.45 26.6626 32.5766 26.7422C32.7051 26.8197 32.8571 26.8585 33.0326 26.8585C33.1694 26.8585 33.2867 26.8391 33.3846 26.8003C33.4846 26.7595 33.5652 26.7116 33.6264 26.6565C33.6877 26.5993 33.7305 26.5453 33.755 26.4943L33.7642 26.4728H34.4865L34.4804 26.5004C34.4539 26.6085 34.4049 26.7187 34.3335 26.831C34.2641 26.9411 34.1692 27.0442 34.0488 27.1401C33.9305 27.234 33.7856 27.3105 33.6142 27.3697C33.4428 27.4268 33.2438 27.4554 33.0173 27.4554Z" fill="white"/><path d="M29.1393 27.388V25.6464L27.5905 22.9712H28.4536L29.5066 24.8659H29.5586L30.6115 22.9712H31.4747L29.9259 25.6464V27.388H29.1393Z" fill="white"/><rect width="35.3731" height="13.4328" transform="translate(131.254 21.5672)" fill="#242830"/><path d="M157.38 28.28C157.219 28.28 157.081 28.2389 156.966 28.1567C156.85 28.0728 156.761 27.9547 156.698 27.8025C156.637 27.6486 156.606 27.4676 156.606 27.2595V27.2568C156.606 27.0469 156.637 26.8659 156.698 26.7137C156.761 26.5616 156.85 26.4444 156.966 26.3622C157.081 26.28 157.219 26.2389 157.38 26.2389C157.541 26.2389 157.679 26.28 157.795 26.3622C157.912 26.4444 158.001 26.5616 158.063 26.7137C158.126 26.8659 158.157 27.0469 158.157 27.2568V27.2595C158.157 27.4676 158.126 27.6486 158.063 27.8025C158.001 27.9547 157.912 28.0728 157.795 28.1567C157.679 28.2389 157.541 28.28 157.38 28.28ZM157.38 27.9678C157.51 27.9678 157.61 27.9057 157.682 27.7816C157.756 27.6556 157.792 27.4816 157.792 27.2595V27.2568C157.792 27.0347 157.756 26.8615 157.682 26.7374C157.61 26.6132 157.51 26.5511 157.38 26.5511C157.251 26.5511 157.15 26.6132 157.079 26.7374C157.007 26.8615 156.971 27.0347 156.971 27.2568V27.2595C156.971 27.4816 157.007 27.6556 157.079 27.7816C157.15 27.9057 157.251 27.9678 157.38 27.9678ZM157.664 30.0746H157.239L159.815 26.2887H160.24L157.664 30.0746ZM160.093 30.1244C159.932 30.1244 159.794 30.0833 159.679 30.0011C159.563 29.9172 159.474 29.7991 159.411 29.6469C159.35 29.4948 159.319 29.3137 159.319 29.1038V29.1012C159.319 28.8913 159.35 28.7103 159.411 28.5581C159.474 28.406 159.563 28.2888 159.679 28.2066C159.794 28.1244 159.932 28.0833 160.093 28.0833C160.254 28.0833 160.392 28.1244 160.508 28.2066C160.625 28.2888 160.714 28.406 160.775 28.5581C160.838 28.7103 160.87 28.8913 160.87 29.1012V29.1038C160.87 29.3137 160.838 29.4948 160.775 29.6469C160.714 29.7991 160.625 29.9172 160.508 30.0011C160.392 30.0833 160.254 30.1244 160.093 30.1244ZM160.093 29.8122C160.223 29.8122 160.323 29.7501 160.395 29.6259C160.468 29.5 160.505 29.326 160.505 29.1038V29.1012C160.505 28.8791 160.468 28.7059 160.395 28.5818C160.323 28.4576 160.223 28.3955 160.093 28.3955C159.964 28.3955 159.863 28.4576 159.791 28.5818C159.72 28.7059 159.684 28.8791 159.684 29.1012V29.1038C159.684 29.326 159.72 29.5 159.791 29.6259C159.863 29.7501 159.964 29.8122 160.093 29.8122Z" fill="white"/><path d="M154.537 30.1376C154.269 30.1376 154.032 30.0912 153.826 29.9985C153.619 29.9058 153.456 29.7782 153.338 29.6155C153.22 29.4511 153.162 29.2631 153.162 29.0514V29.0462C153.162 28.8905 153.196 28.7462 153.264 28.6133C153.332 28.4803 153.428 28.3675 153.55 28.2748C153.672 28.1804 153.814 28.1148 153.975 28.0781V28.0676C153.769 28.0029 153.604 27.8962 153.482 27.7475C153.359 27.5988 153.298 27.4248 153.298 27.2254V27.2201C153.298 27.0295 153.352 26.8598 153.458 26.7112C153.565 26.5607 153.712 26.4427 153.899 26.357C154.086 26.2695 154.299 26.2258 154.537 26.2258C154.776 26.2258 154.989 26.2695 155.174 26.357C155.361 26.4427 155.508 26.5607 155.615 26.7112C155.722 26.8598 155.775 27.0295 155.775 27.2201V27.2254C155.775 27.4248 155.714 27.5988 155.591 27.7475C155.471 27.8962 155.306 28.0029 155.098 28.0676V28.0781C155.261 28.1148 155.402 28.1804 155.523 28.2748C155.645 28.3675 155.741 28.4803 155.809 28.6133C155.877 28.7462 155.911 28.8905 155.911 29.0462V29.0514C155.911 29.2631 155.853 29.4511 155.735 29.6155C155.618 29.7782 155.456 29.9058 155.248 29.9985C155.041 30.0912 154.804 30.1376 154.537 30.1376ZM154.537 29.7257C154.711 29.7257 154.865 29.6959 154.998 29.6365C155.133 29.5753 155.239 29.4922 155.316 29.3872C155.393 29.2805 155.431 29.159 155.431 29.0226V29.0173C155.431 28.8791 155.393 28.7567 155.316 28.65C155.241 28.5433 155.136 28.4594 155.001 28.3981C154.866 28.3369 154.711 28.3063 154.537 28.3063C154.362 28.3063 154.207 28.3369 154.072 28.3981C153.937 28.4594 153.832 28.5433 153.755 28.65C153.679 28.7567 153.642 28.8791 153.642 29.0173V29.0226C153.642 29.159 153.68 29.2805 153.757 29.3872C153.834 29.4922 153.94 29.5753 154.075 29.6365C154.209 29.6959 154.363 29.7257 154.537 29.7257ZM154.537 27.8918C154.689 27.8918 154.822 27.8655 154.938 27.8131C155.053 27.7589 155.143 27.6845 155.208 27.5901C155.273 27.4956 155.305 27.3872 155.305 27.2647V27.2595C155.305 27.1371 155.273 27.0286 155.208 26.9342C155.143 26.8397 155.053 26.7663 154.938 26.7138C154.822 26.6596 154.689 26.6325 154.537 26.6325C154.384 26.6325 154.251 26.6596 154.135 26.7138C154.02 26.7663 153.93 26.8397 153.865 26.9342C153.8 27.0286 153.768 27.1371 153.768 27.2595V27.2647C153.768 27.3872 153.8 27.4956 153.865 27.5901C153.93 27.6845 154.02 27.7589 154.135 27.8131C154.251 27.8655 154.384 27.8918 154.537 27.8918Z" fill="white"/><path d="M151.677 30.0746V26.8135H151.635L150.672 27.5114V27.0129L151.679 26.2888H152.149V30.0746H151.677Z" fill="white"/><path d="M147.327 30.1244C147.057 30.1244 146.826 30.065 146.632 29.946C146.439 29.8271 146.29 29.6592 146.186 29.4423C146.082 29.2237 146.031 28.9666 146.031 28.671V28.6683C146.031 28.3762 146.082 28.12 146.186 27.8996C146.29 27.6792 146.438 27.507 146.629 27.3828C146.82 27.2586 147.043 27.1965 147.298 27.1965C147.555 27.1965 147.775 27.256 147.959 27.3749C148.145 27.4938 148.286 27.66 148.384 27.8734C148.484 28.085 148.534 28.3316 148.534 28.6132V28.7917H146.267V28.427H148.3L148.075 28.7602V28.5791C148.075 28.357 148.041 28.1742 147.975 28.0308C147.908 27.8874 147.817 27.7807 147.699 27.7107C147.582 27.639 147.448 27.6032 147.295 27.6032C147.143 27.6032 147.007 27.6408 146.886 27.716C146.767 27.7894 146.673 27.8988 146.603 28.0439C146.533 28.1891 146.498 28.3675 146.498 28.5791V28.7602C146.498 28.9613 146.532 29.1336 146.6 29.277C146.668 29.4187 146.765 29.528 146.891 29.605C147.017 29.6802 147.166 29.7178 147.337 29.7178C147.465 29.7178 147.576 29.7003 147.671 29.6653C147.765 29.6303 147.843 29.5857 147.904 29.5315C147.965 29.4773 148.008 29.4222 148.033 29.3662L148.043 29.3426H148.5L148.494 29.3636C148.47 29.4598 148.426 29.5534 148.363 29.6443C148.302 29.7335 148.222 29.8149 148.124 29.8883C148.026 29.96 147.91 30.0177 147.775 30.0615C147.643 30.1035 147.493 30.1244 147.327 30.1244Z" fill="white"/><path d="M144.165 30.0746L143.119 27.2463H143.601L144.375 29.5761H144.417L145.191 27.2463H145.674L144.627 30.0746H144.165Z" fill="white"/><path d="M141.282 30.1244C141.103 30.1244 140.943 30.0903 140.799 30.0221C140.657 29.9539 140.545 29.8568 140.461 29.7309C140.379 29.605 140.337 29.4563 140.337 29.2849V29.2796C140.337 29.1117 140.378 28.9683 140.458 28.8494C140.539 28.7287 140.656 28.6342 140.81 28.566C140.964 28.4978 141.15 28.4576 141.368 28.4453L142.407 28.3824V28.7471L141.424 28.81C141.208 28.8223 141.051 28.8669 140.951 28.9438C140.853 29.0208 140.804 29.1292 140.804 29.2691V29.2744C140.804 29.4178 140.859 29.5298 140.967 29.6102C141.076 29.6889 141.212 29.7283 141.376 29.7283C141.532 29.7283 141.67 29.6977 141.791 29.6365C141.912 29.5735 142.006 29.4887 142.074 29.382C142.144 29.2753 142.179 29.1546 142.179 29.0199V28.1384C142.179 27.9635 142.126 27.8305 142.019 27.7396C141.914 27.6469 141.756 27.6005 141.544 27.6005C141.375 27.6005 141.236 27.6311 141.127 27.6924C141.019 27.7518 140.946 27.8367 140.909 27.9469L140.907 27.9547H140.45L140.453 27.939C140.477 27.7903 140.539 27.6609 140.636 27.5507C140.736 27.4387 140.865 27.3522 141.022 27.291C141.18 27.228 141.359 27.1965 141.56 27.1965C141.791 27.1965 141.986 27.2341 142.145 27.3093C142.306 27.3845 142.428 27.493 142.51 27.6346C142.594 27.7746 142.636 27.9425 142.636 28.1384V30.0746H142.179V29.6574H142.137C142.078 29.7571 142.005 29.842 141.919 29.9119C141.835 29.9819 141.74 30.0352 141.633 30.072C141.527 30.107 141.41 30.1244 141.282 30.1244Z" fill="white"/><path d="M138.378 30.1638C138.101 30.1638 137.86 30.1192 137.654 30.03C137.449 29.939 137.286 29.8149 137.166 29.6574C137.047 29.4983 136.978 29.3164 136.958 29.1117L136.956 29.0829H137.428L137.431 29.1117C137.443 29.2377 137.491 29.347 137.575 29.4397C137.661 29.5306 137.774 29.6015 137.916 29.6522C138.059 29.7029 138.222 29.7283 138.404 29.7283C138.575 29.7283 138.727 29.7012 138.86 29.647C138.995 29.591 139.101 29.514 139.178 29.4161C139.255 29.3181 139.293 29.2053 139.293 29.0776V29.075C139.293 28.9176 139.236 28.7855 139.12 28.6788C139.005 28.5704 138.817 28.4873 138.556 28.4296L138.136 28.3378C137.757 28.2538 137.48 28.1244 137.307 27.9495C137.136 27.7728 137.05 27.5472 137.05 27.2726V27.27C137.052 27.0601 137.109 26.8747 137.221 26.7138C137.334 26.5529 137.491 26.4269 137.69 26.336C137.891 26.245 138.122 26.1995 138.383 26.1995C138.635 26.1995 138.858 26.245 139.052 26.336C139.246 26.4252 139.4 26.5459 139.514 26.698C139.629 26.8502 139.693 27.0207 139.705 27.2096L139.708 27.2464H139.236L139.23 27.2122C139.213 27.1003 139.167 27.0015 139.094 26.9158C139.02 26.8283 138.923 26.7592 138.8 26.7085C138.678 26.6578 138.534 26.6333 138.37 26.6351C138.212 26.6351 138.071 26.6595 137.945 26.7085C137.819 26.7575 137.718 26.8283 137.643 26.921C137.57 27.012 137.533 27.1239 137.533 27.2569V27.2595C137.533 27.4099 137.589 27.5367 137.701 27.6399C137.813 27.7431 137.997 27.8227 138.254 27.8786L138.674 27.9731C138.938 28.0308 139.151 28.106 139.312 28.1987C139.473 28.2914 139.59 28.4051 139.663 28.5398C139.738 28.6727 139.776 28.8301 139.776 29.012V29.0147C139.776 29.2508 139.718 29.4546 139.603 29.626C139.487 29.7974 139.325 29.9303 139.115 30.0247C138.905 30.1174 138.659 30.1638 138.378 30.1638Z" fill="white"/><rect width="150" height="37.6119" transform="translate(22 59.1791)" fill="#F3F0FE"/><path d="M57.9451 79.2969C58.4308 79.2969 58.8879 79.3846 59.3164 79.5601C59.749 79.7356 60.1286 80.005 60.4551 80.3682C60.7856 80.7314 61.0427 81.1946 61.2264 81.7578C61.4141 82.3169 61.508 82.9842 61.508 83.7596V83.7719C61.508 84.7432 61.3631 85.5778 61.0733 86.2757C60.7877 86.9735 60.3755 87.5082 59.8368 87.8796C59.3021 88.2509 58.6593 88.4366 57.9084 88.4366C57.3656 88.4366 56.8738 88.3387 56.4331 88.1428C55.9964 87.9469 55.6332 87.6796 55.3434 87.3409C55.0577 86.998 54.8679 86.6042 54.7741 86.1594L54.7618 86.092H56.3229L56.3474 86.1471C56.429 86.3471 56.5412 86.5226 56.6841 86.6736C56.8269 86.8246 57.0024 86.9429 57.2105 87.0286C57.4187 87.1103 57.6533 87.1511 57.9145 87.1511C58.392 87.1511 58.7777 87.0144 59.0715 86.7409C59.3695 86.4634 59.5919 86.0961 59.7388 85.639C59.8898 85.1778 59.9735 84.6697 59.9898 84.1147C59.9939 84.0616 59.9959 84.0086 59.9959 83.9555C60 83.9025 60.002 83.8494 60.002 83.7964L59.7266 82.3333C59.7266 82.0068 59.649 81.7129 59.4939 81.4517C59.3389 81.1865 59.1266 80.9763 58.8573 80.8212C58.592 80.6661 58.2941 80.5886 57.9635 80.5886C57.637 80.5886 57.3391 80.6661 57.0697 80.8212C56.8004 80.9722 56.5861 81.1783 56.427 81.4395C56.2719 81.6966 56.1943 81.9843 56.1943 82.3027V82.3149C56.1943 82.6496 56.2698 82.9475 56.4208 83.2087C56.5718 83.4658 56.78 83.6678 57.0452 83.8147C57.3105 83.9617 57.6105 84.0351 57.9451 84.0351C58.2839 84.0351 58.5879 83.9637 58.8573 83.8209C59.1266 83.6739 59.3389 83.474 59.4939 83.2209C59.649 82.9638 59.7266 82.67 59.7266 82.3394V82.3333H60.1V83.8331H59.9714C59.8531 84.1025 59.6796 84.3432 59.4511 84.5555C59.2225 84.7677 58.9471 84.937 58.6247 85.0636C58.3022 85.1901 57.9411 85.2533 57.5411 85.2533C56.9738 85.2533 56.4718 85.1289 56.0352 84.8799C55.5985 84.631 55.2557 84.2881 55.0067 83.8515C54.7618 83.4148 54.6394 82.921 54.6394 82.37V82.3578C54.6394 81.7619 54.7822 81.2354 55.0679 80.7784C55.3577 80.3172 55.7495 79.956 56.2433 79.6948C56.7412 79.4295 57.3085 79.2969 57.9451 79.2969Z" fill="#272727" fill-opacity="0.7"/><path d="M49.9256 79.2969C50.4113 79.2969 50.8684 79.3846 51.2969 79.5601C51.7295 79.7356 52.109 80.005 52.4355 80.3682C52.7661 80.7314 53.0232 81.1946 53.2069 81.7578C53.3946 82.3169 53.4885 82.9842 53.4885 83.7596V83.7719C53.4885 84.7432 53.3436 85.5778 53.0538 86.2757C52.7681 86.9735 52.3559 87.5082 51.8172 87.8796C51.2826 88.2509 50.6398 88.4366 49.8889 88.4366C49.3461 88.4366 48.8543 88.3387 48.4135 88.1428C47.9769 87.9469 47.6136 87.6796 47.3239 87.3409C47.0382 86.998 46.8484 86.6042 46.7546 86.1594L46.7423 86.092H48.3034L48.3278 86.1471C48.4095 86.3471 48.5217 86.5226 48.6645 86.6736C48.8074 86.8246 48.9829 86.9429 49.191 87.0286C49.3991 87.1103 49.6338 87.1511 49.895 87.1511C50.3725 87.1511 50.7582 87.0144 51.052 86.7409C51.3499 86.4634 51.5724 86.0961 51.7193 85.639C51.8703 85.1778 51.9539 84.6697 51.9703 84.1147C51.9744 84.0616 51.9764 84.0086 51.9764 83.9555C51.9805 83.9025 51.9825 83.8494 51.9825 83.7964L51.707 82.3333C51.707 82.0068 51.6295 81.7129 51.4744 81.4517C51.3193 81.1865 51.1071 80.9763 50.8377 80.8212C50.5725 80.6661 50.2745 80.5886 49.944 80.5886C49.6175 80.5886 49.3196 80.6661 49.0502 80.8212C48.7808 80.9722 48.5666 81.1783 48.4074 81.4395C48.2523 81.6966 48.1748 81.9843 48.1748 82.3027V82.3149C48.1748 82.6496 48.2503 82.9475 48.4013 83.2087C48.5523 83.4658 48.7604 83.6678 49.0257 83.8147C49.291 83.9617 49.591 84.0351 49.9256 84.0351C50.2643 84.0351 50.5684 83.9637 50.8377 83.8209C51.1071 83.6739 51.3193 83.474 51.4744 83.2209C51.6295 82.9638 51.707 82.67 51.707 82.3394V82.3333H52.0805V83.8331H51.9519C51.8336 84.1025 51.6601 84.3432 51.4316 84.5555C51.203 84.7677 50.9275 84.937 50.6051 85.0636C50.2827 85.1901 49.9215 85.2533 49.5216 85.2533C48.9543 85.2533 48.4523 85.1289 48.0156 84.8799C47.5789 84.631 47.2361 84.2881 46.9872 83.8515C46.7423 83.4148 46.6199 82.921 46.6199 82.37V82.3578C46.6199 81.7619 46.7627 81.2354 47.0484 80.7784C47.3382 80.3172 47.7299 79.956 48.2238 79.6948C48.7217 79.4295 49.2889 79.2969 49.9256 79.2969Z" fill="#272727" fill-opacity="0.7"/><path d="M44.5323 88.3815C44.2834 88.3815 44.0732 88.2958 43.9018 88.1244C43.7304 87.953 43.6447 87.7449 43.6447 87.5C43.6447 87.251 43.7304 87.0409 43.9018 86.8694C44.0732 86.698 44.2834 86.6123 44.5323 86.6123C44.7772 86.6123 44.9853 86.698 45.1567 86.8694C45.3281 87.0409 45.4138 87.251 45.4138 87.5C45.4138 87.7449 45.3281 87.953 45.1567 88.1244C44.9853 88.2958 44.7772 88.3815 44.5323 88.3815Z" fill="#272727" fill-opacity="0.7"/><path d="M39.2492 88.4366C38.5758 88.4366 37.98 88.3285 37.4617 88.1122C36.9474 87.8959 36.5455 87.5959 36.2557 87.2123C35.9659 86.8246 35.821 86.3797 35.821 85.8778V85.8655C35.821 85.4941 35.9047 85.1554 36.072 84.8493C36.2394 84.5391 36.472 84.28 36.7699 84.0718C37.0719 83.8596 37.4168 83.7147 37.8045 83.6372V83.6005C37.3066 83.4658 36.9046 83.225 36.5985 82.8781C36.2924 82.5312 36.1394 82.1231 36.1394 81.6538V81.6415C36.1394 81.1926 36.272 80.7926 36.5373 80.4417C36.8026 80.0866 37.1699 79.807 37.6392 79.603C38.1085 79.3989 38.6452 79.2969 39.2492 79.2969C39.8573 79.2969 40.394 79.3989 40.8592 79.603C41.3286 79.807 41.6959 80.0866 41.9611 80.4417C42.2264 80.7926 42.3591 81.1926 42.3591 81.6415V81.6538C42.3591 82.1231 42.206 82.5312 41.8999 82.8781C41.5979 83.225 41.1959 83.4658 40.6939 83.6005V83.6372C41.0857 83.7147 41.4306 83.8596 41.7285 84.0718C42.0264 84.28 42.2591 84.5391 42.4264 84.8493C42.5937 85.1554 42.6774 85.4941 42.6774 85.8655V85.8778C42.6774 86.3797 42.5325 86.8246 42.2427 87.2123C41.953 87.5959 41.5489 87.8959 41.0306 88.1122C40.5164 88.3285 39.9226 88.4366 39.2492 88.4366ZM39.2492 87.2307C39.6043 87.2307 39.9165 87.1694 40.1858 87.047C40.4552 86.9205 40.6674 86.7491 40.8225 86.5328C40.9776 86.3124 41.0551 86.0614 41.0551 85.7798V85.7676C41.0551 85.4819 40.9776 85.2309 40.8225 85.0146C40.6715 84.7942 40.4593 84.6208 40.1858 84.4942C39.9165 84.3677 39.6043 84.3045 39.2492 84.3045C38.8942 84.3045 38.5799 84.3677 38.3065 84.4942C38.0371 84.6208 37.8249 84.7942 37.6698 85.0146C37.5188 85.2309 37.4433 85.4819 37.4433 85.7676V85.7798C37.4433 86.0614 37.5208 86.3124 37.6759 86.5328C37.831 86.7491 38.0432 86.9205 38.3126 87.047C38.586 87.1694 38.8982 87.2307 39.2492 87.2307ZM39.2492 83.0985C39.5553 83.0985 39.8247 83.0434 40.0573 82.9332C40.2899 82.823 40.4715 82.67 40.6021 82.4741C40.7327 82.2782 40.798 82.0537 40.798 81.8007V81.7884C40.798 81.5313 40.7327 81.3069 40.6021 81.115C40.4715 80.9192 40.2899 80.7661 40.0573 80.6559C39.8247 80.5457 39.5553 80.4906 39.2492 80.4906C38.9431 80.4906 38.6738 80.5457 38.4411 80.6559C38.2085 80.7661 38.0269 80.9192 37.8963 81.115C37.7657 81.3069 37.7004 81.5313 37.7004 81.7884V81.8007C37.7004 82.0537 37.7657 82.2782 37.8963 82.4741C38.0269 82.67 38.2085 82.823 38.4411 82.9332C38.6738 83.0434 38.9431 83.0985 39.2492 83.0985Z" fill="#272727" fill-opacity="0.7"/><path d="M31.3278 88.1551C30.7238 88.1551 30.183 88.0612 29.7055 87.8735C29.2321 87.6816 28.8505 87.4062 28.5608 87.047C28.2751 86.6879 28.1139 86.2573 28.0772 85.7553L28.071 85.6696H29.4974L29.5097 85.737C29.5505 85.9614 29.6402 86.1655 29.779 86.3491C29.9178 86.5328 30.1157 86.6777 30.3728 86.7838C30.634 86.8858 30.9646 86.9368 31.3645 86.9368C31.7686 86.9368 32.0951 86.8879 32.344 86.7899C32.597 86.6879 32.7807 86.5491 32.895 86.3736C33.0133 86.1981 33.0725 86.0002 33.0725 85.7798V85.7676C33.0725 85.4778 32.9725 85.2411 32.7725 85.0575C32.5766 84.8738 32.2012 84.7187 31.6461 84.5922L30.6544 84.3718C30.1239 84.2535 29.679 84.0923 29.3199 83.8882C28.9607 83.6842 28.6893 83.4291 28.5057 83.123C28.322 82.8128 28.2302 82.4476 28.2302 82.0272V82.015C28.2302 81.5211 28.3608 81.0926 28.622 80.7294C28.8873 80.3621 29.2525 80.0785 29.7178 79.8785C30.183 79.6785 30.7136 79.5785 31.3094 79.5785C31.9012 79.5785 32.4236 79.6744 32.8766 79.8662C33.3337 80.058 33.6969 80.3315 33.9663 80.6865C34.2397 81.0416 34.3948 81.464 34.4315 81.9537L34.4376 82.0517H33.0113L33.0052 81.9966C32.9684 81.7395 32.8766 81.5232 32.7297 81.3477C32.5828 81.1681 32.3889 81.0314 32.1481 80.9375C31.9073 80.8437 31.6278 80.7967 31.3094 80.7967C30.9585 80.7967 30.6626 80.8498 30.4218 80.9559C30.1851 81.0579 30.0055 81.1946 29.8831 81.3661C29.7647 81.5334 29.7055 81.715 29.7055 81.9109V81.917C29.7055 82.0966 29.7484 82.2578 29.8341 82.4006C29.9198 82.5435 30.0586 82.67 30.2504 82.7802C30.4463 82.8863 30.7054 82.9781 31.0278 83.0557L32.0318 83.276C32.8603 83.4556 33.4847 83.7311 33.9051 84.1025C34.3295 84.4698 34.5417 84.9799 34.5417 85.6329V85.6451C34.5417 86.1839 34.3989 86.641 34.1132 87.0164C33.8316 87.3878 33.448 87.6714 32.9623 87.8673C32.4807 88.0592 31.9359 88.1551 31.3278 88.1551ZM30.9972 89.1713V78.5623H31.6584V89.1713H30.9972Z" fill="#272727" fill-opacity="0.7"/><path d="M163.832 88.5635C163.785 88.5635 163.736 88.5625 163.685 88.5604C163.636 88.5584 163.588 88.5553 163.542 88.5512V87.9666C163.572 87.9707 163.608 87.9727 163.649 87.9727C163.69 87.9748 163.729 87.9758 163.768 87.9758C163.925 87.9758 164.051 87.9411 164.145 87.8717C164.24 87.8044 164.309 87.6952 164.35 87.5442L164.389 87.3912L163.193 84.0426H164.025L164.907 87.0055L164.699 86.6566H164.962L164.76 87.0055L165.641 84.0426H166.443L165.243 87.4616C165.148 87.7391 165.037 87.9585 164.913 88.1197C164.788 88.2809 164.638 88.3951 164.463 88.4625C164.289 88.5298 164.079 88.5635 163.832 88.5635Z" fill="#272727" fill-opacity="0.7"/><path d="M161.754 87.3881V82.7478H162.516V87.3881H161.754Z" fill="#272727" fill-opacity="0.7"/><path d="M160.003 87.3881V82.7478H160.765V87.3881H160.003Z" fill="#272727" fill-opacity="0.7"/><path d="M157.273 87.4432C157.063 87.4432 156.874 87.4023 156.707 87.3207C156.541 87.2391 156.411 87.1238 156.315 86.9748C156.221 86.8238 156.174 86.6463 156.174 86.4423V86.4361C156.174 86.2382 156.223 86.0678 156.321 85.925C156.419 85.7801 156.563 85.6668 156.752 85.5852C156.942 85.5036 157.173 85.4556 157.444 85.4414L158.681 85.3648V85.8668L157.551 85.9403C157.337 85.9525 157.179 85.9974 157.077 86.075C156.975 86.1525 156.924 86.2606 156.924 86.3994V86.4055C156.924 86.5484 156.978 86.6596 157.086 86.7392C157.196 86.8187 157.336 86.8585 157.505 86.8585C157.658 86.8585 157.795 86.8279 157.916 86.7667C158.036 86.7055 158.131 86.6228 158.2 86.5188C158.27 86.4127 158.304 86.2933 158.304 86.1607V85.1016C158.304 84.9343 158.251 84.8067 158.145 84.719C158.039 84.6292 157.882 84.5843 157.674 84.5843C157.5 84.5843 157.359 84.6149 157.248 84.6761C157.138 84.7353 157.064 84.82 157.025 84.9302L157.022 84.9424H156.303L156.306 84.9149C156.33 84.7271 156.404 84.5629 156.526 84.4221C156.648 84.2813 156.811 84.1721 157.013 84.0946C157.215 84.017 157.447 83.9783 157.711 83.9783C158 83.9783 158.245 84.0231 158.445 84.1129C158.645 84.2007 158.797 84.3292 158.901 84.4986C159.005 84.6659 159.057 84.8669 159.057 85.1016V87.3881H158.304V86.9289H158.252C158.191 87.035 158.111 87.1269 158.014 87.2044C157.918 87.282 157.807 87.3411 157.683 87.3819C157.558 87.4228 157.422 87.4432 157.273 87.4432Z" fill="#272727" fill-opacity="0.7"/><path d="M154.178 87.4554C153.842 87.4554 153.554 87.386 153.315 87.2473C153.076 87.1085 152.894 86.9085 152.767 86.6473C152.641 86.3861 152.578 86.0739 152.578 85.7107V85.7046C152.578 85.3434 152.641 85.0343 152.767 84.7771C152.894 84.52 153.076 84.3231 153.315 84.1864C153.554 84.0476 153.841 83.9783 154.175 83.9783C154.463 83.9783 154.71 84.0283 154.916 84.1282C155.124 84.2262 155.288 84.3629 155.409 84.5384C155.531 84.7118 155.607 84.9149 155.635 85.1475V85.1598H154.916L154.913 85.1506C154.878 84.9873 154.799 84.8537 154.674 84.7496C154.552 84.6455 154.386 84.5935 154.178 84.5935C154.005 84.5935 153.856 84.6374 153.731 84.7251C153.609 84.8129 153.515 84.9394 153.45 85.1047C153.385 85.2699 153.352 85.4699 153.352 85.7046V85.7107C153.352 85.9474 153.385 86.1505 153.45 86.3198C153.517 86.4871 153.612 86.6157 153.735 86.7055C153.857 86.7932 154.005 86.8371 154.178 86.8371C154.376 86.8371 154.535 86.7922 154.656 86.7024C154.778 86.6126 154.863 86.48 154.91 86.3045L154.916 86.2923L155.632 86.2892L155.629 86.3168C155.592 86.5433 155.513 86.7422 155.39 86.9136C155.27 87.085 155.109 87.2187 154.907 87.3146C154.705 87.4085 154.462 87.4554 154.178 87.4554Z" fill="#272727" fill-opacity="0.7"/><path d="M151.044 87.3881V84.0426H151.803V87.3881H151.044ZM151.427 83.4824C151.302 83.4824 151.195 83.4386 151.105 83.3508C151.015 83.2631 150.971 83.158 150.971 83.0355C150.971 82.909 151.015 82.8029 151.105 82.7172C151.195 82.6295 151.302 82.5856 151.427 82.5856C151.551 82.5856 151.657 82.6295 151.745 82.7172C151.835 82.8029 151.88 82.909 151.88 83.0355C151.88 83.158 151.835 83.2631 151.745 83.3508C151.657 83.4386 151.551 83.4824 151.427 83.4824Z" fill="#272727" fill-opacity="0.7"/><path d="M149.878 87.4034C149.494 87.4034 149.218 87.333 149.048 87.1922C148.879 87.0514 148.794 86.8208 148.794 86.5004V84.6333H148.274V84.0425H148.794V83.2222H149.569V84.0425H150.273V84.6333H149.569V86.3198C149.569 86.4851 149.603 86.6065 149.673 86.6841C149.744 86.7596 149.858 86.7973 150.016 86.7973C150.071 86.7973 150.116 86.7963 150.15 86.7943C150.187 86.7902 150.228 86.7861 150.273 86.782V87.3697C150.22 87.3799 150.158 87.3881 150.089 87.3942C150.022 87.4003 149.951 87.4034 149.878 87.4034Z" fill="#272727" fill-opacity="0.7"/><path d="M145.862 87.4432C145.652 87.4432 145.463 87.4023 145.296 87.3207C145.13 87.2391 145 87.1238 144.904 86.9748C144.81 86.8238 144.763 86.6463 144.763 86.4423V86.4361C144.763 86.2382 144.812 86.0678 144.91 85.925C145.008 85.7801 145.152 85.6668 145.342 85.5852C145.531 85.5036 145.762 85.4556 146.033 85.4414L147.27 85.3648V85.8668L146.141 85.9403C145.926 85.9525 145.768 85.9974 145.666 86.075C145.564 86.1525 145.513 86.2606 145.513 86.3994V86.4055C145.513 86.5484 145.567 86.6596 145.675 86.7392C145.786 86.8187 145.925 86.8585 146.095 86.8585C146.248 86.8585 146.384 86.8279 146.505 86.7667C146.625 86.7055 146.72 86.6228 146.789 86.5188C146.859 86.4127 146.894 86.2933 146.894 86.1607V85.1016C146.894 84.9343 146.84 84.8067 146.734 84.719C146.628 84.6292 146.471 84.5843 146.263 84.5843C146.09 84.5843 145.948 84.6149 145.838 84.6761C145.727 84.7353 145.653 84.82 145.614 84.9302L145.611 84.9424H144.892L144.895 84.9149C144.919 84.7271 144.993 84.5629 145.115 84.4221C145.238 84.2813 145.4 84.1721 145.602 84.0946C145.804 84.017 146.037 83.9783 146.3 83.9783C146.59 83.9783 146.834 84.0231 147.034 84.1129C147.234 84.2007 147.386 84.3292 147.49 84.4986C147.594 84.6659 147.647 84.8669 147.647 85.1016V87.3881H146.894V86.9289H146.842C146.78 87.035 146.701 87.1269 146.603 87.2044C146.507 87.282 146.397 87.3411 146.272 87.3819C146.148 87.4228 146.011 87.4432 145.862 87.4432Z" fill="#272727" fill-opacity="0.7"/><path d="M139.25 87.3881V84.0425H140.013V84.5629H140.065C140.136 84.3772 140.251 84.2333 140.411 84.1313C140.572 84.0293 140.763 83.9783 140.983 83.9783C141.134 83.9783 141.27 84.0027 141.39 84.0517C141.512 84.1007 141.618 84.1701 141.705 84.2599C141.793 84.3496 141.86 84.4568 141.907 84.5812H141.962C142.018 84.4609 142.094 84.3558 142.192 84.266C142.292 84.1742 142.408 84.1038 142.541 84.0548C142.676 84.0038 142.82 83.9783 142.976 83.9783C143.2 83.9783 143.392 84.0231 143.551 84.1129C143.712 84.2007 143.836 84.3272 143.921 84.4925C144.009 84.6578 144.053 84.8557 144.053 85.0863V87.3881H143.291V85.273C143.291 85.1261 143.268 85.0047 143.223 84.9088C143.181 84.8129 143.114 84.7404 143.025 84.6914C142.935 84.6425 142.822 84.618 142.685 84.618C142.552 84.618 142.437 84.6486 142.339 84.7098C142.241 84.769 142.164 84.8496 142.109 84.9516C142.056 85.0536 142.03 85.1689 142.03 85.2975V87.3881H141.268V85.2179C141.268 85.0934 141.243 84.9863 141.194 84.8965C141.147 84.8067 141.078 84.7384 140.986 84.6914C140.896 84.6425 140.789 84.618 140.665 84.618C140.54 84.618 140.428 84.6506 140.328 84.7159C140.23 84.7792 140.152 84.8669 140.095 84.9792C140.04 85.0894 140.013 85.2138 140.013 85.3526V87.3881H139.25Z" fill="#272727" fill-opacity="0.7"/><path d="M136.875 87.4554C136.543 87.4554 136.256 87.386 136.015 87.2473C135.774 87.1065 135.589 86.9065 135.458 86.6473C135.329 86.3882 135.265 86.078 135.265 85.7168V85.7107C135.265 85.3536 135.33 85.0455 135.461 84.7863C135.592 84.5251 135.776 84.3252 136.015 84.1864C136.256 84.0476 136.543 83.9783 136.875 83.9783C137.208 83.9783 137.493 84.0476 137.732 84.1864C137.973 84.3252 138.159 84.5241 138.289 84.7833C138.42 85.0424 138.485 85.3516 138.485 85.7107V85.7168C138.485 86.078 138.42 86.3882 138.289 86.6473C138.161 86.9065 137.976 87.1065 137.735 87.2473C137.497 87.386 137.21 87.4554 136.875 87.4554ZM136.875 86.8371C137.051 86.8371 137.2 86.7932 137.322 86.7055C137.447 86.6157 137.541 86.4882 137.607 86.3229C137.672 86.1556 137.705 85.9546 137.705 85.7199V85.7138C137.705 85.4771 137.672 85.2761 137.607 85.1108C137.541 84.9434 137.447 84.8159 137.322 84.7282C137.2 84.6384 137.051 84.5935 136.875 84.5935C136.7 84.5935 136.55 84.6384 136.425 84.7282C136.301 84.8159 136.206 84.9434 136.141 85.1108C136.075 85.2761 136.043 85.4771 136.043 85.7138V85.7199C136.043 85.9546 136.075 86.1556 136.141 86.3229C136.206 86.4902 136.3 86.6177 136.422 86.7055C136.547 86.7932 136.698 86.8371 136.875 86.8371Z" fill="#272727" fill-opacity="0.7"/><path d="M134.304 87.4034C133.92 87.4034 133.644 87.333 133.475 87.1922C133.305 87.0514 133.221 86.8208 133.221 86.5004V84.6333H132.7V84.0425H133.221V83.2222H133.995V84.0425H134.699V84.6333H133.995V86.3198C133.995 86.4851 134.03 86.6065 134.099 86.6841C134.17 86.7596 134.285 86.7973 134.442 86.7973C134.497 86.7973 134.542 86.7963 134.577 86.7943C134.613 86.7902 134.654 86.7861 134.699 86.782V87.3697C134.646 87.3799 134.585 87.3881 134.515 87.3942C134.448 87.4003 134.378 87.4034 134.304 87.4034Z" fill="#272727" fill-opacity="0.7"/><path d="M130.264 87.4555C130.015 87.4555 129.806 87.4075 129.636 87.3116C129.467 87.2136 129.339 87.0718 129.254 86.8861C129.168 86.6984 129.125 86.4719 129.125 86.2066V84.0426H129.887V86.0322C129.887 86.2913 129.938 86.4862 130.04 86.6168C130.142 86.7474 130.309 86.8127 130.539 86.8127C130.662 86.8127 130.77 86.7943 130.864 86.7576C130.96 86.7188 131.039 86.6637 131.102 86.5923C131.166 86.5209 131.214 86.4352 131.246 86.3352C131.279 86.2331 131.295 86.1189 131.295 85.9924V84.0426H132.057V87.3881H131.295V86.88H131.243C131.192 86.9984 131.121 87.1014 131.029 87.1892C130.937 87.2749 130.827 87.3412 130.698 87.3881C130.57 87.433 130.425 87.4555 130.264 87.4555Z" fill="#272727" fill-opacity="0.7"/><path d="M126.456 87.4432C126.246 87.4432 126.057 87.4023 125.89 87.3207C125.724 87.2391 125.594 87.1238 125.498 86.9748C125.404 86.8238 125.357 86.6463 125.357 86.4423V86.4361C125.357 86.2382 125.406 86.0678 125.504 85.925C125.602 85.7801 125.746 85.6668 125.936 85.5852C126.125 85.5036 126.356 85.4556 126.627 85.4414L127.864 85.3648V85.8668L126.735 85.9403C126.52 85.9525 126.362 85.9974 126.26 86.075C126.158 86.1525 126.107 86.2606 126.107 86.3994V86.4055C126.107 86.5484 126.161 86.6596 126.269 86.7392C126.38 86.8187 126.519 86.8585 126.689 86.8585C126.842 86.8585 126.978 86.8279 127.099 86.7667C127.219 86.7055 127.314 86.6228 127.383 86.5188C127.453 86.4127 127.488 86.2933 127.488 86.1607V85.1016C127.488 84.9343 127.434 84.8067 127.328 84.719C127.222 84.6292 127.065 84.5843 126.857 84.5843C126.684 84.5843 126.542 84.6149 126.432 84.6761C126.321 84.7353 126.247 84.82 126.208 84.9302L126.205 84.9424H125.486L125.489 84.9149C125.513 84.7271 125.587 84.5629 125.709 84.4221C125.832 84.2813 125.994 84.1721 126.196 84.0946C126.398 84.017 126.63 83.9783 126.894 83.9783C127.183 83.9783 127.428 84.0231 127.628 84.1129C127.828 84.2007 127.98 84.3292 128.084 84.4986C128.188 84.6659 128.241 84.8669 128.241 85.1016V87.3881H127.488V86.9289H127.436C127.374 87.035 127.295 87.1269 127.197 87.2044C127.101 87.282 126.991 87.3411 126.866 87.3819C126.742 87.4228 126.605 87.4432 126.456 87.4432Z" fill="#272727" fill-opacity="0.7"/><path d="M121.684 87.4554C121.401 87.4554 121.156 87.4156 120.95 87.336C120.746 87.2544 120.584 87.1422 120.466 86.9993C120.348 86.8545 120.277 86.6871 120.255 86.4974V86.4912H121.011L121.014 86.4974C121.055 86.6137 121.131 86.7085 121.243 86.782C121.356 86.8555 121.507 86.8922 121.696 86.8922C121.823 86.8922 121.934 86.8749 122.03 86.8402C122.126 86.8034 122.201 86.7534 122.257 86.6902C122.312 86.6269 122.339 86.5535 122.339 86.4698V86.4637C122.339 86.3657 122.299 86.2841 122.22 86.2188C122.14 86.1515 122.009 86.0974 121.825 86.0566L121.283 85.9342C121.071 85.8872 120.896 85.8219 120.757 85.7383C120.618 85.6546 120.514 85.5515 120.445 85.4291C120.377 85.3067 120.344 85.1638 120.344 85.0006V84.9975C120.344 84.7955 120.4 84.618 120.512 84.4649C120.626 84.3119 120.784 84.1925 120.986 84.1068C121.188 84.0211 121.421 83.9783 121.684 83.9783C121.956 83.9783 122.189 84.0191 122.385 84.1007C122.581 84.1823 122.734 84.2945 122.844 84.4374C122.954 84.5802 123.018 84.7425 123.034 84.9241V84.9302H122.318L122.315 84.921C122.286 84.8149 122.218 84.7251 122.11 84.6516C122.004 84.5761 121.861 84.5384 121.681 84.5384C121.569 84.5384 121.468 84.5557 121.378 84.5904C121.29 84.6251 121.221 84.6741 121.17 84.7374C121.121 84.7986 121.096 84.871 121.096 84.9547V84.9577C121.096 85.023 121.113 85.0802 121.145 85.1291C121.18 85.1781 121.234 85.221 121.308 85.2577C121.381 85.2944 121.478 85.3271 121.598 85.3556L122.14 85.475C122.469 85.5485 122.712 85.6577 122.869 85.8025C123.026 85.9474 123.104 86.1423 123.104 86.3872V86.3933C123.104 86.6055 123.043 86.7912 122.921 86.9504C122.798 87.1095 122.63 87.234 122.416 87.3238C122.201 87.4115 121.958 87.4554 121.684 87.4554Z" fill="#272727" fill-opacity="0.7"/><path d="M116.009 87.3881L115.1 84.0426H115.865L116.419 86.5586H116.475L117.117 84.0426H117.843L118.489 86.5586H118.544L119.098 84.0426H119.854L118.945 87.3881H118.149L117.497 84.9639H117.445L116.796 87.3881H116.009Z" fill="#272727" fill-opacity="0.7"/><path d="M113.141 87.4554C112.809 87.4554 112.523 87.385 112.284 87.2442C112.047 87.1034 111.865 86.9034 111.736 86.6443C111.608 86.3851 111.543 86.078 111.543 85.723V85.7199C111.543 85.3689 111.607 85.0628 111.733 84.8016C111.862 84.5404 112.043 84.3384 112.278 84.1956C112.513 84.0507 112.788 83.9783 113.104 83.9783C113.423 83.9783 113.696 84.0487 113.925 84.1895C114.155 84.3282 114.333 84.5231 114.457 84.7741C114.582 85.0251 114.644 85.3189 114.644 85.6556V85.9066H111.926V85.3954H114.271L113.91 85.8729V85.5699C113.91 85.3475 113.876 85.1628 113.808 85.0159C113.741 84.869 113.647 84.7588 113.527 84.6853C113.409 84.6119 113.271 84.5751 113.114 84.5751C112.957 84.5751 112.817 84.6139 112.694 84.6914C112.574 84.7669 112.478 84.8792 112.407 85.0281C112.337 85.1751 112.303 85.3556 112.303 85.5699V85.876C112.303 86.0821 112.337 86.2586 112.407 86.4055C112.476 86.5504 112.574 86.6626 112.7 86.7422C112.829 86.8198 112.981 86.8585 113.157 86.8585C113.293 86.8585 113.411 86.8391 113.509 86.8004C113.609 86.7596 113.689 86.7116 113.75 86.6565C113.812 86.5994 113.854 86.5453 113.879 86.4943L113.888 86.4729H114.61L114.604 86.5004C114.578 86.6086 114.529 86.7188 114.457 86.831C114.388 86.9412 114.293 87.0442 114.173 87.1401C114.054 87.234 113.91 87.3105 113.738 87.3697C113.567 87.4268 113.368 87.4554 113.141 87.4554Z" fill="#272727" fill-opacity="0.7"/><path d="M107.877 87.3881V84.0425H108.639V84.5568H108.691C108.77 84.3751 108.891 84.2333 109.052 84.1313C109.213 84.0293 109.414 83.9783 109.655 83.9783C110.028 83.9783 110.314 84.0864 110.512 84.3027C110.71 84.519 110.809 84.8261 110.809 85.224V87.3881H110.047V85.4016C110.047 85.1404 109.992 84.9445 109.881 84.8139C109.773 84.6833 109.604 84.618 109.373 84.618C109.222 84.618 109.092 84.6516 108.982 84.719C108.871 84.7863 108.787 84.8812 108.728 85.0036C108.668 85.1261 108.639 85.271 108.639 85.4383V87.3881H107.877Z" fill="#272727" fill-opacity="0.7"/><path d="M105.612 87.4554C105.279 87.4554 104.993 87.385 104.755 87.2442C104.518 87.1034 104.335 86.9034 104.207 86.6443C104.078 86.3851 104.014 86.078 104.014 85.723V85.7199C104.014 85.3689 104.077 85.0628 104.204 84.8016C104.332 84.5404 104.514 84.3384 104.748 84.1956C104.983 84.0507 105.259 83.9783 105.575 83.9783C105.893 83.9783 106.167 84.0487 106.395 84.1895C106.626 84.3282 106.803 84.5231 106.928 84.7741C107.052 85.0251 107.114 85.3189 107.114 85.6556V85.9066H104.396V85.3954H106.741L106.38 85.8729V85.5699C106.38 85.3475 106.346 85.1628 106.279 85.0159C106.211 84.869 106.118 84.7588 105.997 84.6853C105.879 84.6119 105.741 84.5751 105.584 84.5751C105.427 84.5751 105.287 84.6139 105.165 84.6914C105.044 84.7669 104.948 84.8792 104.877 85.0281C104.808 85.1751 104.773 85.3556 104.773 85.5699V85.876C104.773 86.0821 104.808 86.2586 104.877 86.4055C104.946 86.5504 105.044 86.6626 105.171 86.7422C105.299 86.8198 105.451 86.8585 105.627 86.8585C105.764 86.8585 105.881 86.8391 105.979 86.8004C106.079 86.7596 106.159 86.7116 106.221 86.6565C106.282 86.5994 106.325 86.5453 106.349 86.4943L106.358 86.4729H107.081L107.075 86.5004C107.048 86.6086 106.999 86.7188 106.928 86.831C106.858 86.9412 106.763 87.0442 106.643 87.1401C106.525 87.234 106.38 87.3105 106.208 87.3697C106.037 87.4268 105.838 87.4554 105.612 87.4554Z" fill="#272727" fill-opacity="0.7"/><path d="M100.102 87.3881V82.9712H101.886C102.203 82.9712 102.474 83.0274 102.701 83.1396C102.927 83.2518 103.101 83.41 103.221 83.614C103.341 83.8181 103.402 84.0609 103.402 84.3425V84.3486C103.402 84.6404 103.328 84.8996 103.181 85.1261C103.036 85.3506 102.833 85.5097 102.572 85.6036L103.536 87.3881H102.636L101.767 85.726C101.763 85.726 101.757 85.726 101.749 85.726C101.741 85.726 101.733 85.726 101.727 85.726H100.892V87.3881H100.102ZM100.892 85.12H101.804C102.055 85.12 102.25 85.0536 102.388 84.921C102.527 84.7884 102.597 84.6037 102.597 84.367V84.3609C102.597 84.1303 102.524 83.9477 102.379 83.813C102.236 83.6763 102.039 83.6079 101.788 83.6079H100.892V85.12Z" fill="#272727" fill-opacity="0.7"/><path d="M49.543 71.5485C49.4961 71.5485 49.4471 71.5475 49.3961 71.5454C49.3471 71.5434 49.2992 71.5403 49.2523 71.5363V70.9516C49.2829 70.9557 49.3186 70.9578 49.3594 70.9578C49.4002 70.9598 49.44 70.9608 49.4788 70.9608C49.6359 70.9608 49.7614 70.9261 49.8553 70.8567C49.9512 70.7894 50.0195 70.6802 50.0603 70.5292L50.1001 70.3762L48.9033 67.0276H49.7359L50.6174 69.9905L50.4093 69.6416H50.6725L50.4705 69.9905L51.352 67.0276H52.154L50.9541 70.4466C50.8582 70.7241 50.748 70.9435 50.6235 71.1047C50.4991 71.2659 50.3491 71.3802 50.1736 71.4475C50.0001 71.5148 49.79 71.5485 49.543 71.5485Z" fill="#272727" fill-opacity="0.7"/><path d="M47.4646 70.3732V65.7329H48.2268V70.3732H47.4646Z" fill="#272727" fill-opacity="0.7"/><path d="M43.6018 70.3732V65.7329H44.364V67.5419H44.416C44.4956 67.3603 44.616 67.2185 44.7772 67.1164C44.9384 67.0144 45.1394 66.9634 45.3802 66.9634C45.6291 66.9634 45.8393 67.0124 46.0107 67.1103C46.1821 67.2062 46.3117 67.347 46.3994 67.5327C46.4892 67.7184 46.5341 67.9439 46.5341 68.2092V70.3732H45.772V68.3867C45.772 68.1255 45.7169 67.9296 45.6067 67.799C45.4985 67.6684 45.3292 67.6031 45.0986 67.6031C44.9476 67.6031 44.817 67.6368 44.7068 67.7041C44.5966 67.7714 44.5119 67.8663 44.4527 67.9888C44.3936 68.1112 44.364 68.2561 44.364 68.4234V70.3732H43.6018Z" fill="#272727" fill-opacity="0.7"/><path d="M42.4142 70.3884C42.0306 70.3884 41.7541 70.318 41.5847 70.1772C41.4153 70.0364 41.3307 69.8059 41.3307 69.4855V67.6184H40.8103V67.0276H41.3307V66.2073H42.105V67.0276H42.809V67.6184H42.105V69.3049C42.105 69.4702 42.1397 69.5916 42.2091 69.6691C42.2805 69.7446 42.3948 69.7824 42.5519 69.7824C42.607 69.7824 42.6519 69.7814 42.6866 69.7793C42.7233 69.7752 42.7642 69.7712 42.809 69.7671V70.3548C42.756 70.365 42.6948 70.3731 42.6254 70.3793C42.5581 70.3854 42.4877 70.3884 42.4142 70.3884Z" fill="#272727" fill-opacity="0.7"/><path d="M37.2659 70.3731V67.0276H38.028V67.5418H38.0801C38.1596 67.3602 38.28 67.2184 38.4412 67.1164C38.6024 67.0143 38.8034 66.9633 39.0442 66.9633C39.4177 66.9633 39.7033 67.0715 39.9013 67.2878C40.0992 67.5041 40.1982 67.8112 40.1982 68.2091V70.3731H39.436V68.3866C39.436 68.1254 39.3809 67.9295 39.2707 67.7989C39.1626 67.6683 38.9932 67.603 38.7626 67.603C38.6116 67.603 38.481 67.6367 38.3708 67.704C38.2607 67.7714 38.176 67.8663 38.1168 67.9887C38.0576 68.1111 38.028 68.256 38.028 68.4234V70.3731H37.2659Z" fill="#272727" fill-opacity="0.7"/><path d="M34.8907 70.4405C34.558 70.4405 34.2713 70.3711 34.0306 70.2323C33.7898 70.0915 33.6041 69.8915 33.4735 69.6324C33.3449 69.3732 33.2806 69.0631 33.2806 68.7019V68.6958C33.2806 68.3387 33.3459 68.0305 33.4765 67.7714C33.6071 67.5102 33.7918 67.3102 34.0306 67.1715C34.2713 67.0327 34.558 66.9633 34.8907 66.9633C35.2233 66.9633 35.509 67.0327 35.7477 67.1715C35.9885 67.3102 36.1742 67.5092 36.3048 67.7683C36.4354 68.0275 36.5007 68.3366 36.5007 68.6958V68.7019C36.5007 69.0631 36.4354 69.3732 36.3048 69.6324C36.1762 69.8915 35.9915 70.0915 35.7508 70.2323C35.512 70.3711 35.2253 70.4405 34.8907 70.4405ZM34.8907 69.8222C35.0661 69.8222 35.2151 69.7783 35.3375 69.6906C35.462 69.6008 35.5569 69.4732 35.6222 69.3079C35.6875 69.1406 35.7202 68.9396 35.7202 68.705V68.6988C35.7202 68.4621 35.6875 68.2611 35.6222 68.0958C35.5569 67.9285 35.462 67.801 35.3375 67.7132C35.2151 67.6234 35.0661 67.5786 34.8907 67.5786C34.7152 67.5786 34.5652 67.6234 34.4407 67.7132C34.3162 67.801 34.2213 67.9285 34.156 68.0958C34.0907 68.2611 34.0581 68.4621 34.0581 68.6988V68.705C34.0581 68.9396 34.0907 69.1406 34.156 69.3079C34.2213 69.4753 34.3152 69.6028 34.4376 69.6906C34.5621 69.7783 34.7131 69.8222 34.8907 69.8222Z" fill="#272727" fill-opacity="0.7"/><path d="M27.918 70.3731V65.9563H28.824L30.1524 69.3569H30.2044L31.5298 65.9563H32.4358V70.3731H31.7257V67.2327H31.34L32.1236 66.0787L30.4462 70.3731H29.9075L28.2332 66.0787L29.0168 67.2327H28.6281V70.3731H27.918Z" fill="#272727" fill-opacity="0.7"/></g><defs><filter id="filter0_d_1836_10119" x="0" y="0" width="194" height="121" filterUnits="userSpaceOnUse" color-interpolation-filters="sRGB"><feFlood flood-opacity="0" result="BackgroundImageFix"/><feColorMatrix in="SourceAlpha" type="matrix" values="0 0 0 0 0 0 0 0 0 0 0 0 0 0 0 0 0 0 127 0" result="hardAlpha"/><feOffset dy="4"/><feGaussianBlur stdDeviation="6"/><feComposite in2="hardAlpha" operator="out"/><feColorMatrix type="matrix" values="0 0 0 0 0.0590918 0 0 0 0 0.105306 0 0 0 0 0.213141 0 0 0 0.06 0"/><feBlend mode="normal" in2="BackgroundImageFix" result="effect1_dropShadow_1836_10119"/><feBlend mode="normal" in="SourceGraphic" in2="effect1_dropShadow_1836_10119" result="shape"/></filter></defs></svg>